<svg width="1130" height="628" viewBox="0 0 1130 628" fill="none" xmlns="http://www.w3.org/2000/svg">
<path d="M1018.14 90.6707H442.822V553.042H1018.14V90.6707Z" fill="#FFFCD7"/>
<path d="M442.822 90.6707H122.969V553.042H442.822V90.6707Z" fill="white"/>
<path d="M64.8369 35.4946C64.8117 36.2231 64.7992 37.2279 64.6987 38.4085C65.0001 40.8075 66.2054 49.2101 73.2993 52.3627C72.8724 52.7018 72.433 53.2042 72.2195 53.6313C67.1973 51.2825 65.0503 46.3088 64.0835 42.5785C63.1544 46.5977 61.0325 51.1067 56.1233 53.7192C55.8596 53.3173 55.3825 52.8525 54.918 52.5511C63.2549 48.3309 63.1419 38.5593 63.1921 35.5072H64.8369V35.4946Z" fill="black"/>
<path d="M91.756 40.7195C91.3919 43.8093 90.7516 46.3464 89.722 48.4188C90.626 50.2274 91.8565 51.6718 93.4385 52.5385C93.1371 52.8022 92.6977 53.3046 92.4717 53.6814C91.0027 52.7771 89.8601 51.4081 88.9561 49.7376C87.8512 51.4206 86.3697 52.752 84.3733 53.7945C84.2478 53.5307 83.9339 53.0911 83.6954 52.7897L83.2182 53.2293C82.5528 52.8525 81.6488 52.3877 80.6444 51.9858C79.5018 52.6515 77.857 53.2544 75.5217 53.7568C75.4212 53.4553 75.1199 53.0157 74.8813 52.752C76.7898 52.3752 78.2211 51.9105 79.2632 51.4081C78.3216 51.0438 77.3297 50.7047 76.4131 50.4661C76.7898 49.9888 77.2167 49.3357 77.6436 48.6951H75.0571V47.6149H78.2713C78.5099 47.1753 78.7108 46.7483 78.9117 46.3338H75.936V43.0933H79.7152V42.2141H76.4257V39.9408H75.0446V38.8104H76.4257V36.7129H79.7152V35.4066H80.8955V36.7129H84.411V38.8104H85.5536V39.9408H84.411V42.2141H80.8955V43.0933H84.8128V44.1609C86.1437 41.9629 87.0853 38.6973 87.6503 35.4192L88.9561 35.6829C88.7176 36.9138 88.4162 38.1824 88.0898 39.3881H93.3003V40.7321H91.7686L91.756 40.7195ZM77.2041 45.3667H79.6901V44.0353H77.2041V45.3667ZM77.5682 37.7679V38.8732H79.7027V37.7679H77.5682ZM79.7027 41.1717V39.8905H77.5682V41.1717H79.7027ZM78.9996 48.7077C78.7359 49.1347 78.4974 49.5366 78.2588 49.9134C78.987 50.1395 79.7403 50.3907 80.4937 50.6921C81.3726 50.0516 81.7995 49.3482 82.0003 48.7077H78.9996ZM84.1473 52.4129C85.993 51.4081 87.3616 50.1018 88.3032 48.3685C87.6629 46.7985 87.1984 45.015 86.8217 43.0557C86.4827 43.8972 86.1186 44.6382 85.7168 45.2913C85.541 45.0904 85.1141 44.7261 84.8128 44.4624V46.3338H80.2677C80.0668 46.7609 79.8408 47.1753 79.6273 47.6149H82.1636V46.8111H83.394V47.6149H85.4029V48.6951H83.2685C83.1052 49.5241 82.6909 50.3781 81.7618 51.1945C82.6909 51.5965 83.5447 52.0235 84.1976 52.3626L84.1599 52.4003L84.1473 52.4129ZM80.8955 37.7805V38.8857H83.1806V37.7805H80.8955ZM83.1806 41.1842V39.9031H80.8955V41.1842H83.1806ZM80.8955 44.0605V45.3918H83.4819V44.0605H80.8955ZM87.688 40.7446L87.5876 40.9833C87.914 43.131 88.366 45.1281 89.0566 46.8739C89.7346 45.1406 90.1866 43.131 90.4377 40.7446H87.688Z" fill="black"/>
<path d="M78.5605 82.1424H74.0781V80.8738H78.5605V79.6304H80.0295V80.8738H82.4778V82.1424H80.0295V83.3858H78.5605V82.1424ZM90.8021 96.4733C90.8021 97.1767 90.6766 97.5158 90.1618 97.7545C89.6596 97.9805 88.8309 97.9805 87.5502 97.9805C87.4749 97.6037 87.2866 97.1139 87.1108 96.7496C88.0525 96.7748 88.8183 96.7748 89.0443 96.7496C89.2829 96.7245 89.3708 96.6743 89.3708 96.4482V92.2281H83.5576V94.3256L86.0687 94.2251C85.7925 93.7604 85.4911 93.3208 85.1898 92.944L86.2947 92.5797C87.1736 93.6599 88.0776 95.1294 88.3663 96.1593L87.1987 96.5864C87.0982 96.2221 86.935 95.8453 86.7216 95.4057C83.4822 95.6318 80.1927 95.7825 77.9201 95.9081L77.7946 94.6019C78.9622 94.5642 80.494 94.5014 82.1388 94.4386V92.2406H76.5265V97.9931H75.0826V92.2406H74.279V90.9972H75.0826V90.2687H76.5265V90.9972H82.1388V89.7663H76.3758V83.6747H89.4587V89.7663H83.5701V90.9972H90.8272V96.4859L90.8021 96.4733ZM77.782 86.1992H82.1262V84.7549H77.782V86.1992ZM82.1262 88.6736V87.2292H77.782V88.6736H82.1262ZM91.6057 80.8738V82.1424H87.048V83.4109H85.579V82.1424H83.2311V80.8738H85.579V79.6304H87.048V80.8738H91.6057ZM87.9646 84.7549H83.545V86.1992H87.9646V84.7549ZM87.9646 87.2292H83.545V88.6736H87.9646V87.2292Z" fill="black"/>
<path d="M109.974 586.426C110.903 586.426 111.506 586.301 111.857 585.987C112.234 585.648 112.385 585.384 112.498 585.158C112.636 585.095 112.862 585.158 112.937 585.283C112.674 586.288 112.309 587.331 112.008 587.733C111.179 587.695 110.338 587.67 109.422 587.67H106.509C105.379 587.67 104.726 587.695 104.274 587.733C104.236 587.708 104.136 587.632 104.136 587.469C104.136 587.406 104.236 587.331 104.362 587.243C105.291 586.64 105.944 585.962 107.438 584.354C108.769 582.922 110.313 580.975 110.313 578.828C110.313 576.994 109.434 575.889 107.802 575.889C106.597 575.889 105.73 576.717 105.19 577.898C105.015 577.999 104.713 577.898 104.713 577.634C105.354 575.863 106.948 574.796 108.756 574.796C110.765 574.796 112.071 576.14 112.071 578.074C112.071 579.317 111.493 580.686 109.924 582.495L108.693 583.902C107.049 585.786 106.86 586.112 106.86 586.238C106.86 586.376 106.961 586.414 107.488 586.414H109.974V586.426Z" fill="black"/>
<path d="M122.856 581.377C122.856 584.53 121.626 587.946 118.7 587.946C115.775 587.946 114.544 584.53 114.544 581.377C114.544 578.225 115.775 574.808 118.7 574.808C121.626 574.808 122.856 578.35 122.856 581.377ZM116.327 581.377C116.327 583.261 116.491 587.343 118.7 587.343C120.91 587.343 121.073 583.261 121.073 581.377C121.073 579.493 120.91 575.411 118.7 575.411C116.491 575.411 116.327 579.493 116.327 581.377Z" fill="black"/>
<path d="M132.901 581.377C132.901 584.53 131.67 587.946 128.745 587.946C125.819 587.946 124.589 584.53 124.589 581.377C124.589 578.225 125.819 574.808 128.745 574.808C131.67 574.808 132.901 578.35 132.901 581.377ZM126.372 581.377C126.372 583.261 126.535 587.343 128.745 587.343C130.955 587.343 131.118 583.261 131.118 581.377C131.118 579.493 130.955 575.411 128.745 575.411C126.535 575.411 126.372 579.493 126.372 581.377Z" fill="black"/>
<path d="M142.945 581.377C142.945 584.53 141.715 587.946 138.789 587.946C135.864 587.946 134.633 584.53 134.633 581.377C134.633 578.225 135.864 574.808 138.789 574.808C141.715 574.808 142.945 578.35 142.945 581.377ZM136.416 581.377C136.416 583.261 136.579 587.343 138.789 587.343C140.999 587.343 141.162 583.261 141.162 581.377C141.162 579.493 140.999 575.411 138.789 575.411C136.579 575.411 136.416 579.493 136.416 581.377Z" fill="black"/>
<path d="M237.777 586.426C238.706 586.426 239.309 586.301 239.661 585.987C240.037 585.648 240.188 585.384 240.301 585.158C240.439 585.095 240.665 585.158 240.74 585.283C240.477 586.288 240.113 587.331 239.811 587.733C238.983 587.695 238.141 587.67 237.225 587.67H234.312C233.182 587.67 232.529 587.695 232.077 587.733C232.039 587.708 231.939 587.632 231.939 587.469C231.939 587.406 232.039 587.331 232.165 587.243C233.094 586.64 233.747 585.962 235.241 584.354C236.572 582.922 238.116 580.975 238.116 578.828C238.116 576.994 237.237 575.889 235.605 575.889C234.4 575.889 233.534 576.717 232.994 577.898C232.818 577.999 232.517 577.898 232.517 577.634C233.157 575.863 234.751 574.796 236.559 574.796C238.568 574.796 239.874 576.14 239.874 578.074C239.874 579.317 239.297 580.686 237.727 582.495L236.497 583.902C234.852 585.786 234.664 586.112 234.664 586.238C234.664 586.376 234.764 586.414 235.291 586.414H237.777V586.426Z" fill="black"/>
<path d="M250.647 581.377C250.647 584.53 249.416 587.946 246.491 587.946C243.565 587.946 242.335 584.53 242.335 581.377C242.335 578.225 243.565 574.808 246.491 574.808C249.416 574.808 250.647 578.35 250.647 581.377ZM244.118 581.377C244.118 583.261 244.281 587.343 246.491 587.343C248.701 587.343 248.864 583.261 248.864 581.377C248.864 579.493 248.701 575.411 246.491 575.411C244.281 575.411 244.118 579.493 244.118 581.377Z" fill="black"/>
<path d="M255.932 578.388C255.932 577.019 255.87 576.579 254.966 576.504L253.999 576.429C253.836 576.353 253.823 576.064 253.974 575.989C255.656 575.688 256.774 575.16 257.288 574.821C257.364 574.821 257.452 574.859 257.489 574.921C257.452 575.286 257.414 576.29 257.414 577.433V585.233C257.414 586.778 257.452 587.117 258.28 587.18L259.122 587.243C259.247 587.368 259.222 587.682 259.084 587.745C258.305 587.707 257.401 587.682 256.698 587.682C255.995 587.682 255.066 587.707 254.288 587.745C254.15 587.682 254.124 587.368 254.25 587.243L255.079 587.18C255.92 587.117 255.945 586.778 255.945 585.233V578.401L255.932 578.388Z" fill="black"/>
<path d="M270.736 581.377C270.736 584.53 269.505 587.946 266.58 587.946C263.654 587.946 262.424 584.53 262.424 581.377C262.424 578.225 263.654 574.808 266.58 574.808C269.505 574.808 270.736 578.35 270.736 581.377ZM264.207 581.377C264.207 583.261 264.37 587.343 266.58 587.343C268.79 587.343 268.953 583.261 268.953 581.377C268.953 579.493 268.79 575.411 266.58 575.411C264.37 575.411 264.207 579.493 264.207 581.377Z" fill="black"/>
<path d="M368.041 586.426C368.971 586.426 369.573 586.301 369.925 585.987C370.301 585.648 370.452 585.384 370.565 585.158C370.703 585.095 370.929 585.158 371.005 585.283C370.741 586.288 370.377 587.331 370.075 587.733C369.247 587.695 368.406 587.67 367.489 587.67H364.576C363.446 587.67 362.793 587.695 362.341 587.733C362.304 587.708 362.203 587.632 362.203 587.469C362.203 587.406 362.304 587.331 362.429 587.243C363.358 586.64 364.011 585.962 365.505 584.354C366.836 582.922 368.38 580.975 368.38 578.828C368.38 576.994 367.502 575.889 365.869 575.889C364.664 575.889 363.798 576.717 363.258 577.898C363.082 577.999 362.781 577.898 362.781 577.634C363.421 575.863 365.016 574.796 366.824 574.796C368.832 574.796 370.138 576.14 370.138 578.074C370.138 579.317 369.561 580.686 367.991 582.495L366.761 583.902C365.116 585.786 364.928 586.112 364.928 586.238C364.928 586.376 365.028 586.414 365.555 586.414H368.041V586.426Z" fill="black"/>
<path d="M380.924 581.377C380.924 584.53 379.693 587.946 376.768 587.946C373.842 587.946 372.612 584.53 372.612 581.377C372.612 578.225 373.842 574.808 376.768 574.808C379.693 574.808 380.924 578.35 380.924 581.377ZM374.395 581.377C374.395 583.261 374.558 587.343 376.768 587.343C378.977 587.343 379.141 583.261 379.141 581.377C379.141 579.493 378.977 575.411 376.768 575.411C374.558 575.411 374.395 579.493 374.395 581.377Z" fill="black"/>
<path d="M388.13 586.426C389.059 586.426 389.662 586.301 390.014 585.987C390.39 585.648 390.541 585.384 390.654 585.158C390.792 585.095 391.018 585.158 391.093 585.283C390.83 586.288 390.466 587.331 390.164 587.733C389.336 587.695 388.494 587.67 387.578 587.67H384.665C383.535 587.67 382.882 587.695 382.43 587.733C382.392 587.708 382.292 587.632 382.292 587.469C382.292 587.406 382.392 587.331 382.518 587.243C383.447 586.64 384.1 585.962 385.594 584.354C386.925 582.922 388.469 580.975 388.469 578.828C388.469 576.994 387.59 575.889 385.958 575.889C384.753 575.889 383.887 576.717 383.347 577.898C383.171 577.999 382.87 577.898 382.87 577.634C383.51 575.863 385.104 574.796 386.912 574.796C388.921 574.796 390.227 576.14 390.227 578.074C390.227 579.317 389.65 580.686 388.08 582.495L386.85 583.902C385.205 585.786 385.017 586.112 385.017 586.238C385.017 586.376 385.117 586.414 385.644 586.414H388.13V586.426Z" fill="black"/>
<path d="M401.012 581.377C401.012 584.53 399.782 587.946 396.857 587.946C393.931 587.946 392.701 584.53 392.701 581.377C392.701 578.225 393.931 574.808 396.857 574.808C399.782 574.808 401.012 578.35 401.012 581.377ZM394.484 581.377C394.484 583.261 394.647 587.343 396.857 587.343C399.066 587.343 399.23 583.261 399.23 581.377C399.23 579.493 399.066 575.411 396.857 575.411C394.647 575.411 394.484 579.493 394.484 581.377Z" fill="black"/>
<path d="M494.965 586.426C495.894 586.426 496.497 586.301 496.849 585.987C497.225 585.648 497.376 585.384 497.489 585.158C497.627 585.095 497.853 585.158 497.928 585.283C497.665 586.288 497.301 587.331 496.999 587.733C496.171 587.695 495.329 587.67 494.413 587.67H491.5C490.37 587.67 489.717 587.695 489.265 587.733C489.227 587.708 489.127 587.632 489.127 587.469C489.127 587.406 489.227 587.331 489.353 587.243C490.282 586.64 490.935 585.962 492.429 584.354C493.76 582.922 495.304 580.975 495.304 578.828C495.304 576.994 494.425 575.889 492.793 575.889C491.588 575.889 490.722 576.717 490.182 577.898C490.006 577.999 489.704 577.898 489.704 577.634C490.345 575.863 491.939 574.796 493.747 574.796C495.756 574.796 497.062 576.14 497.062 578.074C497.062 579.317 496.484 580.686 494.915 582.495L493.685 583.902C492.04 585.786 491.851 586.112 491.851 586.238C491.851 586.376 491.952 586.414 492.479 586.414H494.965V586.426Z" fill="black"/>
<path d="M507.847 581.377C507.847 584.53 506.617 587.946 503.692 587.946C500.766 587.946 499.536 584.53 499.536 581.377C499.536 578.225 500.766 574.808 503.692 574.808C506.617 574.808 507.847 578.35 507.847 581.377ZM501.319 581.377C501.319 583.261 501.482 587.343 503.692 587.343C505.901 587.343 506.065 583.261 506.065 581.377C506.065 579.493 505.901 575.411 503.692 575.411C501.482 575.411 501.319 579.493 501.319 581.377Z" fill="black"/>
<path d="M509.53 587.557C509.53 587.155 509.831 586.778 510.308 586.778C510.785 586.778 511.049 587.18 511.275 587.507C511.539 587.883 511.777 588.109 512.342 588.109C513.648 588.109 515.946 586.401 515.946 584.166C515.946 582.395 515.104 580.887 513.359 580.887C512.38 580.887 511.652 581.365 511.187 581.867C510.861 581.829 510.622 581.541 510.748 581.164C511.514 580.825 513.158 580.084 513.962 579.418C514.401 579.054 515.029 578.451 515.029 577.484C515.029 576.416 514.288 575.75 513.384 575.75C512.204 575.75 511.3 576.491 510.672 577.521C510.471 577.559 510.245 577.446 510.245 577.245C510.873 575.838 512.342 574.808 513.887 574.808C515.531 574.808 516.674 575.688 516.674 577.119C516.674 577.948 516.347 578.727 514.527 579.694C514.426 579.895 514.527 579.971 514.765 579.996C516.297 580.121 517.678 581.176 517.678 583.085C517.678 584.53 516.975 585.974 515.732 587.067C514.251 588.373 512.518 588.8 511.526 588.8C510.622 588.8 509.542 588.499 509.542 587.557H509.53Z" fill="black"/>
<path d="M527.936 581.377C527.936 584.53 526.706 587.946 523.78 587.946C520.855 587.946 519.625 584.53 519.625 581.377C519.625 578.225 520.855 574.808 523.78 574.808C526.706 574.808 527.936 578.35 527.936 581.377ZM521.407 581.377C521.407 583.261 521.571 587.343 523.78 587.343C525.99 587.343 526.153 583.261 526.153 581.377C526.153 579.493 525.99 575.411 523.78 575.411C521.571 575.411 521.407 579.493 521.407 581.377Z" fill="black"/>
<path d="M622.455 586.426C623.384 586.426 623.986 586.301 624.338 585.987C624.715 585.648 624.865 585.384 624.978 585.158C625.116 585.095 625.342 585.158 625.418 585.283C625.154 586.288 624.79 587.331 624.489 587.733C623.66 587.695 622.819 587.67 621.902 587.67H618.989C617.859 587.67 617.206 587.695 616.754 587.733C616.717 587.708 616.616 587.632 616.616 587.469C616.616 587.406 616.717 587.331 616.842 587.243C617.771 586.64 618.424 585.962 619.918 584.354C621.249 582.922 622.794 580.975 622.794 578.828C622.794 576.994 621.915 575.889 620.282 575.889C619.077 575.889 618.211 576.717 617.671 577.898C617.495 577.999 617.194 577.898 617.194 577.634C617.834 575.863 619.429 574.796 621.237 574.796C623.246 574.796 624.551 576.14 624.551 578.074C624.551 579.317 623.974 580.686 622.404 582.495L621.174 583.902C619.529 585.786 619.341 586.112 619.341 586.238C619.341 586.376 619.441 586.414 619.969 586.414H622.455V586.426Z" fill="black"/>
<path d="M635.337 581.377C635.337 584.53 634.106 587.946 631.181 587.946C628.255 587.946 627.025 584.53 627.025 581.377C627.025 578.225 628.255 574.808 631.181 574.808C634.106 574.808 635.337 578.35 635.337 581.377ZM628.808 581.377C628.808 583.261 628.971 587.343 631.181 587.343C633.391 587.343 633.554 583.261 633.554 581.377C633.554 579.493 633.391 575.411 631.181 575.411C628.971 575.411 628.808 579.493 628.808 581.377Z" fill="black"/>
<path d="M636.881 583.877C636.705 583.877 636.604 583.739 636.604 583.538C636.604 583.299 636.68 583.173 636.969 582.771L643.422 573.766C643.56 573.59 643.686 573.49 643.887 573.49H644.226C644.427 573.49 644.527 573.552 644.527 573.653C644.527 573.716 644.489 573.791 644.427 573.879L638.036 582.721C637.797 583.048 638.073 583.048 638.601 583.048H641.715C642.192 583.048 642.28 582.985 642.28 582.52V578.815C642.28 578.677 642.305 578.514 642.455 578.413C642.694 578.25 643.159 578.087 643.485 578.074C643.761 578.049 643.761 578.3 643.761 578.702V582.583C643.761 582.96 643.824 583.048 644.163 583.048H645.444C645.619 583.186 645.619 583.713 645.444 583.889H644.364C643.862 583.889 643.761 583.914 643.761 584.329V585.233C643.761 586.816 643.799 587.079 644.627 587.18L645.155 587.243C645.28 587.368 645.255 587.682 645.117 587.745C644.389 587.707 643.648 587.682 643.02 587.682C642.292 587.682 641.388 587.707 640.509 587.745C640.371 587.682 640.346 587.368 640.472 587.243L641.376 587.18C642.217 587.117 642.28 586.778 642.28 585.233V584.392C642.28 583.914 642.217 583.889 641.702 583.889H636.893L636.881 583.877Z" fill="black"/>
<path d="M655.426 581.377C655.426 584.53 654.195 587.946 651.27 587.946C648.344 587.946 647.114 584.53 647.114 581.377C647.114 578.225 648.344 574.808 651.27 574.808C654.195 574.808 655.426 578.35 655.426 581.377ZM648.897 581.377C648.897 583.261 649.06 587.343 651.27 587.343C653.479 587.343 653.643 583.261 653.643 581.377C653.643 579.493 653.479 575.411 651.27 575.411C649.06 575.411 648.897 579.493 648.897 581.377Z" fill="black"/>
<path d="M750.496 586.426C751.425 586.426 752.028 586.301 752.379 585.987C752.756 585.648 752.907 585.384 753.02 585.158C753.158 585.095 753.384 585.158 753.459 585.283C753.195 586.288 752.831 587.331 752.53 587.733C751.701 587.695 750.86 587.67 749.944 587.67H747.031C745.901 587.67 745.248 587.695 744.796 587.733C744.758 587.708 744.658 587.632 744.658 587.469C744.658 587.406 744.758 587.331 744.884 587.243C745.813 586.64 746.466 585.962 747.96 584.354C749.291 582.922 750.835 580.975 750.835 578.828C750.835 576.994 749.956 575.889 748.324 575.889C747.119 575.889 746.252 576.717 745.712 577.898C745.537 577.999 745.235 577.898 745.235 577.634C745.876 575.863 747.47 574.796 749.278 574.796C751.287 574.796 752.593 576.14 752.593 578.074C752.593 579.317 752.015 580.686 750.446 582.495L749.215 583.902C747.571 585.786 747.382 586.112 747.382 586.238C747.382 586.376 747.483 586.414 748.01 586.414H750.496V586.426Z" fill="black"/>
<path d="M763.378 581.377C763.378 584.53 762.148 587.946 759.222 587.946C756.297 587.946 755.066 584.53 755.066 581.377C755.066 578.225 756.297 574.808 759.222 574.808C762.148 574.808 763.378 578.35 763.378 581.377ZM756.849 581.377C756.849 583.261 757.013 587.343 759.222 587.343C761.432 587.343 761.595 583.261 761.595 581.377C761.595 579.493 761.432 575.411 759.222 575.411C757.013 575.411 756.849 579.493 756.849 581.377Z" fill="black"/>
<path d="M766.868 575.75C766.969 575.424 767.069 575.248 767.396 575.21L772.242 574.532C772.368 574.507 772.418 574.633 772.418 574.708C772.28 575.148 771.978 575.65 771.69 575.951L767.885 576.491C767.421 576.554 767.32 576.655 767.207 577.032L766.843 578.237C766.768 578.476 766.843 578.576 767.119 578.602L767.546 578.639C770.057 578.878 772.87 579.983 772.87 583.035C772.87 586.514 768.865 588.926 765.676 589.026C765.45 588.951 765.437 588.549 765.613 588.398C768.727 588.222 771.376 586.313 771.376 583.55C771.376 580.787 768.337 579.971 765.964 579.933C765.663 579.933 765.638 579.77 765.789 579.305L766.856 575.725L766.868 575.75Z" fill="black"/>
<path d="M783.467 581.377C783.467 584.53 782.237 587.946 779.311 587.946C776.386 587.946 775.155 584.53 775.155 581.377C775.155 578.225 776.386 574.808 779.311 574.808C782.237 574.808 783.467 578.35 783.467 581.377ZM776.938 581.377C776.938 583.261 777.101 587.343 779.311 587.343C781.521 587.343 781.684 583.261 781.684 581.377C781.684 579.493 781.521 575.411 779.311 575.411C777.101 575.411 776.938 579.493 776.938 581.377Z" fill="black"/>
<path d="M878.537 586.426C879.466 586.426 880.069 586.301 880.421 585.987C880.797 585.648 880.948 585.384 881.061 585.158C881.199 585.095 881.425 585.158 881.501 585.283C881.237 586.288 880.873 587.331 880.571 587.733C879.743 587.695 878.902 587.67 877.972 587.67H875.06C873.93 587.67 873.277 587.695 872.825 587.733C872.787 587.708 872.687 587.632 872.687 587.469C872.687 587.406 872.787 587.331 872.913 587.243C873.842 586.64 874.495 585.962 875.989 584.354C877.32 582.922 878.864 580.975 878.864 578.828C878.864 576.994 877.985 575.889 876.353 575.889C875.147 575.889 874.281 576.717 873.741 577.898C873.565 577.999 873.264 577.898 873.264 577.634C873.904 575.863 875.499 574.796 877.307 574.796C879.316 574.796 880.622 576.14 880.622 578.074C880.622 579.317 880.044 580.686 878.475 582.495L877.244 583.902C875.599 585.786 875.411 586.112 875.411 586.238C875.411 586.376 875.512 586.414 876.039 586.414H878.537V586.426Z" fill="black"/>
<path d="M891.407 581.377C891.407 584.53 890.177 587.946 887.251 587.946C884.326 587.946 883.095 584.53 883.095 581.377C883.095 578.225 884.326 574.808 887.251 574.808C890.177 574.808 891.407 578.35 891.407 581.377ZM884.878 581.377C884.878 583.261 885.041 587.343 887.251 587.343C889.461 587.343 889.624 583.261 889.624 581.377C889.624 579.493 889.461 575.411 887.251 575.411C885.041 575.411 884.878 579.493 884.878 581.377Z" fill="black"/>
<path d="M895.764 576.642C897.861 574.595 900.309 573.942 901.527 573.791C901.665 573.854 901.703 574.118 901.602 574.218C900.321 574.658 898.589 575.248 897.145 576.793C895.437 578.602 894.86 580.812 894.86 582.884C894.86 585.221 895.663 587.368 897.647 587.368C899.154 587.368 899.92 585.999 899.92 584.291C899.92 582.583 899.154 580.938 897.446 580.938C897.044 580.938 896.718 581.038 896.517 581.101C896.391 581.038 896.379 580.9 896.454 580.774C897.032 580.41 897.634 580.172 898.425 580.172C900.359 580.172 901.615 581.716 901.615 583.776C901.615 586.125 899.882 587.971 897.371 587.971C894.433 587.971 893.052 585.685 893.052 582.947C893.052 581.239 893.617 578.74 895.739 576.655L895.764 576.642Z" fill="black"/>
<path d="M911.496 581.377C911.496 584.53 910.265 587.946 907.34 587.946C904.415 587.946 903.184 584.53 903.184 581.377C903.184 578.225 904.415 574.808 907.34 574.808C910.265 574.808 911.496 578.35 911.496 581.377ZM904.967 581.377C904.967 583.261 905.13 587.343 907.34 587.343C909.55 587.343 909.713 583.261 909.713 581.377C909.713 579.493 909.55 575.411 907.34 575.411C905.13 575.411 904.967 579.493 904.967 581.377Z" fill="black"/>
<path d="M1003.79 586.426C1004.72 586.426 1005.32 586.301 1005.68 585.987C1006.05 585.648 1006.2 585.384 1006.32 585.158C1006.45 585.095 1006.68 585.158 1006.75 585.283C1006.49 586.288 1006.13 587.331 1005.83 587.733C1005 587.695 1004.16 587.67 1003.23 587.67H1000.31C999.184 587.67 998.531 587.695 998.079 587.733C998.041 587.708 997.941 587.632 997.941 587.469C997.941 587.406 998.041 587.331 998.167 587.243C999.096 586.64 999.761 585.962 1001.24 584.354C1002.57 582.922 1004.12 580.975 1004.12 578.828C1004.12 576.994 1003.24 575.889 1001.61 575.889C1000.4 575.889 999.535 576.717 998.996 577.898C998.82 577.999 998.519 577.898 998.519 577.634C999.159 575.863 1000.75 574.796 1002.56 574.796C1004.57 574.796 1005.88 576.14 1005.88 578.074C1005.88 579.317 1005.3 580.686 1003.73 582.495L1002.5 583.902C1000.85 585.786 1000.67 586.112 1000.67 586.238C1000.67 586.376 1000.77 586.414 1001.29 586.414H1003.79V586.426Z" fill="black"/>
<path d="M1016.67 581.377C1016.67 584.53 1015.44 587.946 1012.52 587.946C1009.59 587.946 1008.36 584.53 1008.36 581.377C1008.36 578.225 1009.59 574.808 1012.52 574.808C1015.44 574.808 1016.67 578.35 1016.67 581.377ZM1010.14 581.377C1010.14 583.261 1010.31 587.343 1012.52 587.343C1014.73 587.343 1014.89 583.261 1014.89 581.377C1014.89 579.493 1014.73 575.411 1012.52 575.411C1010.31 575.411 1010.14 579.493 1010.14 581.377Z" fill="black"/>
<path d="M1020.69 576.328C1019.56 576.328 1019.12 576.391 1018.54 577.358C1018.41 577.421 1018.21 577.383 1018.12 577.195C1018.32 576.655 1018.62 575.788 1018.8 575.022C1019.12 575.06 1019.83 575.085 1020.93 575.085H1024.33C1025.44 575.085 1026.78 575.085 1027.02 575.022C1027.09 575.047 1027.16 575.122 1027.16 575.198C1026.59 576.064 1026.02 577.132 1025.27 578.639L1020.15 588.951C1019.83 588.989 1019.52 588.825 1019.47 588.574L1025.16 577.069C1025.46 576.466 1025.36 576.328 1024.72 576.328H1020.7H1020.69Z" fill="black"/>
<path d="M1036.76 581.377C1036.76 584.53 1035.53 587.946 1032.61 587.946C1029.68 587.946 1028.45 584.53 1028.45 581.377C1028.45 578.225 1029.68 574.808 1032.61 574.808C1035.53 574.808 1036.76 578.35 1036.76 581.377ZM1030.23 581.377C1030.23 583.261 1030.4 587.343 1032.61 587.343C1034.82 587.343 1034.98 583.261 1034.98 581.377C1034.98 579.493 1034.82 575.411 1032.61 575.411C1030.4 575.411 1030.23 579.493 1030.23 581.377Z" fill="black"/>
<path d="M92.0325 551.987C92.0325 555.139 90.802 558.556 87.8766 558.556C84.9511 558.556 83.7207 555.139 83.7207 551.987C83.7207 548.834 84.9511 545.418 87.8766 545.418C90.802 545.418 92.0325 548.96 92.0325 551.987ZM85.5036 551.987C85.5036 553.871 85.6668 557.953 87.8766 557.953C90.0864 557.953 90.2496 553.871 90.2496 551.987C90.2496 550.103 90.0864 546.021 87.8766 546.021C85.6668 546.021 85.5036 550.103 85.5036 551.987Z" fill="black"/>
<path d="M32.0419 93.9488C32.9711 93.9488 33.5737 93.8232 33.9253 93.5092C34.3019 93.1701 34.4526 92.9063 34.5656 92.6802C34.7037 92.6174 34.9297 92.6802 35.0051 92.8058C34.7414 93.8106 34.3773 94.8531 34.0759 95.255C33.2473 95.2174 32.4061 95.1922 31.4895 95.1922H28.5766C27.4466 95.1922 26.7937 95.2174 26.3417 95.255C26.3041 95.2299 26.2036 95.1546 26.2036 94.9913C26.2036 94.9285 26.3041 94.8531 26.4296 94.7652C27.3587 94.1623 28.0116 93.4841 29.5057 91.8764C30.8366 90.4446 32.3809 88.4978 32.3809 86.35C32.3809 84.5162 31.5021 83.411 29.8698 83.411C28.6645 83.411 27.7982 84.2399 27.2583 85.4206C27.0825 85.521 26.7812 85.4206 26.7812 85.1568C27.4215 83.3858 29.0161 82.3182 30.8241 82.3182C32.8329 82.3182 34.1387 83.6622 34.1387 85.5964C34.1387 86.8398 33.5612 88.2089 31.9917 90.0175L30.7613 91.4242C29.1165 93.3082 28.9282 93.6348 28.9282 93.7604C28.9282 93.8986 29.0286 93.9362 29.5559 93.9362H32.0419V93.9488Z" fill="black"/>
<path d="M44.9241 88.8997C44.9241 92.0522 43.6936 95.4686 40.7682 95.4686C37.8428 95.4686 36.6123 92.0522 36.6123 88.8997C36.6123 85.7471 37.8428 82.3308 40.7682 82.3308C43.6936 82.3308 44.9241 85.8727 44.9241 88.8997ZM38.3952 88.8997C38.3952 90.7837 38.5584 94.8657 40.7682 94.8657C42.978 94.8657 43.1412 90.7837 43.1412 88.8997C43.1412 87.0157 42.978 82.9337 40.7682 82.9337C38.5584 82.9337 38.3952 87.0157 38.3952 88.8997Z" fill="black"/>
<path d="M54.9685 88.8997C54.9685 92.0522 53.7381 95.4686 50.8126 95.4686C47.8872 95.4686 46.6567 92.0522 46.6567 88.8997C46.6567 85.7471 47.8872 82.3308 50.8126 82.3308C53.7381 82.3308 54.9685 85.8727 54.9685 88.8997ZM48.4396 88.8997C48.4396 90.7837 48.6029 94.8657 50.8126 94.8657C53.0224 94.8657 53.1856 90.7837 53.1856 88.8997C53.1856 87.0157 53.0224 82.9337 50.8126 82.9337C48.6029 82.9337 48.4396 87.0157 48.4396 88.8997Z" fill="black"/>
<path d="M65.0129 88.8997C65.0129 92.0522 63.7825 95.4686 60.8571 95.4686C57.9316 95.4686 56.7012 92.0522 56.7012 88.8997C56.7012 85.7471 57.9316 82.3308 60.8571 82.3308C63.7825 82.3308 65.0129 85.8727 65.0129 88.8997ZM58.4841 88.8997C58.4841 90.7837 58.6473 94.8657 60.8571 94.8657C63.0668 94.8657 63.2301 90.7837 63.2301 88.8997C63.2301 87.0157 63.0668 82.9337 60.8571 82.9337C58.6473 82.9337 58.4841 87.0157 58.4841 88.8997Z" fill="black"/>
<path d="M78.5605 199.993H74.0781V198.724H78.5605V197.481H80.0295V198.724H82.4778V199.993H80.0295V201.236H78.5605V199.993ZM90.8021 214.324C90.8021 215.027 90.6766 215.366 90.1618 215.605C89.6596 215.831 88.8309 215.831 87.5502 215.831C87.4749 215.454 87.2866 214.964 87.1108 214.6C88.0525 214.625 88.8183 214.625 89.0443 214.6C89.2829 214.575 89.3708 214.525 89.3708 214.299V210.079H83.5576V212.176L86.0687 212.076C85.7925 211.611 85.4911 211.171 85.1898 210.794L86.2947 210.43C87.1736 211.51 88.0776 212.98 88.3663 214.01L87.1987 214.437C87.0982 214.073 86.935 213.696 86.7216 213.256C83.4822 213.482 80.1927 213.633 77.9201 213.759L77.7946 212.452C78.9622 212.415 80.494 212.352 82.1388 212.289V210.091H76.5265V215.844H75.0826V210.091H74.279V208.848H75.0826V208.119H76.5265V208.848H82.1388V207.617H76.3758V201.525H89.4587V207.617H83.5701V208.848H90.8272V214.336L90.8021 214.324ZM77.782 204.05H82.1262V202.605H77.782V204.05ZM82.1262 206.524V205.08H77.782V206.524H82.1262ZM91.6057 198.724V199.993H87.048V201.261H85.579V199.993H83.2311V198.724H85.579V197.481H87.048V198.724H91.6057ZM87.9646 202.605H83.545V204.05H87.9646V202.605ZM87.9646 205.08H83.545V206.524H87.9646V205.08Z" fill="black"/>
<path d="M30.1209 203.761C30.1209 202.392 30.0581 201.952 29.1541 201.877L28.1873 201.801C28.0241 201.726 28.0115 201.437 28.1622 201.362C29.8447 201.06 30.9621 200.533 31.4769 200.194C31.5522 200.194 31.6401 200.231 31.6778 200.294C31.6401 200.659 31.6024 201.663 31.6024 202.806V210.606C31.6024 212.151 31.6401 212.49 32.4688 212.553L33.31 212.616C33.4356 212.741 33.4104 213.055 33.2723 213.118C32.4939 213.08 31.5899 213.055 30.8868 213.055C30.1837 213.055 29.2545 213.08 28.4761 213.118C28.338 213.055 28.3129 212.741 28.4384 212.616L29.2671 212.553C30.1083 212.49 30.1334 212.151 30.1334 210.606V203.773L30.1209 203.761Z" fill="black"/>
<path d="M38.3698 201.123C38.4703 200.797 38.5707 200.621 38.8971 200.583L43.7436 199.905C43.8691 199.88 43.9194 200.005 43.9194 200.081C43.7813 200.52 43.4799 201.023 43.1911 201.324L39.3868 201.864C38.9223 201.927 38.8218 202.028 38.7088 202.404L38.3447 203.61C38.2694 203.849 38.3447 203.949 38.6209 203.974L39.0478 204.012C41.5589 204.251 44.3714 205.356 44.3714 208.408C44.3714 211.887 40.3661 214.299 37.177 214.399C36.951 214.324 36.9385 213.922 37.1143 213.771C40.228 213.595 42.8773 211.686 42.8773 208.923C42.8773 206.16 39.8388 205.343 37.4658 205.306C37.1645 205.306 37.1394 205.142 37.29 204.678L38.3573 201.098L38.3698 201.123Z" fill="black"/>
<path d="M54.9685 206.75C54.9685 209.903 53.7381 213.319 50.8126 213.319C47.8872 213.319 46.6567 209.903 46.6567 206.75C46.6567 203.598 47.8872 200.181 50.8126 200.181C53.7381 200.181 54.9685 203.723 54.9685 206.75ZM48.4396 206.75C48.4396 208.634 48.6029 212.716 50.8126 212.716C53.0224 212.716 53.1856 208.634 53.1856 206.75C53.1856 204.866 53.0224 200.784 50.8126 200.784C48.6029 200.784 48.4396 204.866 48.4396 206.75Z" fill="black"/>
<path d="M65.0129 206.75C65.0129 209.903 63.7825 213.319 60.8571 213.319C57.9316 213.319 56.7012 209.903 56.7012 206.75C56.7012 203.598 57.9316 200.181 60.8571 200.181C63.7825 200.181 65.0129 203.723 65.0129 206.75ZM58.4841 206.75C58.4841 208.634 58.6473 212.716 60.8571 212.716C63.0668 212.716 63.2301 208.634 63.2301 206.75C63.2301 204.866 63.0668 200.784 60.8571 200.784C58.6473 200.784 58.4841 204.866 58.4841 206.75Z" fill="black"/>
<path d="M78.5605 316.273H74.0781V315.005H78.5605V313.761H80.0295V315.005H82.4778V316.273H80.0295V317.517H78.5605V316.273ZM90.8021 330.604C90.8021 331.308 90.6766 331.647 90.1618 331.885C89.6596 332.112 88.8309 332.112 87.5502 332.112C87.4749 331.735 87.2866 331.245 87.1108 330.881C88.0525 330.906 88.8183 330.906 89.0443 330.881C89.2829 330.856 89.3708 330.805 89.3708 330.579V326.359H83.5576V328.457L86.0687 328.356C85.7925 327.891 85.4911 327.452 85.1898 327.075L86.2947 326.711C87.1736 327.791 88.0776 329.26 88.3663 330.29L87.1987 330.717C87.0982 330.353 86.935 329.976 86.7216 329.537C83.4822 329.763 80.1927 329.914 77.9201 330.039L77.7946 328.733C78.9622 328.695 80.494 328.632 82.1388 328.57V326.372H76.5265V332.124H75.0826V326.372H74.279V325.128H75.0826V324.4H76.5265V325.128H82.1388V323.897H76.3758V317.806H89.4587V323.897H83.5701V325.128H90.8272V330.617L90.8021 330.604ZM77.782 320.33H82.1262V318.886H77.782V320.33ZM82.1262 322.805V321.36H77.782V322.805H82.1262ZM91.6057 315.005V316.273H87.048V317.542H85.579V316.273H83.2311V315.005H85.579V313.761H87.048V315.005H91.6057ZM87.9646 318.886H83.545V320.33H87.9646V318.886ZM87.9646 321.36H83.545V322.805H87.9646V321.36Z" fill="black"/>
<path d="M30.1209 320.054C30.1209 318.685 30.0581 318.245 29.1541 318.17L28.1873 318.094C28.0241 318.019 28.0115 317.73 28.1622 317.655C29.8447 317.353 30.9621 316.826 31.4769 316.487C31.5522 316.487 31.6401 316.524 31.6778 316.587C31.6401 316.951 31.6024 317.956 31.6024 319.099V326.899C31.6024 328.444 31.6401 328.783 32.4688 328.846L33.31 328.908C33.4356 329.034 33.4104 329.348 33.2723 329.411C32.4939 329.373 31.5899 329.348 30.8868 329.348C30.1837 329.348 29.2545 329.373 28.4761 329.411C28.338 329.348 28.3129 329.034 28.4384 328.908L29.2671 328.846C30.1083 328.783 30.1334 328.444 30.1334 326.899V320.066L30.1209 320.054Z" fill="black"/>
<path d="M44.9241 323.043C44.9241 326.196 43.6936 329.612 40.7682 329.612C37.8428 329.612 36.6123 326.196 36.6123 323.043C36.6123 319.891 37.8428 316.474 40.7682 316.474C43.6936 316.474 44.9241 320.016 44.9241 323.043ZM38.3952 323.043C38.3952 324.927 38.5584 329.009 40.7682 329.009C42.978 329.009 43.1412 324.927 43.1412 323.043C43.1412 321.159 42.978 317.077 40.7682 317.077C38.5584 317.077 38.3952 321.159 38.3952 323.043Z" fill="black"/>
<path d="M54.9685 323.043C54.9685 326.196 53.7381 329.612 50.8126 329.612C47.8872 329.612 46.6567 326.196 46.6567 323.043C46.6567 319.891 47.8872 316.474 50.8126 316.474C53.7381 316.474 54.9685 320.016 54.9685 323.043ZM48.4396 323.043C48.4396 324.927 48.6029 329.009 50.8126 329.009C53.0224 329.009 53.1856 324.927 53.1856 323.043C53.1856 321.159 53.0224 317.077 50.8126 317.077C48.6029 317.077 48.4396 321.159 48.4396 323.043Z" fill="black"/>
<path d="M65.0129 323.043C65.0129 326.196 63.7825 329.612 60.8571 329.612C57.9316 329.612 56.7012 326.196 56.7012 323.043C56.7012 319.891 57.9316 316.474 60.8571 316.474C63.7825 316.474 65.0129 320.016 65.0129 323.043ZM58.4841 323.043C58.4841 324.927 58.6473 329.009 60.8571 329.009C63.0668 329.009 63.2301 324.927 63.2301 323.043C63.2301 321.159 63.0668 317.077 60.8571 317.077C58.6473 317.077 58.4841 321.159 58.4841 323.043Z" fill="black"/>
<path d="M78.5605 434.124H74.0781V432.855H78.5605V431.612H80.0295V432.855H82.4778V434.124H80.0295V435.367H78.5605V434.124ZM90.8021 448.455C90.8021 449.158 90.6766 449.497 90.1618 449.736C89.6596 449.962 88.8309 449.962 87.5502 449.962C87.4749 449.585 87.2866 449.095 87.1108 448.731C88.0525 448.756 88.8183 448.756 89.0443 448.731C89.2829 448.706 89.3708 448.656 89.3708 448.43V444.209H83.5576V446.307L86.0687 446.207C85.7925 445.742 85.4911 445.302 85.1898 444.925L86.2947 444.561C87.1736 445.641 88.0776 447.111 88.3663 448.141L87.1987 448.568C87.0982 448.204 86.935 447.827 86.7216 447.387C83.4822 447.613 80.1927 447.764 77.9201 447.89L77.7946 446.583C78.9622 446.546 80.494 446.483 82.1388 446.42V444.222H76.5265V449.975H75.0826V444.222H74.279V442.979H75.0826V442.25H76.5265V442.979H82.1388V441.748H76.3758V435.656H89.4587V441.748H83.5701V442.979H90.8272V448.467L90.8021 448.455ZM77.782 438.181H82.1262V436.736H77.782V438.181ZM82.1262 440.655V439.211H77.782V440.655H82.1262ZM91.6057 432.855V434.124H87.048V435.392H85.579V434.124H83.2311V432.855H85.579V431.612H87.048V432.855H91.6057ZM87.9646 436.736H83.545V438.181H87.9646V436.736ZM87.9646 439.211H83.545V440.655H87.9646V439.211Z" fill="black"/>
<path d="M38.3698 435.267C38.4703 434.94 38.5707 434.764 38.8971 434.727L43.7436 434.048C43.8691 434.023 43.9194 434.149 43.9194 434.224C43.7813 434.664 43.4799 435.166 43.1911 435.468L39.3868 436.008C38.9223 436.071 38.8218 436.171 38.7088 436.548L38.3447 437.754C38.2694 437.992 38.3447 438.093 38.6209 438.118L39.0478 438.156C41.5589 438.394 44.3714 439.499 44.3714 442.552C44.3714 446.031 40.3661 448.442 37.177 448.543C36.951 448.467 36.9385 448.065 37.1143 447.915C40.228 447.739 42.8773 445.83 42.8773 443.067C42.8773 440.303 39.8388 439.487 37.4658 439.449C37.1645 439.449 37.1394 439.286 37.29 438.821L38.3573 435.242L38.3698 435.267Z" fill="black"/>
<path d="M54.968 440.894C54.968 444.046 53.7376 447.463 50.8121 447.463C47.8867 447.463 46.6562 444.046 46.6562 440.894C46.6562 437.741 47.8867 434.325 50.8121 434.325C53.7376 434.325 54.968 437.867 54.968 440.894ZM48.4391 440.894C48.4391 442.778 48.6024 446.86 50.8121 446.86C53.0219 446.86 53.1851 442.778 53.1851 440.894C53.1851 439.01 53.0219 434.928 50.8121 434.928C48.6024 434.928 48.4391 439.01 48.4391 440.894Z" fill="black"/>
<path d="M65.0125 440.894C65.0125 444.046 63.782 447.463 60.8566 447.463C57.9311 447.463 56.7007 444.046 56.7007 440.894C56.7007 437.741 57.9311 434.325 60.8566 434.325C63.782 434.325 65.0125 437.867 65.0125 440.894ZM58.4836 440.894C58.4836 442.778 58.6468 446.86 60.8566 446.86C63.0664 446.86 63.2296 442.778 63.2296 440.894C63.2296 439.01 63.0664 434.928 60.8566 434.928C58.6468 434.928 58.4836 439.01 58.4836 440.894Z" fill="black"/>
<path d="M1085.67 585.874H1078.4V590.483H1076.89V585.874H1067.61V584.429H1070.9V579.041H1076.89V575.989H1072.01C1071.1 577.534 1070.03 578.903 1068.95 579.945C1068.68 579.707 1068.05 579.204 1067.67 579.003C1069.56 577.358 1071.25 574.758 1072.19 572.07L1073.7 572.435C1073.42 573.138 1073.1 573.866 1072.77 574.545H1084.75V575.989H1078.4V579.041H1084.29V580.448H1078.4V584.429H1085.67V585.874ZM1076.88 584.429V580.448H1072.38V584.429H1076.88Z" fill="black"/>
<path d="M122.969 553.042H1018.14" stroke="#E6E6E6"/>
<path d="M122.969 437.44H1018.14" stroke="#E6E6E6"/>
<path d="M122.969 321.85H1018.14" stroke="#E6E6E6"/>
<path d="M122.969 206.26H1018.14" stroke="#E6E6E6"/>
<path d="M122.969 90.6707H1018.14" stroke="#E6E6E6"/>
<path d="M122.969 90.6707V553.042" stroke="#E6E6E6"/>
<path d="M250.91 90.6707V553.042" stroke="#E6E6E6"/>
<path d="M378.864 90.6707V553.042" stroke="#E6E6E6"/>
<path d="M506.805 90.6707V553.042" stroke="#E6E6E6"/>
<path d="M634.746 90.6707V553.042" stroke="#E6E6E6"/>
<path d="M762.688 90.6707V553.042" stroke="#E6E6E6"/>
<path d="M890.628 90.6707V553.042" stroke="#E6E6E6"/>
<path d="M1018.57 90.6707V553.042" stroke="#E6E6E6"/>
<path d="M122.969 443.883L150.529 447.186L265.764 472.846L312.533 478.41L404.389 487.881H445.019L506.805 496.233L570.562 502.915L634.746 507.097L700.412 509.597H762.687L825.252 512.938L890.628 515.726L952.728 517.949L1018.14 521.855" stroke="#999999" stroke-width="3"/>
<path d="M122.969 191.05L265.412 151.712L316.275 150.042L378.864 161.534L411.96 177.611L506.805 203.861L570.562 224.472L634.746 244.518L746.754 294.494L774.038 303.55L826.357 319.137L902.343 345.312L937.172 354.833L972.478 365.144L1018.14 372.63" stroke="#AE441F" stroke-width="3"/>
<path d="M1031.97 378.596H1035.24V368.021H1032.63V366.84C1033.94 366.614 1034.88 366.275 1035.68 365.797H1037.09V378.609H1040.04V380.141H1031.97V378.609V378.596Z" fill="black"/>
<path d="M1041.9 378.433L1042.8 377.227C1043.64 378.069 1044.71 378.86 1046.42 378.86C1048.13 378.86 1049.56 377.591 1049.56 375.607C1049.56 373.622 1048.35 372.429 1046.51 372.429C1045.51 372.429 1044.9 372.756 1044.06 373.321L1043.08 372.693L1043.54 365.797H1050.71V367.367H1045.15L1044.79 371.65C1045.45 371.286 1046.09 371.048 1046.98 371.048C1049.43 371.048 1051.43 372.454 1051.43 375.557C1051.43 378.659 1049.09 380.405 1046.61 380.405C1044.31 380.405 1042.9 379.438 1041.92 378.458L1041.9 378.433Z" fill="black"/>
<path d="M1056.05 372.442C1055.41 372.442 1054.84 372.844 1054.32 373.811L1053.29 373.082C1054.11 371.676 1055.12 371.073 1056.1 371.073C1057.87 371.073 1058.81 372.957 1060.08 372.957C1060.72 372.957 1061.28 372.555 1061.79 371.588L1062.83 372.329C1062 373.735 1060.99 374.338 1060.04 374.338C1058.27 374.338 1057.3 372.429 1056.04 372.429L1056.05 372.442Z" fill="black"/>
<path d="M1064.72 373.509C1064.72 367.744 1067.32 365.534 1070.19 365.534C1071.72 365.534 1072.82 366.174 1073.63 367.041L1072.6 368.184C1072.02 367.481 1071.13 367.053 1070.25 367.053C1068.21 367.053 1066.53 368.598 1066.44 373.17C1067.37 372.065 1068.64 371.387 1069.8 371.387C1072.27 371.387 1073.88 372.869 1073.88 375.795C1073.88 378.546 1071.94 380.405 1069.66 380.405C1066.82 380.405 1064.71 378.119 1064.71 373.534L1064.72 373.509ZM1066.49 374.652C1066.73 377.441 1067.84 378.948 1069.65 378.948C1071.08 378.948 1072.16 377.679 1072.16 375.77C1072.16 373.861 1071.28 372.731 1069.51 372.731C1068.58 372.731 1067.46 373.233 1066.49 374.64V374.652Z" fill="black"/>
<path d="M1081.62 376.159H1075.2V374.954L1081.32 365.785H1083.36V374.69H1085.3V376.159H1083.36V380.116H1081.62V376.159ZM1081.62 374.69V370.482C1081.62 369.741 1081.69 368.51 1081.72 367.744H1081.65C1081.28 368.423 1080.88 369.051 1080.46 369.754L1077.1 374.677H1081.62V374.69Z" fill="black"/>
<path d="M1103.32 373.308C1102.68 375.079 1101.81 376.649 1100.72 377.968C1101.42 379.4 1102.23 380.216 1103.07 380.216C1103.53 380.216 1103.73 379.45 1103.83 377.566C1104.14 377.83 1104.6 378.094 1104.96 378.207C1104.74 380.794 1104.24 381.548 1102.97 381.548C1101.7 381.548 1100.62 380.618 1099.78 379.036C1098.77 380.078 1097.64 380.945 1096.4 381.673C1096.2 381.397 1095.7 380.895 1095.4 380.631C1096.84 379.89 1098.13 378.923 1099.2 377.742C1098.57 376.197 1098.13 374.263 1097.87 372.115H1089.73V374.188C1089.73 376.423 1089.47 379.576 1087.99 381.724C1087.75 381.497 1087.1 381.121 1086.76 380.982C1088.17 378.948 1088.34 376.197 1088.34 374.188V370.847H1097.73C1097.69 370.281 1097.66 369.678 1097.63 369.101H1087.22V367.832H1090.41V364.227H1091.82V367.832H1095.43V363.323H1096.9V365.006H1102.93V366.187H1096.9V367.82H1104.78V369.088H1101.37C1102.04 369.427 1102.7 369.817 1103.12 370.168L1102.48 370.834H1104.56V372.103H1099.2C1099.4 373.786 1099.73 375.28 1100.14 376.549C1100.88 375.481 1101.49 374.301 1101.93 372.994L1103.29 373.321L1103.32 373.308ZM1092.45 375.418C1092.12 376.649 1091.5 377.868 1090.86 378.709C1090.64 378.533 1090.19 378.207 1089.9 378.069C1090.56 377.302 1091.04 376.235 1091.3 375.18L1092.45 375.418ZM1097.39 375.544C1096.51 378.357 1094.15 380.555 1090.76 381.573C1090.63 381.309 1090.3 380.895 1090.12 380.668C1091.79 380.191 1093.22 379.4 1094.28 378.42H1093.28V374.363H1090.66V373.258H1097.03V374.363H1094.52V378.182C1095.3 377.378 1095.89 376.411 1096.16 375.343L1097.39 375.544ZM1099 369.088C1099.03 369.666 1099.06 370.269 1099.1 370.834H1102.19C1101.61 370.394 1100.68 369.842 1099.89 369.503L1100.33 369.076H1098.99L1099 369.088Z" fill="black"/>
<path d="M1031.28 403.578C1031.28 397.813 1033.86 395.602 1036.74 395.602C1038.27 395.602 1039.37 396.243 1040.18 397.11L1039.15 398.252C1038.57 397.549 1037.68 397.122 1036.8 397.122C1034.77 397.122 1033.08 398.667 1033 403.239C1033.92 402.134 1035.19 401.455 1036.35 401.455C1038.82 401.455 1040.43 402.937 1040.43 405.864C1040.43 408.615 1038.5 410.473 1036.21 410.473C1033.37 410.473 1031.26 408.187 1031.26 403.603L1031.28 403.578ZM1033.05 404.721C1033.28 407.509 1034.39 409.016 1036.2 409.016C1037.63 409.016 1038.71 407.748 1038.71 405.839C1038.71 403.93 1037.83 402.799 1036.06 402.799C1035.13 402.799 1034.01 403.302 1033.05 404.708V404.721Z" fill="black"/>
<path d="M1041.9 408.501L1042.8 407.296C1043.64 408.137 1044.71 408.928 1046.42 408.928C1048.13 408.928 1049.56 407.66 1049.56 405.675C1049.56 403.691 1048.35 402.498 1046.51 402.498C1045.51 402.498 1044.9 402.824 1044.06 403.39L1043.08 402.762L1043.54 395.866H1050.71V397.436H1045.15L1044.79 401.719C1045.45 401.355 1046.09 401.116 1046.98 401.116C1049.43 401.116 1051.43 402.523 1051.43 405.625C1051.43 408.728 1049.09 410.473 1046.61 410.473C1044.31 410.473 1042.9 409.506 1041.92 408.527L1041.9 408.501Z" fill="black"/>
<path d="M1069.87 403.377C1069.23 405.148 1068.36 406.718 1067.29 408.037C1067.99 409.469 1068.79 410.285 1069.63 410.285C1070.1 410.285 1070.3 409.519 1070.4 407.635C1070.7 407.899 1071.16 408.162 1071.53 408.275C1071.3 410.863 1070.8 411.616 1069.55 411.616C1068.29 411.616 1067.2 410.687 1066.36 409.104C1065.35 410.147 1064.22 411.013 1062.98 411.742C1062.78 411.466 1062.28 410.963 1061.97 410.699C1063.42 409.958 1064.71 408.991 1065.78 407.811C1065.15 406.266 1064.71 404.332 1064.45 402.184H1056.31V404.256C1056.31 406.492 1056.05 409.644 1054.57 411.792C1054.33 411.566 1053.69 411.189 1053.34 411.051C1054.74 409.016 1054.93 406.266 1054.93 404.256V400.915H1064.31C1064.27 400.35 1064.23 399.747 1064.21 399.169H1053.8V397.901H1056.99V394.296H1058.4V397.901H1062.01V393.392H1063.48V395.075H1069.51V396.255H1063.48V397.888H1071.35V399.157H1067.95C1068.62 399.496 1069.28 399.885 1069.7 400.237L1069.06 400.903H1071.15V402.171H1065.79C1065.99 403.854 1066.32 405.349 1066.73 406.617C1067.47 405.55 1068.08 404.369 1068.52 403.063L1069.88 403.39L1069.87 403.377ZM1059 405.487C1058.67 406.718 1058.06 407.936 1057.42 408.778C1057.19 408.602 1056.74 408.275 1056.45 408.137C1057.12 407.371 1057.59 406.303 1057.86 405.248L1059 405.487ZM1063.95 405.613C1063.07 408.426 1060.71 410.624 1057.32 411.641C1057.18 411.378 1056.85 410.963 1056.68 410.737C1058.35 410.26 1059.76 409.469 1060.83 408.489H1059.83V404.432H1057.22V403.327H1063.58V404.432H1061.07V408.25C1061.85 407.446 1062.44 406.479 1062.71 405.412L1063.95 405.613ZM1065.55 399.157C1065.58 399.735 1065.62 400.337 1065.65 400.903H1068.74C1068.16 400.463 1067.23 399.91 1066.46 399.571L1066.9 399.144H1065.55V399.157Z" fill="black"/>
<path d="M1081.92 405.989C1079.15 407.258 1076.12 408.589 1073.9 409.544L1073.36 407.999C1074.14 407.698 1075.09 407.321 1076.14 406.869L1075.8 394.447L1077.33 394.384L1077.63 406.241C1078.92 405.701 1080.27 405.11 1081.59 404.558L1081.92 405.989ZM1090.76 411.654C1089.83 410.272 1087.98 408.15 1086.26 406.341C1084.69 408.715 1082.5 410.461 1079.36 411.767C1079.16 411.466 1078.53 410.787 1078.18 410.486C1085.08 407.949 1087.21 403.088 1088.09 394.397L1089.72 394.56C1089.24 398.868 1088.48 402.284 1087.07 404.972C1088.86 406.781 1090.99 409.016 1092.02 410.498L1090.78 411.641L1090.76 411.654ZM1083.03 401.418C1082.49 400.036 1081.2 397.976 1079.94 396.507L1081.27 395.841C1082.6 397.311 1083.88 399.282 1084.45 400.651L1083.04 401.418H1083.03Z" fill="black"/>
<path d="M1111.68 409.293V410.775H1093.78V409.293H1101.27V393.693H1102.84V399.848H1110.33V401.33H1102.84V409.293H1111.68Z" fill="black"/>
<path d="M1031.18 522.433C1031.18 517.623 1032.92 515.048 1035.78 515.048C1038.65 515.048 1040.37 517.648 1040.37 522.433C1040.37 527.219 1038.63 529.906 1035.78 529.906C1032.93 529.906 1031.18 527.231 1031.18 522.433ZM1038.57 522.433C1038.57 518.226 1037.44 516.517 1035.77 516.517C1034.1 516.517 1032.96 518.226 1032.96 522.433C1032.96 526.641 1034.09 528.449 1035.77 528.449C1037.45 528.449 1038.57 526.641 1038.57 522.433Z" fill="black"/>
<path d="M1044.9 521.968C1044.26 521.968 1043.69 522.37 1043.17 523.338L1042.14 522.609C1042.96 521.202 1043.97 520.599 1044.95 520.599C1046.72 520.599 1047.66 522.483 1048.93 522.483C1049.57 522.483 1050.13 522.082 1050.64 521.114L1051.68 521.855C1050.85 523.262 1049.85 523.865 1048.89 523.865C1047.12 523.865 1046.15 521.956 1044.89 521.956L1044.9 521.968Z" fill="black"/>
<path d="M1054.25 528.123H1057.53V517.547H1054.92V516.367C1056.22 516.141 1057.17 515.802 1057.97 515.324H1059.38V528.135H1062.33V529.668H1054.25V528.135V528.123Z" fill="black"/>
<path d="M1070.47 525.686H1064.05V524.48L1070.17 515.312H1072.21V524.217H1074.15V525.686H1072.21V529.643H1070.47V525.686ZM1070.47 524.217V520.009C1070.47 519.268 1070.54 518.037 1070.57 517.271H1070.5C1070.14 517.949 1069.73 518.577 1069.32 519.281L1065.97 524.204H1070.49L1070.47 524.217Z" fill="black"/>
<path d="M1092.17 522.835C1091.53 524.606 1090.66 526.176 1089.58 527.495C1090.29 528.927 1091.09 529.743 1091.93 529.743C1092.4 529.743 1092.6 528.977 1092.7 527.093C1093 527.357 1093.46 527.62 1093.83 527.734C1093.6 530.321 1093.1 531.074 1091.84 531.074C1090.59 531.074 1089.5 530.145 1088.65 528.562C1087.65 529.605 1086.52 530.472 1085.28 531.2C1085.08 530.924 1084.57 530.421 1084.27 530.158C1085.72 529.417 1087.01 528.449 1088.08 527.269C1087.45 525.724 1087.01 523.79 1086.75 521.642H1078.61V523.714C1078.61 525.95 1078.35 529.103 1076.86 531.25C1076.63 531.024 1075.99 530.647 1075.63 530.509C1077.04 528.475 1077.23 525.724 1077.23 523.714V520.373H1086.61C1086.57 519.808 1086.53 519.205 1086.51 518.628H1076.1V517.359H1079.29V513.754H1080.69V517.359H1084.31V512.85H1085.78V514.533H1091.81V515.714H1085.78V517.346H1093.65V518.615H1090.25C1090.91 518.954 1091.58 519.343 1091.99 519.695L1091.35 520.361H1093.45V521.629H1088.09C1088.29 523.312 1088.62 524.807 1089.03 526.076C1089.77 525.008 1090.37 523.827 1090.81 522.521L1092.18 522.848L1092.17 522.835ZM1081.3 524.945C1080.97 526.176 1080.36 527.394 1079.71 528.236C1079.49 528.06 1079.04 527.734 1078.75 527.595C1079.41 526.829 1079.89 525.762 1080.15 524.707L1081.3 524.945ZM1086.24 525.071C1085.36 527.884 1083 530.082 1079.61 531.1C1079.48 530.836 1079.15 530.421 1078.97 530.195C1080.64 529.718 1082.06 528.927 1083.13 527.947H1082.13V523.89H1079.51V522.785H1085.88V523.89H1083.37V527.708C1084.15 526.905 1084.74 525.937 1085.01 524.87L1086.24 525.071ZM1087.85 518.615C1087.88 519.193 1087.91 519.796 1087.95 520.361H1091.04C1090.46 519.921 1089.53 519.369 1088.75 519.029L1089.19 518.602H1087.85V518.615Z" fill="black"/>
<path d="M122.969 507.097L250.91 497.188L313.424 487.114L378.864 465.323L420.247 453.63L506.805 424.39L634.746 396.833L696.645 383.457L762.687 376.775L890.628 377.202L952.176 380.116L1018.14 389.297" stroke="#C7B299" stroke-width="3"/>
<path d="M279.034 53.7819C283.353 49.4738 285.789 46.9116 285.789 44.5503C285.789 42.9175 284.91 41.762 283.077 41.762C281.872 41.762 280.83 42.5281 280.026 43.4701L278.959 42.4402C280.164 41.134 281.432 40.2673 283.303 40.2673C285.94 40.2673 287.585 41.9378 287.585 44.4749C287.585 47.1753 285.136 49.8381 281.734 53.4177C282.5 53.3549 283.379 53.2795 284.144 53.2795H288.3V54.8621H279.034V53.7819Z" fill="black"/>
<path d="M290.284 47.6401C290.284 42.8296 292.029 40.2673 294.892 40.2673C297.755 40.2673 299.475 42.8547 299.475 47.6401C299.475 52.4254 297.742 55.1133 294.892 55.1133C292.042 55.1133 290.284 52.438 290.284 47.6401ZM297.679 47.6401C297.679 43.4325 296.549 41.7243 294.88 41.7243C293.21 41.7243 292.067 43.4325 292.067 47.6401C292.067 51.8477 293.197 53.6563 294.88 53.6563C296.562 53.6563 297.679 51.8477 297.679 47.6401Z" fill="black"/>
<path d="M302.212 53.3298H305.489V42.7542H302.877V41.5736C304.183 41.3475 305.125 41.0084 305.928 40.5311H307.335V53.3423H310.285V54.8746H302.212V53.3423V53.3298Z" fill="black"/>
<path d="M312.156 53.1665L313.06 51.9607C313.901 52.8022 314.969 53.5935 316.676 53.5935C318.384 53.5935 319.815 52.325 319.815 50.3405C319.815 48.356 318.61 47.1628 316.764 47.1628C315.785 47.1628 315.157 47.4894 314.316 48.042L313.336 47.414L313.801 40.5186H320.97V42.0886H315.408L315.044 46.3715C315.709 46.0073 316.35 45.7686 317.229 45.7686C319.677 45.7686 321.673 47.1754 321.673 50.2777C321.673 53.38 319.338 55.1258 316.852 55.1258C314.554 55.1258 313.148 54.1587 312.169 53.179L312.156 53.1665Z" fill="black"/>
<path d="M341.838 51.81H334.568V56.4195H333.061V51.81H323.783V50.3656H327.072V44.9774H333.061V41.9253H328.177C327.273 43.4702 326.206 44.8392 325.126 45.8817C324.85 45.6431 324.222 45.1407 323.845 44.9397C325.729 43.2943 327.424 40.6944 328.365 38.0066L329.872 38.3708C329.596 39.0742 329.269 39.8027 328.943 40.4809H340.921V41.9253H334.568V44.9774H340.456V46.3841H334.568V50.3656H341.838V51.81ZM333.049 50.3656V46.3841H328.554V50.3656H333.049Z" fill="black"/>
<path d="M192.489 72.3833C191.911 71.8558 190.844 71.0519 189.915 70.3988C189.187 71.5418 188.032 72.3331 186.061 72.8731C185.922 72.534 185.583 72.0316 185.32 71.7679C188.873 70.8635 189.463 69.2307 189.626 65.6763H190.957C190.894 67.1207 190.756 68.2887 190.43 69.281C191.459 69.9467 192.778 70.851 193.481 71.4539L192.502 72.3959L192.489 72.3833ZM201.165 76.6788C201.165 76.6788 201.14 77.1435 201.102 77.3571C200.826 81.2381 200.537 82.8081 199.96 83.3859C199.558 83.8129 199.156 83.9259 198.478 83.9887C197.875 84.0139 196.645 84.0139 195.402 83.9259C195.364 83.4863 195.176 82.896 194.925 82.5192C196.168 82.6197 197.436 82.6448 197.9 82.6448C198.302 82.6448 198.528 82.6071 198.729 82.4439C199.106 82.1047 199.369 80.899 199.595 78.0479H194.134C193.368 81.2381 191.485 83.0719 186.261 84.039C186.136 83.6371 185.759 83.0091 185.483 82.6951C190.091 81.9289 191.798 80.5222 192.514 78.0479H187.191V76.6788H192.803C192.903 76.0383 192.979 75.2972 193.029 74.5311H194.598C194.536 75.2972 194.473 76.0131 194.372 76.6788H201.203H201.165ZM187.479 69.2182C187.103 68.6907 186.4 67.8491 185.809 67.2463L186.688 66.5429C187.266 67.1207 187.994 67.9119 188.371 68.4143L187.467 69.2182H187.479ZM201.994 72.8983H202.672V76.4151H201.203V74.2171H187.479V76.4151H186.035V72.8983H201.918C201.09 72.22 199.57 71.165 198.265 70.2983C197.561 71.3785 196.482 72.1447 194.649 72.6973C194.548 72.3707 194.171 71.8558 193.87 71.592C197.222 70.6877 197.813 69.0423 197.951 65.6637H199.319C199.256 67.0704 199.118 68.2134 198.792 69.1805C200.173 70.022 201.981 71.2278 202.948 71.9563L202.006 72.8983H201.994ZM194.134 67.1835C193.506 67.9873 192.853 68.8288 192.326 69.4191L191.422 68.9921C191.899 68.3641 192.552 67.3844 192.891 66.6936L194.134 67.1709V67.1835ZM195.979 69.0172C195.64 68.5399 194.975 67.7863 194.435 67.2463L195.276 66.5429C195.816 67.0704 196.519 67.7487 196.821 68.1883L195.979 69.0172ZM202.872 67.2086C202.207 68.0501 201.441 68.9544 200.838 69.5573L199.897 69.1177C200.474 68.4771 201.203 67.4095 201.567 66.7062L202.872 67.2086Z" fill="black"/>
<path d="M223.149 70.336C223.149 70.336 223.124 70.9012 223.124 71.1022C222.898 79.5299 222.723 82.3182 222.045 83.1598C221.706 83.6873 221.304 83.838 220.701 83.9008C220.136 83.9762 219.194 83.9636 218.265 83.9008C218.228 83.4989 218.064 82.8709 217.838 82.4941C218.805 82.5694 219.684 82.5946 220.073 82.5946C220.412 82.5946 220.601 82.5318 220.802 82.268C221.266 81.6902 221.505 79.0275 221.706 71.7302H218.83C218.592 77.0807 217.663 81.4642 214.122 84.1143C213.896 83.7878 213.381 83.2854 213.017 83.0467C213.344 82.8206 213.62 82.582 213.883 82.3434C210.845 82.7076 207.731 83.0467 205.484 83.2854L205.258 81.9791C206.463 81.8786 207.97 81.7405 209.615 81.5772V79.8439H205.81V78.701H209.615V77.4701H205.86V71.5041H209.615V70.2355H205.27V69.0674H209.615V67.7361C208.334 67.8366 207.028 67.9119 205.835 67.9622C205.773 67.6356 205.634 67.1583 205.471 66.8569C208.447 66.6936 212.063 66.3294 214.135 65.8772L214.875 67.0202C213.796 67.2588 212.427 67.4472 210.958 67.5979V69.0674H215.214V70.2355H210.958V71.5041H214.863V77.4701H210.958V78.701H214.9V79.8439H210.958V81.4265C212.264 81.3009 213.632 81.1627 214.976 80.9994V81.0748C216.708 78.701 217.248 75.4605 217.424 71.705H215.076V70.2983H217.462C217.499 68.8916 217.499 67.4221 217.499 65.8898H218.906C218.906 67.397 218.906 68.879 218.868 70.2983H223.124L223.149 70.336ZM207.091 73.991H209.627V72.5466H207.091V73.991ZM209.627 76.4402V74.9706H207.091V76.4402H209.627ZM210.971 72.5466V73.991H213.607V72.5466H210.971ZM213.607 74.9832H210.971V76.4527H213.607V74.9832Z" fill="black"/>
<path d="M235.291 65.7516C235.266 66.4801 235.253 67.4849 235.153 68.6655C235.454 71.0645 236.66 79.4671 243.753 82.6197C243.327 82.9588 242.887 83.4612 242.674 83.8882C237.651 81.5395 235.504 76.5658 234.538 72.8354C233.609 76.8546 231.487 81.3637 226.577 83.9761C226.314 83.5742 225.837 83.1095 225.372 82.8081C233.709 78.5879 233.596 68.8162 233.646 65.7641H235.291V65.7516Z" fill="black"/>
<path d="M262.072 67.7612V83.4361H260.49V81.8284H248.675V83.5366H247.168V67.7612H262.084H262.072ZM260.49 80.3212V69.2433H248.675V80.3212H260.49Z" fill="black"/>
<path d="M273.271 65.2869L274.477 65.9149C272.166 68.3013 270.735 71.278 270.735 74.8576C270.735 78.4372 272.166 81.4139 274.477 83.8003L273.271 84.4283C270.861 81.9791 269.266 78.7763 269.266 74.8576C269.266 70.9389 270.848 67.7361 273.271 65.2869Z" fill="black"/>
<path d="M276.436 80.9617H279.713V70.3862H277.101V69.2056C278.407 68.9795 279.348 68.6404 280.152 68.1631H281.558V80.9743H284.509V82.5066H276.436V80.9743V80.9617Z" fill="black"/>
<path d="M286.379 80.7984L287.283 79.5927C288.125 80.4342 289.192 81.2255 290.899 81.2255C292.607 81.2255 294.038 79.9569 294.038 77.9724C294.038 75.988 292.833 74.7948 290.987 74.7948C290.008 74.7948 289.38 75.1213 288.539 75.6865L287.56 75.0585L288.024 68.1631H295.193V69.7331H289.631L289.267 74.016C289.933 73.6518 290.573 73.4132 291.452 73.4132C293.9 73.4132 295.897 74.8199 295.897 77.9222C295.897 81.0245 293.561 82.7704 291.075 82.7704C288.79 82.7704 287.371 81.8032 286.392 80.8236L286.379 80.7984Z" fill="black"/>
<path d="M297.893 76.1638H303.041V77.5705H297.893V76.1638Z" fill="black"/>
<path d="M305.024 75.875C305.024 70.11 307.611 67.8994 310.486 67.8994C312.018 67.8994 313.123 68.54 313.926 69.4066L312.897 70.5496C312.319 69.8462 311.428 69.4192 310.549 69.4192C308.515 69.4192 306.832 70.9641 306.744 75.5359C307.674 74.4306 308.942 73.7524 310.097 73.7524C312.57 73.7524 314.177 75.2345 314.177 78.1609C314.177 80.9116 312.244 82.7705 309.959 82.7705C307.121 82.7705 305.012 80.4845 305.012 75.9001L305.024 75.875ZM306.795 77.018C307.033 79.8063 308.138 81.3135 309.946 81.3135C311.377 81.3135 312.457 80.0449 312.457 78.1358C312.457 76.2267 311.566 75.0963 309.808 75.0963C308.879 75.0963 307.761 75.5987 306.795 77.0054V77.018Z" fill="black"/>
<path d="M321.912 78.5376H315.483V77.3319L321.61 68.1631H323.644V77.0681H325.591V78.5376H323.644V82.494H321.912V78.5376ZM321.912 77.0681V72.8605C321.912 72.1195 321.975 70.8886 322.012 70.1224H321.937C321.573 70.8007 321.171 71.4287 320.757 72.132L317.404 77.0556H321.924L321.912 77.0681Z" fill="black"/>
<path d="M343.62 75.674C342.98 77.445 342.113 79.015 341.034 80.3338C341.737 81.7656 342.54 82.582 343.382 82.582C343.846 82.582 344.047 81.8159 344.147 79.9319C344.449 80.1956 344.913 80.4594 345.277 80.5724C345.051 83.1598 344.549 83.9134 343.294 83.9134C342.038 83.9134 340.946 82.984 340.105 81.4014C339.1 82.4439 337.97 83.3105 336.727 84.039C336.526 83.7627 336.024 83.2603 335.723 82.9965C337.167 82.2555 338.46 81.2884 339.527 80.1077C338.899 78.5628 338.46 76.6286 338.196 74.4808H330.06V76.5532C330.06 78.7889 329.796 81.9415 328.315 84.0892C328.076 83.8632 327.436 83.4864 327.084 83.3482C328.491 81.3135 328.666 78.5628 328.666 76.5532V73.2123H338.045C338.008 72.6471 337.97 72.0442 337.945 71.4664H327.536V70.1979H330.726V66.5932H332.132V70.1979H335.748V65.6888H337.217V67.3719H343.243V68.5525H337.217V70.1853H345.089V71.4539H341.687C342.352 71.793 343.017 72.1824 343.432 72.534L342.791 73.1997H344.876V74.4683H339.514C339.715 76.1513 340.042 77.646 340.456 78.9145C341.197 77.8469 341.8 76.6663 342.239 75.36L343.608 75.6866L343.62 75.674ZM332.747 77.7841C332.421 79.015 331.805 80.2333 331.165 81.0748C330.939 80.899 330.487 80.5724 330.198 80.4343C330.864 79.6681 331.341 78.6005 331.604 77.5455L332.747 77.7841ZM337.694 77.9097C336.802 80.7232 334.455 82.9212 331.065 83.9385C330.926 83.6748 330.6 83.2603 330.424 83.0342C332.094 82.5569 333.513 81.7656 334.58 80.786H333.576V76.7291H330.964V75.6238H337.33V76.7291H334.819V80.5473C335.597 79.7435 336.187 78.7764 336.463 77.7088L337.694 77.9097ZM339.301 71.4539C339.326 72.0316 339.364 72.6345 339.401 73.1997H342.49C341.913 72.7601 340.983 72.2075 340.192 71.8684L340.632 71.4413H339.288L339.301 71.4539Z" fill="black"/>
<path d="M347.726 84.4283L346.521 83.8003C348.831 81.4139 350.262 78.4372 350.262 74.8576C350.262 71.278 348.831 68.3013 346.521 65.9149L347.726 65.2869C350.137 67.7361 351.731 70.9389 351.731 74.8576C351.731 78.7763 350.149 81.9791 347.726 84.4283Z" fill="black"/>
<path d="M375.574 73.8528V75.4856H357.331V73.8528H375.574Z" fill="black"/>
<path d="M394.282 68.0752C393.642 70.1727 392.6 71.9311 391.344 73.4258C392.587 74.6315 394.119 75.6991 395.927 76.3774C395.625 76.6537 395.199 77.2189 394.998 77.6082C394.797 77.5078 394.571 77.4073 394.357 77.3068V83.9385H392.926V83.2728H387.904V84.0013H386.523V77.2817C386.121 77.5078 385.719 77.6836 385.317 77.8594C385.179 77.558 384.878 77.131 384.589 76.8546H382.48V80.4594C383.346 80.2584 384.225 80.0574 385.116 79.8314L385.255 81.1753C382.517 81.841 379.667 82.5192 377.558 83.0467L377.282 81.6023L378.311 81.3762V74.5185H379.579V81.1125L381.124 80.7482V72.6219H378.311V66.4926H384.803V71.8181C386.385 70.3109 387.69 68.0626 388.444 65.6511L389.875 65.9902C389.674 66.568 389.448 67.1583 389.235 67.6984H393.114L393.378 67.6356L394.307 68.0626L394.282 68.0752ZM379.63 71.3282H383.409V67.8114H379.63V71.3282ZM384.953 76.4904C386.56 75.8122 388.142 74.7446 389.511 73.3504C388.77 72.4461 388.167 71.5041 387.665 70.5998C387.1 71.479 386.485 72.2451 385.832 72.9108C385.606 72.6847 385.154 72.2702 384.79 72.0316V72.6345H382.48V75.5233H384.953V76.4904ZM393.416 76.7667C392.286 76.101 391.306 75.2595 390.44 74.3929C389.511 75.3223 388.494 76.1262 387.427 76.7667H393.416ZM392.939 81.9289V78.073H387.916V81.9289H392.939ZM388.594 69.0046L388.393 69.3814C388.896 70.3611 389.561 71.4162 390.377 72.3958C391.218 71.3659 391.947 70.2481 392.449 68.9921H388.594V69.0046Z" fill="black"/>
<path d="M406.988 68.6404V72.22L407.252 71.9186C409.65 73.0615 412.802 74.8702 414.384 76.0759L413.341 77.4198C411.973 76.2894 409.286 74.6441 406.988 73.4132V83.9887H405.406V68.6278H397.735V67.1458H415.476V68.6278H407.001L406.988 68.6404Z" fill="black"/>
<path d="M420.95 74.6692C420.184 74.0664 418.702 73.1244 417.535 72.4712L418.401 71.4288C419.531 72.0065 421.075 72.9108 421.841 73.5012L420.962 74.6692H420.95ZM418.2 82.7453C419.104 81.2632 420.347 78.6884 421.301 76.4779L422.469 77.3571C421.64 79.4044 420.523 81.841 419.556 83.6496L418.213 82.7453H418.2ZM422.155 69.4945C421.389 68.766 419.782 67.6608 418.564 66.9197L419.493 65.9149C420.699 66.6434 422.306 67.6859 423.134 68.3641L422.168 69.4945H422.155ZM435.677 71.8056V75.1842H434.246V73.0113H423.938V75.1842H422.557V71.8056H424.654V66.3922H433.581V71.8056H435.69H435.677ZM433.694 82.5192C433.694 83.2603 433.53 83.5994 432.965 83.8255C432.426 84.0516 431.522 84.0516 430.09 84.0516C430.027 83.6873 429.864 83.1849 429.688 82.8207C430.693 82.8584 431.635 82.8584 431.898 82.8584C432.174 82.8332 432.262 82.7579 432.262 82.5192V79.9821C430.166 80.4468 428.056 80.9492 426.399 81.3135L425.934 80.1077C427.567 79.8063 429.94 79.329 432.262 78.8392V75.5987H425.897V77.5329C425.897 79.5174 425.62 82.2806 424.126 84.1897C423.888 83.926 423.285 83.4864 422.959 83.3482C424.327 81.6149 424.49 79.2662 424.49 77.5329V74.3929H433.694V82.5192ZM426.01 71.8056H428.358V68.9544H432.162V67.6105H426.01V71.8181V71.8056ZM427.002 76.616C428.571 76.7793 430.58 77.2189 431.647 77.6836L431.183 78.7512C430.115 78.2865 428.132 77.7841 426.537 77.5832L427.002 76.616ZM432.162 69.9592H429.613V71.8056H432.162V69.9592Z" fill="black"/>
<path d="M301.396 383.545C305.715 379.237 308.151 376.674 308.151 374.313C308.151 372.68 307.272 371.525 305.439 371.525C304.234 371.525 303.192 372.291 302.388 373.233L301.321 372.203C302.526 370.897 303.794 370.03 305.665 370.03C308.302 370.03 309.946 371.701 309.946 374.238C309.946 376.938 307.498 379.601 304.096 383.18C304.861 383.118 305.74 383.042 306.506 383.042H310.662V384.625H301.396V383.545Z" fill="black"/>
<path d="M312.646 377.415C312.646 372.605 314.391 370.043 317.253 370.043C320.116 370.043 321.836 372.63 321.836 377.415C321.836 382.201 320.104 384.889 317.253 384.889C314.403 384.889 312.646 382.213 312.646 377.415ZM320.041 377.415C320.041 373.208 318.911 371.5 317.241 371.5C315.571 371.5 314.428 373.208 314.428 377.415C314.428 381.623 315.558 383.432 317.241 383.432C318.923 383.432 320.041 381.623 320.041 377.415Z" fill="black"/>
<path d="M324.573 383.105H327.85V372.53H325.239V371.349C326.544 371.123 327.486 370.784 328.29 370.306H329.696V383.118H332.646V384.65H324.573V383.118V383.105Z" fill="black"/>
<path d="M342.076 371.864H334.944V370.294H344.173V371.424C340.795 375.77 340.08 379.048 339.854 384.637H337.945C338.184 379.224 339.276 375.808 342.088 371.876L342.076 371.864Z" fill="black"/>
<path d="M364.199 381.573H356.929V386.182H355.423V381.573H346.144V380.128H349.434V374.74H355.423V371.688H350.538C349.634 373.233 348.567 374.602 347.487 375.644C347.211 375.406 346.583 374.903 346.207 374.702C348.09 373.057 349.785 370.457 350.727 367.769L352.233 368.134C351.957 368.837 351.631 369.565 351.304 370.244H363.282V371.688H356.929V374.74H362.818V376.147H356.929V380.128H364.199V381.573ZM355.41 380.128V376.147H350.915V380.128H355.41Z" fill="black"/>
<path d="M243.866 403.666C242.787 404.507 241.631 405.299 240.426 406.015V406.894H249.253V408.238H240.426V411.026C240.426 411.792 240.753 411.955 242.41 411.955H248.135C249.567 411.955 249.805 411.553 249.968 409.28C250.332 409.519 250.973 409.745 251.412 409.845C251.149 412.634 250.609 413.324 248.223 413.324H242.397C239.66 413.324 238.894 412.885 238.894 411.051V406.894C237.388 407.735 235.818 408.476 234.211 409.129C233.973 408.79 233.47 408.162 233.131 407.823C236.032 406.756 238.819 405.349 241.33 403.666H233.508V402.284H240.338V399.546H235.253V398.165H240.338V395.452H241.807V398.165H246.829V399.069C247.671 398.165 248.462 397.223 249.177 396.23L250.546 396.934C249.14 398.88 247.432 400.689 245.586 402.284H251.412V403.666H243.854H243.866ZM243.264 402.284C244.369 401.443 245.411 400.513 246.352 399.546H241.732V402.284H243.264Z" fill="black"/>
<path d="M271.589 409.205H264.319V413.814H262.813V409.205H253.521V407.76H256.811V402.372H262.8V399.32H257.916C257.012 400.865 255.945 402.234 254.865 403.276C254.589 403.038 253.961 402.535 253.584 402.334C255.468 400.689 257.163 398.089 258.104 395.401L259.611 395.766C259.335 396.469 259.008 397.197 258.682 397.876H270.66V399.32H264.307V402.372H270.195V403.779H264.307V407.76H271.576V409.205H271.589ZM262.813 407.76V403.779H258.305V407.76H262.813Z" fill="black"/>
<path d="M283.441 395.514C283.416 396.243 283.404 397.248 283.303 398.428C283.605 400.827 284.81 409.23 291.904 412.382C291.477 412.722 291.037 413.224 290.824 413.651C285.802 411.302 283.655 406.329 282.688 402.598C281.759 406.617 279.637 411.126 274.728 413.739C274.464 413.337 273.987 412.872 273.522 412.571C281.859 408.351 281.746 398.579 281.797 395.527H283.441V395.514Z" fill="black"/>
<path d="M310.222 397.524V413.199H308.64V411.591H296.826V413.299H295.319V397.524H310.235H310.222ZM308.64 410.084V399.006H296.826V410.084H308.64Z" fill="black"/>
<path d="M319.099 411.202C320.304 411.679 321.849 411.842 323.845 411.842C324.824 411.868 330.939 411.868 332.182 411.805C331.918 412.169 331.655 412.847 331.554 413.287H323.883C319.601 413.287 317.228 412.621 315.759 409.883C315.521 411.415 315.182 412.734 314.579 413.827C314.341 413.651 313.738 413.262 313.399 413.098C314.541 411.089 314.742 407.949 314.78 404.432L316.149 404.507C316.123 405.487 316.086 406.454 316.023 407.358C316.45 408.69 316.99 409.657 317.756 410.348V402.975H313.901V401.644H317.479V399.169H314.29V397.838H317.479V395.426H318.861V397.838H321.999V399.169H318.861V401.644H322.401V402.51C324.184 401.48 325.138 399.923 325.415 397.549H322.627V396.268H331.404C331.404 396.268 331.404 396.695 331.378 396.896C331.203 400.476 331.014 401.882 330.575 402.385C330.274 402.724 329.909 402.849 329.407 402.887C328.943 402.95 328.101 402.925 327.223 402.887C327.185 402.485 327.047 401.958 326.846 401.606C327.675 401.681 328.453 401.681 328.754 401.681C329.031 401.706 329.231 401.656 329.357 401.506C329.621 401.204 329.796 400.174 329.935 397.562H326.858C326.457 400.564 325.214 402.422 323.054 403.691C322.891 403.515 322.552 403.214 322.251 402.988H319.099V405.839H322.213V407.17H319.099V411.189V411.202ZM323.28 404.005H330.939V410.197H323.28V404.005ZM324.686 408.954H329.47V405.248H324.686V408.954Z" fill="black"/>
<path d="M339.301 411.101C340.582 411.667 342.214 411.842 344.311 411.842C345.215 411.842 351.103 411.842 352.271 411.805C352.032 412.169 351.769 412.847 351.668 413.287H344.311C339.929 413.287 337.443 412.558 335.886 409.632C335.647 411.076 335.221 412.521 334.455 413.752C334.254 413.425 333.752 412.985 333.45 412.847C334.856 410.473 334.995 407.132 334.932 404.482L336.2 404.545C336.225 405.387 336.2 406.278 336.162 407.158C336.602 408.527 337.167 409.531 337.933 410.235V403.163H333.789V401.82H337.606V399.27H334.53V397.938H337.606V395.464H338.987V397.938H342.001V399.27H338.987V401.82H342.402V403.163H339.289V405.914H342.076V407.245H339.289V411.101H339.301ZM346.521 405.588C346.596 405.952 346.759 406.492 346.885 406.73C343.47 408.715 342.967 409.067 342.666 409.381C342.566 409.016 342.264 408.376 342.026 408.074C342.39 407.873 342.93 407.472 342.93 406.668V398.931H346.784C346.747 397.8 346.709 396.632 346.684 395.477H348.065C348.065 396.657 348.09 397.825 348.128 398.931H352.083V400.212H348.19C348.329 402.259 348.529 404.068 348.768 405.525C349.509 404.294 350.074 402.912 350.501 401.468L351.668 401.794C351.091 403.842 350.237 405.713 349.182 407.321C349.584 408.702 350.024 409.494 350.551 409.494C350.877 409.494 351.053 408.615 351.116 406.605C351.392 406.906 351.819 407.183 352.158 407.308C351.932 410.021 351.53 410.85 350.388 410.85C349.509 410.85 348.781 410.021 348.253 408.602C347.312 409.732 346.269 410.674 345.102 411.378C344.863 411.051 344.474 410.574 344.173 410.31C345.541 409.582 346.747 408.464 347.776 407.095C347.337 405.261 347.035 402.912 346.872 400.237H344.273V406.856L346.521 405.613V405.588ZM350.601 398.654C350.174 398.026 349.358 396.971 348.655 396.205L349.697 395.64C350.375 396.406 351.241 397.411 351.668 398.014L350.601 398.654Z" fill="black"/>
<path d="M371.356 400.84C371.255 409.142 371.18 411.842 370.627 412.646C370.288 413.149 369.887 413.312 369.322 413.387C368.757 413.45 367.84 413.425 366.911 413.387C366.886 412.96 366.735 412.357 366.484 411.981C367.463 412.043 368.317 412.043 368.681 412.043C369.008 412.069 369.183 412.006 369.347 411.742C369.711 411.214 369.824 408.69 369.912 401.506H367.112C366.886 407.057 366.045 411.277 362.629 413.865C362.391 413.525 361.889 412.985 361.55 412.784C362.177 412.357 362.68 411.855 363.119 411.315L361.876 411.855C361.813 411.528 361.713 411.152 361.6 410.725C355.937 411.767 355.184 411.955 354.707 412.207C354.632 411.88 354.368 411.164 354.167 410.762C354.644 410.662 355.197 409.984 355.95 408.979C356.477 408.313 357.796 406.404 359.126 404.156C355.523 404.482 354.945 404.595 354.581 404.721V404.746C354.481 404.445 354.255 403.704 354.079 403.302C354.443 403.201 354.782 402.661 355.247 401.87C355.686 401.129 357.18 398.19 357.959 395.502L359.465 396.08C358.574 398.516 357.394 401.041 356.151 403.038L359.892 402.774C360.319 401.97 360.721 401.166 361.073 400.363L362.504 400.991C360.834 404.369 358.762 407.622 356.691 410.197L361.173 409.469C360.834 408.564 360.407 407.635 360.03 406.818L361.236 406.341C362.064 407.886 362.906 409.921 363.182 411.227C365.015 408.891 365.53 405.613 365.693 401.518H362.893V400.111H365.706C365.743 398.642 365.743 397.097 365.743 395.464H367.187C367.187 397.097 367.187 398.642 367.149 400.111H371.356V400.852V400.84Z" fill="black"/>
<path d="M392.122 409.205H384.853V413.814H383.346V409.205H374.067V407.76H377.357V402.372H383.346V399.32H378.462C377.558 400.865 376.491 402.234 375.411 403.276C375.135 403.038 374.507 402.535 374.13 402.334C376.014 400.689 377.708 398.089 378.65 395.401L380.157 395.766C379.881 396.469 379.554 397.197 379.228 397.876H391.206V399.32H384.853V402.372H390.741V403.779H384.853V407.76H392.122V409.205ZM383.333 407.76V403.779H378.839V407.76H383.333Z" fill="black"/>
<path d="M403.975 395.514C403.949 396.243 403.937 397.248 403.836 398.428C404.138 400.827 405.343 409.23 412.437 412.382C412.01 412.722 411.571 413.224 411.357 413.651C406.335 411.302 404.188 406.329 403.221 402.598C402.292 406.617 400.17 411.126 395.261 413.739C394.997 413.337 394.52 412.872 394.056 412.571C402.393 408.351 402.28 398.579 402.33 395.527H403.975V395.514Z" fill="black"/>
<path d="M430.756 397.524V413.199H429.174V411.591H417.359V413.299H415.853V397.524H430.769H430.756ZM429.174 410.084V399.006H417.359V410.084H429.174Z" fill="black"/>
<path d="M708.686 143.209C713.005 138.901 715.441 136.339 715.441 133.978C715.441 132.345 714.562 131.189 712.729 131.189C711.523 131.189 710.481 131.955 709.678 132.897L708.61 131.867C709.816 130.561 711.084 129.695 712.955 129.695C715.591 129.695 717.236 131.365 717.236 133.902C717.236 136.603 714.788 139.265 711.385 142.845C712.151 142.782 713.03 142.707 713.796 142.707H717.952V144.289H708.686V143.209Z" fill="black"/>
<path d="M719.936 137.08C719.936 132.269 721.681 129.707 724.543 129.707C727.406 129.707 729.126 132.295 729.126 137.08C729.126 141.865 727.394 144.553 724.543 144.553C721.693 144.553 719.936 141.878 719.936 137.08ZM727.331 137.08C727.331 132.872 726.201 131.164 724.531 131.164C722.861 131.164 721.718 132.872 721.718 137.08C721.718 141.287 722.848 143.096 724.531 143.096C726.213 143.096 727.331 141.287 727.331 137.08Z" fill="black"/>
<path d="M730.985 143.209C735.304 138.901 737.739 136.339 737.739 133.978C737.739 132.345 736.86 131.189 735.027 131.189C733.822 131.189 732.78 131.955 731.976 132.897L730.909 131.867C732.115 130.561 733.383 129.695 735.253 129.695C737.89 129.695 739.535 131.365 739.535 133.902C739.535 136.603 737.086 139.265 733.684 142.845C734.45 142.782 735.329 142.707 736.095 142.707H740.251V144.289H730.985V143.209Z" fill="black"/>
<path d="M741.807 142.606L742.711 141.401C743.552 142.242 744.62 143.033 746.327 143.033C748.035 143.033 749.466 141.765 749.466 139.78C749.466 137.796 748.261 136.603 746.415 136.603C745.436 136.603 744.808 136.929 743.967 137.482L742.987 136.854L743.452 129.958H750.621V131.528H745.059L744.695 135.811C745.36 135.447 746.001 135.208 746.88 135.208C749.328 135.208 751.324 136.615 751.324 139.717C751.324 142.82 748.989 144.566 746.503 144.566C744.205 144.566 742.799 143.599 741.82 142.619L741.807 142.606Z" fill="black"/>
<path d="M771.488 141.237H764.219V145.847H762.712V141.237H753.434V139.793H756.723V134.405H762.712V131.353H757.828C756.924 132.897 755.857 134.266 754.777 135.309C754.501 135.07 753.873 134.568 753.496 134.367C755.38 132.722 757.075 130.122 758.016 127.434L759.523 127.798C759.247 128.501 758.92 129.23 758.594 129.908H770.572V131.353H764.219V134.405H770.107V135.811H764.219V139.793H771.488V141.237ZM762.7 139.793V135.811H758.205V139.793H762.7Z" fill="black"/>
<path d="M549.845 163.318C548.766 164.159 547.61 164.951 546.405 165.666V166.546H555.232V167.89H546.405V170.678C546.405 171.444 546.732 171.607 548.389 171.607H554.114C555.546 171.607 555.784 171.205 555.947 168.932C556.311 169.171 556.952 169.397 557.391 169.497C557.128 172.286 556.588 172.976 554.202 172.976H548.376C545.639 172.976 544.873 172.537 544.873 170.703V166.546C543.367 167.387 541.797 168.128 540.19 168.781C539.952 168.442 539.449 167.814 539.11 167.475C542.011 166.408 544.798 165.001 547.309 163.318H539.487V161.936H546.317V159.198H541.232V157.816H546.317V155.104H547.786V157.816H552.808V158.721C553.65 157.816 554.441 156.874 555.156 155.882L556.525 156.586C555.119 158.532 553.411 160.341 551.565 161.936H557.391V163.318H549.833H549.845ZM549.243 161.936C550.348 161.095 551.39 160.165 552.331 159.198H547.711V161.936H549.243Z" fill="black"/>
<path d="M577.568 168.869H570.298V173.479H568.792V168.869H559.5V167.425H562.79V162.037H568.779V158.985H563.895C562.991 160.529 561.924 161.898 560.844 162.941C560.568 162.702 559.94 162.2 559.563 161.999C561.447 160.354 563.142 157.754 564.083 155.066L565.59 155.43C565.314 156.133 564.987 156.862 564.661 157.54H576.639V158.985H570.286V162.037H576.174V163.443H570.286V167.425H577.555V168.869H577.568ZM568.792 167.425V163.443H564.284V167.425H568.792Z" fill="black"/>
<path d="M589.42 155.179C589.395 155.907 589.383 156.912 589.282 158.093C589.584 160.492 590.789 168.894 597.883 172.047C597.456 172.386 597.016 172.888 596.803 173.315C591.781 170.967 589.634 165.993 588.667 162.263C587.738 166.282 585.616 170.791 580.707 173.403C580.443 173.001 579.966 172.537 579.501 172.235C587.838 168.015 587.725 158.243 587.776 155.191H589.42V155.179Z" fill="black"/>
<path d="M616.201 157.188V172.863H614.619V171.256H602.804V172.964H601.298V157.188H616.214H616.201ZM614.619 169.748V158.671H602.804V169.748H614.619Z" fill="black"/>
<path d="M619.503 167.387L624.249 165.641L627.263 164.511V164.436L624.249 163.305L619.503 161.559V159.952L629.134 163.732V165.214L619.503 168.995V167.387Z" fill="black"/>
<path d="M630.778 170.841C635.098 166.533 637.533 163.971 637.533 161.61C637.533 159.977 636.642 158.809 634.821 158.809C633.616 158.809 632.574 159.575 631.77 160.517L630.703 159.487C631.908 158.181 633.177 157.314 635.047 157.314C637.684 157.314 639.329 158.985 639.329 161.522C639.329 164.21 636.88 166.885 633.478 170.464C634.244 170.402 635.123 170.326 635.889 170.326H640.044V171.909H630.778V170.829V170.841Z" fill="black"/>
<path d="M642.028 164.712C642.028 159.901 643.774 157.327 646.636 157.327C649.499 157.327 651.219 159.927 651.219 164.712C651.219 169.497 649.486 172.185 646.636 172.185C643.786 172.185 642.028 169.51 642.028 164.712ZM649.424 164.712C649.424 160.504 648.294 158.796 646.636 158.796C644.979 158.796 643.824 160.504 643.824 164.712C643.824 168.92 644.954 170.728 646.636 170.728C648.319 170.728 649.424 168.92 649.424 164.712Z" fill="black"/>
<path d="M652.977 161.534C652.977 158.583 654.307 156.912 656.316 156.912C658.325 156.912 659.669 158.583 659.669 161.534C659.669 164.486 658.338 166.219 656.316 166.219C654.295 166.219 652.977 164.511 652.977 161.534ZM658.288 161.534C658.288 159.185 657.484 158.03 656.316 158.03C655.149 158.03 654.37 159.173 654.37 161.534C654.37 163.895 655.174 165.076 656.316 165.076C657.459 165.076 658.288 163.895 658.288 161.534ZM664.879 156.912H666.122L657.986 172.198H656.756L664.879 156.912ZM663.234 167.525C663.234 164.574 664.578 162.903 666.587 162.903C668.596 162.903 669.927 164.574 669.927 167.525C669.927 170.477 668.596 172.185 666.587 172.185C664.578 172.185 663.234 170.502 663.234 167.525ZM668.545 167.525C668.545 165.177 667.742 164.021 666.599 164.021C665.457 164.021 664.653 165.164 664.653 167.525C664.653 169.887 665.432 171.067 666.599 171.067C667.767 171.067 668.545 169.887 668.545 167.525Z" fill="black"/>
<path d="M673.63 167.086C675.175 166.445 676.066 165.503 676.167 164.134C676.041 164.159 675.941 164.159 675.828 164.159C674.999 164.159 674.321 163.682 674.321 162.727C674.321 161.773 675.024 161.283 675.853 161.283C676.958 161.283 677.56 162.187 677.56 163.594C677.56 165.767 676.192 167.412 674.082 168.153L673.643 167.086H673.63Z" fill="black"/>
<path d="M693.945 157.389C695.892 159.098 698.202 161.547 699.256 163.217L697.988 164.122C697.687 163.594 697.26 163.016 696.758 162.388C685.282 163.029 684.114 163.067 683.336 163.355C683.273 163.029 683.01 162.288 682.859 161.886C683.298 161.811 683.826 161.358 684.491 160.705C685.219 160.065 687.542 157.528 689.112 155.041L690.581 155.706C688.999 157.879 687.203 159.952 685.433 161.622L695.678 161.12C694.749 160.077 693.732 159.022 692.765 158.168L693.945 157.402V157.389ZM684.403 165.051H697.185V173.416H695.615V172.374H685.91V173.454H684.403V165.051ZM685.91 166.483V170.929H695.615V166.483H685.91Z" fill="black"/>
<path d="M704.505 163.808C703.927 163.167 702.659 162.263 701.629 161.698L702.471 160.693C703.513 161.195 704.781 162.062 705.409 162.677L704.505 163.808ZM702.019 172.449C702.747 170.904 703.789 168.304 704.53 166.056L705.697 166.835C705.032 168.932 704.153 171.381 703.362 173.202L702.019 172.436V172.449ZM704.856 158.595C704.316 157.93 703.086 156.988 702.081 156.36L702.948 155.38C703.952 155.945 705.195 156.849 705.76 157.515L704.856 158.595ZM707.091 162.514C706.89 163.494 706.589 164.586 706.212 165.29C706.049 165.152 705.672 164.925 705.471 164.812C705.848 164.084 706.074 163.205 706.237 162.313L707.104 162.514H707.091ZM709.791 161.735C709.728 161.559 709.652 161.308 709.552 161.095C706.815 161.459 706.363 161.572 706.074 161.723C706.036 161.547 705.848 161.145 705.735 160.944C706.036 160.906 706.313 160.642 706.664 160.241C706.89 160.04 707.405 159.462 707.907 158.733C706.601 158.859 706.262 158.934 706.061 159.01C705.999 158.834 705.836 158.432 705.723 158.244C705.961 158.206 706.124 158.017 706.325 157.716C706.526 157.452 707.254 156.309 707.568 155.242L708.51 155.581C708.171 156.41 707.669 157.264 707.166 157.93L708.51 157.829C708.686 157.528 708.874 157.251 709.037 156.925L709.941 157.327C709.238 158.47 708.372 159.625 707.468 160.542L709.238 160.316C709.113 160.09 708.974 159.876 708.861 159.65L709.602 159.386C710.029 160.027 710.431 160.856 710.569 161.358L709.803 161.723L709.791 161.735ZM719.119 169.46C719.119 169.46 719.094 169.887 719.044 170.062C718.667 171.796 718.266 172.675 717.713 173.077C717.286 173.378 716.872 173.454 716.206 173.454C715.604 173.479 714.398 173.454 713.13 173.378C713.093 173.039 712.929 172.549 712.703 172.235C713.984 172.361 715.302 172.374 715.792 172.374C716.231 172.374 716.432 172.348 716.633 172.21C716.972 171.984 717.236 171.469 717.5 170.477H706.928C707.254 169.635 707.556 168.467 707.794 167.488H716.859V166.445H707.078V165.478H718.253V168.455H708.949C708.874 168.794 708.773 169.133 708.673 169.46H719.119ZM707.97 164.951C707.945 164.31 707.769 163.268 707.531 162.476L708.309 162.275C708.573 163.054 708.774 164.046 708.786 164.674L707.957 164.951H707.97ZM709.753 161.961C710.092 162.665 710.393 163.544 710.481 164.109L709.715 164.448C709.615 163.87 709.339 162.941 709.012 162.2L709.753 161.961ZM715.101 158.043H710.28V157.113H712.415C712.276 156.636 711.912 155.983 711.636 155.531L712.666 155.267C712.992 155.732 713.344 156.435 713.532 156.849L712.653 157.113H715.127V158.043H715.101ZM710.82 161.798H714.599V164.75H710.82V161.798ZM714.574 159.587H710.87V158.746H714.574V159.587ZM710.87 160.228H714.574V161.057H710.87V160.228ZM711.799 163.933H713.57V162.602H711.799V163.933ZM716.407 162.451C716.232 163.418 715.905 164.486 715.541 165.227C715.378 165.089 714.976 164.825 714.763 164.699C715.164 164.021 715.39 163.117 715.541 162.25L716.407 162.451ZM719.182 161.785C719.119 161.559 719.006 161.321 718.881 161.019C716.144 161.421 715.667 161.547 715.378 161.647C715.34 161.484 715.152 161.07 715.039 160.869C715.365 160.831 715.616 160.592 715.98 160.203C716.206 159.977 716.683 159.424 717.211 158.696C715.905 158.796 715.566 158.872 715.365 158.972C715.302 158.796 715.139 158.369 715.026 158.193C715.265 158.168 715.403 157.967 715.604 157.691C715.83 157.415 716.545 156.284 716.872 155.217L717.814 155.556C717.475 156.385 716.972 157.226 716.47 157.892L717.801 157.816C718.002 157.515 718.178 157.214 718.341 156.912L719.27 157.314C718.567 158.457 717.688 159.587 716.797 160.504L718.542 160.278C718.416 160.052 718.303 159.839 718.178 159.638L718.881 159.374C719.345 160.014 719.785 160.919 719.948 161.484L719.182 161.785ZM717.299 165.126C717.274 164.448 717.073 163.318 716.797 162.451L717.6 162.25C717.876 163.117 718.077 164.197 718.102 164.863L717.299 165.126ZM719.044 161.924C719.471 162.727 719.81 163.795 719.923 164.436L719.144 164.8C719.044 164.071 718.705 163.016 718.316 162.162L719.044 161.924Z" fill="black"/>
<path d="M726.401 155.141H727.783V173.479H726.401V166.458H724.217V166.935C724.217 168.668 723.991 171.494 722.773 173.504C722.509 173.24 721.994 172.901 721.63 172.775C722.735 170.929 722.898 168.43 722.898 166.885V166.445H721.819V165.114H726.427V162.162H722.673V155.895H724.003V160.856H726.439V155.129L726.401 155.141ZM739.422 157.214C737.676 161.559 733.47 164.046 729.252 165.214C729.113 164.875 728.774 164.385 728.511 164.084C730.62 163.607 732.792 162.652 734.563 161.308C733.998 160.467 732.993 159.424 732.026 158.608C731.097 159.248 730.093 159.813 729.076 160.278C728.85 160.04 728.41 159.6 728.147 159.349C730.52 158.382 732.755 156.711 733.897 155.091L735.341 155.518C735.015 155.958 734.638 156.385 734.198 156.799H738.254L738.518 156.736L739.422 157.201V157.214ZM740.087 166.696H737.501V171.507C737.501 172.348 737.325 172.775 736.722 173.014C736.12 173.253 735.14 173.278 733.546 173.278C733.483 172.851 733.282 172.273 733.068 171.846C734.274 171.884 735.354 171.871 735.655 171.846C735.981 171.846 736.082 171.771 736.082 171.482V166.696H728.486V165.365H736.082V162.526H737.513V165.365H740.1V166.696H740.087ZM732.868 161.61C731.399 161.836 730.017 162.012 728.787 162.187L728.523 161.057C729.666 160.956 731.16 160.755 732.78 160.555L732.855 161.597L732.868 161.61ZM731.06 167.174C732.089 168.116 733.207 169.485 733.709 170.389L732.478 171.155C732.014 170.226 730.909 168.869 729.905 167.864L731.047 167.186L731.06 167.174ZM732.968 157.904L732.943 157.929C733.885 158.708 734.889 159.7 735.492 160.529C736.333 159.763 737.061 158.897 737.589 157.917H732.968V157.904Z" fill="black"/>
<path d="M760.013 171.118V172.587H742.121V171.118H744.858V161.71H746.365V171.118H750.784V158.03H742.887V156.586H759.347V158.03H752.316V163.381H758.581V164.85H752.316V171.118H760.013Z" fill="black"/>
<path d="M774.175 160.291C774.652 167.061 776.247 171.946 778.231 171.946C778.771 171.946 779.009 170.841 779.135 168.166C779.474 168.505 780.039 168.832 780.466 168.995C780.202 172.474 779.637 173.491 778.118 173.491C774.841 173.491 773.171 167.726 772.656 160.278H762.285V158.834H772.556C772.493 157.653 772.48 156.422 772.455 155.191H774.025C774.025 156.435 774.05 157.641 774.1 158.834H780.051V160.278H774.188L774.175 160.291ZM768.023 170.238C769.429 169.937 770.873 169.661 772.317 169.334L772.443 170.64C769.04 171.469 765.374 172.311 762.812 172.876L762.348 171.406C763.478 171.18 764.934 170.879 766.542 170.565V164.737H762.963V163.293H771.765V164.737H768.01V170.251L768.023 170.238ZM778.168 158.595C777.59 157.892 776.335 156.812 775.318 156.083L776.322 155.254C777.352 155.932 778.62 156.962 779.21 157.653L778.168 158.595Z" fill="black"/>
<path d="M787.396 164.938C787.12 166.684 786.668 168.191 786.066 169.46C787.409 171.557 789.908 171.846 793.561 171.846C795.645 171.846 798.571 171.745 800.617 171.582C800.391 171.909 800.191 172.587 800.115 173.014C798.244 173.114 795.758 173.177 793.561 173.177C789.543 173.177 787.045 172.75 785.488 170.59C784.722 171.858 783.843 172.826 782.814 173.529C782.613 173.228 782.111 172.7 781.822 172.499C783.73 171.268 785.199 169.058 785.84 165.93H783.667C783.14 165.93 782.625 166.056 782.487 166.206C782.387 165.842 782.085 165.164 781.922 164.837C782.224 164.762 782.55 164.636 782.889 164.26C783.366 163.795 784.559 162.212 785.425 160.982H782.211V159.751H786.367L786.631 159.65L787.61 160.115C786.744 161.283 785.237 163.355 784.094 164.699H786.379L786.643 164.662L787.384 164.938H787.396ZM785.463 159.022C784.923 158.181 783.818 156.812 782.927 155.832L784.032 155.154C784.936 156.121 786.04 157.402 786.605 158.206L785.463 159.035V159.022ZM789.117 161.358C788.614 162.124 788.112 162.79 787.585 163.368C787.422 163.104 787.007 162.476 786.718 162.225C788.351 160.492 789.795 157.879 790.724 155.254L791.967 155.618C791.64 156.56 791.226 157.502 790.799 158.432H794.716C794.415 157.628 793.888 156.598 793.436 155.794L794.666 155.417C795.269 156.359 795.897 157.603 796.198 158.432H799.651V159.675H795.332V161.723H799.086V162.903H795.332V164.976H799.111V166.156H795.332V168.304H800.09V169.585H789.117V161.346V161.358ZM794.001 159.675H790.485V161.723H794.001V159.675ZM794.001 162.916H790.485V164.988H794.001V162.916ZM794.001 166.169H790.485V168.317H794.001V166.169Z" fill="black"/>
<path d="M812.281 156.322C812.281 159.876 812.746 167.462 820.618 172.147C820.279 172.386 819.677 173.027 819.413 173.391C814.466 170.389 812.344 165.993 811.44 162.187C809.959 167.4 807.422 171.055 803.417 173.403C803.141 173.102 802.476 172.474 802.074 172.223C806.518 169.912 808.992 165.867 810.21 160.241L811.089 160.379C810.95 159.449 810.863 158.57 810.825 157.804H805.878V156.322H812.269H812.281Z" fill="black"/>
<path d="M827.687 170.866C828.892 171.344 830.437 171.507 832.433 171.507C833.412 171.532 839.527 171.532 840.77 171.469C840.506 171.833 840.243 172.512 840.142 172.951H832.471C828.189 172.951 825.816 172.286 824.347 169.548C824.109 171.08 823.77 172.399 823.167 173.491C822.928 173.316 822.326 172.926 821.987 172.763C823.129 170.753 823.33 167.613 823.368 164.096L824.736 164.172C824.711 165.152 824.674 166.119 824.611 167.023C825.038 168.354 825.578 169.321 826.344 170.012V162.64H822.489V161.308H826.067V158.834H822.878V157.502H826.067V155.091H827.449V157.502H830.587V158.834H827.449V161.308H830.989V162.175C832.772 161.145 833.726 159.587 834.002 157.214H831.203V155.932H839.992C839.992 155.932 839.991 156.36 839.966 156.56C839.791 160.14 839.602 161.547 839.163 162.049C838.861 162.388 838.497 162.514 837.995 162.552C837.531 162.614 836.689 162.589 835.81 162.552C835.773 162.15 835.635 161.622 835.434 161.27C836.263 161.346 837.041 161.346 837.342 161.346C837.618 161.371 837.819 161.321 837.945 161.17C838.209 160.869 838.384 159.839 838.522 157.226H835.446C835.045 160.228 833.802 162.087 831.642 163.355C831.479 163.18 831.14 162.878 830.838 162.652H827.687V165.503H830.801V166.835H827.687V170.854V170.866ZM831.868 163.669H839.527V169.862H831.868V163.669ZM833.274 168.618H838.058V164.913H833.274V168.618Z" fill="black"/>
<path d="M860.219 157.214V158.495H842.716V157.214H850.94C850.764 156.636 850.513 155.945 850.312 155.38L851.756 155.041C852.033 155.719 852.334 156.573 852.56 157.214H860.219ZM859.578 171.884C859.578 172.612 859.403 172.914 858.85 173.115C858.323 173.29 857.469 173.316 856.201 173.29C856.126 172.951 855.9 172.487 855.724 172.185C856.59 172.223 857.507 172.21 857.758 172.21C858.022 172.185 858.097 172.135 858.097 171.884V165.993H844.888V173.454H843.445V164.725H859.578V171.884ZM857.406 159.625V163.644H845.755V159.625H857.406ZM855.598 171.306H848.53V172.286H847.148V167.174H855.611V171.293L855.598 171.306ZM855.875 160.73H847.211V162.539H855.875V160.73ZM848.517 168.317V170.188H854.242V168.317H848.517Z" fill="black"/>
<path d="M871.707 160.768H862.403V159.562H863.835V156.272H865.015V159.562H866.597V155.116H867.84V156.887H871.054V158.03H867.84V159.562H871.694V160.768H871.707ZM869.974 161.446H871.104V173.002H869.974V172.26H863.081V161.446H864.186V165.453H869.974V161.446ZM869.974 171.118V166.596H864.186V171.118H869.974ZM866.371 170.477C866.208 170.201 865.969 169.849 865.705 169.497C865.479 170.062 865.178 170.565 864.827 170.967C864.701 170.829 864.387 170.49 864.186 170.339C864.952 169.535 865.291 168.329 865.429 166.922L866.296 167.048C866.233 167.588 866.132 168.091 866.019 168.58C866.396 169.045 866.798 169.548 866.999 169.887L866.371 170.49V170.477ZM866.296 161.283C866.233 161.823 866.157 162.313 866.032 162.79C866.371 163.217 866.76 163.72 866.936 164.059L866.333 164.662C866.195 164.398 865.957 164.084 865.731 163.732C865.505 164.272 865.203 164.762 864.827 165.164C864.726 165.026 864.4 164.687 864.199 164.536C864.965 163.732 865.304 162.564 865.442 161.195L866.283 161.27L866.296 161.283ZM869.284 165.089C869.045 164.724 868.656 164.159 868.279 163.682C868.041 164.222 867.714 164.712 867.313 165.089C867.187 164.963 866.886 164.624 866.672 164.486C867.513 163.707 867.878 162.577 868.041 161.208L868.907 161.333C868.832 161.861 868.731 162.338 868.581 162.815C869.058 163.355 869.61 164.046 869.861 164.461L869.284 165.089ZM869.321 170.917C869.083 170.54 868.681 169.975 868.292 169.472C868.053 170.012 867.727 170.515 867.35 170.917C867.225 170.778 866.886 170.452 866.71 170.289C867.539 169.51 867.89 168.342 868.078 166.935L868.907 167.073C868.844 167.601 868.744 168.103 868.606 168.58C869.108 169.158 869.648 169.849 869.937 170.289L869.334 170.917H869.321ZM876.779 155.581C876.679 155.857 876.553 156.146 876.453 156.447C877.52 158.52 879.291 160.756 880.797 161.898C880.521 162.175 880.119 162.702 879.893 163.041C878.562 161.861 877.018 159.763 875.888 157.691C875.31 158.922 874.62 160.128 873.854 161.208H878.198V162.514H873.804V161.283C873.327 161.961 872.774 162.627 872.234 163.192C872.033 162.928 871.556 162.413 871.305 162.162C873.151 160.354 874.745 157.553 875.562 155.129L876.767 155.568L876.779 155.581ZM880.232 165.126C879.341 167.036 877.759 169.234 876.553 170.678C877.181 171.344 877.759 171.984 878.198 172.487L877.231 173.491C876.353 172.323 874.519 170.376 873.151 169.007L874.055 168.166C874.532 168.631 875.097 169.196 875.662 169.774C876.566 168.706 877.671 167.161 878.437 165.792H872.347V164.486H879.115L879.316 164.41L880.22 165.139L880.232 165.126Z" fill="black"/>
<path d="M889.297 155.644C888.72 156.95 888.054 158.231 887.289 159.437V173.466H885.845V161.559C884.978 162.702 884.062 163.745 883.133 164.611C882.969 164.247 882.555 163.481 882.292 163.129C884.476 161.245 886.636 158.243 887.916 155.166L889.297 155.631V155.644ZM897.772 171.419C898.902 171.419 899.053 170.54 899.216 167.098C899.593 167.4 900.183 167.676 900.597 167.776C900.359 171.494 899.957 172.788 897.848 172.788H894.031C892.047 172.788 891.419 172.21 891.419 170.075V155.417H892.863V160.881H899.995V162.325H892.863V170.1C892.863 171.168 893.089 171.406 894.131 171.406H897.772V171.419Z" fill="black"/>
<path d="M909.336 167.324C908.909 166.747 908.005 165.679 907.239 164.825V173.454H905.77V165.277C904.866 166.181 903.925 166.985 902.995 167.588C902.87 167.161 902.531 166.42 902.317 166.144C904.527 164.837 906.863 162.426 908.143 159.927H902.857V158.557H908.922L909.198 158.495L910.001 159.072C909.399 160.555 908.52 162.024 907.49 163.318C908.294 164.084 909.826 165.654 910.265 166.093L909.323 167.324H909.336ZM906.863 158.432C906.498 157.691 905.695 156.548 904.979 155.757L906.109 155.091C906.875 155.87 907.716 156.962 908.055 157.678L906.875 158.419L906.863 158.432ZM920.925 171.218V172.687H909.449V171.218H914.735V162.815H910.391V161.371H914.735V155.078H916.216V161.371H920.498V162.815H916.216V171.218H920.925Z" fill="black"/>
<path d="M933.041 155.518C932.94 155.644 932.865 155.782 932.765 155.895C934.648 157.729 938.126 159.349 941.265 160.077C940.938 160.354 940.536 160.881 940.323 161.245C938.691 160.781 936.971 160.102 935.401 159.211V159.839H928.433V159.273C926.901 160.14 925.194 160.818 923.511 161.346C923.348 161.07 922.934 160.479 922.67 160.203C926.311 159.236 929.864 157.465 931.76 155.041L933.066 155.518H933.041ZM925.143 160.831H938.565V165.893H925.143V160.831ZM926.311 166.847H937.611V173.378H936.104V172.775H927.78V173.441H926.311V166.847ZM926.437 164.875H931.183V161.886H926.437V164.875ZM928.709 162.099C929.236 162.803 929.739 163.732 929.915 164.373L928.772 164.8C928.609 164.159 928.144 163.192 927.642 162.451L928.709 162.112V162.099ZM927.78 167.915V169.284H936.104V167.915H927.78ZM936.104 171.72V170.351H927.78V171.72H936.104ZM934.598 158.771C933.631 158.168 932.727 157.49 931.961 156.761C931.195 157.503 930.316 158.193 929.349 158.771H934.598ZM937.234 161.886H932.451V164.875H937.234V161.886ZM933.731 164.436C934.095 163.77 934.61 162.702 934.836 162.024L936.104 162.426C935.665 163.293 935.163 164.197 934.736 164.8L933.731 164.436Z" fill="black"/>
<path d="M315.521 150.042V97.7922" stroke="black" stroke-width="0.5" stroke-miterlimit="10"/>
<path d="M332.86 479.867V424.578" stroke="black" stroke-width="0.5" stroke-miterlimit="10"/>
<path d="M442.822 90.6707V553.042" stroke="#030000" stroke-miterlimit="10"/>
</svg>
