<?xml version="1.0" encoding="utf-8"?>
<!-- Generator: Adobe Illustrator 26.1.0, SVG Export Plug-In . SVG Version: 6.00 Build 0)  -->
<svg version="1.1" id="圖層_1" xmlns="http://www.w3.org/2000/svg" xmlns:xlink="http://www.w3.org/1999/xlink" x="0px" y="0px"
	 viewBox="0 0 470 370" style="enable-background:new 0 0 470 370;" xml:space="preserve">
<style type="text/css">
	.st0{fill:none;stroke:#E6E6E6;}
	.st1{fill:#AE441F;}
</style>
<path d="M32.3,329.8c0,2.5-1,5.2-3.3,5.2s-3.3-2.7-3.3-5.2s1-5.2,3.3-5.2S32.3,327.3,32.3,329.8z M27.1,329.8c0,1.5,0.1,4.8,1.9,4.8
	s1.9-3.2,1.9-4.8S30.7,325,29,325S27.1,328.2,27.1,329.8z"/>
<path d="M22,205.8c0.7,0,1.2-0.1,1.5-0.4c0.3-0.3,0.4-0.5,0.5-0.7c0.1,0,0.3,0,0.4,0.1c-0.2,0.8-0.5,1.6-0.7,1.9
	c-0.7,0-1.3-0.1-2.1-0.1h-2.3c-0.9,0-1.4,0-1.8,0.1c0,0-0.1-0.1-0.1-0.2c0-0.1,0.1-0.1,0.2-0.2c0.7-0.5,1.3-1,2.5-2.3
	c1.1-1.1,2.3-2.7,2.3-4.4c0-1.5-0.7-2.3-2-2.3c-1,0-1.6,0.7-2.1,1.6c-0.1,0.1-0.4,0-0.4-0.2c0.5-1.4,1.8-2.3,3.2-2.3
	c1.6,0,2.6,1.1,2.6,2.6c0,1-0.5,2.1-1.7,3.5l-1,1.1c-1.3,1.5-1.5,1.8-1.5,1.9c0,0.1,0.1,0.1,0.5,0.1L22,205.8L22,205.8z"/>
<path d="M32.3,201.8c0,2.5-1,5.2-3.3,5.2s-3.3-2.7-3.3-5.2s1-5.2,3.3-5.2S32.3,199.4,32.3,201.8z M27.1,201.8c0,1.5,0.1,4.8,1.9,4.8
	s1.9-3.2,1.9-4.8S30.7,197,29,197S27.1,200.3,27.1,201.8z"/>
<path d="M17.6,141.5c0-0.3,0.2-0.6,0.6-0.6c0.4,0,0.6,0.3,0.8,0.6c0.2,0.3,0.4,0.5,0.9,0.5c1,0,2.9-1.4,2.9-3.1
	c0-1.4-0.7-2.6-2.1-2.6c-0.8,0-1.4,0.4-1.7,0.8c-0.3,0-0.4-0.3-0.4-0.6c0.6-0.3,1.9-0.9,2.6-1.4c0.3-0.3,0.8-0.8,0.8-1.5
	c0-0.9-0.6-1.4-1.3-1.4c-0.9,0-1.7,0.6-2.2,1.4c-0.2,0-0.3-0.1-0.3-0.2c0.5-1.1,1.7-1.9,2.9-1.9c1.3,0,2.2,0.7,2.2,1.8
	c0,0.7-0.3,1.3-1.7,2.1c-0.1,0.2,0,0.2,0.2,0.2c1.2,0.1,2.3,0.9,2.3,2.5c0,1.2-0.6,2.3-1.5,3.2c-1.2,1-2.6,1.4-3.4,1.4
	C18.5,142.5,17.6,142.3,17.6,141.5L17.6,141.5z"/>
<path d="M32.3,136.6c0,2.5-1,5.2-3.3,5.2s-3.3-2.7-3.3-5.2c0-2.5,1-5.2,3.3-5.2S32.3,134.2,32.3,136.6z M27.1,136.6
	c0,1.5,0.1,4.8,1.9,4.8s1.9-3.2,1.9-4.8s-0.1-4.8-1.9-4.8S27.1,135.1,27.1,136.6z"/>
<path d="M17.5,73.4c-0.1,0-0.2-0.1-0.2-0.3c0-0.2,0.1-0.3,0.3-0.6l5.1-7.2c0.1-0.1,0.2-0.2,0.4-0.2h0.3c0.2,0,0.2,0.1,0.2,0.1
	c0,0,0,0.1-0.1,0.2l-5.1,7c-0.2,0.3,0,0.3,0.4,0.3h2.5c0.4,0,0.4,0,0.4-0.4v-2.9c0-0.1,0-0.2,0.1-0.3c0.2-0.1,0.6-0.3,0.8-0.3
	c0.2,0,0.2,0.2,0.2,0.5v3.1c0,0.3,0.1,0.4,0.3,0.4h1c0.1,0.1,0.1,0.5,0,0.7h-0.9c-0.4,0-0.5,0-0.5,0.3v0.7c0,1.3,0,1.5,0.7,1.5
	l0.4,0.1c0.1,0.1,0.1,0.3,0,0.4c-0.6,0-1.2-0.1-1.7-0.1c-0.6,0-1.3,0-2,0.1c-0.1-0.1-0.1-0.3,0-0.4l0.7-0.1c0.7,0,0.7-0.3,0.7-1.5
	v-0.7c0-0.4,0-0.4-0.5-0.4L17.5,73.4L17.5,73.4z"/>
<path d="M32.3,71.4c0,2.5-1,5.2-3.3,5.2s-3.3-2.7-3.3-5.2c0-2.5,1-5.2,3.3-5.2S32.3,69,32.3,71.4z M27.1,71.4c0,1.5,0.1,4.8,1.9,4.8
	s1.9-3.2,1.9-4.8s-0.1-4.8-1.9-4.8S27.1,69.9,27.1,71.4z"/>
<path d="M20.5,263.9c0-1.1,0-1.4-0.8-1.5l-0.8-0.1c-0.1-0.1-0.1-0.3,0-0.4c1.3-0.2,2.2-0.7,2.6-0.9c0.1,0,0.1,0,0.2,0.1
	c0,0.3-0.1,1.1-0.1,2v6.2c0,1.2,0,1.5,0.7,1.5l0.7,0.1c0.1,0.1,0.1,0.3,0,0.4c-0.6,0-1.3-0.1-1.9-0.1s-1.3,0-1.9,0.1
	c-0.1-0.1-0.1-0.3,0-0.4l0.7-0.1c0.7,0,0.7-0.3,0.7-1.5L20.5,263.9L20.5,263.9z"/>
<path d="M32.3,266.3c0,2.5-1,5.2-3.3,5.2s-3.3-2.7-3.3-5.2c0-2.5,1-5.2,3.3-5.2S32.3,263.9,32.3,266.3z M27.1,266.3
	c0,1.5,0.1,4.8,1.9,4.8s1.9-3.2,1.9-4.8s-0.1-4.8-1.9-4.8S27.1,264.8,27.1,266.3z"/>
<path d="M52.3,352.5c3.4-3.4,5.4-5.5,5.4-7.3c0-1.3-0.7-2.2-2.2-2.2c-1,0-1.8,0.6-2.4,1.4l-0.8-0.8c1-1,2-1.7,3.5-1.7
	c2.1,0,3.4,1.3,3.4,3.4c0,2.1-2,4.3-4.7,7.1c0.6,0,1.3-0.1,1.9-0.1h3.3v1.3h-7.4V352.5L52.3,352.5z"/>
<path d="M61.3,347.7c0-3.8,1.4-5.9,3.7-5.9s3.7,2.1,3.7,5.9c0,3.8-1.4,5.9-3.7,5.9C62.7,353.6,61.3,351.5,61.3,347.7z M67.2,347.7
	c0-3.4-0.9-4.7-2.2-4.7s-2.2,1.4-2.2,4.7c0,3.3,0.9,4.8,2.2,4.8C66.3,352.5,67.2,351,67.2,347.7z"/>
<path d="M70,345.1c0-2.4,1.1-3.7,2.7-3.7c1.6,0,2.7,1.3,2.7,3.7c0,2.3-1.1,3.7-2.7,3.7C71.1,348.9,70,347.5,70,345.1z M74.3,345.1
	c0-1.9-0.6-2.8-1.6-2.8c-0.9,0-1.5,0.9-1.5,2.8c0,1.9,0.6,2.8,1.5,2.8C73.6,348,74.3,347,74.3,345.1z M79.5,341.5h1L74,353.6h-1
	L79.5,341.5z M78.2,349.9c0-2.4,1.1-3.7,2.7-3.7c1.6,0,2.7,1.3,2.7,3.7s-1.1,3.7-2.7,3.7C79.3,353.6,78.2,352.3,78.2,349.9z
	 M82.4,349.9c0-1.9-0.6-2.8-1.6-2.8c-0.9,0-1.5,0.9-1.5,2.8s0.6,2.8,1.5,2.8S82.4,351.8,82.4,349.9z"/>
<path d="M91.6,350.1c-2.2,1-4.6,2.1-6.4,2.8l-0.4-1.2c0.6-0.2,1.4-0.5,2.2-0.9l-0.3-9.9l1.2-0.1l0.2,9.4c1-0.4,2.1-0.9,3.1-1.3
	L91.6,350.1z M98.6,354.6c-0.7-1.1-2.2-2.8-3.6-4.2c-1.2,1.9-3,3.3-5.5,4.3c-0.2-0.2-0.7-0.8-0.9-1c5.5-2,7.2-5.9,7.9-12.8l1.3,0.1
	c-0.4,3.4-1,6.1-2.1,8.3c1.4,1.4,3.1,3.2,3.9,4.4L98.6,354.6L98.6,354.6z M92.5,346.4c-0.4-1.1-1.5-2.7-2.5-3.9l1.1-0.5
	c1.1,1.2,2.1,2.7,2.5,3.8L92.5,346.4L92.5,346.4z"/>
<path d="M108.5,342.4v2.8l0.2-0.2c1.9,0.9,4.4,2.4,5.7,3.3l-0.8,1.1c-1.1-0.9-3.2-2.2-5.1-3.2v8.4h-1.3v-12.2h-6.1v-1.2h14.1v1.2
	L108.5,342.4L108.5,342.4z"/>
<path d="M138.4,352.5c3.4-3.4,5.4-5.5,5.4-7.3c0-1.3-0.7-2.2-2.2-2.2c-1,0-1.8,0.6-2.4,1.4l-0.9-0.8c1-1,2-1.7,3.5-1.7
	c2.1,0,3.4,1.3,3.4,3.4c0,2.1-2,4.3-4.7,7.1c0.6,0,1.3-0.1,1.9-0.1h3.3v1.3h-7.4V352.5L138.4,352.5z"/>
<path d="M147.4,347.7c0-3.8,1.4-5.9,3.7-5.9s3.7,2.1,3.7,5.9c0,3.8-1.4,5.9-3.7,5.9S147.4,351.5,147.4,347.7z M153.3,347.7
	c0-3.4-0.9-4.7-2.2-4.7s-2.2,1.4-2.2,4.7c0,3.3,0.9,4.8,2.2,4.8S153.3,351,153.3,347.7z"/>
<path d="M156.2,348.4h4.1v1.1h-4.1V348.4z"/>
<path d="M166.5,350.3h-5.1v-1l4.9-7.3h1.6v7.1h1.6v1.2h-1.6v3.1h-1.4V350.3z M166.5,349.1v-3.4c0-0.6,0.1-1.6,0.1-2.2h-0.1
	c-0.3,0.5-0.6,1-0.9,1.6l-2.7,3.9L166.5,349.1L166.5,349.1z"/>
<path d="M170.7,347.7c0-3.8,1.4-5.9,3.7-5.9s3.7,2.1,3.7,5.9c0,3.8-1.4,5.9-3.7,5.9C172.1,353.6,170.7,351.5,170.7,347.7z
	 M176.6,347.7c0-3.4-0.9-4.7-2.2-4.7s-2.2,1.4-2.2,4.7c0,3.3,0.9,4.8,2.2,4.8S176.6,351,176.6,347.7z"/>
<path d="M180.1,344.9c0-2.4,1.1-3.7,2.7-3.7s2.7,1.3,2.7,3.7c0,2.4-1.1,3.7-2.7,3.7S180.1,347.3,180.1,344.9z M184.3,344.9
	c0-1.9-0.6-2.8-1.6-2.8c-0.9,0-1.6,0.9-1.6,2.8c0,1.9,0.6,2.8,1.6,2.8C183.7,347.8,184.3,346.8,184.3,344.9z M189.6,341.2h1
	l-6.5,12.2h-1L189.6,341.2z M188.2,349.7c0-2.4,1.1-3.7,2.7-3.7c1.6,0,2.7,1.3,2.7,3.7c0,2.4-1.1,3.7-2.7,3.7
	S188.2,352.1,188.2,349.7z M192.5,349.7c0-1.9-0.6-2.8-1.6-2.8s-1.6,0.9-1.6,2.8c0,1.9,0.6,2.8,1.6,2.8
	C191.8,352.5,192.5,351.6,192.5,349.7z"/>
<path d="M227.3,350.3h-5.1v-1l4.9-7.3h1.6v7.1h1.6v1.2h-1.6v3.1h-1.4V350.3z M227.3,349.1v-3.4c0-0.6,0.1-1.6,0.1-2.2h-0.1
	c-0.3,0.5-0.6,1-0.9,1.6l-2.7,3.9L227.3,349.1L227.3,349.1z"/>
<path d="M231.5,347.7c0-3.8,1.4-5.9,3.7-5.9s3.6,2.1,3.6,5.9c0,3.8-1.4,5.9-3.6,5.9S231.5,351.5,231.5,347.7z M237.4,347.7
	c0-3.4-0.9-4.7-2.2-4.7c-1.3,0-2.2,1.4-2.2,4.7c0,3.3,0.9,4.8,2.2,4.8C236.5,352.5,237.4,351,237.4,347.7z"/>
<path d="M240.4,348.4h4.1v1.1h-4.1V348.4z"/>
<path d="M246,348.1c0-4.6,2.1-6.4,4.4-6.4c1.2,0,2.1,0.5,2.7,1.2l-0.8,0.9c-0.5-0.6-1.2-0.9-1.9-0.9c-1.6,0-3,1.2-3,4.9
	c0.7-0.9,1.8-1.4,2.7-1.4c2,0,3.2,1.2,3.2,3.5c0,2.2-1.5,3.7-3.4,3.7C247.7,353.6,246,351.8,246,348.1L246,348.1z M247.4,349.1
	c0.2,2.2,1.1,3.4,2.5,3.4c1.1,0,2-1,2-2.5c0-1.5-0.7-2.4-2.1-2.4C249.1,347.5,248.2,347.9,247.4,349.1L247.4,349.1z"/>
<path d="M254.8,347.7c0-3.8,1.4-5.9,3.7-5.9s3.6,2.1,3.6,5.9c0,3.8-1.4,5.9-3.6,5.9C256.2,353.6,254.8,351.5,254.8,347.7z
	 M260.7,347.7c0-3.4-0.9-4.7-2.2-4.7s-2.2,1.4-2.2,4.7c0,3.3,0.9,4.8,2.2,4.8S260.7,351,260.7,347.7z"/>
<path d="M264.2,344.9c0-2.4,1.1-3.7,2.7-3.7c1.6,0,2.7,1.3,2.7,3.7c0,2.4-1.1,3.7-2.7,3.7S264.2,347.3,264.2,344.9z M268.4,344.9
	c0-1.9-0.6-2.8-1.6-2.8c-0.9,0-1.6,0.9-1.6,2.8c0,1.9,0.6,2.8,1.6,2.8C267.8,347.8,268.4,346.8,268.4,344.9z M273.7,341.2h1
	l-6.5,12.2h-1L273.7,341.2z M272.4,349.7c0-2.4,1.1-3.7,2.7-3.7s2.7,1.3,2.7,3.7c0,2.4-1.1,3.7-2.7,3.7
	C273.4,353.4,272.4,352.1,272.4,349.7z M276.6,349.7c0-1.9-0.6-2.8-1.6-2.8c-1,0-1.6,0.9-1.6,2.8c0,1.9,0.6,2.8,1.6,2.8
	C276,352.5,276.6,351.6,276.6,349.7z"/>
<path d="M309.2,348.1c0-4.6,2.1-6.4,4.4-6.4c1.2,0,2.1,0.5,2.7,1.2l-0.8,0.9c-0.5-0.6-1.2-0.9-1.9-0.9c-1.6,0-3,1.2-3,4.9
	c0.7-0.9,1.8-1.4,2.7-1.4c2,0,3.2,1.2,3.2,3.5c0,2.2-1.5,3.7-3.4,3.7C310.9,353.6,309.2,351.8,309.2,348.1L309.2,348.1z
	 M310.6,349.1c0.2,2.2,1.1,3.4,2.5,3.4c1.1,0,2-1,2-2.5c0-1.5-0.7-2.4-2.1-2.4C312.2,347.5,311.4,347.9,310.6,349.1L310.6,349.1z"/>
<path d="M318,347.7c0-3.8,1.4-5.9,3.7-5.9s3.6,2.1,3.6,5.9c0,3.8-1.4,5.9-3.6,5.9C319.4,353.6,318,351.5,318,347.7z M323.9,347.7
	c0-3.4-0.9-4.7-2.2-4.7s-2.2,1.4-2.2,4.7c0,3.3,0.9,4.8,2.2,4.8S323.9,351,323.9,347.7z"/>
<path d="M326.8,348.4h4.1v1.1h-4.1V348.4z"/>
<path d="M332.4,350.5c0-1.5,1.1-2.5,2.2-3.1v-0.1c-0.9-0.6-1.6-1.4-1.6-2.6c0-1.7,1.4-2.9,3.2-2.9c2,0,3.2,1.2,3.2,3
	c0,1.2-0.9,2.2-1.6,2.8v0.1c1,0.6,2,1.4,2,2.9c0,1.7-1.5,3-3.7,3S332.4,352.3,332.4,350.5L332.4,350.5z M338.4,350.5
	c0-1.5-1.4-2-3.1-2.7c-0.9,0.6-1.6,1.4-1.6,2.5c0,1.2,1,2.2,2.4,2.2S338.4,351.7,338.4,350.5z M338.1,344.9c0-1.1-0.7-2-2-2
	c-1.1,0-1.9,0.7-1.9,1.8c0,1.4,1.3,1.9,2.6,2.5C337.7,346.5,338.1,345.7,338.1,344.9L338.1,344.9z"/>
<path d="M341.3,347.7c0-3.8,1.4-5.9,3.7-5.9s3.6,2.1,3.6,5.9c0,3.8-1.4,5.9-3.6,5.9S341.3,351.5,341.3,347.7z M347.2,347.7
	c0-3.4-0.9-4.7-2.2-4.7c-1.3,0-2.2,1.4-2.2,4.7c0,3.3,0.9,4.8,2.2,4.8S347.2,351,347.2,347.7z"/>
<path d="M350.6,344.9c0-2.4,1.1-3.7,2.7-3.7c1.6,0,2.7,1.3,2.7,3.7c0,2.4-1.1,3.7-2.7,3.7S350.6,347.3,350.6,344.9z M354.9,344.9
	c0-1.9-0.6-2.8-1.5-2.8s-1.6,0.9-1.6,2.8c0,1.9,0.6,2.8,1.6,2.8S354.9,346.8,354.9,344.9z M360.1,341.2h1l-6.5,12.2h-1L360.1,341.2z
	 M358.8,349.7c0-2.4,1.1-3.7,2.7-3.7s2.7,1.3,2.7,3.7c0,2.4-1.1,3.7-2.7,3.7S358.8,352.1,358.8,349.7z M363.1,349.7
	c0-1.9-0.6-2.8-1.6-2.8s-1.5,0.9-1.5,2.8c0,1.9,0.6,2.8,1.5,2.8S363.1,351.6,363.1,349.7z"/>
<path d="M388.5,350.5c0-1.5,1.1-2.5,2.2-3.1v-0.1c-0.9-0.6-1.6-1.4-1.6-2.6c0-1.7,1.4-2.9,3.2-2.9c2,0,3.2,1.2,3.2,3
	c0,1.2-0.9,2.2-1.6,2.8v0.1c1,0.6,2,1.4,2,2.9c0,1.7-1.5,3-3.7,3C390.1,353.6,388.5,352.3,388.5,350.5L388.5,350.5z M394.5,350.5
	c0-1.5-1.4-2-3.1-2.7c-0.9,0.6-1.6,1.4-1.6,2.5c0,1.2,1,2.2,2.5,2.2S394.5,351.7,394.5,350.5z M394.3,344.9c0-1.1-0.7-2-2-2
	c-1.1,0-1.9,0.7-1.9,1.8c0,1.4,1.3,1.9,2.6,2.5C393.9,346.5,394.3,345.7,394.3,344.9L394.3,344.9z"/>
<path d="M397.5,347.7c0-3.8,1.4-5.9,3.7-5.9s3.6,2.1,3.6,5.9c0,3.8-1.4,5.9-3.6,5.9C398.9,353.6,397.5,351.5,397.5,347.7z
	 M403.3,347.7c0-3.4-0.9-4.7-2.2-4.7s-2.2,1.4-2.2,4.7c0,3.3,0.9,4.8,2.2,4.8S403.3,351,403.3,347.7z"/>
<path d="M406.3,348.4h4.1v1.1h-4.1V348.4z"/>
<path d="M412.5,352.2h2.6v-8.4H413v-0.9c1-0.2,1.8-0.4,2.4-0.8h1.1v10.2h2.4v1.2h-6.4V352.2L412.5,352.2z"/>
<path d="M420.8,347.7c0-3.8,1.4-5.9,3.7-5.9s3.6,2.1,3.6,5.9c0,3.8-1.4,5.9-3.6,5.9S420.8,351.5,420.8,347.7z M426.7,347.7
	c0-3.4-0.9-4.7-2.2-4.7c-1.3,0-2.2,1.4-2.2,4.7c0,3.3,0.9,4.8,2.2,4.8S426.7,351,426.7,347.7z"/>
<path d="M429.6,347.7c0-3.8,1.4-5.9,3.7-5.9s3.6,2.1,3.6,5.9c0,3.8-1.4,5.9-3.6,5.9C431,353.6,429.6,351.5,429.6,347.7z
	 M435.5,347.7c0-3.4-0.9-4.7-2.2-4.7s-2.2,1.4-2.2,4.7c0,3.3,0.9,4.8,2.2,4.8S435.5,351,435.5,347.7z"/>
<path d="M439,344.9c0-2.4,1.1-3.7,2.7-3.7c1.6,0,2.7,1.3,2.7,3.7c0,2.4-1.1,3.7-2.7,3.7S439,347.3,439,344.9z M443.2,344.9
	c0-1.9-0.6-2.8-1.5-2.8c-0.9,0-1.6,0.9-1.6,2.8c0,1.9,0.6,2.8,1.6,2.8C442.6,347.8,443.2,346.8,443.2,344.9z M448.5,341.2h1
	l-6.5,12.2h-1L448.5,341.2z M447.2,349.7c0-2.4,1.1-3.7,2.7-3.7s2.7,1.3,2.7,3.7c0,2.4-1.1,3.7-2.7,3.7
	C448.2,353.4,447.2,352.1,447.2,349.7z M451.4,349.7c0-1.9-0.6-2.8-1.6-2.8c-1,0-1.6,0.9-1.6,2.8c0,1.9,0.6,2.8,1.6,2.8
	S451.4,351.6,451.4,349.7z"/>
<path class="st0" d="M42.6,330.6h408.9"/>
<path class="st1" d="M438.5,326.8H396v3.8h42.5V326.8z"/>
<path class="st1" d="M355.9,304h-42.5v26.6h42.5V304z"/>
<path class="st0" d="M42.6,265.7h408.9"/>
<path class="st0" d="M42.6,200.9h408.9"/>
<path class="st0" d="M42.6,136.1h408.9"/>
<path class="st0" d="M42.6,71.2h408.9"/>
<path class="st1" d="M273.3,189.6h-42.5v141h42.5V189.6z"/>
<path class="st1" d="M108.1,127.6H65.6v203h42.5V127.6z"/>
<path class="st1" d="M190.7,62.3h-42.5v268.3h42.5V62.3z"/>
<path d="M18.9,35.7c0-2.3,1.1-3.7,2.7-3.7s2.7,1.3,2.7,3.7c0,2.4-1.1,3.7-2.7,3.7S18.9,38.1,18.9,35.7z M23.1,35.7
	c0-1.9-0.6-2.8-1.6-2.8S20,33.8,20,35.7c0,1.9,0.6,2.8,1.5,2.8S23.1,37.6,23.1,35.7z M28.4,32h1l-6.5,12.2h-1L28.4,32z M27,40.5
	c0-2.3,1.1-3.7,2.7-3.7s2.7,1.3,2.7,3.7c0,2.4-1.1,3.7-2.7,3.7S27,42.8,27,40.5z M31.3,40.5c0-1.9-0.6-2.8-1.5-2.8s-1.6,0.9-1.6,2.8
	s0.6,2.8,1.6,2.8S31.3,42.4,31.3,40.5z"/>
<path class="st1" d="M73.7,112.2H75c0.8,0,1.4-0.2,1.8-0.6s0.7-0.9,0.7-1.6c0-1.5-0.8-2.2-2.2-2.2c-0.7,0-1.3,0.2-1.7,0.6
	s-0.6,0.9-0.6,1.6h-1.6c0-1,0.4-1.9,1.1-2.5c0.7-0.7,1.7-1,2.8-1c1.2,0,2.2,0.3,2.8,1c0.7,0.6,1,1.5,1,2.7c0,0.6-0.2,1.1-0.5,1.6
	c-0.4,0.5-0.8,0.9-1.5,1.2c0.7,0.2,1.2,0.6,1.6,1.1c0.4,0.5,0.6,1.2,0.6,1.9c0,1.2-0.4,2.1-1.1,2.7c-0.7,0.7-1.7,1-2.9,1
	c-1.2,0-2.2-0.3-2.9-1c-0.8-0.7-1.1-1.5-1.1-2.6h1.6c0,0.7,0.2,1.2,0.7,1.6c0.4,0.4,1,0.6,1.8,0.6c0.8,0,1.4-0.2,1.8-0.6
	c0.4-0.4,0.6-1,0.6-1.8c0-0.8-0.2-1.3-0.7-1.7s-1.1-0.6-2-0.6h-1.2V112.2L73.7,112.2z"/>
<path class="st1" d="M86.8,119.4h-1.6v-10.8l-3.3,1.2v-1.5l4.7-1.8h0.2V119.4L86.8,119.4z"/>
<path class="st1" d="M91.8,118.6c0-0.3,0.1-0.5,0.2-0.7c0.2-0.2,0.4-0.3,0.8-0.3c0.3,0,0.6,0.1,0.8,0.3c0.2,0.2,0.3,0.4,0.3,0.7
	s-0.1,0.5-0.3,0.7s-0.4,0.3-0.8,0.3c-0.3,0-0.6-0.1-0.8-0.3C91.9,119.1,91.8,118.8,91.8,118.6z"/>
<path class="st1" d="M103.2,115.1h1.8v1.3h-1.8v3h-1.6v-3h-5.8v-1l5.7-8.9h1.7V115.1z M97.6,115.1h4v-6.3l-0.2,0.3L97.6,115.1
	L97.6,115.1z"/>
<path class="st1" d="M160.1,49.3h1.8v1.3h-1.8v3h-1.6v-3h-5.8v-1l5.7-8.9h1.7V49.3z M154.5,49.3h4V43l-0.2,0.3L154.5,49.3
	L154.5,49.3z"/>
<path class="st1" d="M168.7,53.6h-1.6V42.7l-3.3,1.2v-1.5l4.7-1.8h0.2V53.6L168.7,53.6z"/>
<path class="st1" d="M173.7,52.7c0-0.3,0.1-0.5,0.2-0.7c0.2-0.2,0.4-0.3,0.8-0.3s0.6,0.1,0.8,0.3c0.2,0.2,0.3,0.4,0.3,0.7
	c0,0.3-0.1,0.5-0.3,0.7s-0.4,0.3-0.8,0.3s-0.6-0.1-0.8-0.3S173.7,53,173.7,52.7z"/>
<path class="st1" d="M184.5,48c-0.3,0.4-0.8,0.7-1.2,1s-1,0.4-1.6,0.4c-0.7,0-1.4-0.2-1.9-0.5c-0.5-0.4-1-0.9-1.3-1.5
	c-0.3-0.7-0.5-1.4-0.5-2.2c0-0.9,0.2-1.6,0.5-2.3s0.8-1.2,1.4-1.6s1.3-0.5,2.1-0.5c1.3,0,2.3,0.5,3,1.4c0.7,1,1.1,2.2,1.1,3.9v0.5
	c0,2.5-0.5,4.3-1.5,5.5c-1,1.1-2.5,1.7-4.5,1.8h-0.3v-1.4h0.3c1.3,0,2.4-0.4,3.1-1S184.4,49.4,184.5,48L184.5,48z M182,48
	c0.5,0,1-0.2,1.5-0.5c0.5-0.3,0.8-0.8,1-1.2v-0.7c0-1.1-0.2-1.9-0.7-2.6c-0.5-0.7-1-1-1.8-1c-0.7,0-1.3,0.3-1.7,0.8
	c-0.4,0.5-0.6,1.3-0.6,2.2c0,0.9,0.2,1.6,0.6,2.2C180.7,47.7,181.3,48,182,48L182,48z"/>
<path class="st1" d="M245.1,181.3h-8.4v-1.2l4.4-4.9c0.7-0.7,1.1-1.4,1.4-1.8c0.2-0.5,0.4-0.9,0.4-1.4c0-0.7-0.2-1.2-0.6-1.6
	c-0.4-0.4-0.9-0.6-1.6-0.6c-0.8,0-1.4,0.2-1.9,0.7c-0.4,0.5-0.7,1.1-0.7,1.9h-1.6c0-1.2,0.4-2.1,1.1-2.9c0.8-0.7,1.8-1.1,3.1-1.1
	c1.2,0,2.1,0.3,2.8,0.9c0.7,0.6,1,1.4,1,2.5c0,1.3-0.8,2.8-2.4,4.5l-3.4,3.7h6.4L245.1,181.3L245.1,181.3z"/>
<path class="st1" d="M252.2,181.3h-1.6v-10.8l-3.3,1.2v-1.5l4.7-1.8h0.3L252.2,181.3L252.2,181.3z"/>
<path class="st1" d="M257.2,180.5c0-0.3,0.1-0.5,0.2-0.7c0.2-0.2,0.4-0.3,0.8-0.3c0.3,0,0.6,0.1,0.8,0.3c0.2,0.2,0.3,0.4,0.3,0.7
	s-0.1,0.5-0.3,0.7c-0.2,0.2-0.4,0.3-0.8,0.3c-0.3,0-0.6-0.1-0.8-0.3C257.2,181,257.2,180.8,257.2,180.5z"/>
<path class="st1" d="M269.5,171.9c0,0.6-0.2,1.2-0.5,1.7c-0.3,0.5-0.8,0.9-1.4,1.2c0.7,0.3,1.2,0.7,1.6,1.3c0.4,0.6,0.6,1.2,0.6,1.9
	c0,1.1-0.4,2-1.1,2.6c-0.8,0.7-1.7,1-3,1s-2.2-0.3-3-1s-1.1-1.5-1.1-2.6c0-0.7,0.2-1.3,0.6-1.9s0.9-1,1.6-1.3
	c-0.6-0.3-1-0.7-1.3-1.2s-0.5-1.1-0.5-1.7c0-1.1,0.3-1.9,1-2.6s1.6-0.9,2.7-0.9s2,0.3,2.7,0.9C269.1,169.9,269.5,170.8,269.5,171.9z
	 M268.1,177.9c0-0.7-0.2-1.3-0.7-1.8c-0.5-0.5-1.1-0.7-1.8-0.7c-0.7,0-1.3,0.2-1.8,0.7s-0.7,1-0.7,1.8c0,0.7,0.2,1.3,0.6,1.7
	s1,0.6,1.8,0.6c0.8,0,1.4-0.2,1.8-0.6C267.9,179.1,268.1,178.6,268.1,177.9L268.1,177.9z M265.7,169.7c-0.6,0-1.2,0.2-1.5,0.6
	c-0.4,0.4-0.6,0.9-0.6,1.6c0,0.7,0.2,1.2,0.6,1.6c0.4,0.4,0.9,0.6,1.6,0.6s1.2-0.2,1.6-0.6c0.4-0.4,0.6-0.9,0.6-1.6
	c0-0.6-0.2-1.2-0.6-1.6S266.3,169.7,265.7,169.7L265.7,169.7z"/>
<path class="st1" d="M329.5,292.7h1.8v1.3h-1.8v3h-1.6v-3h-5.8v-1l5.7-8.9h1.7V292.7z M323.9,292.7h4v-6.3l-0.2,0.3L323.9,292.7
	L323.9,292.7z"/>
<path class="st1" d="M333,296.2c0-0.3,0.1-0.5,0.2-0.7c0.2-0.2,0.4-0.3,0.8-0.3s0.6,0.1,0.8,0.3c0.2,0.2,0.3,0.4,0.3,0.7
	s-0.1,0.5-0.3,0.7c-0.2,0.2-0.4,0.3-0.8,0.3s-0.6-0.1-0.8-0.3C333,296.7,333,296.5,333,296.2z"/>
<path class="st1" d="M339.9,289.8h1.2c0.8,0,1.4-0.2,1.8-0.6c0.4-0.4,0.7-0.9,0.7-1.6c0-1.5-0.8-2.2-2.2-2.2c-0.7,0-1.3,0.2-1.7,0.6
	c-0.4,0.4-0.6,0.9-0.6,1.6h-1.6c0-1,0.4-1.9,1.1-2.5c0.7-0.7,1.7-1,2.8-1c1.2,0,2.1,0.3,2.8,1s1,1.5,1,2.7c0,0.6-0.2,1.1-0.5,1.6
	c-0.4,0.5-0.9,0.9-1.5,1.2c0.7,0.2,1.2,0.6,1.6,1.1s0.6,1.1,0.6,1.9c0,1.1-0.4,2.1-1.1,2.7c-0.7,0.7-1.7,1-2.9,1
	c-1.2,0-2.2-0.3-2.9-1s-1.1-1.5-1.1-2.6h1.6c0,0.7,0.2,1.2,0.7,1.6s1,0.6,1.8,0.6c0.8,0,1.4-0.2,1.8-0.6c0.4-0.4,0.6-1,0.6-1.8
	c0-0.8-0.2-1.3-0.7-1.7c-0.5-0.4-1.1-0.6-2-0.6h-1.2V289.8L339.9,289.8z"/>
<path class="st1" d="M414,315.8c0,1.9-0.3,3.3-1,4.2c-0.6,0.9-1.7,1.4-3,1.4s-2.4-0.4-3-1.4c-0.7-0.9-1-2.3-1-4.1v-2.2
	c0-1.9,0.3-3.3,1-4.2s1.7-1.4,3.1-1.4c1.4,0,2.4,0.4,3,1.3s1,2.2,1,4.1V315.8z M412.4,313.6c0-1.4-0.2-2.4-0.6-3
	c-0.4-0.6-1-0.9-1.8-0.9c-0.8,0-1.4,0.3-1.8,0.9s-0.6,1.6-0.6,2.9v2.6c0,1.4,0.2,2.4,0.6,3.1c0.4,0.7,1,1,1.8,1s1.4-0.3,1.8-0.9
	c0.4-0.6,0.6-1.6,0.6-2.9L412.4,313.6L412.4,313.6z"/>
<path class="st1" d="M416.3,320.4c0-0.3,0.1-0.5,0.2-0.7c0.2-0.2,0.4-0.3,0.8-0.3c0.3,0,0.6,0.1,0.8,0.3c0.2,0.2,0.3,0.4,0.3,0.7
	c0,0.3-0.1,0.5-0.3,0.7c-0.2,0.2-0.4,0.3-0.8,0.3c-0.3,0-0.6-0.1-0.8-0.3C416.4,320.9,416.3,320.7,416.3,320.4z"/>
<path class="st1" d="M427.2,308.4v1.4h-0.3c-1.3,0-2.3,0.4-3,1.1s-1.2,1.8-1.3,3.1c0.7-0.8,1.6-1.2,2.8-1.2c1.2,0,2,0.4,2.7,1.2
	c0.7,0.8,1,1.8,1,3c0,1.3-0.4,2.4-1.1,3.2c-0.7,0.8-1.7,1.2-2.9,1.2c-1.2,0-2.2-0.5-3-1.4s-1.1-2.2-1.1-3.6v-0.6
	c0-2.4,0.5-4.2,1.5-5.4c1-1.2,2.5-1.9,4.5-1.9L427.2,308.4L427.2,308.4z M425.1,314.2c-0.6,0-1.1,0.2-1.5,0.5
	c-0.5,0.3-0.8,0.8-1,1.3v0.6c0,1,0.2,1.9,0.7,2.5s1.1,1,1.8,1s1.3-0.3,1.7-0.8c0.4-0.5,0.6-1.2,0.6-2.1s-0.2-1.6-0.6-2.1
	S425.8,314.2,425.1,314.2L425.1,314.2z"/>
</svg>
