<?xml version="1.0" encoding="UTF-8"?><svg xmlns="http://www.w3.org/2000/svg" viewBox="0 0 500 464"><defs><style>.e{fill:#fff;}.f{fill:#fffcd7;}.g{stroke:#030000;}.g,.h,.i,.j,.k,.l{fill:none;}.g,.l{stroke-miterlimit:10;}.h{stroke:#c2b19b;}.h,.i,.j{stroke-width:3px;}.i{stroke:#9f4a2b;}.j{stroke:#989898;}.k{stroke:#e6e6e6;}.l{stroke:#000;stroke-width:.5px;}</style></defs><g id="a"><rect class="f" x="205.03" y="39.19" width="287" height="368.13"/><rect class="e" x="48.41" y="39.19" width="156.41" height="368.13"/></g><g id="b"><g><path d="M12.41,5.59c-.02,.65-.04,1.55-.13,2.61,.27,2.14,1.35,9.67,7.71,12.5-.38,.31-.77,.76-.97,1.13-4.5-2.11-6.43-6.55-7.29-9.9-.83,3.6-2.74,7.63-7.13,9.97-.23-.36-.67-.77-1.08-1.04,7.47-3.78,7.36-12.53,7.42-15.27h1.48Z"/><path d="M36.53,10.27c-.32,2.77-.9,5.04-1.82,6.9,.81,1.62,1.91,2.92,3.33,3.69-.27,.23-.67,.68-.86,1.03-1.31-.81-2.34-2.03-3.15-3.53-.99,1.51-2.32,2.7-4.11,3.64-.11-.23-.4-.63-.61-.9l-.43,.4c-.59-.34-1.4-.76-2.3-1.12-1.03,.59-2.5,1.13-4.59,1.58-.09-.27-.36-.67-.58-.9,1.71-.34,2.99-.76,3.92-1.21-.85-.32-1.73-.63-2.56-.85,.34-.43,.72-1.01,1.1-1.58h-2.32v-.97h2.88c.22-.4,.4-.77,.58-1.15h-2.67v-2.9h3.38v-.79h-2.95v-2.04h-1.24v-1.01h1.24v-1.87h2.95v-1.17h1.06v1.17h3.15v1.87h1.03v1.01h-1.03v2.04h-3.15v.79h3.51v.95c1.19-1.96,2.03-4.9,2.54-7.83l1.17,.23c-.22,1.1-.49,2.23-.77,3.31h4.66v1.21h-1.37Zm-13.04,4.16h2.23v-1.19h-2.23v1.19Zm.32-6.81v.99h1.91v-.99h-1.91Zm1.91,3.04v-1.15h-1.91v1.15h1.91Zm-.63,6.75c-.23,.38-.45,.74-.67,1.08,.65,.2,1.33,.43,2,.7,.79-.58,1.17-1.21,1.35-1.78h-2.68Zm4.61,3.31c1.66-.9,2.88-2.07,3.73-3.62-.58-1.41-.99-3.01-1.33-4.75-.31,.76-.63,1.42-.99,2-.16-.18-.54-.5-.81-.74v1.67h-4.07c-.18,.38-.38,.76-.58,1.15h2.27v-.72h1.1v.72h1.8v.97h-1.91c-.14,.74-.52,1.51-1.35,2.23,.83,.36,1.6,.74,2.18,1.04l-.04,.04Zm-2.92-13.11v.99h2.05v-.99h-2.05Zm2.05,3.04v-1.15h-2.05v1.15h2.05Zm-2.05,2.57v1.19h2.32v-1.19h-2.32Zm6.09-2.97l-.09,.22c.29,1.93,.7,3.71,1.31,5.28,.61-1.55,1.01-3.35,1.24-5.49h-2.47Z"/></g><path d="M27.27,51.46h-3.57v-1.01h3.57v-.99h1.17v.99h1.95v1.01h-1.95v.99h-1.17v-.99Zm9.75,11.41c0,.56-.1,.83-.51,1.02-.4,.18-1.06,.18-2.08,.18-.06-.3-.21-.69-.35-.98,.75,.02,1.36,.02,1.54,0,.19-.02,.26-.06,.26-.24v-3.36h-4.63v1.67l2-.08c-.22-.37-.46-.72-.71-1.02l.88-.29c.7,.86,1.42,2.03,1.65,2.85l-.93,.34c-.08-.29-.21-.59-.38-.94-2.58,.18-5.2,.3-7.01,.4l-.1-1.04c.93-.03,2.15-.08,3.46-.13v-1.75h-4.47v4.58h-1.15v-4.58h-.64v-.99h.64v-.58h1.15v.58h4.47v-.98h-4.59v-4.85h10.42v4.85h-4.69v.98h5.78v4.37Zm-10.37-8.18h3.46v-1.15h-3.46v1.15Zm3.46,1.97v-1.15h-3.46v1.15h3.46Zm7.55-6.21v1.01h-3.63v1.01h-1.17v-1.01h-1.87v-1.01h1.87v-.99h1.17v.99h3.63Zm-2.9,3.09h-3.52v1.15h3.52v-1.15Zm0,1.97h-3.52v1.15h3.52v-1.15Z"/><g><path d="M46.24,430.77c.83,0,1.37-.11,1.69-.4,.34-.31,.47-.54,.58-.74,.13-.05,.32,0,.4,.11-.23,.9-.56,1.84-.83,2.2-.74-.04-1.49-.05-2.32-.05h-2.61c-1.01,0-1.6,.02-2,.05-.04-.02-.13-.09-.13-.23,0-.05,.09-.13,.2-.2,.83-.54,1.42-1.15,2.75-2.59,1.19-1.28,2.58-3.03,2.58-4.95,0-1.64-.79-2.63-2.25-2.63-1.08,0-1.85,.74-2.34,1.8-.16,.09-.43,0-.43-.23,.58-1.58,2-2.54,3.62-2.54,1.8,0,2.97,1.21,2.97,2.93,0,1.12-.52,2.34-1.93,3.96l-1.1,1.26c-1.48,1.69-1.64,1.98-1.64,2.09,0,.13,.09,.16,.56,.16h2.23Z"/><path d="M57.78,426.25c0,2.83-1.1,5.89-3.73,5.89s-3.73-3.06-3.73-5.89,1.1-5.89,3.73-5.89,3.73,3.17,3.73,5.89Zm-5.85,0c0,1.69,.14,5.35,2.12,5.35s2.12-3.66,2.12-5.35-.14-5.35-2.12-5.35-2.12,3.66-2.12,5.35Z"/><path d="M66.78,426.25c0,2.83-1.1,5.89-3.73,5.89s-3.73-3.06-3.73-5.89,1.1-5.89,3.73-5.89,3.73,3.17,3.73,5.89Zm-5.85,0c0,1.69,.14,5.35,2.12,5.35s2.12-3.66,2.12-5.35-.14-5.35-2.12-5.35-2.12,3.66-2.12,5.35Z"/><path d="M75.78,426.25c0,2.83-1.1,5.89-3.73,5.89s-3.73-3.06-3.73-5.89,1.1-5.89,3.73-5.89,3.73,3.17,3.73,5.89Zm-5.85,0c0,1.69,.14,5.35,2.12,5.35s2.12-3.66,2.12-5.35-.14-5.35-2.12-5.35-2.12,3.66-2.12,5.35Z"/></g><g><path d="M99.7,430.77c.83,0,1.37-.11,1.69-.4,.34-.31,.47-.54,.58-.74,.13-.05,.32,0,.4,.11-.23,.9-.56,1.84-.83,2.2-.74-.04-1.5-.05-2.32-.05h-2.61c-1.01,0-1.6,.02-2,.05-.04-.02-.13-.09-.13-.23,0-.05,.09-.13,.2-.2,.83-.54,1.42-1.15,2.76-2.59,1.19-1.28,2.57-3.03,2.57-4.95,0-1.64-.79-2.63-2.25-2.63-1.08,0-1.86,.74-2.34,1.8-.16,.09-.43,0-.43-.23,.58-1.58,2-2.54,3.62-2.54,1.8,0,2.97,1.21,2.97,2.93,0,1.12-.52,2.34-1.93,3.96l-1.1,1.26c-1.48,1.69-1.64,1.98-1.64,2.09,0,.13,.09,.16,.56,.16h2.23Z"/><path d="M111.24,426.25c0,2.83-1.1,5.89-3.73,5.89s-3.73-3.06-3.73-5.89,1.1-5.89,3.73-5.89,3.73,3.17,3.73,5.89Zm-5.85,0c0,1.69,.14,5.35,2.12,5.35s2.12-3.66,2.12-5.35-.14-5.35-2.12-5.35-2.12,3.66-2.12,5.35Z"/><path d="M115.97,423.57c0-1.22-.05-1.62-.86-1.69l-.87-.07c-.14-.07-.16-.32-.02-.4,1.51-.27,2.5-.74,2.97-1.04,.07,0,.14,.04,.18,.09-.04,.32-.07,1.22-.07,2.25v6.99c0,1.39,.04,1.69,.77,1.75l.76,.05c.11,.11,.09,.4-.04,.45-.7-.04-1.51-.05-2.14-.05s-1.46,.02-2.16,.05c-.13-.05-.14-.34-.04-.45l.74-.05c.76-.05,.77-.36,.77-1.75v-6.12Z"/><path d="M129.24,426.25c0,2.83-1.1,5.89-3.73,5.89s-3.73-3.06-3.73-5.89,1.1-5.89,3.73-5.89,3.73,3.17,3.73,5.89Zm-5.85,0c0,1.69,.14,5.35,2.12,5.35s2.12-3.66,2.12-5.35-.14-5.35-2.12-5.35-2.12,3.66-2.12,5.35Z"/></g><g><path d="M163.67,430.77c.83,0,1.37-.11,1.69-.4,.34-.31,.47-.54,.58-.74,.13-.05,.32,0,.4,.11-.23,.9-.56,1.84-.83,2.2-.74-.04-1.5-.05-2.32-.05h-2.61c-1.01,0-1.6,.02-2,.05-.04-.02-.13-.09-.13-.23,0-.05,.09-.13,.2-.2,.83-.54,1.42-1.15,2.76-2.59,1.19-1.28,2.57-3.03,2.57-4.95,0-1.64-.79-2.63-2.25-2.63-1.08,0-1.86,.74-2.34,1.8-.16,.09-.43,0-.43-.23,.58-1.58,2-2.54,3.62-2.54,1.8,0,2.97,1.21,2.97,2.93,0,1.12-.52,2.34-1.93,3.96l-1.1,1.26c-1.48,1.69-1.64,1.98-1.64,2.09,0,.13,.09,.16,.56,.16h2.23Z"/><path d="M175.21,426.25c0,2.83-1.1,5.89-3.73,5.89s-3.73-3.06-3.73-5.89,1.1-5.89,3.73-5.89,3.73,3.17,3.73,5.89Zm-5.85,0c0,1.69,.14,5.35,2.12,5.35s2.12-3.66,2.12-5.35-.14-5.35-2.12-5.35-2.12,3.66-2.12,5.35Z"/><path d="M181.67,430.77c.83,0,1.37-.11,1.69-.4,.34-.31,.47-.54,.58-.74,.13-.05,.32,0,.4,.11-.23,.9-.56,1.84-.83,2.2-.74-.04-1.5-.05-2.32-.05h-2.61c-1.01,0-1.6,.02-2,.05-.04-.02-.13-.09-.13-.23,0-.05,.09-.13,.2-.2,.83-.54,1.42-1.15,2.76-2.59,1.19-1.28,2.57-3.03,2.57-4.95,0-1.64-.79-2.63-2.25-2.63-1.08,0-1.86,.74-2.34,1.8-.16,.09-.43,0-.43-.23,.58-1.58,2-2.54,3.62-2.54,1.8,0,2.97,1.21,2.97,2.93,0,1.12-.52,2.34-1.93,3.96l-1.1,1.26c-1.48,1.69-1.64,1.98-1.64,2.09,0,.13,.09,.16,.56,.16h2.23Z"/><path d="M193.21,426.25c0,2.83-1.1,5.89-3.73,5.89s-3.73-3.06-3.73-5.89,1.1-5.89,3.73-5.89,3.73,3.17,3.73,5.89Zm-5.85,0c0,1.69,.14,5.35,2.12,5.35s2.12-3.66,2.12-5.35-.14-5.35-2.12-5.35-2.12,3.66-2.12,5.35Z"/></g><g><path d="M227.64,430.77c.83,0,1.37-.11,1.69-.4,.34-.31,.47-.54,.58-.74,.13-.05,.32,0,.4,.11-.23,.9-.56,1.84-.83,2.2-.74-.04-1.49-.05-2.32-.05h-2.61c-1.01,0-1.6,.02-2,.05-.04-.02-.13-.09-.13-.23,0-.05,.09-.13,.2-.2,.83-.54,1.42-1.15,2.75-2.59,1.19-1.28,2.58-3.03,2.58-4.95,0-1.64-.79-2.63-2.25-2.63-1.08,0-1.85,.74-2.34,1.8-.16,.09-.43,0-.43-.23,.58-1.58,2-2.54,3.62-2.54,1.8,0,2.97,1.21,2.97,2.93,0,1.12-.52,2.34-1.93,3.96l-1.1,1.26c-1.48,1.69-1.64,1.98-1.64,2.09,0,.13,.09,.16,.56,.16h2.23Z"/><path d="M239.18,426.25c0,2.83-1.1,5.89-3.73,5.89s-3.73-3.06-3.73-5.89,1.1-5.89,3.73-5.89,3.73,3.17,3.73,5.89Zm-5.85,0c0,1.69,.14,5.35,2.12,5.35s2.12-3.66,2.12-5.35-.14-5.35-2.12-5.35-2.12,3.66-2.12,5.35Z"/><path d="M240.69,431.78c0-.36,.27-.7,.7-.7s.67,.36,.86,.65c.23,.34,.45,.54,.95,.54,1.17,0,3.22-1.53,3.22-3.53,0-1.58-.76-2.93-2.32-2.93-.88,0-1.53,.43-1.94,.88-.29-.04-.5-.29-.4-.63,.68-.31,2.16-.97,2.88-1.57,.4-.32,.96-.86,.96-1.73,0-.95-.67-1.55-1.48-1.55-1.06,0-1.87,.67-2.43,1.58-.18,.04-.38-.07-.38-.25,.56-1.26,1.87-2.18,3.26-2.18,1.48,0,2.5,.79,2.5,2.07,0,.74-.29,1.44-1.93,2.3-.09,.18,0,.25,.22,.27,1.37,.11,2.61,1.06,2.61,2.77,0,1.3-.63,2.59-1.75,3.57-1.33,1.17-2.88,1.55-3.76,1.55-.81,0-1.78-.27-1.78-1.12Z"/><path d="M257.18,426.25c0,2.83-1.1,5.89-3.73,5.89s-3.73-3.06-3.73-5.89,1.1-5.89,3.73-5.89,3.73,3.17,3.73,5.89Zm-5.85,0c0,1.69,.14,5.35,2.12,5.35s2.12-3.66,2.12-5.35-.14-5.35-2.12-5.35-2.12,3.66-2.12,5.35Z"/></g><g><path d="M291.62,430.77c.83,0,1.37-.11,1.69-.4,.34-.31,.47-.54,.58-.74,.13-.05,.32,0,.4,.11-.23,.9-.56,1.84-.83,2.2-.74-.04-1.49-.05-2.32-.05h-2.61c-1.01,0-1.6,.02-2,.05-.04-.02-.13-.09-.13-.23,0-.05,.09-.13,.2-.2,.83-.54,1.42-1.15,2.75-2.59,1.19-1.28,2.57-3.03,2.57-4.95,0-1.64-.79-2.63-2.25-2.63-1.08,0-1.85,.74-2.34,1.8-.16,.09-.43,0-.43-.23,.58-1.58,2-2.54,3.62-2.54,1.8,0,2.97,1.21,2.97,2.93,0,1.12-.52,2.34-1.93,3.96l-1.1,1.26c-1.48,1.69-1.64,1.98-1.64,2.09,0,.13,.09,.16,.56,.16h2.23Z"/><path d="M303.16,426.25c0,2.83-1.1,5.89-3.73,5.89s-3.73-3.06-3.73-5.89,1.1-5.89,3.73-5.89,3.73,3.17,3.73,5.89Zm-5.85,0c0,1.69,.14,5.35,2.12,5.35s2.12-3.66,2.12-5.35-.14-5.35-2.12-5.35-2.12,3.66-2.12,5.35Z"/><path d="M304.54,428.49c-.16,0-.25-.13-.25-.31,0-.22,.07-.32,.32-.68l5.78-8.07c.13-.16,.23-.25,.41-.25h.31c.18,0,.27,.05,.27,.14,0,.05-.04,.13-.09,.2l-5.73,7.92c-.22,.29,.04,.29,.5,.29h2.79c.43,0,.5-.05,.5-.47v-3.31c0-.13,.02-.27,.16-.36,.22-.14,.63-.29,.92-.31,.25-.02,.25,.2,.25,.56v3.48c0,.34,.05,.41,.36,.41h1.15c.16,.13,.16,.59,0,.76h-.97c-.45,0-.54,.02-.54,.4v.81c0,1.42,.04,1.66,.77,1.75l.47,.05c.11,.11,.09,.4-.04,.45-.65-.04-1.31-.05-1.87-.05-.65,0-1.46,.02-2.25,.05-.12-.05-.14-.34-.04-.45l.81-.05c.76-.05,.81-.36,.81-1.75v-.76c0-.43-.05-.45-.52-.45h-4.3Z"/><path d="M321.16,426.25c0,2.83-1.1,5.89-3.73,5.89s-3.73-3.06-3.73-5.89,1.1-5.89,3.73-5.89,3.73,3.17,3.73,5.89Zm-5.85,0c0,1.69,.14,5.35,2.12,5.35s2.12-3.66,2.12-5.35-.14-5.35-2.12-5.35-2.12,3.66-2.12,5.35Z"/></g><g><path d="M355.59,430.77c.83,0,1.37-.11,1.69-.4,.34-.31,.47-.54,.58-.74,.13-.05,.32,0,.4,.11-.23,.9-.56,1.84-.83,2.2-.74-.04-1.5-.05-2.32-.05h-2.61c-1.01,0-1.6,.02-2,.05-.04-.02-.13-.09-.13-.23,0-.05,.09-.13,.2-.2,.83-.54,1.42-1.15,2.75-2.59,1.19-1.28,2.57-3.03,2.57-4.95,0-1.64-.79-2.63-2.25-2.63-1.08,0-1.85,.74-2.34,1.8-.16,.09-.43,0-.43-.23,.58-1.58,2-2.54,3.62-2.54,1.8,0,2.97,1.21,2.97,2.93,0,1.12-.52,2.34-1.93,3.96l-1.1,1.26c-1.48,1.69-1.64,1.98-1.64,2.09,0,.13,.09,.16,.56,.16h2.23Z"/><path d="M367.13,426.25c0,2.83-1.1,5.89-3.73,5.89s-3.73-3.06-3.73-5.89,1.1-5.89,3.73-5.89,3.73,3.17,3.73,5.89Zm-5.85,0c0,1.69,.14,5.35,2.12,5.35s2.12-3.66,2.12-5.35-.14-5.35-2.12-5.35-2.12,3.66-2.12,5.35Z"/><path d="M370.26,421.21c.09-.29,.18-.45,.47-.49l4.34-.61c.11-.02,.16,.09,.16,.16-.13,.4-.4,.85-.65,1.12l-3.4,.49c-.41,.05-.5,.14-.61,.49l-.32,1.08c-.07,.22,0,.31,.25,.32l.38,.04c2.25,.22,4.77,1.21,4.77,3.94,0,3.12-3.58,5.28-6.45,5.37-.2-.07-.22-.43-.05-.56,2.79-.16,5.17-1.87,5.17-4.34s-2.72-3.21-4.84-3.24c-.27,0-.29-.14-.16-.56l.95-3.2Z"/><path d="M385.13,426.25c0,2.83-1.1,5.89-3.73,5.89s-3.73-3.06-3.73-5.89,1.1-5.89,3.73-5.89,3.73,3.17,3.73,5.89Zm-5.85,0c0,1.69,.14,5.35,2.12,5.35s2.12-3.66,2.12-5.35-.14-5.35-2.12-5.35-2.12,3.66-2.12,5.35Z"/></g><g><path d="M419.56,430.77c.83,0,1.37-.11,1.69-.4,.34-.31,.47-.54,.58-.74,.13-.05,.32,0,.4,.11-.23,.9-.56,1.84-.83,2.2-.74-.04-1.49-.05-2.32-.05h-2.61c-1.01,0-1.6,.02-2,.05-.04-.02-.13-.09-.13-.23,0-.05,.09-.13,.2-.2,.83-.54,1.42-1.15,2.75-2.59,1.19-1.28,2.58-3.03,2.58-4.95,0-1.64-.79-2.63-2.25-2.63-1.08,0-1.85,.74-2.34,1.8-.16,.09-.43,0-.43-.23,.58-1.58,2-2.54,3.62-2.54,1.8,0,2.97,1.21,2.97,2.93,0,1.12-.52,2.34-1.93,3.96l-1.1,1.26c-1.48,1.69-1.64,1.98-1.64,2.09,0,.13,.09,.16,.56,.16h2.23Z"/><path d="M431.1,426.25c0,2.83-1.1,5.89-3.73,5.89s-3.73-3.06-3.73-5.89,1.1-5.89,3.73-5.89,3.73,3.17,3.73,5.89Zm-5.85,0c0,1.69,.14,5.35,2.12,5.35s2.12-3.66,2.12-5.35-.14-5.35-2.12-5.35-2.12,3.66-2.12,5.35Z"/><path d="M435.01,422.01c1.87-1.84,4.07-2.41,5.17-2.56,.13,.05,.16,.29,.07,.38-1.15,.4-2.7,.92-4,2.3-1.53,1.62-2.05,3.6-2.05,5.46,0,2.09,.72,4.02,2.5,4.02,1.35,0,2.04-1.22,2.04-2.75s-.68-3.01-2.21-3.01c-.36,0-.65,.09-.83,.14-.11-.05-.13-.18-.05-.29,.52-.32,1.06-.54,1.76-.54,1.73,0,2.86,1.39,2.86,3.22,0,2.11-1.55,3.76-3.8,3.76-2.63,0-3.87-2.05-3.87-4.5,0-1.53,.5-3.76,2.41-5.64Z"/><path d="M449.1,426.25c0,2.83-1.1,5.89-3.73,5.89s-3.73-3.06-3.73-5.89,1.1-5.89,3.73-5.89,3.73,3.17,3.73,5.89Zm-5.85,0c0,1.69,.14,5.35,2.12,5.35s2.12-3.66,2.12-5.35-.14-5.35-2.12-5.35-2.12,3.66-2.12,5.35Z"/></g><g><path d="M468.7,430.77c.83,0,1.37-.11,1.69-.4,.34-.31,.47-.54,.58-.74,.13-.05,.32,0,.4,.11-.23,.9-.56,1.84-.83,2.2-.74-.04-1.49-.05-2.32-.05h-2.61c-1.01,0-1.6,.02-2,.05-.04-.02-.13-.09-.13-.23,0-.05,.09-.13,.2-.2,.83-.54,1.42-1.15,2.75-2.59,1.19-1.28,2.58-3.03,2.58-4.95,0-1.64-.79-2.63-2.25-2.63-1.08,0-1.85,.74-2.34,1.8-.16,.09-.43,0-.43-.23,.58-1.58,2-2.54,3.62-2.54,1.8,0,2.97,1.21,2.97,2.93,0,1.12-.52,2.34-1.93,3.96l-1.1,1.26c-1.48,1.69-1.64,1.98-1.64,2.09,0,.13,.09,.16,.56,.16h2.23Z"/><path d="M480.24,426.25c0,2.83-1.1,5.89-3.73,5.89s-3.73-3.06-3.73-5.89,1.1-5.89,3.73-5.89,3.73,3.17,3.73,5.89Zm-5.85,0c0,1.69,.14,5.35,2.12,5.35s2.12-3.66,2.12-5.35-.14-5.35-2.12-5.35-2.12,3.66-2.12,5.35Z"/><path d="M483.83,421.74c-1.01,0-1.4,.05-1.93,.92-.13,.05-.31,.02-.38-.14,.18-.49,.45-1.26,.61-1.94,.29,.04,.92,.05,1.91,.05h3.04c.99,0,2.2,0,2.41-.05,.07,.02,.13,.09,.13,.16-.5,.77-1.03,1.73-1.69,3.08l-4.59,9.24c-.29,.04-.56-.11-.61-.34l5.1-10.3c.27-.54,.18-.67-.4-.67h-3.6Z"/><path d="M498.24,426.25c0,2.83-1.1,5.89-3.73,5.89s-3.73-3.06-3.73-5.89,1.1-5.89,3.73-5.89,3.73,3.17,3.73,5.89Zm-5.85,0c0,1.69,.14,5.35,2.12,5.35s2.12-3.66,2.12-5.35-.14-5.35-2.12-5.35-2.12,3.66-2.12,5.35Z"/></g><path d="M38.92,405.86c0,2.83-1.1,5.89-3.73,5.89s-3.73-3.06-3.73-5.89,1.1-5.89,3.73-5.89,3.73,3.17,3.73,5.89Zm-5.85,0c0,1.69,.14,5.35,2.12,5.35s2.12-3.66,2.12-5.35-.14-5.35-2.12-5.35-2.12,3.66-2.12,5.35Z"/><g><path d="M8.38,41.68c.83,0,1.37-.11,1.69-.4,.34-.31,.47-.54,.58-.74,.13-.05,.32,0,.4,.11-.23,.9-.56,1.84-.83,2.2-.74-.04-1.49-.05-2.32-.05h-2.61c-1.01,0-1.6,.02-2,.05-.04-.02-.13-.09-.13-.23,0-.05,.09-.13,.2-.2,.83-.54,1.42-1.15,2.75-2.59,1.19-1.28,2.58-3.03,2.58-4.95,0-1.64-.79-2.63-2.25-2.63-1.08,0-1.85,.74-2.34,1.8-.16,.09-.43,0-.43-.23,.58-1.58,2-2.54,3.62-2.54,1.8,0,2.97,1.21,2.97,2.93,0,1.12-.52,2.34-1.93,3.96l-1.1,1.26c-1.48,1.69-1.64,1.98-1.64,2.09,0,.13,.09,.16,.56,.16h2.23Z"/><path d="M19.92,37.16c0,2.83-1.1,5.89-3.73,5.89s-3.73-3.06-3.73-5.89,1.1-5.89,3.73-5.89,3.73,3.17,3.73,5.89Zm-5.85,0c0,1.69,.14,5.35,2.12,5.35s2.12-3.66,2.12-5.35-.14-5.35-2.12-5.35-2.12,3.66-2.12,5.35Z"/><path d="M28.92,37.16c0,2.83-1.1,5.89-3.73,5.89s-3.73-3.06-3.73-5.89,1.1-5.89,3.73-5.89,3.73,3.17,3.73,5.89Zm-5.85,0c0,1.69,.14,5.35,2.12,5.35s2.12-3.66,2.12-5.35-.14-5.35-2.12-5.35-2.12,3.66-2.12,5.35Z"/><path d="M37.92,37.16c0,2.83-1.1,5.89-3.73,5.89s-3.73-3.06-3.73-5.89,1.1-5.89,3.73-5.89,3.73,3.17,3.73,5.89Zm-5.85,0c0,1.69,.14,5.35,2.12,5.35s2.12-3.66,2.12-5.35-.14-5.35-2.12-5.35-2.12,3.66-2.12,5.35Z"/></g><path d="M27.27,145.29h-3.57v-1.01h3.57v-.99h1.17v.99h1.95v1.01h-1.95v.99h-1.17v-.99Zm9.75,11.41c0,.56-.1,.83-.51,1.02-.4,.18-1.06,.18-2.08,.18-.06-.3-.21-.69-.35-.98,.75,.02,1.36,.02,1.54,0,.19-.02,.26-.06,.26-.24v-3.36h-4.63v1.67l2-.08c-.22-.37-.46-.72-.7-1.02l.88-.29c.71,.86,1.42,2.03,1.65,2.85l-.93,.34c-.08-.29-.21-.59-.38-.94-2.58,.18-5.2,.3-7.01,.4l-.1-1.04c.93-.03,2.15-.08,3.46-.13v-1.75h-4.47v4.58h-1.15v-4.58h-.64v-.99h.64v-.58h1.15v.58h4.47v-.98h-4.59v-4.85h10.42v4.85h-4.69v.98h5.78v4.37Zm-10.37-8.18h3.46v-1.15h-3.46v1.15Zm3.46,1.97v-1.15h-3.46v1.15h3.46Zm7.55-6.21v1.01h-3.63v1.01h-1.17v-1.01h-1.87v-1.01h1.87v-.99h1.17v.99h3.63Zm-2.9,3.09h-3.52v1.15h3.52v-1.15Zm0,1.97h-3.52v1.15h3.52v-1.15Z"/><g><path d="M6.65,128.3c0-1.22-.05-1.62-.86-1.69l-.86-.07c-.14-.07-.16-.32-.02-.4,1.51-.27,2.5-.74,2.97-1.04,.07,0,.14,.04,.18,.09-.04,.32-.07,1.22-.07,2.25v6.99c0,1.39,.04,1.69,.77,1.75l.76,.05c.11,.11,.09,.4-.04,.45-.7-.04-1.51-.05-2.14-.05s-1.46,.02-2.16,.05c-.13-.05-.14-.34-.04-.45l.74-.05c.76-.05,.77-.36,.77-1.75v-6.12Z"/><path d="M14.05,125.95c.09-.29,.18-.45,.47-.49l4.34-.61c.11-.02,.16,.09,.16,.16-.13,.4-.4,.85-.65,1.12l-3.4,.49c-.41,.05-.5,.14-.61,.49l-.32,1.08c-.07,.22,0,.31,.25,.32l.38,.04c2.25,.22,4.77,1.21,4.77,3.94,0,3.12-3.58,5.28-6.45,5.37-.2-.07-.22-.43-.05-.56,2.79-.16,5.17-1.87,5.17-4.34s-2.72-3.21-4.84-3.24c-.27,0-.29-.14-.16-.56l.96-3.2Z"/><path d="M28.92,130.99c0,2.83-1.1,5.89-3.73,5.89s-3.73-3.06-3.73-5.89,1.1-5.89,3.73-5.89,3.73,3.17,3.73,5.89Zm-5.85,0c0,1.69,.14,5.35,2.12,5.35s2.12-3.66,2.12-5.35-.14-5.35-2.12-5.35-2.12,3.66-2.12,5.35Z"/><path d="M37.92,130.99c0,2.83-1.1,5.89-3.73,5.89s-3.73-3.06-3.73-5.89,1.1-5.89,3.73-5.89,3.73,3.17,3.73,5.89Zm-5.85,0c0,1.69,.14,5.35,2.12,5.35s2.12-3.66,2.12-5.35-.14-5.35-2.12-5.35-2.12,3.66-2.12,5.35Z"/></g><path d="M27.27,240.98h-3.57v-1.01h3.57v-.99h1.17v.99h1.95v1.01h-1.95v.99h-1.17v-.99Zm9.75,11.41c0,.56-.1,.83-.51,1.02-.4,.18-1.06,.18-2.08,.18-.06-.3-.21-.69-.35-.98,.75,.02,1.36,.02,1.54,0,.19-.02,.26-.06,.26-.24v-3.36h-4.63v1.67l2-.08c-.22-.37-.46-.72-.71-1.02l.88-.29c.7,.86,1.42,2.03,1.65,2.85l-.93,.34c-.08-.29-.21-.59-.38-.94-2.58,.18-5.2,.3-7.01,.4l-.1-1.04c.93-.03,2.14-.08,3.46-.13v-1.75h-4.47v4.58h-1.15v-4.58h-.64v-.99h.64v-.58h1.15v.58h4.47v-.98h-4.59v-4.85h10.42v4.85h-4.69v.98h5.78v4.37Zm-10.37-8.18h3.46v-1.15h-3.46v1.15Zm3.46,1.97v-1.15h-3.46v1.15h3.46Zm7.55-6.21v1.01h-3.63v1.01h-1.17v-1.01h-1.87v-1.01h1.87v-.99h1.17v.99h3.63Zm-2.9,3.09h-3.52v1.15h3.52v-1.15Zm0,1.97h-3.52v1.15h3.52v-1.15Z"/><g><path d="M6.65,220.89c0-1.22-.05-1.62-.86-1.69l-.86-.07c-.14-.07-.16-.32-.02-.4,1.51-.27,2.5-.74,2.97-1.04,.07,0,.14,.04,.18,.09-.04,.32-.07,1.22-.07,2.25v6.99c0,1.39,.04,1.69,.77,1.75l.76,.05c.11,.11,.09,.4-.04,.45-.7-.04-1.51-.05-2.14-.05s-1.46,.02-2.16,.05c-.13-.05-.14-.34-.04-.45l.74-.05c.76-.05,.77-.36,.77-1.75v-6.12Z"/><path d="M19.92,223.57c0,2.83-1.1,5.89-3.73,5.89s-3.73-3.06-3.73-5.89,1.1-5.89,3.73-5.89,3.73,3.17,3.73,5.89Zm-5.85,0c0,1.69,.14,5.35,2.12,5.35s2.12-3.66,2.12-5.35-.14-5.35-2.12-5.35-2.12,3.66-2.12,5.35Z"/><path d="M28.92,223.57c0,2.83-1.1,5.89-3.73,5.89s-3.73-3.06-3.73-5.89,1.1-5.89,3.73-5.89,3.73,3.17,3.73,5.89Zm-5.85,0c0,1.69,.14,5.35,2.12,5.35s2.12-3.66,2.12-5.35-.14-5.35-2.12-5.35-2.12,3.66-2.12,5.35Z"/><path d="M37.92,223.57c0,2.83-1.1,5.89-3.73,5.89s-3.73-3.06-3.73-5.89,1.1-5.89,3.73-5.89,3.73,3.17,3.73,5.89Zm-5.85,0c0,1.69,.14,5.35,2.12,5.35s2.12-3.66,2.12-5.35-.14-5.35-2.12-5.35-2.12,3.66-2.12,5.35Z"/></g><path d="M27.27,330.16h-3.57v-1.01h3.57v-.99h1.17v.99h1.95v1.01h-1.95v.99h-1.17v-.99Zm9.75,11.41c0,.56-.1,.83-.51,1.02-.4,.18-1.06,.18-2.08,.18-.06-.3-.21-.69-.35-.98,.75,.02,1.36,.02,1.54,0,.19-.02,.26-.06,.26-.24v-3.36h-4.63v1.67l2-.08c-.22-.37-.46-.72-.71-1.02l.88-.29c.7,.86,1.42,2.03,1.65,2.85l-.93,.34c-.08-.29-.21-.59-.38-.94-2.58,.18-5.2,.3-7.01,.4l-.1-1.04c.93-.03,2.14-.08,3.46-.13v-1.75h-4.47v4.58h-1.15v-4.58h-.64v-.99h.64v-.58h1.15v.58h4.47v-.98h-4.59v-4.85h10.42v4.85h-4.69v.98h5.78v4.37Zm-10.37-8.18h3.46v-1.15h-3.46v1.15Zm3.46,1.97v-1.15h-3.46v1.15h3.46Zm7.55-6.21v1.01h-3.63v1.01h-1.17v-1.01h-1.87v-1.01h1.87v-.99h1.17v.99h3.63Zm-2.9,3.09h-3.52v1.15h3.52v-1.15Zm0,1.97h-3.52v1.15h3.52v-1.15Z"/><g><path d="M14.05,312.36c.09-.29,.18-.45,.47-.49l4.34-.61c.11-.02,.16,.09,.16,.16-.13,.4-.4,.85-.65,1.12l-3.4,.49c-.41,.05-.5,.14-.61,.49l-.32,1.08c-.07,.22,0,.31,.25,.32l.38,.04c2.25,.22,4.77,1.21,4.77,3.94,0,3.12-3.58,5.28-6.45,5.37-.2-.07-.22-.43-.05-.56,2.79-.16,5.17-1.87,5.17-4.34s-2.72-3.21-4.84-3.24c-.27,0-.29-.14-.16-.56l.96-3.2Z"/><path d="M28.92,317.4c0,2.83-1.1,5.89-3.73,5.89s-3.73-3.06-3.73-5.89,1.1-5.89,3.73-5.89,3.73,3.17,3.73,5.89Zm-5.85,0c0,1.69,.14,5.35,2.12,5.35s2.12-3.66,2.12-5.35-.14-5.35-2.12-5.35-2.12,3.66-2.12,5.35Z"/><path d="M37.92,317.4c0,2.83-1.1,5.89-3.73,5.89s-3.73-3.06-3.73-5.89,1.1-5.89,3.73-5.89,3.73,3.17,3.73,5.89Zm-5.85,0c0,1.69,.14,5.35,2.12,5.35s2.12-3.66,2.12-5.35-.14-5.35-2.12-5.35-2.12,3.66-2.12,5.35Z"/></g><path d="M494.96,451.44h-6.52v4.12h-1.35v-4.12h-8.32v-1.3h2.95v-4.83h5.37v-2.74h-4.38c-.81,1.39-1.76,2.61-2.74,3.55-.25-.22-.81-.67-1.15-.85,1.69-1.48,3.21-3.8,4.05-6.21l1.35,.32c-.25,.63-.54,1.28-.83,1.89h10.73v1.3h-5.69v2.74h5.28v1.26h-5.28v3.57h6.52v1.3Zm-7.87-1.3v-3.57h-4.03v3.57h4.03Z"/><line class="k" x1="48.75" y1="407.31" x2="492.03" y2="407.31"/><line class="k" x1="48.75" y1="315.28" x2="492.03" y2="315.28"/><line class="k" x1="48.75" y1="223.25" x2="492.03" y2="223.25"/><line class="k" x1="48.75" y1="131.22" x2="492.03" y2="131.22"/><line class="k" x1="48.75" y1="39.19" x2="492.03" y2="39.19"/><line class="k" x1="48.75" y1="39.19" x2="48.75" y2="407.31"/><line class="k" x1="112.11" y1="39.19" x2="112.11" y2="407.31"/><line class="k" x1="175.46" y1="39.19" x2="175.46" y2="407.31"/><line class="k" x1="238.82" y1="39.19" x2="238.82" y2="407.31"/><line class="k" x1="302.18" y1="39.19" x2="302.18" y2="407.31"/><line class="k" x1="365.53" y1="39.19" x2="365.53" y2="407.31"/><line class="k" x1="428.89" y1="39.19" x2="428.89" y2="407.31"/><line class="k" x1="492.24" y1="39.19" x2="492.24" y2="407.31"/></g><g id="c"><polyline class="j" points="48.75 320.41 62.4 323.04 119.46 343.47 142.62 347.9 188.11 355.44 208.23 355.44 238.82 362.09 270.39 367.41 302.18 370.73 334.69 372.73 365.53 372.73 396.51 375.39 428.89 377.61 459.64 379.38 492.03 382.48"/><g><path d="M423.85,221.88h2.94v-9.47h-2.34v-1.06c1.17-.2,2.02-.5,2.74-.94h1.26v11.47h2.65v1.37h-7.24v-1.37Z"/><path d="M432.76,221.74l.81-1.08c.76,.76,1.71,1.46,3.24,1.46s2.81-1.13,2.81-2.92-1.08-2.85-2.74-2.85c-.88,0-1.44,.29-2.2,.79l-.88-.56,.41-6.18h6.43v1.4h-4.99l-.32,3.83c.59-.32,1.17-.54,1.96-.54,2.2,0,3.98,1.26,3.98,4.03s-2.09,4.34-4.32,4.34c-2.05,0-3.31-.86-4.19-1.75Z"/><path d="M445.43,216.37c-.58,0-1.08,.36-1.55,1.22l-.92-.65c.74-1.26,1.64-1.8,2.52-1.8,1.58,0,2.43,1.69,3.56,1.69,.58,0,1.08-.36,1.53-1.22l.94,.67c-.74,1.26-1.64,1.8-2.5,1.8-1.58,0-2.45-1.71-3.58-1.71Z"/><path d="M453.2,217.33c0-5.17,2.32-7.15,4.9-7.15,1.37,0,2.36,.58,3.08,1.35l-.92,1.03c-.52-.63-1.31-1.01-2.11-1.01-1.82,0-3.33,1.39-3.4,5.47,.83-.99,1.96-1.6,3.01-1.6,2.21,0,3.66,1.33,3.66,3.94,0,2.47-1.73,4.12-3.78,4.12-2.54,0-4.43-2.05-4.43-6.16Zm1.58,1.03c.22,2.5,1.21,3.85,2.83,3.85,1.28,0,2.25-1.13,2.25-2.85s-.79-2.72-2.38-2.72c-.83,0-1.84,.45-2.7,1.71Z"/><path d="M468.34,219.7h-5.76v-1.08l5.49-8.21h1.82v7.98h1.75v1.31h-1.75v3.55h-1.55v-3.55Zm0-1.31v-3.76c0-.67,.05-1.76,.09-2.45h-.07c-.32,.61-.68,1.17-1.06,1.8l-3.01,4.41h4.05Z"/><path d="M487.79,217.15c-.58,1.58-1.35,2.99-2.32,4.18,.63,1.28,1.35,2.02,2.11,2.02,.41,0,.59-.68,.68-2.38,.27,.23,.68,.47,1.01,.58-.2,2.32-.65,2.99-1.78,2.99s-2.11-.83-2.86-2.25c-.9,.94-1.91,1.71-3.02,2.36-.18-.25-.63-.7-.9-.94,1.3-.67,2.45-1.53,3.4-2.59-.56-1.39-.96-3.12-1.19-5.04h-7.29v1.86c0,2-.23,4.83-1.57,6.75-.22-.2-.79-.54-1.1-.67,1.26-1.82,1.42-4.29,1.42-6.08v-2.99h8.41c-.04-.5-.07-1.04-.09-1.57h-9.33v-1.13h2.86v-3.22h1.26v3.22h3.24v-4.03h1.31v1.51h5.4v1.06h-5.4v1.46h7.06v1.13h-3.04c.59,.31,1.19,.65,1.57,.97l-.58,.59h1.87v1.13h-4.81c.18,1.51,.47,2.85,.85,3.98,.67-.95,1.21-2.02,1.6-3.19l1.22,.29Zm-9.74,1.89c-.29,1.1-.85,2.2-1.42,2.95-.2-.16-.61-.45-.86-.58,.59-.68,1.03-1.64,1.26-2.59l1.03,.22Zm4.43,.11c-.79,2.52-2.9,4.48-5.94,5.4-.13-.23-.41-.61-.58-.81,1.49-.43,2.77-1.13,3.73-2.02h-.9v-3.64h-2.34v-.99h5.71v.99h-2.25v3.42c.7-.72,1.22-1.58,1.48-2.54l1.1,.18Zm1.44-5.78c.02,.52,.05,1.06,.09,1.57h2.77c-.52-.4-1.35-.88-2.05-1.19l.4-.38h-1.21Z"/></g><g><path d="M417.88,290.77c0-5.17,2.32-7.15,4.9-7.15,1.37,0,2.36,.58,3.08,1.35l-.92,1.03c-.52-.63-1.31-1.01-2.11-1.01-1.82,0-3.33,1.39-3.4,5.47,.83-.99,1.96-1.6,3.01-1.6,2.21,0,3.65,1.33,3.65,3.94,0,2.47-1.73,4.12-3.78,4.12-2.54,0-4.43-2.05-4.43-6.16Zm1.58,1.03c.22,2.5,1.21,3.85,2.83,3.85,1.28,0,2.25-1.13,2.25-2.85s-.79-2.72-2.38-2.72c-.83,0-1.84,.45-2.7,1.71Z"/><path d="M427.4,295.18l.81-1.08c.76,.76,1.71,1.46,3.24,1.46s2.81-1.13,2.81-2.92-1.08-2.85-2.74-2.85c-.88,0-1.44,.29-2.2,.79l-.88-.56,.41-6.18h6.43v1.4h-4.99l-.32,3.83c.59-.32,1.17-.54,1.96-.54,2.2,0,3.98,1.26,3.98,4.03s-2.09,4.34-4.32,4.34c-2.05,0-3.31-.86-4.2-1.75Z"/><path d="M452.46,290.59c-.58,1.58-1.35,2.99-2.32,4.18,.63,1.28,1.35,2.02,2.11,2.02,.41,0,.59-.68,.68-2.38,.27,.23,.68,.47,1.01,.58-.2,2.32-.65,2.99-1.78,2.99s-2.11-.83-2.86-2.25c-.9,.94-1.91,1.71-3.03,2.36-.18-.25-.63-.7-.9-.94,1.3-.67,2.45-1.53,3.4-2.59-.56-1.39-.95-3.12-1.19-5.04h-7.29v1.86c0,2-.23,4.83-1.57,6.75-.22-.2-.79-.54-1.1-.67,1.26-1.82,1.42-4.29,1.42-6.08v-2.99h8.41c-.04-.5-.07-1.04-.09-1.57h-9.33v-1.13h2.86v-3.22h1.26v3.22h3.24v-4.03h1.31v1.51h5.4v1.06h-5.4v1.46h7.06v1.13h-3.04c.59,.31,1.19,.65,1.57,.97l-.58,.59h1.87v1.13h-4.81c.18,1.51,.47,2.85,.85,3.98,.67-.95,1.21-2.02,1.6-3.19l1.22,.29Zm-9.74,1.89c-.29,1.1-.85,2.2-1.42,2.95-.2-.16-.61-.45-.86-.58,.59-.68,1.03-1.64,1.26-2.59l1.03,.22Zm4.43,.11c-.79,2.52-2.9,4.48-5.94,5.4-.13-.23-.41-.61-.58-.81,1.5-.43,2.77-1.13,3.73-2.02h-.9v-3.64h-2.34v-.99h5.71v.99h-2.25v3.42c.7-.72,1.22-1.58,1.48-2.54l1.1,.18Zm1.44-5.78c.02,.52,.05,1.06,.09,1.57h2.77c-.52-.4-1.35-.88-2.05-1.19l.4-.38h-1.21Z"/><path d="M463.26,292.93c-2.49,1.13-5.2,2.32-7.18,3.19l-.49-1.39c.7-.27,1.55-.61,2.49-1.01l-.31-11.13,1.37-.05,.27,10.62c1.15-.49,2.36-1.01,3.55-1.51l.31,1.28Zm7.92,5.08c-.83-1.24-2.5-3.13-4.03-4.75-1.4,2.12-3.37,3.69-6.18,4.86-.18-.27-.74-.88-1.06-1.15,6.18-2.27,8.08-6.63,8.88-14.4l1.46,.14c-.43,3.85-1.12,6.91-2.38,9.33,1.6,1.62,3.51,3.62,4.43,4.95l-1.12,1.03Zm-6.93-9.17c-.49-1.24-1.64-3.08-2.77-4.39l1.19-.59c1.19,1.31,2.34,3.08,2.84,4.3l-1.26,.68Z"/><path d="M489.92,295.88v1.33h-16.04v-1.33h6.72v-13.97h1.41v5.51h6.7v1.33h-6.7v7.13h7.92Z"/></g><g><path d="M432.03,360.6c0-4.3,1.57-6.61,4.12-6.61s4.11,2.32,4.11,6.61-1.55,6.7-4.11,6.7-4.12-2.4-4.12-6.7Zm6.63,0c0-3.76-1.01-5.29-2.5-5.29s-2.52,1.53-2.52,5.29,1.01,5.38,2.52,5.38,2.5-1.62,2.5-5.38Z"/><path d="M444.32,360.18c-.58,0-1.08,.36-1.55,1.22l-.92-.65c.74-1.26,1.64-1.8,2.52-1.8,1.58,0,2.43,1.69,3.56,1.69,.58,0,1.08-.36,1.53-1.22l.94,.67c-.74,1.26-1.64,1.8-2.5,1.8-1.58,0-2.45-1.71-3.58-1.71Z"/><path d="M452.71,365.69h2.93v-9.47h-2.34v-1.06c1.17-.2,2.02-.5,2.74-.94h1.26v11.47h2.65v1.37h-7.24v-1.37Z"/><path d="M467.24,363.52h-5.76v-1.08l5.49-8.21h1.82v7.98h1.75v1.31h-1.75v3.55h-1.55v-3.55Zm0-1.31v-3.76c0-.67,.05-1.76,.09-2.45h-.07c-.32,.61-.68,1.17-1.06,1.8l-3.01,4.41h4.05Z"/><path d="M486.68,360.96c-.58,1.58-1.35,2.99-2.32,4.18,.63,1.28,1.35,2.02,2.11,2.02,.42,0,.59-.68,.68-2.38,.27,.23,.68,.47,1.01,.58-.2,2.32-.65,2.99-1.78,2.99s-2.11-.83-2.86-2.25c-.9,.94-1.91,1.71-3.03,2.36-.18-.25-.63-.7-.9-.94,1.3-.67,2.45-1.53,3.4-2.59-.56-1.39-.95-3.12-1.19-5.04h-7.29v1.86c0,2-.23,4.83-1.57,6.75-.21-.2-.79-.54-1.1-.67,1.26-1.82,1.42-4.29,1.42-6.08v-2.99h8.41c-.04-.5-.07-1.04-.09-1.57h-9.33v-1.13h2.86v-3.22h1.26v3.22h3.24v-4.03h1.31v1.51h5.4v1.06h-5.4v1.46h7.06v1.13h-3.04c.59,.31,1.19,.65,1.57,.97l-.58,.59h1.87v1.13h-4.81c.18,1.51,.47,2.85,.85,3.98,.67-.95,1.21-2.02,1.6-3.19l1.22,.29Zm-9.74,1.89c-.29,1.1-.85,2.2-1.42,2.95-.2-.16-.61-.45-.86-.58,.59-.68,1.03-1.64,1.26-2.59l1.03,.22Zm4.43,.11c-.79,2.52-2.9,4.48-5.94,5.4-.13-.23-.41-.61-.58-.81,1.5-.43,2.77-1.13,3.73-2.02h-.9v-3.64h-2.34v-.99h5.71v.99h-2.25v3.42c.7-.72,1.22-1.58,1.48-2.54l1.1,.18Zm1.44-5.78c.02,.52,.05,1.06,.09,1.57h2.77c-.52-.4-1.35-.88-2.05-1.19l.4-.38h-1.21Z"/></g><polyline class="i" points="48.63 119.11 119.22 87.79 144.42 86.46 175.44 95.61 191.84 108.41 238.84 129.31 270.44 145.72 302.24 161.68 357.75 201.47 371.27 208.68 397.2 221.09 434.85 241.92 452.11 249.51 469.61 257.72 492.24 263.68"/><polyline class="h" points="48.75 370.73 112.11 360.84 142.62 349.9 175.46 337.48 195.96 328.17 238.82 304.89 302.18 282.94 332.83 272.3 365.53 263.98 428.89 266.32 459.36 271.64 492.03 276.95"/></g><g id="d"><g><path d="M74.18,51.37c-.46-.42-1.31-1.06-2.05-1.58-.58,.91-1.5,1.54-3.07,1.97-.11-.27-.38-.67-.59-.88,2.83-.72,3.3-2.02,3.43-4.85h1.06c-.05,1.15-.16,2.08-.42,2.87,.82,.53,1.87,1.25,2.43,1.73l-.78,.75Zm6.91,3.43s-.02,.37-.05,.54c-.22,3.09-.45,4.34-.91,4.8-.32,.34-.64,.43-1.18,.48-.48,.02-1.46,.02-2.45-.05-.03-.35-.18-.82-.38-1.12,.99,.08,2,.1,2.37,.1,.32,0,.5-.03,.66-.16,.3-.27,.51-1.23,.69-3.51h-4.35c-.61,2.55-2.11,4-6.27,4.77-.1-.32-.4-.82-.62-1.07,3.67-.61,5.03-1.73,5.6-3.7h-4.24v-1.09h4.47c.08-.51,.14-1.1,.18-1.71h1.25c-.05,.61-.1,1.18-.18,1.71h5.44Zm-10.9-5.94c-.3-.42-.86-1.09-1.33-1.57l.7-.56c.46,.46,1.04,1.09,1.34,1.49l-.72,.64Zm11.56,2.93h.54v2.8h-1.17v-1.74h-10.93v1.74h-1.15v-2.8h12.65c-.66-.54-1.87-1.38-2.91-2.06-.56,.86-1.42,1.47-2.88,1.9-.08-.26-.38-.67-.62-.88,2.67-.72,3.14-2.03,3.25-4.72h1.09c-.05,1.12-.16,2.03-.42,2.8,1.1,.67,2.54,1.63,3.31,2.21l-.75,.75Zm-6.26-4.55c-.5,.64-1.02,1.31-1.44,1.78l-.72-.34c.38-.5,.9-1.28,1.17-1.82l.99,.38Zm1.47,1.46c-.27-.38-.8-.98-1.23-1.41l.67-.56c.43,.42,.99,.96,1.23,1.31l-.67,.66Zm5.49-1.44c-.53,.67-1.14,1.39-1.62,1.87l-.75-.35c.46-.51,1.04-1.36,1.33-1.92l1.04,.4Z"/><path d="M98.6,49.74s-.02,.45-.02,.61c-.18,6.71-.32,8.93-.87,9.6-.27,.42-.59,.54-1.07,.59-.45,.06-1.2,.05-1.94,0-.03-.32-.16-.82-.34-1.12,.77,.06,1.47,.08,1.78,.08,.27,0,.42-.05,.58-.26,.37-.46,.56-2.58,.72-8.39h-2.29c-.19,4.26-.93,7.75-3.75,9.86-.18-.26-.59-.66-.88-.85,.26-.18,.48-.37,.69-.56-2.42,.29-4.9,.56-6.69,.75l-.18-1.04c.96-.08,2.16-.19,3.47-.32v-1.38h-3.03v-.91h3.03v-.98h-2.99v-4.75h2.99v-1.01h-3.46v-.93h3.46v-1.06c-1.02,.08-2.06,.14-3.01,.18-.05-.26-.16-.64-.29-.88,2.37-.13,5.25-.42,6.9-.78l.59,.91c-.86,.19-1.95,.34-3.12,.46v1.17h3.39v.93h-3.39v1.01h3.11v4.75h-3.11v.98h3.14v.91h-3.14v1.26c1.04-.1,2.13-.21,3.2-.34v.06c1.38-1.89,1.81-4.47,1.95-7.46h-1.87v-1.12h1.91c.03-1.12,.03-2.29,.03-3.51h1.12c0,1.2,0,2.39-.03,3.51h3.39Zm-12.79,2.91h2.02v-1.15h-2.02v1.15Zm2.02,1.95v-1.17h-2.02v1.17h2.02Zm1.07-3.11v1.15h2.1v-1.15h-2.1Zm2.1,1.94h-2.1v1.17h2.1v-1.17Z"/><path d="M108.28,46.09c-.02,.58-.03,1.38-.11,2.32,.24,1.9,1.2,8.6,6.85,11.11-.34,.27-.69,.67-.86,1.01-4-1.87-5.71-5.83-6.48-8.8-.74,3.2-2.43,6.79-6.34,8.87-.21-.32-.59-.69-.96-.93,6.64-3.36,6.55-11.14,6.59-13.57h1.31Z"/><path d="M129.61,47.69v12.48h-1.26v-1.28h-9.41v1.36h-1.2v-12.56h11.88Zm-1.26,10v-8.82h-9.41v8.82h9.41Z"/><path d="M146.93,52.54v1.3h-14.53v-1.3h14.53Z"/><path d="M161.83,47.94c-.51,1.66-1.34,3.07-2.34,4.26,.99,.96,2.21,1.81,3.65,2.35-.24,.22-.58,.67-.74,.98-.16-.08-.34-.16-.51-.24v5.28h-1.14v-.53h-4v.58h-1.1v-5.35c-.32,.18-.64,.32-.96,.46-.11-.24-.35-.58-.58-.8h-1.68v2.87c.69-.16,1.39-.32,2.1-.5l.11,1.07c-2.18,.53-4.45,1.07-6.13,1.49l-.22-1.15,.82-.18v-5.46h1.01v5.25l1.23-.29v-6.47h-2.24v-4.88h5.17v4.24c1.26-1.2,2.3-2.99,2.9-4.91l1.14,.27c-.16,.46-.34,.93-.51,1.36h3.09l.21-.05,.74,.34Zm-11.67,2.59h3.01v-2.8h-3.01v2.8Zm4.24,4.11c1.28-.54,2.54-1.39,3.63-2.5-.59-.72-1.07-1.47-1.47-2.19-.45,.7-.94,1.31-1.46,1.84-.18-.18-.54-.51-.83-.7v.48h-1.84v2.31h1.97v.77Zm6.74,.22c-.9-.53-1.68-1.2-2.37-1.89-.74,.74-1.55,1.38-2.4,1.89h4.77Zm-.38,4.11v-3.07h-4v3.07h4Zm-3.46-10.29l-.16,.3c.4,.78,.93,1.62,1.58,2.4,.67-.82,1.25-1.71,1.65-2.71h-3.07Z"/><path d="M171.96,48.39v2.85l.21-.24c1.91,.91,4.42,2.35,5.68,3.31l-.83,1.07c-1.09-.9-3.23-2.21-5.06-3.19v8.42h-1.26v-12.23h-6.11v-1.18h14.13v1.18h-6.75Z"/><path d="M183.07,53.19c-.61-.48-1.79-1.23-2.72-1.74l.69-.83c.9,.46,2.13,1.18,2.74,1.65l-.7,.93Zm-2.19,6.43c.72-1.18,1.71-3.23,2.47-4.99l.93,.7c-.66,1.63-1.55,3.57-2.32,5.01l-1.07-.72Zm3.15-10.55c-.61-.58-1.89-1.46-2.86-2.05l.74-.8c.96,.58,2.24,1.41,2.9,1.95l-.77,.9Zm10.77,1.84v2.69h-1.14v-1.73h-8.21v1.73h-1.1v-2.69h1.67v-4.31h7.11v4.31h1.68Zm-1.58,8.53c0,.59-.13,.86-.58,1.04-.43,.18-1.15,.18-2.29,.18-.05-.29-.18-.69-.32-.98,.8,.03,1.55,.03,1.76,.03,.22-.02,.29-.08,.29-.27v-2.02c-1.67,.37-3.35,.77-4.67,1.06l-.37-.96c1.3-.24,3.19-.62,5.04-1.01v-2.58h-5.07v1.54c0,1.58-.22,3.78-1.41,5.3-.19-.21-.67-.56-.93-.67,1.09-1.38,1.22-3.25,1.22-4.63v-2.5h7.33v6.47Zm-6.12-8.53h1.87v-2.27h3.03v-1.07h-4.9v3.35Zm.79,3.83c1.25,.13,2.85,.48,3.7,.85l-.37,.85c-.85-.37-2.43-.77-3.7-.93l.37-.77Zm4.11-5.3h-2.03v1.47h2.03v-1.47Z"/></g><g><path d="M108.18,289.84c-.86,.67-1.78,1.3-2.74,1.87v.7h7.03v1.07h-7.03v2.22c0,.61,.26,.74,1.58,.74h4.56c1.14,0,1.33-.32,1.46-2.13,.29,.19,.8,.37,1.15,.45-.21,2.22-.64,2.77-2.54,2.77h-4.64c-2.18,0-2.79-.35-2.79-1.81v-3.31c-1.2,.67-2.45,1.26-3.73,1.78-.19-.27-.59-.77-.86-1.04,2.31-.85,4.53-1.97,6.53-3.31h-6.23v-1.1h5.44v-2.18h-4.05v-1.1h4.05v-2.16h1.17v2.16h4v.72c.67-.72,1.3-1.47,1.87-2.26l1.09,.56c-1.12,1.55-2.48,2.99-3.95,4.26h4.64v1.1h-6.02Zm-.48-1.1c.88-.67,1.71-1.41,2.46-2.18h-3.68v2.18h1.22Z"/><path d="M130.26,294.26h-5.79v3.67h-1.2v-3.67h-7.4v-1.15h2.62v-4.29h4.77v-2.43h-3.89c-.72,1.23-1.57,2.32-2.43,3.15-.22-.19-.72-.59-1.02-.75,1.5-1.31,2.85-3.38,3.6-5.52l1.2,.29c-.22,.56-.48,1.14-.74,1.68h9.54v1.15h-5.06v2.43h4.69v1.12h-4.69v3.17h5.79v1.15Zm-6.99-1.15v-3.17h-3.59v3.17h3.59Z"/><path d="M139.7,283.36c-.02,.58-.03,1.38-.11,2.32,.24,1.9,1.2,8.6,6.85,11.11-.34,.27-.69,.67-.86,1.01-4-1.87-5.71-5.83-6.48-8.8-.74,3.2-2.43,6.79-6.34,8.87-.21-.32-.59-.69-.96-.93,6.64-3.36,6.55-11.14,6.59-13.57h1.31Z"/><path d="M161.03,284.96v12.48h-1.26v-1.28h-9.41v1.36h-1.2v-12.56h11.88Zm-1.26,10v-8.82h-9.41v8.82h9.41Z"/><path d="M168.1,295.84c.96,.38,2.19,.51,3.78,.51,.78,.02,5.65,.02,6.64-.03-.21,.29-.42,.83-.5,1.18h-6.11c-3.41,0-5.3-.53-6.47-2.71-.19,1.22-.46,2.27-.94,3.14-.19-.14-.67-.45-.94-.58,.91-1.6,1.07-4.1,1.1-6.9l1.09,.06c-.02,.78-.05,1.55-.1,2.27,.34,1.06,.77,1.82,1.38,2.39v-5.87h-3.07v-1.06h2.85v-1.97h-2.54v-1.06h2.54v-1.92h1.1v1.92h2.5v1.06h-2.5v1.97h2.82v.69c1.42-.82,2.18-2.06,2.4-3.95h-2.23v-1.02h7s0,.34-.02,.5c-.14,2.85-.29,3.97-.64,4.37-.24,.27-.53,.37-.93,.4-.37,.05-1.04,.03-1.74,0-.03-.32-.14-.74-.3-1.02,.66,.06,1.28,.06,1.52,.06,.22,.02,.38-.02,.48-.14,.21-.24,.35-1.06,.46-3.14h-2.45c-.32,2.38-1.31,3.87-3.03,4.88-.13-.14-.4-.38-.64-.56h-2.51v2.27h2.48v1.06h-2.48v3.2Zm3.33-5.73h6.1v4.93h-6.1v-4.93Zm1.12,3.94h3.81v-2.95h-3.81v2.95Z"/><path d="M184.19,295.76c1.02,.45,2.32,.59,3.99,.59,.72,0,5.41,0,6.34-.03-.19,.29-.4,.83-.48,1.18h-5.86c-3.49,0-5.47-.58-6.71-2.91-.19,1.15-.53,2.3-1.14,3.28-.16-.26-.56-.61-.8-.72,1.12-1.89,1.23-4.55,1.18-6.66l1.01,.05c.02,.67,0,1.38-.03,2.08,.35,1.09,.8,1.89,1.41,2.45v-5.63h-3.3v-1.07h3.04v-2.03h-2.45v-1.06h2.45v-1.97h1.1v1.97h2.4v1.06h-2.4v2.03h2.72v1.07h-2.48v2.19h2.23v1.06h-2.23v3.07Zm5.75-4.39c.06,.29,.19,.72,.29,.91-2.72,1.58-3.12,1.86-3.36,2.11-.08-.29-.32-.8-.51-1.04,.29-.16,.72-.48,.72-1.12v-6.16h3.07c-.03-.9-.06-1.82-.08-2.75h1.1c0,.94,.02,1.87,.05,2.75h3.15v1.02h-3.11c.11,1.63,.27,3.07,.46,4.23,.59-.98,1.04-2.08,1.38-3.23l.93,.26c-.46,1.63-1.14,3.12-1.99,4.4,.32,1.1,.67,1.73,1.09,1.73,.26,0,.4-.7,.45-2.3,.22,.24,.56,.46,.83,.56-.18,2.16-.5,2.82-1.41,2.82-.71,0-1.28-.66-1.7-1.79-.75,.9-1.58,1.65-2.51,2.21-.19-.26-.5-.64-.74-.85,1.09-.58,2.05-1.47,2.87-2.56-.35-1.46-.59-3.33-.72-5.46h-2.06v5.27l1.79-.99Zm3.25-5.52c-.34-.5-.99-1.34-1.55-1.95l.83-.45c.54,.61,1.23,1.41,1.57,1.89l-.85,.51Z"/><path d="M129.72,309.6c-.08,6.61-.14,8.76-.58,9.4-.27,.4-.59,.53-1.04,.59-.45,.05-1.18,.03-1.92,0-.02-.34-.14-.82-.34-1.12,.78,.05,1.46,.05,1.74,.05,.26,.02,.4-.03,.53-.24,.29-.42,.38-2.43,.45-8.15h-2.22c-.18,4.42-.85,7.78-3.57,9.84-.19-.27-.59-.7-.87-.86,.5-.34,.9-.74,1.25-1.17l-.99,.43c-.05-.26-.13-.56-.22-.9-4.51,.83-5.11,.98-5.49,1.18-.06-.26-.27-.83-.43-1.15,.38-.08,.82-.62,1.42-1.42,.42-.53,1.47-2.05,2.53-3.84-2.87,.26-3.33,.35-3.62,.45v.02c-.08-.24-.26-.83-.4-1.15,.29-.08,.56-.51,.93-1.14,.35-.59,1.54-2.93,2.16-5.07l1.2,.46c-.7,1.94-1.65,3.95-2.64,5.54l2.98-.21c.34-.64,.66-1.28,.94-1.92l1.14,.5c-1.33,2.69-2.98,5.28-4.63,7.33l3.57-.58c-.27-.72-.61-1.46-.91-2.11l.96-.38c.66,1.23,1.33,2.85,1.55,3.89,1.46-1.86,1.87-4.47,2-7.73h-2.22v-1.12h2.24c.03-1.17,.03-2.4,.03-3.7h1.15c0,1.3,0,2.53-.03,3.7h3.35v.59Z"/><path d="M146.26,316.26h-5.79v3.67h-1.2v-3.67h-7.4v-1.15h2.62v-4.29h4.77v-2.43h-3.89c-.72,1.23-1.57,2.32-2.43,3.15-.22-.19-.72-.59-1.02-.75,1.5-1.31,2.85-3.38,3.6-5.52l1.2,.29c-.22,.56-.48,1.14-.74,1.68h9.54v1.15h-5.06v2.43h4.69v1.12h-4.69v3.17h5.79v1.15Zm-6.99-1.15v-3.17h-3.59v3.17h3.59Z"/><path d="M155.7,305.36c-.02,.58-.03,1.38-.11,2.32,.24,1.91,1.2,8.6,6.85,11.11-.34,.27-.69,.67-.86,1.01-4-1.87-5.71-5.83-6.48-8.8-.74,3.2-2.43,6.79-6.34,8.87-.21-.32-.59-.69-.96-.93,6.64-3.36,6.55-11.14,6.59-13.57h1.31Z"/><path d="M177.03,306.96v12.48h-1.26v-1.28h-9.41v1.36h-1.2v-12.56h11.88Zm-1.26,10v-8.82h-9.41v8.82h9.41Z"/></g><g><path d="M272.11,81.24c3.44-3.43,5.38-5.47,5.38-7.35,0-1.3-.7-2.22-2.16-2.22-.96,0-1.79,.61-2.43,1.36l-.85-.82c.96-1.04,1.97-1.73,3.46-1.73,2.1,0,3.41,1.33,3.41,3.35,0,2.15-1.95,4.27-4.66,7.12,.61-.05,1.31-.11,1.92-.11h3.31v1.26h-7.38v-.86Z"/><path d="M281.07,76.35c0-3.83,1.39-5.87,3.67-5.87s3.65,2.06,3.65,5.87-1.38,5.95-3.65,5.95-3.67-2.13-3.67-5.95Zm5.89,0c0-3.35-.9-4.71-2.23-4.71s-2.24,1.36-2.24,4.71,.9,4.79,2.24,4.79,2.23-1.44,2.23-4.79Z"/><path d="M289.87,81.24c3.44-3.43,5.38-5.47,5.38-7.35,0-1.3-.7-2.22-2.16-2.22-.96,0-1.79,.61-2.43,1.36l-.85-.82c.96-1.04,1.97-1.73,3.46-1.73,2.1,0,3.41,1.33,3.41,3.35,0,2.15-1.95,4.27-4.66,7.12,.61-.05,1.31-.11,1.92-.11h3.31v1.26h-7.38v-.86Z"/><path d="M298.49,80.76l.72-.96c.67,.67,1.52,1.3,2.88,1.3s2.5-1.01,2.5-2.59-.96-2.53-2.43-2.53c-.78,0-1.28,.26-1.95,.7l-.78-.5,.37-5.49h5.71v1.25h-4.43l-.29,3.41c.53-.29,1.04-.48,1.74-.48,1.95,0,3.54,1.12,3.54,3.59s-1.86,3.86-3.84,3.86c-1.83,0-2.95-.77-3.73-1.55Z"/><path d="M322.13,79.67h-5.79v3.67h-1.2v-3.67h-7.39v-1.15h2.62v-4.29h4.77v-2.43h-3.89c-.72,1.23-1.57,2.32-2.43,3.15-.22-.19-.72-.59-1.02-.75,1.5-1.31,2.85-3.38,3.6-5.52l1.2,.29c-.22,.56-.48,1.14-.74,1.68h9.54v1.15h-5.06v2.43h4.69v1.12h-4.69v3.17h5.79v1.15Zm-7-1.15v-3.17h-3.58v3.17h3.58Z"/><path d="M325.73,72.19c0-.74,.56-1.2,1.2-1.2s1.22,.46,1.22,1.2-.58,1.2-1.22,1.2-1.2-.46-1.2-1.2Zm0,7.84c0-.74,.56-1.22,1.2-1.22s1.22,.48,1.22,1.22-.58,1.2-1.22,1.2-1.2-.48-1.2-1.2Z"/><path d="M340.05,75.25c-.86,.67-1.78,1.3-2.74,1.87v.7h7.03v1.07h-7.03v2.22c0,.61,.26,.74,1.58,.74h4.56c1.14,0,1.33-.32,1.46-2.13,.29,.19,.8,.37,1.15,.45-.21,2.22-.64,2.77-2.54,2.77h-4.64c-2.18,0-2.79-.35-2.79-1.81v-3.31c-1.2,.67-2.45,1.26-3.73,1.78-.19-.27-.59-.77-.86-1.04,2.3-.85,4.53-1.97,6.53-3.31h-6.23v-1.1h5.44v-2.18h-4.05v-1.1h4.05v-2.16h1.17v2.16h4v.72c.67-.72,1.3-1.47,1.87-2.26l1.09,.56c-1.12,1.55-2.48,2.99-3.95,4.26h4.64v1.1h-6.02Zm-.48-1.1c.88-.67,1.71-1.41,2.46-2.18h-3.68v2.18h1.22Z"/><path d="M362.13,79.67h-5.79v3.67h-1.2v-3.67h-7.39v-1.15h2.62v-4.29h4.77v-2.43h-3.89c-.72,1.23-1.57,2.32-2.43,3.15-.22-.19-.72-.59-1.02-.75,1.5-1.31,2.85-3.38,3.6-5.52l1.2,.29c-.22,.56-.48,1.14-.74,1.68h9.54v1.15h-5.06v2.43h4.69v1.12h-4.69v3.17h5.79v1.15Zm-7-1.15v-3.17h-3.58v3.17h3.58Z"/><path d="M371.57,68.77c-.02,.58-.03,1.38-.11,2.32,.24,1.9,1.2,8.6,6.85,11.11-.34,.27-.69,.67-.86,1.01-4-1.87-5.71-5.83-6.48-8.8-.74,3.2-2.43,6.79-6.34,8.87-.21-.32-.59-.69-.96-.93,6.64-3.36,6.55-11.14,6.59-13.57h1.31Z"/><path d="M392.9,70.37v12.48h-1.26v-1.28h-9.41v1.36h-1.2v-12.56h11.88Zm-1.26,10v-8.82h-9.41v8.82h9.41Z"/><path d="M399.12,78.48l3.78-1.39,2.4-.9v-.06l-2.4-.9-3.78-1.39v-1.28l7.67,3.01v1.18l-7.67,3.01v-1.28Z"/><path d="M411.68,81.24c3.44-3.43,5.38-5.47,5.38-7.35,0-1.3-.7-2.22-2.16-2.22-.96,0-1.79,.61-2.43,1.36l-.85-.82c.96-1.04,1.97-1.73,3.46-1.73,2.1,0,3.41,1.33,3.41,3.35,0,2.15-1.95,4.27-4.66,7.12,.61-.05,1.31-.11,1.92-.11h3.31v1.26h-7.38v-.86Z"/><path d="M420.64,76.35c0-3.83,1.39-5.87,3.67-5.87s3.65,2.06,3.65,5.87-1.38,5.95-3.65,5.95-3.67-2.13-3.67-5.95Zm5.89,0c0-3.35-.9-4.71-2.22-4.71s-2.24,1.36-2.24,4.71,.9,4.79,2.24,4.79,2.22-1.44,2.22-4.79Z"/><path d="M429.35,73.83c0-2.35,1.06-3.68,2.66-3.68s2.67,1.33,2.67,3.68-1.06,3.73-2.67,3.73-2.66-1.36-2.66-3.73Zm4.23,0c0-1.87-.64-2.79-1.57-2.79s-1.55,.91-1.55,2.79,.64,2.82,1.55,2.82,1.57-.94,1.57-2.82Zm5.25-3.68h.99l-6.48,12.17h-.98l6.47-12.17Zm-1.31,8.45c0-2.35,1.07-3.68,2.67-3.68s2.66,1.33,2.66,3.68-1.06,3.71-2.66,3.71-2.67-1.34-2.67-3.71Zm4.23,0c0-1.87-.64-2.79-1.55-2.79s-1.55,.91-1.55,2.79,.62,2.82,1.55,2.82,1.55-.94,1.55-2.82Z"/><path d="M263.95,92.53c1.55,1.36,3.39,3.31,4.23,4.64l-1.01,.72c-.24-.42-.58-.88-.98-1.38-9.14,.51-10.07,.54-10.69,.77-.05-.26-.26-.85-.38-1.17,.35-.06,.77-.42,1.3-.94,.58-.51,2.43-2.53,3.68-4.51l1.17,.53c-1.26,1.73-2.69,3.38-4.1,4.71l8.16-.4c-.74-.83-1.55-1.67-2.32-2.35l.94-.61Zm-7.6,6.1h10.18v6.66h-1.25v-.83h-7.73v.86h-1.2v-6.69Zm1.2,1.14v3.54h7.73v-3.54h-7.73Z"/><path d="M272.36,97.63c-.46-.51-1.47-1.23-2.29-1.68l.67-.8c.83,.4,1.84,1.09,2.34,1.58l-.72,.9Zm-1.99,6.88c.58-1.23,1.41-3.3,2-5.09l.93,.62c-.53,1.67-1.23,3.62-1.86,5.07l-1.07-.61Zm2.26-11.03c-.43-.53-1.41-1.28-2.21-1.78l.69-.78c.8,.45,1.79,1.17,2.24,1.7l-.72,.86Zm1.78,3.12c-.16,.78-.4,1.65-.7,2.21-.13-.11-.43-.29-.59-.38,.3-.58,.48-1.28,.61-1.99l.69,.16Zm2.14-.62c-.05-.14-.11-.34-.19-.51-2.18,.29-2.54,.38-2.77,.5-.03-.14-.18-.46-.27-.62,.24-.03,.46-.24,.74-.56,.18-.16,.59-.62,.99-1.2-1.04,.1-1.31,.16-1.47,.22-.05-.14-.18-.46-.27-.61,.19-.03,.32-.18,.48-.42,.16-.21,.74-1.12,.99-1.97l.75,.27c-.27,.66-.67,1.34-1.07,1.87l1.07-.08c.14-.24,.29-.46,.42-.72l.72,.32c-.56,.91-1.25,1.83-1.97,2.56l1.41-.18c-.1-.18-.21-.35-.3-.53l.59-.21c.34,.51,.66,1.17,.77,1.57l-.61,.29Zm7.43,6.15s-.02,.34-.06,.48c-.3,1.38-.62,2.08-1.06,2.4-.34,.24-.67,.3-1.2,.3-.48,.02-1.44,0-2.45-.06-.03-.27-.16-.66-.34-.91,1.02,.1,2.06,.11,2.46,.11,.35,0,.51-.02,.67-.13,.27-.18,.48-.59,.69-1.38h-8.42c.26-.67,.5-1.6,.69-2.38h7.22v-.83h-7.8v-.77h8.9v2.37h-7.41c-.06,.27-.14,.54-.22,.8h8.32Zm-8.88-3.59c-.02-.51-.16-1.34-.35-1.97l.62-.16c.21,.62,.37,1.41,.38,1.91l-.66,.22Zm1.42-2.38c.27,.56,.51,1.26,.58,1.71l-.61,.27c-.08-.46-.3-1.2-.56-1.79l.59-.19Zm4.26-3.12h-3.84v-.74h1.7c-.11-.38-.4-.9-.62-1.26l.82-.21c.26,.37,.54,.93,.69,1.26l-.7,.21h1.97v.74Zm-3.41,2.99h3.01v2.35h-3.01v-2.35Zm2.99-1.76h-2.95v-.67h2.95v.67Zm-2.95,.51h2.95v.66h-2.95v-.66Zm.74,2.95h1.41v-1.06h-1.41v1.06Zm3.67-1.18c-.14,.77-.4,1.62-.69,2.21-.13-.11-.45-.32-.62-.42,.32-.54,.5-1.26,.62-1.95l.69,.16Zm2.21-.53c-.05-.18-.14-.37-.24-.61-2.18,.32-2.56,.42-2.79,.5-.03-.13-.18-.46-.27-.62,.26-.03,.46-.22,.75-.53,.18-.18,.56-.62,.98-1.2-1.04,.08-1.31,.14-1.47,.22-.05-.14-.18-.48-.27-.62,.19-.02,.3-.18,.46-.4,.18-.22,.75-1.12,1.01-1.97l.75,.27c-.27,.66-.67,1.33-1.07,1.86l1.06-.06c.16-.24,.3-.48,.43-.72l.74,.32c-.56,.91-1.26,1.81-1.97,2.54l1.39-.18c-.1-.18-.19-.35-.29-.51l.56-.21c.37,.51,.72,1.23,.85,1.68l-.61,.24Zm-1.5,2.66c-.02-.54-.18-1.44-.4-2.13l.64-.16c.22,.69,.38,1.55,.4,2.08l-.64,.21Zm1.39-2.55c.34,.64,.61,1.49,.7,2l-.62,.29c-.08-.58-.35-1.42-.66-2.1l.58-.19Z"/><path d="M289.8,90.74h1.1v14.6h-1.1v-5.59h-1.75v.38c0,1.38-.18,3.63-1.15,5.23-.21-.21-.62-.48-.91-.58,.88-1.47,1.01-3.46,1.01-4.69v-.35h-.87v-1.06h3.67v-2.35h-2.99v-4.99h1.06v3.95h1.94v-4.56Zm10.37,1.65c-1.39,3.46-4.74,5.44-8.1,6.37-.11-.27-.38-.66-.59-.9,1.68-.38,3.41-1.14,4.82-2.21-.45-.67-1.25-1.5-2.02-2.15-.74,.51-1.54,.96-2.35,1.33-.18-.19-.53-.54-.74-.74,1.89-.77,3.67-2.1,4.58-3.39l1.15,.34c-.26,.35-.56,.69-.91,1.02h3.23l.21-.05,.72,.37Zm.53,7.55h-2.06v3.83c0,.67-.14,1.01-.62,1.2-.48,.19-1.26,.21-2.53,.21-.05-.34-.21-.8-.38-1.14,.96,.03,1.83,.02,2.07,0,.26,0,.34-.06,.34-.29v-3.81h-6.05v-1.06h6.05v-2.26h1.14v2.26h2.06v1.06Zm-5.75-4.05c-1.17,.18-2.27,.32-3.25,.46l-.21-.9c.91-.08,2.1-.24,3.39-.4l.06,.83Zm-1.44,4.43c.82,.75,1.71,1.84,2.11,2.56l-.98,.61c-.37-.74-1.25-1.82-2.05-2.62l.91-.54Zm1.52-7.38l-.02,.02c.75,.62,1.55,1.41,2.03,2.07,.67-.61,1.25-1.3,1.66-2.08h-3.68Z"/><path d="M316.58,103.46v1.17h-14.25v-1.17h2.18v-7.49h1.2v7.49h3.52v-10.42h-6.29v-1.15h13.11v1.15h-5.6v4.26h4.99v1.17h-4.99v4.99h6.13Z"/><path d="M327.86,94.83c.38,5.39,1.65,9.28,3.23,9.28,.43,0,.62-.88,.72-3.01,.27,.27,.72,.53,1.06,.66-.21,2.77-.66,3.58-1.87,3.58-2.61,0-3.94-4.59-4.35-10.52h-8.26v-1.15h8.18c-.05-.94-.06-1.92-.08-2.9h1.25c0,.99,.02,1.95,.06,2.9h4.74v1.15h-4.67Zm-4.9,7.92c1.12-.24,2.27-.46,3.43-.72l.1,1.04c-2.71,.66-5.63,1.33-7.67,1.78l-.37-1.17c.9-.18,2.06-.42,3.35-.67v-4.64h-2.85v-1.15h7.01v1.15h-2.99v4.39Zm8.08-9.27c-.46-.56-1.46-1.42-2.27-2l.8-.66c.82,.54,1.83,1.36,2.31,1.91l-.83,.75Z"/><path d="M338.38,98.53c-.22,1.39-.58,2.59-1.06,3.6,1.07,1.67,3.06,1.9,5.97,1.9,1.67,0,3.99-.08,5.62-.21-.18,.26-.34,.8-.4,1.14-1.49,.08-3.47,.13-5.22,.13-3.2,0-5.19-.34-6.43-2.06-.61,1.01-1.31,1.78-2.13,2.34-.16-.24-.56-.66-.78-.82,1.52-.98,2.69-2.74,3.2-5.23h-1.73c-.42,0-.83,.1-.94,.22-.08-.29-.32-.83-.45-1.09,.24-.06,.5-.16,.77-.46,.38-.37,1.33-1.63,2.02-2.61h-2.56v-.98h3.31l.21-.08,.78,.37c-.69,.93-1.89,2.58-2.8,3.65h1.82l.21-.03,.59,.22Zm-1.54-4.71c-.43-.67-1.31-1.76-2.02-2.54l.88-.54c.72,.77,1.6,1.79,2.05,2.43l-.91,.66Zm2.91,1.86c-.4,.61-.8,1.14-1.22,1.6-.13-.21-.46-.71-.69-.91,1.3-1.38,2.45-3.46,3.19-5.55l.99,.29c-.26,.75-.59,1.5-.93,2.24h3.12c-.24-.64-.66-1.46-1.02-2.1l.98-.3c.48,.75,.98,1.74,1.22,2.4h2.75v.99h-3.44v1.63h2.99v.94h-2.99v1.65h3.01v.94h-3.01v1.71h3.79v1.02h-8.74v-6.56Zm3.89-1.34h-2.8v1.63h2.8v-1.63Zm0,2.58h-2.8v1.65h2.8v-1.65Zm0,2.59h-2.8v1.71h2.8v-1.71Z"/><path d="M358.21,91.68c0,2.83,.37,8.87,6.64,12.6-.27,.19-.75,.7-.96,.99-3.94-2.39-5.63-5.89-6.35-8.92-1.18,4.15-3.2,7.06-6.39,8.93-.22-.24-.75-.74-1.07-.94,3.54-1.84,5.51-5.06,6.48-9.54l.7,.11c-.11-.74-.18-1.44-.21-2.05h-3.94v-1.18h5.09Z"/><path d="M370.48,103.25c.96,.38,2.19,.51,3.78,.51,.78,.02,5.65,.02,6.64-.03-.21,.29-.42,.83-.5,1.18h-6.11c-3.41,0-5.3-.53-6.47-2.71-.19,1.22-.46,2.27-.94,3.14-.19-.14-.67-.45-.94-.58,.91-1.6,1.07-4.1,1.1-6.9l1.09,.06c-.02,.78-.05,1.55-.1,2.27,.34,1.06,.77,1.83,1.38,2.38v-5.87h-3.07v-1.06h2.85v-1.97h-2.54v-1.06h2.54v-1.92h1.1v1.92h2.5v1.06h-2.5v1.97h2.82v.69c1.42-.82,2.18-2.06,2.4-3.95h-2.23v-1.02h7s0,.34-.02,.5c-.14,2.85-.29,3.97-.64,4.37-.24,.27-.53,.37-.93,.4-.37,.05-1.04,.03-1.74,0-.03-.32-.14-.74-.3-1.02,.66,.06,1.28,.06,1.52,.06,.22,.02,.38-.02,.48-.14,.21-.24,.35-1.06,.46-3.14h-2.45c-.32,2.39-1.31,3.87-3.03,4.88-.13-.14-.4-.38-.64-.56h-2.51v2.27h2.48v1.06h-2.48v3.2Zm3.33-5.73h6.1v4.93h-6.1v-4.93Zm1.12,3.94h3.81v-2.95h-3.81v2.95Z"/><path d="M396.39,92.38v1.02h-13.94v-1.02h6.55c-.14-.46-.34-1.01-.5-1.46l1.15-.27c.22,.54,.46,1.22,.64,1.73h6.1Zm-.51,11.68c0,.58-.14,.82-.58,.98-.42,.14-1.1,.16-2.11,.14-.06-.27-.24-.64-.38-.88,.69,.03,1.42,.02,1.62,.02,.21-.02,.27-.06,.27-.26v-4.69h-10.52v5.94h-1.15v-6.95h12.85v5.7Zm-1.73-9.76v3.2h-9.28v-3.2h9.28Zm-1.44,9.3h-5.63v.78h-1.1v-4.07h6.74v3.28Zm.22-8.42h-6.9v1.44h6.9v-1.44Zm-5.86,6.04v1.49h4.56v-1.49h-4.56Z"/><path d="M405.54,95.22h-7.41v-.96h1.14v-2.62h.94v2.62h1.26v-3.54h.99v1.41h2.56v.91h-2.56v1.22h3.07v.96Zm-1.38,.54h.9v9.2h-.9v-.59h-5.49v-8.61h.88v3.19h4.61v-3.19Zm0,7.7v-3.6h-4.61v3.6h4.61Zm-2.87-.51c-.13-.22-.32-.5-.53-.78-.18,.45-.42,.85-.7,1.17-.1-.11-.35-.38-.51-.5,.61-.64,.88-1.6,.99-2.72l.69,.1c-.05,.43-.13,.83-.22,1.22,.3,.37,.62,.77,.78,1.04l-.5,.48Zm-.06-7.32c-.05,.43-.11,.82-.21,1.2,.27,.34,.58,.74,.72,1.01l-.48,.48c-.11-.21-.3-.46-.48-.74-.18,.43-.42,.82-.72,1.14-.08-.11-.34-.38-.5-.5,.61-.64,.88-1.57,.99-2.66l.67,.06Zm2.38,3.03c-.19-.29-.5-.74-.8-1.12-.19,.43-.45,.82-.77,1.12-.1-.1-.34-.37-.51-.48,.67-.62,.96-1.52,1.09-2.61l.69,.1c-.06,.42-.14,.8-.26,1.18,.38,.43,.82,.98,1.02,1.31l-.46,.5Zm.03,4.64c-.19-.3-.51-.75-.82-1.15-.19,.43-.45,.83-.75,1.15-.1-.11-.37-.37-.51-.5,.66-.62,.94-1.55,1.09-2.67l.66,.11c-.05,.42-.13,.82-.24,1.2,.4,.46,.83,1.01,1.06,1.36l-.48,.5Zm5.94-12.21c-.08,.22-.18,.45-.26,.69,.85,1.65,2.26,3.43,3.46,4.34-.22,.22-.54,.64-.72,.91-1.06-.94-2.29-2.61-3.19-4.26-.46,.98-1.01,1.94-1.62,2.8h3.46v1.04h-3.5v-.98c-.38,.54-.82,1.07-1.25,1.52-.16-.21-.54-.62-.74-.82,1.47-1.44,2.74-3.67,3.39-5.6l.96,.35Zm2.75,7.6c-.71,1.52-1.97,3.27-2.93,4.42,.5,.53,.96,1.04,1.31,1.44l-.77,.8c-.7-.93-2.16-2.48-3.25-3.57l.72-.67c.38,.37,.83,.82,1.28,1.28,.72-.85,1.6-2.08,2.21-3.17h-4.85v-1.04h5.39l.16-.06,.72,.58Z"/><path d="M419.55,91.14c-.46,1.04-.99,2.06-1.6,3.02v11.17h-1.15v-9.48c-.69,.91-1.42,1.74-2.16,2.43-.13-.29-.46-.9-.67-1.18,1.74-1.5,3.46-3.89,4.48-6.34l1.1,.37Zm6.75,12.56c.9,0,1.02-.7,1.15-3.44,.3,.24,.77,.46,1.1,.54-.19,2.96-.51,3.99-2.19,3.99h-3.04c-1.58,0-2.08-.46-2.08-2.16v-11.67h1.15v4.35h5.68v1.15h-5.68v6.19c0,.85,.18,1.04,1.01,1.04h2.9Z"/><path d="M435.5,100.44c-.34-.46-1.06-1.31-1.67-1.99v6.87h-1.17v-6.51c-.72,.72-1.47,1.36-2.21,1.84-.1-.34-.37-.93-.54-1.15,1.76-1.04,3.62-2.96,4.64-4.95h-4.21v-1.09h4.83l.22-.05,.64,.46c-.48,1.18-1.18,2.35-2,3.38,.64,.61,1.86,1.86,2.21,2.21l-.75,.98Zm-1.97-7.08c-.29-.59-.93-1.5-1.5-2.13l.9-.53c.61,.62,1.28,1.49,1.55,2.06l-.94,.59Zm11.2,10.18v1.17h-9.14v-1.17h4.21v-6.69h-3.46v-1.15h3.46v-5.01h1.18v5.01h3.41v1.15h-3.41v6.69h3.75Z"/><path d="M454.38,91.04c-.08,.1-.14,.21-.22,.3,1.5,1.46,4.27,2.75,6.77,3.33-.26,.22-.58,.64-.75,.93-1.3-.37-2.67-.91-3.92-1.62v.5h-5.55v-.45c-1.22,.69-2.58,1.23-3.92,1.65-.13-.22-.46-.69-.67-.91,2.9-.77,5.73-2.18,7.24-4.11l1.04,.38Zm-6.29,4.23h10.69v4.03h-10.69v-4.03Zm.93,4.79h9v5.2h-1.2v-.48h-6.63v.53h-1.17v-5.25Zm.1-1.57h3.78v-2.38h-3.78v2.38Zm1.81-2.21c.42,.56,.82,1.3,.96,1.81l-.91,.34c-.13-.51-.5-1.28-.9-1.87l.85-.27Zm-.74,4.63v1.09h6.63v-1.09h-6.63Zm6.63,3.03v-1.09h-6.63v1.09h6.63Zm-1.2-10.31c-.77-.48-1.49-1.02-2.1-1.6-.61,.59-1.31,1.14-2.08,1.6h4.18Zm2.1,2.48h-3.81v2.38h3.81v-2.38Zm-2.79,2.03c.29-.53,.7-1.38,.88-1.92l1.01,.32c-.35,.69-.75,1.41-1.09,1.89l-.8-.29Z"/></g><line class="l" x1="144.98" y1="86.46" x2="144.98" y2="66.89"/><line class="l" x1="146.4" y1="347.84" x2="146.4" y2="328.26"/><line class="g" x1="205.03" y1="39.19" x2="205.03" y2="407.31"/></g></svg>