<svg width="470" height="370" viewBox="0 0 470 370" fill="none" xmlns="http://www.w3.org/2000/svg">
<path d="M29.39 329.75C29.39 332.26 28.41 334.98 26.08 334.98C23.75 334.98 22.77 332.26 22.77 329.75C22.77 327.24 23.75 324.52 26.08 324.52C28.41 324.52 29.39 327.34 29.39 329.75ZM24.19 329.75C24.19 331.25 24.32 334.5 26.08 334.5C27.84 334.5 27.97 331.25 27.97 329.75C27.97 328.25 27.84 325 26.08 325C24.32 325 24.19 328.25 24.19 329.75Z" fill="black"/>
<path d="M19.13 205.8C19.87 205.8 20.35 205.7 20.63 205.45C20.93 205.18 21.05 204.97 21.14 204.79C21.25 204.74 21.43 204.79 21.49 204.89C21.28 205.69 20.99 206.52 20.75 206.84C20.09 206.81 19.42 206.79 18.69 206.79H16.37C15.47 206.79 14.95 206.81 14.59 206.84C14.56 206.82 14.48 206.76 14.48 206.63C14.48 206.58 14.56 206.52 14.66 206.45C15.4 205.97 15.92 205.43 17.11 204.15C18.17 203.01 19.4 201.46 19.4 199.75C19.4 198.29 18.7 197.41 17.4 197.41C16.44 197.41 15.75 198.07 15.32 199.01C15.18 199.09 14.94 199.01 14.94 198.8C15.45 197.39 16.72 196.54 18.16 196.54C19.76 196.54 20.8 197.61 20.8 199.15C20.8 200.14 20.34 201.23 19.09 202.67L18.11 203.79C16.8 205.29 16.65 205.55 16.65 205.65C16.65 205.76 16.73 205.79 17.15 205.79H19.13V205.8Z" fill="black"/>
<path d="M29.39 201.78C29.39 204.29 28.41 207.01 26.08 207.01C23.75 207.01 22.77 204.29 22.77 201.78C22.77 199.27 23.75 196.55 26.08 196.55C28.41 196.55 29.39 199.37 29.39 201.78ZM24.19 201.78C24.19 203.28 24.32 206.53 26.08 206.53C27.84 206.53 27.97 203.28 27.97 201.78C27.97 200.28 27.84 197.03 26.08 197.03C24.32 197.03 24.19 200.28 24.19 201.78Z" fill="black"/>
<path d="M14.73 141.51C14.73 141.19 14.97 140.89 15.35 140.89C15.73 140.89 15.94 141.21 16.12 141.47C16.33 141.77 16.52 141.95 16.97 141.95C18.01 141.95 19.84 140.59 19.84 138.81C19.84 137.4 19.17 136.2 17.78 136.2C17 136.2 16.42 136.58 16.05 136.98C15.79 136.95 15.6 136.72 15.7 136.42C16.31 136.15 17.62 135.56 18.26 135.03C18.61 134.74 19.11 134.26 19.11 133.49C19.11 132.64 18.52 132.11 17.8 132.11C16.86 132.11 16.14 132.7 15.64 133.52C15.48 133.55 15.3 133.46 15.3 133.3C15.8 132.18 16.97 131.36 18.2 131.36C19.51 131.36 20.42 132.06 20.42 133.2C20.42 133.86 20.16 134.48 18.71 135.25C18.63 135.41 18.71 135.47 18.9 135.49C20.12 135.59 21.22 136.44 21.22 137.95C21.22 139.1 20.66 140.25 19.67 141.12C18.49 142.16 17.11 142.5 16.32 142.5C15.6 142.5 14.74 142.26 14.74 141.51H14.73Z" fill="black"/>
<path d="M29.39 136.6C29.39 139.11 28.41 141.83 26.08 141.83C23.75 141.83 22.77 139.11 22.77 136.6C22.77 134.09 23.75 131.37 26.08 131.37C28.41 131.37 29.39 134.19 29.39 136.6ZM24.19 136.6C24.19 138.1 24.32 141.35 26.08 141.35C27.84 141.35 27.97 138.1 27.97 136.6C27.97 135.1 27.84 131.85 26.08 131.85C24.32 131.85 24.19 135.1 24.19 136.6Z" fill="black"/>
<path d="M14.6199 73.4C14.4799 73.4 14.3999 73.29 14.3999 73.13C14.3999 72.94 14.4599 72.84 14.6899 72.52L19.8299 65.35C19.9399 65.21 20.0399 65.13 20.1999 65.13H20.4699C20.6299 65.13 20.7099 65.18 20.7099 65.26C20.7099 65.31 20.6799 65.37 20.6299 65.44L15.5399 72.48C15.3499 72.74 15.5699 72.74 15.9899 72.74H18.4699C18.8499 72.74 18.9199 72.69 18.9199 72.32V69.37C18.9199 69.26 18.9399 69.13 19.0599 69.05C19.2499 68.92 19.6199 68.79 19.8799 68.78C20.0999 68.76 20.0999 68.96 20.0999 69.28V72.37C20.0999 72.67 20.1499 72.74 20.4199 72.74H21.4399C21.5799 72.85 21.5799 73.27 21.4399 73.41H20.5799C20.1799 73.41 20.0999 73.43 20.0999 73.76V74.48C20.0999 75.74 20.1299 75.95 20.7899 76.03L21.2099 76.08C21.3099 76.18 21.2899 76.43 21.1799 76.48C20.5999 76.45 20.0099 76.43 19.5099 76.43C18.9299 76.43 18.2099 76.45 17.5099 76.48C17.3999 76.43 17.3799 76.18 17.4799 76.08L18.1999 76.03C18.8699 75.98 18.9199 75.71 18.9199 74.48V73.81C18.9199 73.43 18.8699 73.41 18.4599 73.41H14.6299L14.6199 73.4Z" fill="black"/>
<path d="M29.39 71.4201C29.39 73.9301 28.41 76.6501 26.08 76.6501C23.75 76.6501 22.77 73.9301 22.77 71.4201C22.77 68.9101 23.75 66.1901 26.08 66.1901C28.41 66.1901 29.39 69.0101 29.39 71.4201ZM24.19 71.4201C24.19 72.9201 24.32 76.1701 26.08 76.1701C27.84 76.1701 27.97 72.9201 27.97 71.4201C27.97 69.9201 27.84 66.6701 26.08 66.6701C24.32 66.6701 24.19 69.9201 24.19 71.4201Z" fill="black"/>
<path d="M17.5899 263.88C17.5899 262.79 17.5399 262.44 16.8199 262.37L16.0499 262.31C15.9199 262.25 15.9099 262.02 16.0299 261.96C17.3699 261.72 18.2599 261.3 18.6699 261.03C18.7299 261.03 18.7999 261.06 18.8299 261.11C18.7999 261.4 18.7699 262.2 18.7699 263.11V269.32C18.7699 270.55 18.7999 270.82 19.4599 270.87L20.1299 270.92C20.2299 271.02 20.2099 271.27 20.0999 271.32C19.4799 271.29 18.7599 271.27 18.1999 271.27C17.6399 271.27 16.8999 271.29 16.2799 271.32C16.1699 271.27 16.1499 271.02 16.2499 270.92L16.9099 270.87C17.5799 270.82 17.5999 270.55 17.5999 269.32V263.88H17.5899Z" fill="black"/>
<path d="M29.39 266.26C29.39 268.77 28.41 271.49 26.08 271.49C23.75 271.49 22.77 268.77 22.77 266.26C22.77 263.75 23.75 261.03 26.08 261.03C28.41 261.03 29.39 263.85 29.39 266.26ZM24.19 266.26C24.19 267.76 24.32 271.01 26.08 271.01C27.84 271.01 27.97 267.76 27.97 266.26C27.97 264.76 27.84 261.51 26.08 261.51C24.32 261.51 24.19 264.76 24.19 266.26Z" fill="black"/>
<path d="M78.1899 350.46C76.1899 351.05 74.0599 351.68 72.5099 352.14L72.1899 351C72.8899 350.82 73.7599 350.6 74.6999 350.33V346.46H72.6799V345.36H74.6999V341.95H72.4899V340.86H77.9499V341.95H75.8399V345.36H77.8099V346.46H75.8399V350.03L78.0499 349.41L78.1899 350.47V350.46ZM85.6999 353.5C86.0699 353.5 86.1299 353.26 86.1799 351.61C86.3999 351.82 86.8899 351.99 87.1699 352.07C87.0899 354.02 86.7899 354.52 85.8299 354.52H84.2799C83.1399 354.52 82.8599 354.18 82.8599 353.03V349.48H81.2899C80.9699 352.02 80.1099 353.77 76.9999 354.73C76.8899 354.46 76.5699 353.98 76.3299 353.75C79.1499 352.98 79.8699 351.54 80.1199 349.48H78.6999V340.72H86.1699V349.48H83.9899V353.03C83.9899 353.43 84.0499 353.49 84.4499 353.49H85.6999V353.5ZM79.8099 343.34H84.9999V341.74H79.8099V343.34ZM79.8099 345.88H84.9999V344.28H79.8099V345.88ZM79.8099 348.47H84.9999V346.84H79.8099V348.47Z" fill="black"/>
<path d="M102.61 342.5V343.64H93.8901C93.3301 344.79 92.7101 345.88 91.9501 346.91V354.58H90.7801V348.32C90.2201 348.93 89.6001 349.46 88.9201 349.94C88.8101 349.62 88.5001 349.12 88.3101 348.87C90.1301 347.57 91.5401 345.68 92.5401 343.65H88.7001V342.51H93.0701C93.4101 341.69 93.6901 340.84 93.9201 340.03L95.1401 340.33C94.9301 341.05 94.6601 341.79 94.3701 342.51H102.61V342.5ZM98.3901 353.14H102.61V354.26H92.9901V353.14H97.2001V348.64H93.6201V347.52H97.2001V344.46H98.3901V347.52H101.99V348.64H98.3901V353.14Z" fill="black"/>
<path d="M149.43 352.55C152.87 349.12 154.81 347.08 154.81 345.2C154.81 343.9 154.1 342.97 152.65 342.97C151.69 342.97 150.86 343.58 150.22 344.33L149.37 343.51C150.33 342.47 151.34 341.78 152.83 341.78C154.93 341.78 156.24 343.11 156.24 345.13C156.24 347.27 154.29 349.4 151.58 352.25C152.19 352.2 152.89 352.14 153.5 352.14H156.81V353.4H149.43V352.54V352.55Z" fill="black"/>
<path d="M172.81 350.98H167.02V354.65H165.82V350.98H158.42V349.83H161.04V345.54H165.81V343.11H161.92C161.2 344.34 160.35 345.43 159.49 346.26C159.27 346.07 158.77 345.67 158.47 345.51C159.97 344.2 161.32 342.13 162.07 339.99L163.27 340.28C163.05 340.84 162.79 341.42 162.53 341.96H172.07V343.11H167.01V345.54H171.7V346.66H167.01V349.83H172.8V350.98H172.81ZM165.81 349.83V346.66H162.23V349.83H165.81Z" fill="black"/>
<path d="M187.9 353.08C187.9 353.83 187.74 354.22 187.21 354.42C186.67 354.61 185.75 354.61 184.39 354.61C184.34 354.27 184.17 353.73 183.99 353.41C185.03 353.44 186.02 353.44 186.34 353.43C186.63 353.41 186.69 353.33 186.69 353.08V344.74H182.61C183.22 347.19 184.42 348.95 186.52 349.85C186.26 350.11 185.88 350.57 185.69 350.89C183.59 349.85 182.36 348.06 181.67 345.66C181 348.11 179.68 349.89 177.56 350.97C177.38 350.7 177.02 350.25 176.76 350.03C178.9 348.99 180.22 347.26 180.76 344.75H176.6V354.64H175.41V343.58H181.24C181.16 343.02 181.1 342.43 181.06 341.8H178.18V340.74H182.07C182.12 341.75 182.21 342.69 182.36 343.57H187.9V353.08Z" fill="black"/>
<path d="M224.68 352.02L225.42 351.06C226.11 351.78 227 352.4 228.33 352.4C229.66 352.4 230.71 351.58 230.71 350.3C230.71 348.94 229.77 348.04 227.06 348.04V346.92C229.48 346.92 230.31 345.98 230.31 344.77C230.31 343.67 229.54 342.96 228.32 342.96C227.38 342.96 226.54 343.44 225.89 344.11L225.11 343.2C225.99 342.37 227.03 341.78 228.39 341.78C230.36 341.78 231.8 342.82 231.8 344.68C231.8 346.06 230.95 346.94 229.72 347.39V347.45C231.1 347.79 232.2 348.79 232.2 350.36C232.2 352.39 230.52 353.61 228.44 353.61C226.6 353.61 225.45 352.84 224.68 352.01V352.02Z" fill="black"/>
<path d="M233.83 348.37H237.93V349.49H233.83V348.37Z" fill="black"/>
<path d="M239.1 352.07L239.82 351.11C240.49 351.78 241.34 352.41 242.7 352.41C244.06 352.41 245.2 351.4 245.2 349.82C245.2 348.24 244.24 347.29 242.77 347.29C241.99 347.29 241.49 347.55 240.82 348L240.04 347.5L240.41 342.01H246.12V343.26H241.69L241.4 346.67C241.93 346.38 242.44 346.19 243.15 346.19C245.1 346.19 246.69 347.31 246.69 349.78C246.69 352.25 244.83 353.64 242.85 353.64C241.03 353.64 239.9 352.87 239.12 352.09L239.1 352.07Z" fill="black"/>
<path d="M262.74 350.98H256.95V354.65H255.75V350.98H248.35V349.83H250.97V345.54H255.74V343.11H251.85C251.13 344.34 250.28 345.43 249.42 346.26C249.2 346.07 248.7 345.67 248.4 345.51C249.9 344.2 251.25 342.13 252 339.99L253.2 340.28C252.98 340.84 252.72 341.42 252.46 341.96H262V343.11H256.94V345.54H261.63V346.66H256.94V349.83H262.73V350.98H262.74ZM255.75 349.83V346.66H252.16V349.83H255.75Z" fill="black"/>
<path d="M277.82 353.08C277.82 353.83 277.66 354.22 277.13 354.42C276.59 354.61 275.67 354.61 274.31 354.61C274.26 354.27 274.09 353.73 273.91 353.41C274.95 353.44 275.94 353.44 276.26 353.43C276.55 353.41 276.61 353.33 276.61 353.08V344.74H272.53C273.14 347.19 274.34 348.95 276.44 349.85C276.18 350.11 275.8 350.57 275.61 350.89C273.51 349.85 272.28 348.06 271.59 345.66C270.92 348.11 269.61 349.89 267.48 350.97C267.3 350.7 266.94 350.25 266.68 350.03C268.82 348.99 270.14 347.26 270.68 344.75H266.52V354.64H265.34V343.58H271.17C271.09 343.02 271.03 342.43 270.99 341.8H268.11V340.74H272C272.05 341.75 272.14 342.69 272.29 343.57H277.83V353.08H277.82Z" fill="black"/>
<path d="M308.57 348.15C308.57 343.56 310.64 341.8 312.92 341.8C314.14 341.8 315.02 342.31 315.66 343L314.84 343.91C314.38 343.35 313.67 343.01 312.97 343.01C311.35 343.01 310.01 344.24 309.94 347.88C310.68 347 311.69 346.46 312.61 346.46C314.58 346.46 315.86 347.64 315.86 349.97C315.86 352.16 314.32 353.64 312.5 353.64C310.24 353.64 308.56 351.82 308.56 348.17L308.57 348.15ZM309.98 349.06C310.17 351.28 311.05 352.48 312.49 352.48C313.63 352.48 314.49 351.47 314.49 349.95C314.49 348.43 313.79 347.53 312.38 347.53C311.64 347.53 310.75 347.93 309.98 349.05V349.06Z" fill="black"/>
<path d="M317.32 348.37H321.42V349.49H317.32V348.37Z" fill="black"/>
<path d="M323.55 352.2H326.16V343.78H324.08V342.84C325.12 342.66 325.87 342.39 326.51 342.01H327.63V352.21H329.98V353.43H323.55V352.21V352.2Z" fill="black"/>
<path d="M331.8 347.67C331.8 343.84 333.19 341.79 335.47 341.79C337.75 341.79 339.12 343.86 339.12 347.67C339.12 351.48 337.74 353.62 335.47 353.62C333.2 353.62 331.8 351.49 331.8 347.67ZM337.69 347.67C337.69 344.32 336.79 342.96 335.47 342.96C334.15 342.96 333.23 344.32 333.23 347.67C333.23 351.02 334.13 352.46 335.47 352.46C336.81 352.46 337.69 351.02 337.69 347.67Z" fill="black"/>
<path d="M355.11 350.98H349.32V354.65H348.12V350.98H340.72V349.83H343.34V345.54H348.11V343.11H344.22C343.5 344.34 342.65 345.43 341.79 346.26C341.57 346.07 341.07 345.67 340.77 345.51C342.27 344.2 343.62 342.13 344.37 339.99L345.57 340.28C345.35 340.84 345.09 341.42 344.83 341.96H354.37V343.11H349.31V345.54H354V346.66H349.31V349.83H355.1V350.98H355.11ZM348.12 349.83V346.66H344.53V349.83H348.12Z" fill="black"/>
<path d="M370.19 353.08C370.19 353.83 370.03 354.22 369.5 354.42C368.96 354.61 368.04 354.61 366.68 354.61C366.63 354.27 366.46 353.73 366.28 353.41C367.32 353.44 368.31 353.44 368.63 353.43C368.92 353.41 368.98 353.33 368.98 353.08V344.74H364.9C365.51 347.19 366.71 348.95 368.81 349.85C368.55 350.11 368.17 350.57 367.98 350.89C365.88 349.85 364.65 348.06 363.96 345.66C363.29 348.11 361.98 349.89 359.85 350.97C359.67 350.7 359.31 350.25 359.05 350.03C361.2 348.99 362.51 347.26 363.05 344.75H358.89V354.64H357.71V343.58H363.54C363.46 343.02 363.4 342.43 363.36 341.8H360.48V340.74H364.37C364.42 341.75 364.51 342.69 364.66 343.57H370.2V353.08H370.19Z" fill="black"/>
<path d="M389.61 352.2H392.22V343.78H390.14V342.84C391.18 342.66 391.93 342.39 392.57 342.01H393.69V352.21H396.04V353.43H389.6V352.21L389.61 352.2Z" fill="black"/>
<path d="M397.86 347.67C397.86 343.84 399.25 341.79 401.53 341.79C403.81 341.79 405.18 343.86 405.18 347.67C405.18 351.48 403.8 353.62 401.53 353.62C399.26 353.62 397.86 351.49 397.86 347.67ZM403.75 347.67C403.75 344.32 402.85 342.96 401.53 342.96C400.21 342.96 399.29 344.32 399.29 347.67C399.29 351.02 400.19 352.46 401.53 352.46C402.87 352.46 403.75 351.02 403.75 347.67Z" fill="black"/>
<path d="M421.16 350.98H415.37V354.65H414.17V350.98H406.78V349.83H409.4V345.54H414.17V343.11H410.28C409.56 344.34 408.71 345.43 407.85 346.26C407.63 346.07 407.13 345.67 406.83 345.51C408.33 344.2 409.68 342.13 410.43 339.99L411.63 340.28C411.41 340.84 411.15 341.42 410.89 341.96H420.43V343.11H415.37V345.54H420.06V346.66H415.37V349.83H421.16V350.98ZM414.16 349.83V346.66H410.58V349.83H414.16Z" fill="black"/>
<path d="M429.4 350.07C427.19 351.08 424.77 352.14 423.01 352.9L422.58 351.67C423.2 351.43 423.96 351.13 424.79 350.77L424.52 340.88L425.74 340.83L425.98 350.27C427 349.84 428.08 349.37 429.13 348.93L429.4 350.07ZM436.44 354.58C435.7 353.48 434.21 351.79 432.85 350.35C431.6 352.24 429.86 353.63 427.36 354.67C427.2 354.43 426.7 353.89 426.42 353.65C431.91 351.63 433.61 347.76 434.31 340.84L435.61 340.97C435.23 344.4 434.62 347.12 433.5 349.26C434.92 350.7 436.62 352.48 437.44 353.66L436.45 354.57L436.44 354.58ZM430.28 346.43C429.85 345.33 428.82 343.69 427.82 342.52L428.88 341.99C429.94 343.16 430.96 344.73 431.41 345.82L430.29 346.43H430.28Z" fill="black"/>
<path d="M453.1 352.7V353.88H438.84V352.7H444.81V340.28H446.06V345.18H452.01V346.36H446.06V352.7H453.1Z" fill="black"/>
<path d="M42.6401 330.58H451.56" stroke="#E6E6E6"/>
<path d="M438.52 291.03H396.03V330.58H438.52V291.03Z" fill="#AE441F"/>
<path d="M355.91 298.16H313.42V330.58H355.91V298.16Z" fill="#AE441F"/>
<path d="M42.6401 265.74H451.56" stroke="#E6E6E6"/>
<path d="M42.6401 200.9H451.56" stroke="#E6E6E6"/>
<path d="M42.6401 136.07H451.56" stroke="#E6E6E6"/>
<path d="M42.6401 71.2301H451.56" stroke="#E6E6E6"/>
<path d="M273.3 186.77H230.81V330.58H273.3V186.77Z" fill="#AE441F"/>
<path d="M108.08 50.12H65.5898V330.58H108.08V50.12Z" fill="#AE441F"/>
<path d="M190.69 186.77H148.2V330.58H190.69V186.77Z" fill="#AE441F"/>
<path d="M15.98 35.71C15.98 33.36 17.04 32.03 18.64 32.03C20.24 32.03 21.31 33.36 21.31 35.71C21.31 38.06 20.25 39.44 18.64 39.44C17.03 39.44 15.98 38.08 15.98 35.71ZM20.21 35.71C20.21 33.84 19.57 32.92 18.64 32.92C17.71 32.92 17.09 33.83 17.09 35.71C17.09 37.59 17.73 38.53 18.64 38.53C19.55 38.53 20.21 37.59 20.21 35.71ZM25.46 32.03H26.45L19.97 44.2H18.99L25.46 32.03ZM24.15 40.48C24.15 38.13 25.22 36.8 26.82 36.8C28.42 36.8 29.48 38.13 29.48 40.48C29.48 42.83 28.42 44.19 26.82 44.19C25.22 44.19 24.15 42.85 24.15 40.48ZM28.38 40.48C28.38 38.61 27.74 37.69 26.83 37.69C25.92 37.69 25.28 38.6 25.28 40.48C25.28 42.36 25.9 43.3 26.83 43.3C27.76 43.3 28.38 42.36 28.38 40.48Z" fill="black"/>
<path d="M85.23 37.99H87.01V39.32H85.23V42.29H83.6V39.32H77.77V38.36L83.5 29.49H85.23V37.99ZM79.61 37.99H83.59V31.71L83.4 32.06L79.61 37.98V37.99Z" fill="#AE441F"/>
<path d="M90.84 35.1H92.06C92.83 35.09 93.43 34.8901 93.87 34.4901C94.31 34.0901 94.53 33.5701 94.53 32.9001C94.53 31.4001 93.78 30.65 92.29 30.65C91.59 30.65 91.03 30.85 90.61 31.25C90.19 31.65 89.98 32.18 89.98 32.84H88.35C88.35 31.83 88.72 30.98 89.46 30.31C90.2 29.64 91.14 29.3 92.29 29.3C93.5 29.3 94.44 29.62 95.13 30.26C95.82 30.9 96.16 31.79 96.16 32.92C96.16 33.48 95.98 34.0201 95.62 34.5401C95.26 35.0601 94.77 35.45 94.15 35.71C94.85 35.93 95.4 36.3 95.78 36.82C96.16 37.34 96.36 37.97 96.36 38.71C96.36 39.86 95.98 40.77 95.24 41.44C94.5 42.11 93.51 42.4501 92.31 42.4501C91.11 42.4501 90.13 42.1201 89.38 41.4701C88.63 40.8201 88.25 39.96 88.25 38.89H89.88C89.88 39.56 90.1 40.1 90.54 40.51C90.98 40.92 91.57 41.12 92.31 41.12C93.1 41.12 93.7 40.91 94.11 40.5C94.52 40.09 94.73 39.5 94.73 38.73C94.73 37.96 94.5 37.4101 94.04 37.0201C93.58 36.6301 92.92 36.4201 92.06 36.4001H90.84V35.07V35.1Z" fill="#AE441F"/>
<path d="M168.66 180.34H160.28V179.17L164.71 174.25C165.37 173.51 165.82 172.9 166.07 172.44C166.32 171.97 166.44 171.49 166.44 170.99C166.44 170.32 166.24 169.77 165.83 169.35C165.42 168.93 164.89 168.71 164.21 168.71C163.4 168.71 162.77 168.94 162.33 169.4C161.88 169.86 161.66 170.5 161.66 171.32H160.03C160.03 170.14 160.41 169.19 161.17 168.46C161.93 167.73 162.94 167.37 164.21 167.37C165.4 167.37 166.34 167.68 167.03 168.31C167.72 168.93 168.07 169.76 168.07 170.8C168.07 172.06 167.27 173.56 165.66 175.3L162.23 179.02H168.65V180.35L168.66 180.34Z" fill="#AE441F"/>
<path d="M178.77 180.34H170.39V179.17L174.82 174.25C175.48 173.51 175.93 172.9 176.18 172.44C176.43 171.97 176.55 171.49 176.55 170.99C176.55 170.32 176.35 169.77 175.94 169.35C175.53 168.93 175 168.71 174.32 168.71C173.51 168.71 172.88 168.94 172.44 169.4C171.99 169.86 171.77 170.5 171.77 171.32H170.14C170.14 170.14 170.52 169.19 171.28 168.46C172.04 167.73 173.05 167.37 174.32 167.37C175.51 167.37 176.45 167.68 177.14 168.31C177.83 168.93 178.18 169.76 178.18 170.8C178.18 172.06 177.38 173.56 175.77 175.3L172.34 179.02H178.76V180.35L178.77 180.34Z" fill="#AE441F"/>
<path d="M251.13 180.34H242.75V179.17L247.18 174.25C247.84 173.51 248.29 172.9 248.54 172.44C248.79 171.97 248.91 171.49 248.91 170.99C248.91 170.32 248.71 169.77 248.3 169.35C247.89 168.93 247.36 168.71 246.68 168.71C245.87 168.71 245.24 168.94 244.79 169.4C244.34 169.86 244.12 170.5 244.12 171.32H242.5C242.5 170.14 242.88 169.19 243.64 168.46C244.4 167.73 245.41 167.37 246.69 167.37C247.88 167.37 248.82 167.68 249.51 168.31C250.2 168.93 250.55 169.76 250.55 170.8C250.55 172.06 249.75 173.56 248.14 175.3L244.71 179.02H251.14V180.35L251.13 180.34Z" fill="#AE441F"/>
<path d="M261.24 180.34H252.86V179.17L257.29 174.25C257.95 173.51 258.4 172.9 258.65 172.44C258.9 171.97 259.02 171.49 259.02 170.99C259.02 170.32 258.82 169.77 258.41 169.35C258 168.93 257.47 168.71 256.79 168.71C255.98 168.71 255.35 168.94 254.9 169.4C254.45 169.86 254.23 170.5 254.23 171.32H252.61C252.61 170.14 252.99 169.19 253.75 168.46C254.51 167.73 255.52 167.37 256.8 167.37C257.99 167.37 258.93 167.68 259.62 168.31C260.31 168.93 260.66 169.76 260.66 170.8C260.66 172.06 259.86 173.56 258.25 175.3L254.82 179.02H261.25V180.35L261.24 180.34Z" fill="#AE441F"/>
<path d="M331.41 286.61L332.06 280.23H338.62V281.73H333.44L333.05 285.22C333.68 284.85 334.39 284.67 335.19 284.67C336.36 284.67 337.28 285.06 337.97 285.83C338.66 286.6 339 287.64 339 288.95C339 290.26 338.64 291.31 337.93 292.07C337.22 292.83 336.22 293.21 334.95 293.21C333.82 293.21 332.9 292.9 332.18 292.27C331.46 291.64 331.06 290.78 330.96 289.67H332.5C332.6 290.4 332.86 290.96 333.28 291.33C333.7 291.7 334.26 291.89 334.95 291.89C335.71 291.89 336.3 291.63 336.73 291.12C337.16 290.61 337.38 289.89 337.38 288.98C337.38 288.12 337.15 287.44 336.68 286.92C336.21 286.4 335.6 286.14 334.82 286.14C334.11 286.14 333.55 286.3 333.15 286.61L332.72 286.96L331.42 286.63L331.41 286.61Z" fill="#AE441F"/>
<path d="M418.36 273.36V274.74H418.06C416.79 274.76 415.79 275.14 415.04 275.86C414.29 276.58 413.86 277.61 413.74 278.93C414.41 278.16 415.33 277.77 416.5 277.77C417.67 277.77 418.5 278.16 419.17 278.95C419.84 279.74 420.17 280.75 420.17 281.99C420.17 283.31 419.81 284.36 419.09 285.15C418.37 285.94 417.41 286.34 416.2 286.34C414.99 286.34 413.98 285.87 413.22 284.93C412.46 283.99 412.08 282.78 412.08 281.3V280.68C412.08 278.32 412.58 276.52 413.59 275.28C414.6 274.04 416.09 273.4 418.08 273.37H418.37L418.36 273.36ZM416.22 279.13C415.66 279.13 415.15 279.3 414.68 279.63C414.21 279.96 413.89 280.38 413.7 280.89V281.49C413.7 282.54 413.94 283.39 414.41 284.04C414.88 284.69 415.48 285.01 416.19 285.01C416.9 285.01 417.5 284.74 417.92 284.2C418.34 283.66 418.55 282.95 418.55 282.08C418.55 281.21 418.34 280.49 417.91 279.95C417.49 279.41 416.92 279.14 416.22 279.14V279.13Z" fill="#AE441F"/>
</svg>
