<svg width="500" height="412" viewBox="0 0 500 412" fill="none" xmlns="http://www.w3.org/2000/svg">
<path d="M33.0001 26.76C32.9801 27.41 32.9601 28.31 32.8801 29.37C33.1501 31.51 34.2301 39.04 40.5901 41.87C40.2101 42.18 39.8201 42.63 39.6201 43C35.1201 40.89 33.1901 36.45 32.3301 33.1C31.5001 36.7 29.5901 40.73 25.2001 43.07C24.9701 42.71 24.5301 42.3 24.1201 42.03C31.5901 38.25 31.4901 29.5 31.5401 26.76H33.0201H33.0001Z" fill="black"/>
<path d="M57.1203 31.44C56.8003 34.21 56.2203 36.48 55.3003 38.34C56.1103 39.96 57.2103 41.26 58.6303 42.03C58.3603 42.26 57.9603 42.71 57.7703 43.06C56.4603 42.25 55.4303 41.03 54.6203 39.53C53.6303 41.04 52.3003 42.23 50.5203 43.17C50.4103 42.94 50.1203 42.54 49.9103 42.27L49.4803 42.67C48.8903 42.33 48.0803 41.91 47.1803 41.55C46.1503 42.14 44.6803 42.68 42.5903 43.13C42.5003 42.86 42.2303 42.46 42.0103 42.23C43.7203 41.89 45.0003 41.47 45.9403 41.02C45.0903 40.7 44.2103 40.39 43.3803 40.17C43.7203 39.74 44.1003 39.16 44.4803 38.59H42.1603V37.62H45.0403C45.2503 37.22 45.4403 36.85 45.6203 36.47H42.9503V33.57H46.3403V32.78H43.3903V30.74H42.1503V29.73H43.3903V27.86H46.3403V26.69H47.4003V27.86H50.5503V29.73H51.5803V30.74H50.5503V32.78H47.4003V33.57H50.9103V34.52C52.1003 32.56 52.9503 29.62 53.4503 26.69L54.6203 26.92C54.4003 28.02 54.1303 29.15 53.8503 30.23H58.5103V31.44H57.1403H57.1203ZM44.0803 35.6H46.3103V34.41H44.0803V35.6ZM44.4003 28.79V29.78H46.3103V28.79H44.4003ZM46.3103 31.83V30.68H44.4003V31.83H46.3103ZM45.6803 38.58C45.4503 38.96 45.2303 39.32 45.0103 39.66C45.6603 39.86 46.3403 40.09 47.0103 40.36C47.8003 39.78 48.1803 39.15 48.3603 38.58H45.6803ZM50.2903 41.89C51.9503 40.99 53.1703 39.82 54.0203 38.27C53.4403 36.86 53.0303 35.26 52.6903 33.52C52.3803 34.28 52.0603 34.94 51.7003 35.52C51.5403 35.34 51.1603 35.02 50.8903 34.78V36.45H46.8203C46.6403 36.83 46.4403 37.21 46.2403 37.6H48.5103V36.88H49.6103V37.6H51.4103V38.57H49.5003C49.3603 39.31 48.9803 40.08 48.1503 40.8C48.9803 41.16 49.7503 41.54 50.3303 41.84L50.2903 41.88V41.89ZM47.3703 28.78V29.77H49.4203V28.78H47.3703ZM49.4203 31.82V30.67H47.3703V31.82H49.4203ZM47.3703 34.39V35.58H49.6903V34.39H47.3703ZM53.4503 31.42L53.3603 31.64C53.6503 33.57 54.0603 35.35 54.6703 36.92C55.2803 35.37 55.6803 33.57 55.9103 31.43H53.4403L53.4503 31.42Z" fill="black"/>
<path d="M80.88 377.27H72.5V376.1L76.93 371.18C77.59 370.44 78.04 369.83 78.29 369.37C78.54 368.9 78.66 368.42 78.66 367.92C78.66 367.25 78.46 366.7 78.05 366.28C77.64 365.86 77.11 365.64 76.43 365.64C75.62 365.64 74.99 365.87 74.55 366.33C74.11 366.79 73.88 367.43 73.88 368.25H72.25C72.25 367.07 72.63 366.12 73.39 365.39C74.15 364.66 75.16 364.3 76.43 364.3C77.62 364.3 78.56 364.61 79.25 365.24C79.94 365.86 80.29 366.69 80.29 367.73C80.29 368.99 79.49 370.49 77.88 372.23L74.45 375.95H80.87V377.28L80.88 377.27Z" fill="black"/>
<path d="M90.6298 371.81C90.6298 373.71 90.2998 375.13 89.6498 376.06C88.9998 376.99 87.9798 377.45 86.5998 377.45C85.2198 377.45 84.2198 377 83.5698 376.09C82.9098 375.19 82.5698 373.83 82.5498 372.03V369.86C82.5498 367.98 82.8798 366.58 83.5298 365.67C84.1798 364.76 85.1998 364.3 86.5898 364.3C87.9798 364.3 88.9798 364.74 89.6298 365.62C90.2798 366.5 90.6098 367.86 90.6298 369.7V371.81ZM88.9998 369.59C88.9998 368.21 88.8098 367.21 88.4198 366.58C88.0298 365.95 87.4198 365.64 86.5798 365.64C85.7398 365.64 85.1398 365.95 84.7598 366.58C84.3798 367.21 84.1798 368.17 84.1698 369.47V372.07C84.1698 373.45 84.3698 374.47 84.7698 375.13C85.1698 375.79 85.7798 376.12 86.5898 376.12C87.3998 376.12 87.9898 375.81 88.3798 375.19C88.7698 374.57 88.9698 373.59 88.9898 372.25V369.59H88.9998Z" fill="black"/>
<path d="M101.1 377.27H92.7202V376.1L97.1502 371.18C97.8102 370.44 98.2602 369.83 98.5102 369.37C98.7602 368.9 98.8802 368.42 98.8802 367.92C98.8802 367.25 98.6802 366.7 98.2702 366.28C97.8602 365.86 97.3302 365.64 96.6502 365.64C95.8402 365.64 95.2102 365.87 94.7702 366.33C94.3302 366.79 94.1002 367.43 94.1002 368.25H92.4702C92.4702 367.07 92.8502 366.12 93.6102 365.39C94.3702 364.66 95.3802 364.3 96.6502 364.3C97.8402 364.3 98.7802 364.61 99.4702 365.24C100.16 365.86 100.51 366.69 100.51 367.73C100.51 368.99 99.7102 370.49 98.1002 372.23L94.6702 375.95H101.09V377.28L101.1 377.27Z" fill="black"/>
<path d="M110.85 371.81C110.85 373.71 110.52 375.13 109.87 376.06C109.22 376.99 108.2 377.45 106.82 377.45C105.44 377.45 104.44 377 103.79 376.09C103.13 375.19 102.79 373.83 102.77 372.03V369.86C102.77 367.98 103.1 366.58 103.75 365.67C104.4 364.76 105.42 364.3 106.81 364.3C108.2 364.3 109.2 364.74 109.85 365.62C110.5 366.5 110.83 367.86 110.85 369.7V371.81ZM109.22 369.59C109.22 368.21 109.03 367.21 108.64 366.58C108.25 365.95 107.64 365.64 106.8 365.64C105.96 365.64 105.36 365.95 104.98 366.58C104.6 367.21 104.4 368.17 104.39 369.47V372.07C104.39 373.45 104.59 374.47 104.99 375.13C105.39 375.79 106 376.12 106.81 376.12C107.62 376.12 108.21 375.81 108.6 375.19C108.99 374.57 109.19 373.59 109.21 372.25V369.59H109.22Z" fill="black"/>
<path d="M254.39 377.27H246.01V376.1L250.44 371.18C251.1 370.44 251.55 369.83 251.8 369.37C252.05 368.9 252.17 368.42 252.17 367.92C252.17 367.25 251.97 366.7 251.56 366.28C251.15 365.86 250.62 365.64 249.94 365.64C249.13 365.64 248.5 365.87 248.05 366.33C247.6 366.79 247.38 367.43 247.38 368.25H245.75C245.75 367.07 246.13 366.12 246.89 365.39C247.65 364.66 248.66 364.3 249.94 364.3C251.13 364.3 252.07 364.61 252.76 365.24C253.45 365.86 253.8 366.69 253.8 367.73C253.8 368.99 253 370.49 251.39 372.23L247.96 375.95H254.38V377.28L254.39 377.27Z" fill="black"/>
<path d="M264.14 371.81C264.14 373.71 263.81 375.13 263.16 376.06C262.51 376.99 261.49 377.45 260.11 377.45C258.73 377.45 257.73 377 257.08 376.09C256.42 375.19 256.08 373.83 256.06 372.03V369.86C256.06 367.98 256.39 366.58 257.04 365.67C257.69 364.76 258.71 364.3 260.1 364.3C261.49 364.3 262.49 364.74 263.14 365.62C263.79 366.5 264.12 367.86 264.14 369.7V371.81ZM262.51 369.59C262.51 368.21 262.32 367.21 261.93 366.58C261.54 365.95 260.93 365.64 260.09 365.64C259.25 365.64 258.65 365.95 258.27 366.58C257.89 367.21 257.69 368.17 257.68 369.47V372.07C257.68 373.45 257.88 374.47 258.28 375.13C258.68 375.79 259.29 376.12 260.1 376.12C260.91 376.12 261.5 375.81 261.89 375.19C262.28 374.57 262.48 373.59 262.5 372.25V369.59H262.51Z" fill="black"/>
<path d="M274.61 377.27H266.23V376.1L270.66 371.18C271.32 370.44 271.77 369.83 272.02 369.37C272.27 368.9 272.39 368.42 272.39 367.92C272.39 367.25 272.19 366.7 271.78 366.28C271.37 365.86 270.84 365.64 270.16 365.64C269.35 365.64 268.72 365.87 268.27 366.33C267.82 366.79 267.6 367.43 267.6 368.25H265.97C265.97 367.07 266.35 366.12 267.11 365.39C267.87 364.66 268.88 364.3 270.16 364.3C271.35 364.3 272.29 364.61 272.98 365.24C273.67 365.86 274.02 366.69 274.02 367.73C274.02 368.99 273.22 370.49 271.61 372.23L268.18 375.95H274.6V377.28L274.61 377.27Z" fill="black"/>
<path d="M281.67 377.27H280.04V366.43L276.76 367.63V366.15L281.42 364.4H281.67V377.26V377.27Z" fill="black"/>
<path d="M431.7 377.27H423.32V376.1L427.75 371.18C428.41 370.44 428.86 369.83 429.11 369.37C429.36 368.9 429.48 368.42 429.48 367.92C429.48 367.25 429.28 366.7 428.87 366.28C428.46 365.86 427.93 365.64 427.25 365.64C426.44 365.64 425.81 365.87 425.37 366.33C424.93 366.79 424.7 367.43 424.7 368.25H423.07C423.07 367.07 423.45 366.12 424.21 365.39C424.97 364.66 425.98 364.3 427.25 364.3C428.44 364.3 429.38 364.61 430.07 365.24C430.76 365.86 431.11 366.69 431.11 367.73C431.11 368.99 430.31 370.49 428.7 372.23L425.27 375.95H431.69V377.28L431.7 377.27Z" fill="black"/>
<path d="M441.44 371.81C441.44 373.71 441.11 375.13 440.46 376.06C439.81 376.99 438.79 377.45 437.41 377.45C436.03 377.45 435.03 377 434.38 376.09C433.72 375.19 433.38 373.83 433.36 372.03V369.86C433.36 367.98 433.69 366.58 434.34 365.67C434.99 364.76 436.01 364.3 437.4 364.3C438.79 364.3 439.79 364.74 440.44 365.62C441.09 366.5 441.42 367.86 441.44 369.7V371.81ZM439.81 369.59C439.81 368.21 439.62 367.21 439.23 366.58C438.84 365.95 438.23 365.64 437.39 365.64C436.55 365.64 435.95 365.95 435.57 366.58C435.19 367.21 434.99 368.17 434.98 369.47V372.07C434.98 373.45 435.18 374.47 435.58 375.13C435.98 375.79 436.59 376.12 437.4 376.12C438.21 376.12 438.8 375.81 439.19 375.19C439.58 374.57 439.78 373.59 439.8 372.25V369.59H439.81Z" fill="black"/>
<path d="M451.91 377.27H443.53V376.1L447.96 371.18C448.62 370.44 449.07 369.83 449.32 369.37C449.57 368.9 449.69 368.42 449.69 367.92C449.69 367.25 449.49 366.7 449.08 366.28C448.67 365.86 448.14 365.64 447.46 365.64C446.65 365.64 446.02 365.87 445.58 366.33C445.14 366.79 444.91 367.43 444.91 368.25H443.28C443.28 367.07 443.66 366.12 444.42 365.39C445.18 364.66 446.19 364.3 447.46 364.3C448.65 364.3 449.59 364.61 450.28 365.24C450.97 365.86 451.32 366.69 451.32 367.73C451.32 368.99 450.52 370.49 448.91 372.23L445.48 375.95H451.9V377.28L451.91 377.27Z" fill="black"/>
<path d="M462.02 377.27H453.64V376.1L458.07 371.18C458.73 370.44 459.18 369.83 459.43 369.37C459.68 368.9 459.8 368.42 459.8 367.92C459.8 367.25 459.6 366.7 459.19 366.28C458.78 365.86 458.25 365.64 457.57 365.64C456.76 365.64 456.13 365.87 455.69 366.33C455.25 366.79 455.02 367.43 455.02 368.25H453.39C453.39 367.07 453.77 366.12 454.53 365.39C455.29 364.66 456.3 364.3 457.57 364.3C458.76 364.3 459.7 364.61 460.39 365.24C461.08 365.86 461.43 366.69 461.43 367.73C461.43 368.99 460.63 370.49 459.02 372.23L455.59 375.95H462.01V377.28L462.02 377.27Z" fill="black"/>
<path d="M49.59 61.28H46.02V60.27H49.59V59.28H50.76V60.27H52.71V61.28H50.76V62.27H49.59V61.28ZM59.34 72.69C59.34 73.25 59.24 73.52 58.83 73.71C58.43 73.89 57.77 73.89 56.75 73.89C56.69 73.59 56.54 73.2 56.4 72.91C57.15 72.93 57.76 72.93 57.94 72.91C58.13 72.89 58.2 72.85 58.2 72.67V69.31H53.58V70.98L55.58 70.9C55.36 70.53 55.12 70.18 54.88 69.88L55.76 69.59C56.47 70.45 57.19 71.62 57.41 72.44L56.48 72.78C56.4 72.49 56.27 72.19 56.1 71.84C53.52 72.02 50.9 72.14 49.09 72.24L48.99 71.2C49.92 71.17 51.13 71.12 52.45 71.07V69.32H47.98V73.9H46.83V69.32H46.19V68.33H46.83V67.75H47.98V68.33H52.45V67.35H47.86V62.5H58.28V67.35H53.59V68.33H59.37V72.7L59.34 72.69ZM48.97 64.51H52.43V63.36H48.97V64.51ZM52.43 66.48V65.33H48.97V66.48H52.43ZM59.98 60.27V61.28H56.35V62.29H55.18V61.28H53.31V60.27H55.18V59.28H56.35V60.27H59.98ZM57.08 63.36H53.56V64.51H57.08V63.36ZM57.08 65.33H53.56V66.48H57.08V65.33Z" fill="black"/>
<path d="M49.59 117.42H46.02V116.41H49.59V115.42H50.76V116.41H52.71V117.42H50.76V118.41H49.59V117.42ZM59.34 128.83C59.34 129.39 59.24 129.66 58.83 129.85C58.43 130.03 57.77 130.03 56.75 130.03C56.69 129.73 56.54 129.34 56.4 129.05C57.15 129.07 57.76 129.07 57.94 129.05C58.13 129.03 58.2 128.99 58.2 128.81V125.45H53.58V127.12L55.58 127.04C55.36 126.67 55.12 126.32 54.88 126.02L55.76 125.73C56.47 126.59 57.19 127.76 57.41 128.58L56.48 128.92C56.4 128.63 56.27 128.33 56.1 127.98C53.52 128.16 50.9 128.28 49.09 128.38L48.99 127.34C49.92 127.31 51.13 127.26 52.45 127.21V125.46H47.98V130.04H46.83V125.46H46.19V124.47H46.83V123.89H47.98V124.47H52.45V123.49H47.86V118.64H58.28V123.49H53.59V124.47H59.37V128.84L59.34 128.83ZM48.97 120.65H52.43V119.5H48.97V120.65ZM52.43 122.62V121.47H48.97V122.62H52.43ZM59.98 116.41V117.42H56.35V118.43H55.18V117.42H53.31V116.41H55.18V115.42H56.35V116.41H59.98ZM57.08 119.5H53.56V120.65H57.08V119.5ZM57.08 121.47H53.56V122.62H57.08V121.47Z" fill="black"/>
<path d="M49.59 174.59H46.02V173.58H49.59V172.59H50.76V173.58H52.71V174.59H50.76V175.58H49.59V174.59ZM59.34 186C59.34 186.56 59.24 186.83 58.83 187.02C58.43 187.2 57.77 187.2 56.75 187.2C56.69 186.9 56.54 186.51 56.4 186.22C57.15 186.24 57.76 186.24 57.94 186.22C58.13 186.2 58.2 186.16 58.2 185.98V182.62H53.58V184.29L55.58 184.21C55.36 183.84 55.12 183.49 54.88 183.19L55.76 182.9C56.47 183.76 57.19 184.93 57.41 185.75L56.48 186.09C56.4 185.8 56.27 185.5 56.1 185.15C53.52 185.33 50.9 185.45 49.09 185.55L48.99 184.51C49.92 184.48 51.13 184.43 52.45 184.38V182.63H47.98V187.21H46.83V182.63H46.19V181.64H46.83V181.06H47.98V181.64H52.45V180.66H47.86V175.81H58.28V180.66H53.59V181.64H59.37V186.01L59.34 186ZM48.97 177.82H52.43V176.67H48.97V177.82ZM52.43 179.79V178.64H48.97V179.79H52.43ZM59.98 173.58V174.59H56.35V175.6H55.18V174.59H53.31V173.58H55.18V172.59H56.35V173.58H59.98ZM57.08 176.67H53.56V177.82H57.08V176.67ZM57.08 178.64H53.56V179.79H57.08V178.64Z" fill="black"/>
<path d="M49.59 229.7H46.02V228.69H49.59V227.7H50.76V228.69H52.71V229.7H50.76V230.69H49.59V229.7ZM59.34 241.11C59.34 241.67 59.24 241.94 58.83 242.13C58.43 242.31 57.77 242.31 56.75 242.31C56.69 242.01 56.54 241.62 56.4 241.33C57.15 241.35 57.76 241.35 57.94 241.33C58.13 241.31 58.2 241.27 58.2 241.09V237.73H53.58V239.4L55.58 239.32C55.36 238.95 55.12 238.6 54.88 238.3L55.76 238.01C56.47 238.87 57.19 240.04 57.41 240.86L56.48 241.2C56.4 240.91 56.27 240.61 56.1 240.26C53.52 240.44 50.9 240.56 49.09 240.66L48.99 239.62C49.92 239.59 51.13 239.54 52.45 239.49V237.74H47.98V242.32H46.83V237.74H46.19V236.75H46.83V236.17H47.98V236.75H52.45V235.77H47.86V230.92H58.28V235.77H53.59V236.75H59.37V241.12L59.34 241.11ZM48.97 232.93H52.43V231.78H48.97V232.93ZM52.43 234.9V233.75H48.97V234.9H52.43ZM59.98 228.69V229.7H56.35V230.71H55.18V229.7H53.31V228.69H55.18V227.7H56.35V228.69H59.98ZM57.08 231.78H53.56V232.93H57.08V231.78ZM57.08 233.75H53.56V234.9H57.08V233.75Z" fill="black"/>
<path d="M49.59 289.07H46.02V288.06H49.59V287.07H50.76V288.06H52.71V289.07H50.76V290.06H49.59V289.07ZM59.34 300.48C59.34 301.04 59.24 301.31 58.83 301.5C58.43 301.68 57.77 301.68 56.75 301.68C56.69 301.38 56.54 300.99 56.4 300.7C57.15 300.72 57.76 300.72 57.94 300.7C58.13 300.68 58.2 300.64 58.2 300.46V297.1H53.58V298.77L55.58 298.69C55.36 298.32 55.12 297.97 54.88 297.67L55.76 297.38C56.47 298.24 57.19 299.41 57.41 300.23L56.48 300.57C56.4 300.28 56.27 299.98 56.1 299.63C53.52 299.81 50.9 299.93 49.09 300.03L48.99 298.99C49.92 298.96 51.13 298.91 52.45 298.86V297.11H47.98V301.69H46.83V297.11H46.19V296.12H46.83V295.54H47.98V296.12H52.45V295.14H47.86V290.29H58.28V295.14H53.59V296.12H59.37V300.49L59.34 300.48ZM48.97 292.3H52.43V291.15H48.97V292.3ZM52.43 294.27V293.12H48.97V294.27H52.43ZM59.98 288.06V289.07H56.35V290.08H55.18V289.07H53.31V288.06H55.18V287.07H56.35V288.06H59.98ZM57.08 291.15H53.56V292.3H57.08V291.15ZM57.08 293.12H53.56V294.27H57.08V293.12Z" fill="black"/>
<path d="M49.59 342.47H46.02V341.46H49.59V340.47H50.76V341.46H52.71V342.47H50.76V343.46H49.59V342.47ZM59.34 353.88C59.34 354.44 59.24 354.71 58.83 354.9C58.43 355.08 57.77 355.08 56.75 355.08C56.69 354.78 56.54 354.39 56.4 354.1C57.15 354.12 57.76 354.12 57.94 354.1C58.13 354.08 58.2 354.04 58.2 353.86V350.5H53.58V352.17L55.58 352.09C55.36 351.72 55.12 351.37 54.88 351.07L55.76 350.78C56.47 351.64 57.19 352.81 57.41 353.63L56.48 353.97C56.4 353.68 56.27 353.38 56.1 353.03C53.52 353.21 50.9 353.33 49.09 353.43L48.99 352.39C49.92 352.36 51.13 352.31 52.45 352.26V350.51H47.98V355.09H46.83V350.51H46.19V349.52H46.83V348.94H47.98V349.52H52.45V348.54H47.86V343.69H58.28V348.54H53.59V349.52H59.37V353.89L59.34 353.88ZM48.97 345.7H52.43V344.55H48.97V345.7ZM52.43 347.67V346.52H48.97V347.67H52.43ZM59.98 341.46V342.47H56.35V343.48H55.18V342.47H53.31V341.46H55.18V340.47H56.35V341.46H59.98ZM57.08 344.55H53.56V345.7H57.08V344.55ZM57.08 346.52H53.56V347.67H57.08V346.52Z" fill="black"/>
<path d="M6.57967 345.05C6.57967 343.83 6.52967 343.43 5.71967 343.36L4.85967 343.29C4.71967 343.22 4.69967 342.97 4.83967 342.89C6.34967 342.62 7.33967 342.15 7.80967 341.85C7.87967 341.85 7.94967 341.89 7.98967 341.94C7.94967 342.26 7.91967 343.16 7.91967 344.19V351.18C7.91967 352.57 7.95967 352.87 8.68967 352.93L9.44967 352.98C9.55967 353.09 9.53967 353.38 9.40967 353.43C8.70967 353.39 7.89967 353.38 7.26967 353.38C6.63967 353.38 5.80967 353.4 5.10967 353.43C4.97967 353.38 4.96967 353.09 5.06967 352.98L5.80967 352.93C6.56967 352.88 6.57967 352.57 6.57967 351.18V345.06V345.05Z" fill="black"/>
<path d="M15.0695 352.94C15.0695 354.36 13.9895 355.17 12.7295 355.55C12.5695 355.5 12.5095 355.21 12.6195 355.12C13.1795 354.94 14.0995 354.49 14.0995 353.55C14.0995 352.79 13.2395 352.6 13.0695 352.51C12.8395 352.38 12.7595 352.2 12.7595 351.99C12.7595 351.58 13.0695 351.18 13.6395 351.18C14.2695 351.18 15.0595 351.76 15.0595 352.94H15.0695Z" fill="black"/>
<path d="M18.4696 342.69C18.5596 342.4 18.6496 342.24 18.9396 342.2L23.2796 341.59C23.3896 341.57 23.4396 341.68 23.4396 341.75C23.3096 342.15 23.0396 342.6 22.7896 342.87L19.3896 343.36C18.9796 343.41 18.8896 343.5 18.7796 343.85L18.4596 344.93C18.3896 345.15 18.4596 345.24 18.7096 345.25L19.0896 345.29C21.3396 345.51 23.8596 346.5 23.8596 349.23C23.8596 352.35 20.2796 354.51 17.4096 354.6C17.2096 354.53 17.1896 354.17 17.3596 354.04C20.1496 353.88 22.5296 352.17 22.5296 349.7C22.5296 347.23 19.8096 346.49 17.6896 346.46C17.4196 346.46 17.3996 346.32 17.5296 345.9L18.4796 342.7L18.4696 342.69Z" fill="black"/>
<path d="M33.3399 347.74C33.3399 350.57 32.2399 353.63 29.6099 353.63C26.9799 353.63 25.8799 350.57 25.8799 347.74C25.8799 344.91 26.9799 341.85 29.6099 341.85C32.2399 341.85 33.3399 345.02 33.3399 347.74ZM27.4899 347.74C27.4899 349.43 27.6299 353.09 29.6099 353.09C31.5899 353.09 31.7299 349.43 31.7299 347.74C31.7299 346.05 31.5899 342.39 29.6099 342.39C27.6299 342.39 27.4899 346.05 27.4899 347.74Z" fill="black"/>
<path d="M42.3399 347.74C42.3399 350.57 41.2399 353.63 38.6099 353.63C35.9799 353.63 34.8799 350.57 34.8799 347.74C34.8799 344.91 35.9799 341.85 38.6099 341.85C41.2399 341.85 42.3399 345.02 42.3399 347.74ZM36.4899 347.74C36.4899 349.43 36.6299 353.09 38.6099 353.09C40.5899 353.09 40.7299 349.43 40.7299 347.74C40.7299 346.05 40.5899 342.39 38.6099 342.39C36.6299 342.39 36.4899 346.05 36.4899 347.74Z" fill="black"/>
<path d="M6.57991 232.78C6.57991 231.56 6.52991 231.16 5.70991 231.09L4.84991 231.02C4.70991 230.95 4.68991 230.7 4.82991 230.62C6.33991 230.35 7.32991 229.88 7.79991 229.58C7.86991 229.58 7.93991 229.62 7.97991 229.67C7.93991 229.99 7.90991 230.89 7.90991 231.92V238.91C7.90991 240.3 7.94991 240.6 8.67991 240.66L9.43991 240.71C9.54991 240.82 9.52991 241.11 9.39991 241.16C8.69991 241.12 7.88991 241.11 7.25991 241.11C6.62991 241.11 5.79991 241.13 5.09991 241.16C4.96991 241.11 4.95991 240.82 5.05991 240.71L5.79991 240.66C6.55991 240.61 6.56991 240.3 6.56991 238.91V232.79L6.57991 232.78Z" fill="black"/>
<path d="M15.0699 240.66C15.0699 242.08 13.9899 242.89 12.7299 243.27C12.5699 243.22 12.5199 242.93 12.6199 242.84C13.1799 242.66 14.1 242.21 14.1 241.27C14.1 240.51 13.2399 240.32 13.0699 240.23C12.8399 240.1 12.7599 239.92 12.7599 239.71C12.7599 239.3 13.07 238.9 13.64 238.9C14.27 238.9 15.06 239.48 15.06 240.66H15.0699Z" fill="black"/>
<path d="M19.2498 231.21C21.1198 229.37 23.3198 228.8 24.4198 228.65C24.5498 228.7 24.5798 228.94 24.4898 229.03C23.3398 229.43 21.7898 229.95 20.4898 231.33C18.9598 232.95 18.4398 234.93 18.4398 236.79C18.4398 238.88 19.1598 240.81 20.9398 240.81C22.2898 240.81 22.9798 239.59 22.9798 238.06C22.9798 236.53 22.2998 235.05 20.7698 235.05C20.4098 235.05 20.1198 235.14 19.9398 235.19C19.8298 235.14 19.8098 235.01 19.8898 234.9C20.4098 234.58 20.9498 234.36 21.6498 234.36C23.3798 234.36 24.5098 235.75 24.5098 237.58C24.5098 239.69 22.9598 241.34 20.7098 241.34C18.0798 241.34 16.8398 239.29 16.8398 236.84C16.8398 235.31 17.3398 233.08 19.2498 231.2V231.21Z" fill="black"/>
<path d="M33.3399 235.46C33.3399 238.29 32.2399 241.35 29.6099 241.35C26.9799 241.35 25.8799 238.29 25.8799 235.46C25.8799 232.63 26.9799 229.57 29.6099 229.57C32.2399 229.57 33.3399 232.74 33.3399 235.46ZM27.4899 235.46C27.4899 237.15 27.6299 240.81 29.6099 240.81C31.5899 240.81 31.7299 237.15 31.7299 235.46C31.7299 233.77 31.5899 230.11 29.6099 230.11C27.6299 230.11 27.4899 233.77 27.4899 235.46Z" fill="black"/>
<path d="M42.3399 235.46C42.3399 238.29 41.2399 241.35 38.6099 241.35C35.9799 241.35 34.8799 238.29 34.8799 235.46C34.8799 232.63 35.9799 229.57 38.6099 229.57C41.2399 229.57 42.3399 232.74 42.3399 235.46ZM36.4899 235.46C36.4899 237.15 36.6299 240.81 38.6099 240.81C40.5899 240.81 40.7299 237.15 40.7299 235.46C40.7299 233.77 40.5899 230.11 38.6099 230.11C36.6299 230.11 36.4899 233.77 36.4899 235.46Z" fill="black"/>
<path d="M6.57991 176.64C6.57991 175.42 6.52991 175.02 5.70991 174.95L4.84991 174.88C4.70991 174.81 4.68991 174.56 4.82991 174.48C6.33991 174.21 7.32991 173.74 7.79991 173.44C7.86991 173.44 7.93991 173.48 7.97991 173.53C7.93991 173.85 7.90991 174.75 7.90991 175.78V182.77C7.90991 184.16 7.94991 184.46 8.67991 184.52L9.43991 184.57C9.54991 184.68 9.52991 184.97 9.39991 185.02C8.69991 184.98 7.88991 184.97 7.25991 184.97C6.62991 184.97 5.79991 184.99 5.09991 185.02C4.96991 184.97 4.95991 184.68 5.05991 184.57L5.79991 184.52C6.55991 184.47 6.56991 184.16 6.56991 182.77V176.65L6.57991 176.64Z" fill="black"/>
<path d="M15.0699 184.52C15.0699 185.94 13.9899 186.75 12.7299 187.13C12.5699 187.08 12.5199 186.79 12.6199 186.7C13.1799 186.52 14.1 186.07 14.1 185.13C14.1 184.37 13.2399 184.18 13.0699 184.09C12.8399 183.96 12.7599 183.78 12.7599 183.57C12.7599 183.16 13.07 182.76 13.64 182.76C14.27 182.76 15.06 183.34 15.06 184.52H15.0699Z" fill="black"/>
<path d="M19.2498 175.07C21.1198 173.23 23.3198 172.66 24.4198 172.51C24.5498 172.56 24.5798 172.8 24.4898 172.89C23.3398 173.29 21.7898 173.81 20.4898 175.19C18.9598 176.81 18.4398 178.79 18.4398 180.65C18.4398 182.74 19.1598 184.67 20.9398 184.67C22.2898 184.67 22.9798 183.45 22.9798 181.92C22.9798 180.39 22.2998 178.91 20.7698 178.91C20.4098 178.91 20.1198 179 19.9398 179.05C19.8298 179 19.8098 178.87 19.8898 178.76C20.4098 178.44 20.9498 178.22 21.6498 178.22C23.3798 178.22 24.5098 179.61 24.5098 181.44C24.5098 183.55 22.9598 185.2 20.7098 185.2C18.0798 185.2 16.8398 183.15 16.8398 180.7C16.8398 179.17 17.3398 176.94 19.2498 175.06V175.07Z" fill="black"/>
<path d="M27.4701 174.28C27.5601 173.99 27.6501 173.83 27.9401 173.79L32.2801 173.18C32.3901 173.16 32.4401 173.27 32.4401 173.34C32.3101 173.74 32.0401 174.19 31.7901 174.46L28.3901 174.95C27.9801 175 27.8901 175.09 27.7801 175.44L27.4601 176.52C27.3901 176.74 27.4601 176.83 27.7101 176.84L28.0901 176.88C30.3401 177.1 32.8601 178.09 32.8601 180.82C32.8601 183.94 29.2801 186.1 26.4101 186.19C26.2101 186.12 26.1901 185.76 26.3601 185.63C29.1501 185.47 31.5301 183.76 31.5301 181.29C31.5301 178.82 28.8101 178.08 26.6901 178.05C26.4201 178.05 26.4001 177.91 26.5301 177.49L27.4801 174.29L27.4701 174.28Z" fill="black"/>
<path d="M42.3399 179.32C42.3399 182.15 41.2399 185.21 38.6099 185.21C35.9799 185.21 34.8799 182.15 34.8799 179.32C34.8799 176.49 35.9799 173.43 38.6099 173.43C41.2399 173.43 42.3399 176.6 42.3399 179.32ZM36.4899 179.32C36.4899 181.01 36.6299 184.67 38.6099 184.67C40.5899 184.67 40.7299 181.01 40.7299 179.32C40.7299 177.63 40.5899 173.97 38.6099 173.97C36.6299 173.97 36.4899 177.63 36.4899 179.32Z" fill="black"/>
<path d="M6.57991 288.91C6.57991 287.69 6.52991 287.29 5.70991 287.22L4.84991 287.15C4.70991 287.08 4.68991 286.83 4.82991 286.75C6.33991 286.48 7.32991 286.01 7.79991 285.71C7.86991 285.71 7.93991 285.75 7.97991 285.8C7.93991 286.12 7.90991 287.02 7.90991 288.05V295.04C7.90991 296.43 7.94991 296.73 8.67991 296.79L9.43991 296.84C9.54991 296.95 9.52991 297.24 9.39991 297.29C8.69991 297.25 7.88991 297.24 7.25991 297.24C6.62991 297.24 5.79991 297.26 5.09991 297.29C4.96991 297.24 4.95991 296.95 5.05991 296.84L5.79991 296.79C6.55991 296.74 6.56991 296.43 6.56991 295.04V288.92L6.57991 288.91Z" fill="black"/>
<path d="M15.0699 296.8C15.0699 298.22 13.9899 299.03 12.7299 299.41C12.5699 299.36 12.5199 299.07 12.6199 298.98C13.1799 298.8 14.1 298.35 14.1 297.41C14.1 296.65 13.2399 296.46 13.0699 296.37C12.8399 296.24 12.7599 296.06 12.7599 295.85C12.7599 295.44 13.07 295.04 13.64 295.04C14.27 295.04 15.06 295.62 15.06 296.8H15.0699Z" fill="black"/>
<path d="M18.4701 286.56C18.5601 286.27 18.6501 286.11 18.9401 286.07L23.2801 285.46C23.3901 285.44 23.4401 285.55 23.4401 285.62C23.3101 286.02 23.0401 286.47 22.7901 286.74L19.3901 287.23C18.9801 287.28 18.8901 287.37 18.7801 287.72L18.4601 288.8C18.3901 289.02 18.4601 289.11 18.7101 289.12L19.0901 289.16C21.3401 289.38 23.8601 290.37 23.8601 293.1C23.8601 296.22 20.2801 298.38 17.4101 298.47C17.2101 298.4 17.1901 298.04 17.3601 297.91C20.1501 297.75 22.5301 296.04 22.5301 293.57C22.5301 291.1 19.8101 290.36 17.6901 290.33C17.4201 290.33 17.4001 290.19 17.5301 289.77L18.4801 286.57L18.4701 286.56Z" fill="black"/>
<path d="M27.4701 286.56C27.5601 286.27 27.6501 286.11 27.9401 286.07L32.2801 285.46C32.3901 285.44 32.4401 285.55 32.4401 285.62C32.3101 286.02 32.0401 286.47 31.7901 286.74L28.3901 287.23C27.9801 287.28 27.8901 287.37 27.7801 287.72L27.4601 288.8C27.3901 289.02 27.4601 289.11 27.7101 289.12L28.0901 289.16C30.3401 289.38 32.8601 290.37 32.8601 293.1C32.8601 296.22 29.2801 298.38 26.4101 298.47C26.2101 298.4 26.1901 298.04 26.3601 297.91C29.1501 297.75 31.5301 296.04 31.5301 293.57C31.5301 291.1 28.8101 290.36 26.6901 290.33C26.4201 290.33 26.4001 290.19 26.5301 289.77L27.4801 286.57L27.4701 286.56Z" fill="black"/>
<path d="M42.3399 291.6C42.3399 294.43 41.2399 297.49 38.6099 297.49C35.9799 297.49 34.8799 294.43 34.8799 291.6C34.8799 288.77 35.9799 285.71 38.6099 285.71C41.2399 285.71 42.3399 288.88 42.3399 291.6ZM36.4899 291.6C36.4899 293.29 36.6299 296.95 38.6099 296.95C40.5899 296.95 40.7299 293.29 40.7299 291.6C40.7299 289.91 40.5899 286.25 38.6099 286.25C36.6299 286.25 36.4899 289.91 36.4899 291.6Z" fill="black"/>
<path d="M6.57991 120.5C6.57991 119.28 6.52991 118.88 5.70991 118.81L4.84991 118.74C4.70991 118.67 4.68991 118.42 4.82991 118.34C6.33991 118.07 7.32991 117.6 7.79991 117.3C7.86991 117.3 7.93991 117.34 7.97991 117.39C7.93991 117.71 7.90991 118.61 7.90991 119.64V126.63C7.90991 128.02 7.94991 128.32 8.67991 128.38L9.43991 128.43C9.54991 128.54 9.52991 128.83 9.39991 128.88C8.69991 128.84 7.88991 128.83 7.25991 128.83C6.62991 128.83 5.79991 128.85 5.09991 128.88C4.96991 128.83 4.95991 128.54 5.05991 128.43L5.79991 128.38C6.55991 128.33 6.56991 128.02 6.56991 126.63V120.51L6.57991 120.5Z" fill="black"/>
<path d="M15.0699 128.38C15.0699 129.8 13.9899 130.61 12.7299 130.99C12.5699 130.94 12.5199 130.65 12.6199 130.56C13.1799 130.38 14.1 129.93 14.1 128.99C14.1 128.23 13.2399 128.04 13.0699 127.95C12.8399 127.82 12.7599 127.64 12.7599 127.43C12.7599 127.02 13.07 126.62 13.64 126.62C14.27 126.62 15.06 127.2 15.06 128.38H15.0699Z" fill="black"/>
<path d="M18.9399 118.66C17.9299 118.66 17.5399 118.71 17.0099 119.58C16.8799 119.63 16.6999 119.6 16.6299 119.44C16.8099 118.95 17.0799 118.18 17.2399 117.5C17.5299 117.54 18.1599 117.55 19.1499 117.55H22.1899C23.1799 117.55 24.3899 117.55 24.5999 117.5C24.6699 117.52 24.7299 117.59 24.7299 117.66C24.2299 118.43 23.6999 119.39 23.0399 120.74L18.4499 129.98C18.1599 130.02 17.8899 129.87 17.8399 129.64L22.9399 119.34C23.2099 118.8 23.1199 118.67 22.5399 118.67H18.9399V118.66Z" fill="black"/>
<path d="M33.3399 123.18C33.3399 126.01 32.2399 129.07 29.6099 129.07C26.9799 129.07 25.8799 126.01 25.8799 123.18C25.8799 120.35 26.9799 117.29 29.6099 117.29C32.2399 117.29 33.3399 120.46 33.3399 123.18ZM27.4899 123.18C27.4899 124.87 27.6299 128.53 29.6099 128.53C31.5899 128.53 31.7299 124.87 31.7299 123.18C31.7299 121.49 31.5899 117.83 29.6099 117.83C27.6299 117.83 27.4899 121.49 27.4899 123.18Z" fill="black"/>
<path d="M42.3399 123.18C42.3399 126.01 41.2399 129.07 38.6099 129.07C35.9799 129.07 34.8799 126.01 34.8799 123.18C34.8799 120.35 35.9799 117.29 38.6099 117.29C41.2399 117.29 42.3399 120.46 42.3399 123.18ZM36.4899 123.18C36.4899 124.87 36.6299 128.53 38.6099 128.53C40.5899 128.53 40.7299 124.87 40.7299 123.18C40.7299 121.49 40.5899 117.83 38.6099 117.83C36.6299 117.83 36.4899 121.49 36.4899 123.18Z" fill="black"/>
<path d="M6.57991 64.36C6.57991 63.14 6.52991 62.74 5.70991 62.67L4.84991 62.6C4.70991 62.53 4.68991 62.28 4.82991 62.2C6.33991 61.93 7.32991 61.46 7.79991 61.16C7.86991 61.16 7.93991 61.2 7.97991 61.25C7.93991 61.57 7.90991 62.47 7.90991 63.5V70.49C7.90991 71.88 7.94991 72.18 8.67991 72.24L9.43991 72.29C9.54991 72.4 9.52991 72.69 9.39991 72.74C8.69991 72.7 7.88991 72.69 7.25991 72.69C6.62991 72.69 5.79991 72.71 5.09991 72.74C4.96991 72.69 4.95991 72.4 5.05991 72.29L5.79991 72.24C6.55991 72.19 6.56991 71.88 6.56991 70.49V64.37L6.57991 64.36Z" fill="black"/>
<path d="M15.0699 72.24C15.0699 73.66 13.9899 74.47 12.7299 74.85C12.5699 74.8 12.5199 74.51 12.6199 74.42C13.1799 74.24 14.1 73.79 14.1 72.85C14.1 72.09 13.2399 71.9 13.0699 71.81C12.8399 71.68 12.7599 71.5 12.7599 71.29C12.7599 70.88 13.07 70.48 13.64 70.48C14.27 70.48 15.06 71.06 15.06 72.24H15.0699Z" fill="black"/>
<path d="M18.9399 62.52C17.9299 62.52 17.5399 62.57 17.0099 63.44C16.8799 63.49 16.6999 63.46 16.6299 63.3C16.8099 62.81 17.0799 62.04 17.2399 61.36C17.5299 61.4 18.1599 61.41 19.1499 61.41H22.1899C23.1799 61.41 24.3899 61.41 24.5999 61.36C24.6699 61.38 24.7299 61.45 24.7299 61.52C24.2299 62.29 23.6999 63.25 23.0399 64.6L18.4499 73.84C18.1599 73.88 17.8899 73.73 17.8399 73.5L22.9399 63.2C23.2099 62.66 23.1199 62.53 22.5399 62.53H18.9399V62.52Z" fill="black"/>
<path d="M27.4701 62C27.5601 61.71 27.6501 61.55 27.9401 61.51L32.2801 60.9C32.3901 60.88 32.4401 60.99 32.4401 61.06C32.3101 61.46 32.0401 61.91 31.7901 62.18L28.3901 62.67C27.9801 62.72 27.8901 62.81 27.7801 63.16L27.4601 64.24C27.3901 64.46 27.4601 64.55 27.7101 64.56L28.0901 64.6C30.3401 64.82 32.8601 65.81 32.8601 68.54C32.8601 71.66 29.2801 73.82 26.4101 73.91C26.2101 73.84 26.1901 73.48 26.3601 73.35C29.1501 73.19 31.5301 71.48 31.5301 69.01C31.5301 66.54 28.8101 65.8 26.6901 65.77C26.4201 65.77 26.4001 65.63 26.5301 65.21L27.4801 62.01L27.4701 62Z" fill="black"/>
<path d="M42.3399 67.04C42.3399 69.87 41.2399 72.93 38.6099 72.93C35.9799 72.93 34.8799 69.87 34.8799 67.04C34.8799 64.21 35.9799 61.15 38.6099 61.15C41.2399 61.15 42.3399 64.32 42.3399 67.04ZM36.4899 67.04C36.4899 68.73 36.6299 72.39 38.6099 72.39C40.5899 72.39 40.7299 68.73 40.7299 67.04C40.7299 65.35 40.5899 61.69 38.6099 61.69C36.6299 61.69 36.4899 65.35 36.4899 67.04Z" fill="black"/>
<path d="M80.1997 70.76V348.31" stroke="#E6E6E6"/>
<path d="M279.63 70.76V348.31" stroke="#E6E6E6"/>
<path d="M479.06 70.76V348.31" stroke="#E6E6E6"/>
<path d="M484.93 374.53H478.41V378.65H477.06V374.53H468.74V373.23H471.69V368.4H477.06V365.66H472.68C471.87 367.05 470.91 368.27 469.94 369.21C469.69 368.99 469.13 368.54 468.79 368.36C470.48 366.88 472 364.56 472.84 362.15L474.19 362.47C473.94 363.1 473.65 363.75 473.36 364.36H484.09V365.66H478.4V368.4H483.68V369.66H478.4V373.23H484.92V374.53H484.93ZM477.06 373.23V369.66H473.03V373.23H477.06Z" fill="black"/>
<path d="M80.1997 347.84H479.06" stroke="#E6E6E6"/>
<path d="M80.1997 237.01H479.06" stroke="#E6E6E6"/>
<path d="M80.1997 181.59H479.06" stroke="#E6E6E6"/>
<path d="M80.1997 70.76H479.06" stroke="#E6E6E6"/>
<path d="M80.1997 292.42H479.06" stroke="#E6E6E6"/>
<path d="M80.1997 126.18H479.06" stroke="#E6E6E6"/>
<path d="M80.2002 142.37L282.54 181.59L479.06 205.75" stroke="#AE441F" stroke-width="3"/>
</svg>
