<svg width="202" height="74" viewBox="0 0 202 74" fill="none" xmlns="http://www.w3.org/2000/svg">
<g clip-path="url(#clip0_11_1018)">
<path d="M21.8545 21.0296C22.9586 21.7314 24.2955 21.973 25.5769 21.7023C26.7998 21.4063 28.0158 21.0699 29.2251 20.7268C31.3464 20.1214 33.4543 19.4688 35.5891 18.897C36.6498 18.6145 37.7172 18.3454 38.7914 18.1099C39.2779 18.0339 39.757 17.9169 40.2236 17.7601C40.7033 17.5717 41.1289 17.269 41.5748 17.0537C42.2504 16.7376 42.926 16.4483 43.6489 16.1657C45.6756 15.345 50.0129 14.3292 48.9387 11.2212C48.6009 10.2188 47.5875 9.77483 46.7025 9.31065C45.7677 8.90644 44.7366 8.77576 43.7299 8.93392C42.7522 8.94506 41.8042 9.27071 41.0276 9.86229C39.9737 11.1741 38.2239 11.571 36.9065 12.6205C36.4404 12.9703 35.8053 12.977 35.3392 13.3336C35.1095 13.5085 35.0351 13.6565 34.7582 13.7372C34.5165 13.7721 34.2727 13.7901 34.0285 13.791C33.5691 13.8516 33.1165 13.9121 32.6773 13.9861C31.3682 14.1582 30.0887 14.5068 28.8738 15.0221C28.2668 15.3195 27.684 15.6636 27.1308 16.0514C26.5971 16.4079 26.0904 16.2666 25.4824 16.307C24.8743 16.3474 24.3812 16.4079 23.8272 16.4887L22.1788 16.7645L21.3478 16.8856C21.1721 16.8856 20.6384 16.8856 20.5168 16.9865C20.3087 17.1627 20.1695 17.4062 20.1238 17.6744C20.0781 17.9426 20.1287 18.2183 20.2668 18.453C20.7465 19.4487 20.8141 20.4241 21.8545 21.0296Z" fill="black"/>
<path d="M104.465 19.5898C105.458 19.3275 106.316 19.1055 106.843 18.1502C107.005 17.8542 107.181 17.5582 107.329 17.2555C107.661 16.6651 107.821 15.9939 107.789 15.318C107.532 14.7894 107.123 14.3491 106.613 14.0533C105.652 13.5853 104.621 13.2741 103.56 13.1316C102.33 12.8693 101.047 12.5666 99.8035 12.4051C99.0675 12.3194 98.3219 12.3765 97.6078 12.5733C96.1943 12.9488 94.8156 13.4439 93.4867 14.0533C91.9599 14.726 90.1088 14.3224 88.6833 15.2507C88.0667 15.5388 87.4031 15.7143 86.7241 15.7687C85.8796 15.9638 85.0825 16.3002 84.2582 16.5693C82.8463 17.02 81.4343 17.4573 80.0021 17.8475C78.9819 18.1233 77.9212 17.8475 76.9079 18.3318C76.5143 18.6155 76.0986 18.8675 75.6648 19.0853C75.2122 19.24 74.7528 19.4486 74.3136 19.6033C72.6922 20.1684 70.9357 20.5586 69.2738 20.9958C66.3282 22.0049 63.0381 21.5676 60.0115 22.1327C59.1332 22.3547 58.2144 22.4826 57.5591 23.1822C57.3429 24.2182 58.0996 24.6151 58.7752 25.1062C59.4508 25.5973 60.0385 26.5593 60.8492 27.0706C61.5811 27.4737 62.3476 27.8114 63.1394 28.0796C64.9095 28.7927 66.5714 29.7278 68.4766 30.0978C69.5237 30.2996 71.6721 30.5486 72.6247 29.9162C73.7461 29.1695 75.0095 28.6515 76.0972 27.8442C76.6039 27.4675 77.0092 26.9764 77.5294 26.6198C78.1156 26.2985 78.6839 25.9459 79.2319 25.5636C79.9038 24.8814 80.6544 24.2807 81.4681 23.7742C82.5152 23.5993 83.4948 22.4287 84.5352 23.162C85.0352 23.3907 84.7987 23.8347 84.8257 24.2855C84.8528 24.7362 85.1838 25.2811 85.1838 25.8193C85.1683 26.3392 85.0842 26.8549 84.9338 27.3531V28.1873C85.454 38.1907 84.5825 47.6964 83.7043 57.7873C83.2989 59.0318 83.7921 60.1687 84.0758 61.3729C84.1135 61.8515 84.2181 62.3225 84.3866 62.7722C84.8793 63.6378 85.6171 64.3397 86.5079 64.7904C88.2982 65.3824 90.8047 65.6784 92.2166 64.1176C93.6556 63.4449 94.1015 62.0658 94.311 60.6262C94.515 59.3202 94.648 58.0043 94.7095 56.684C94.7082 55.6414 94.5487 54.6049 94.2366 53.6096C94.115 53.0916 94.0813 52.5602 93.9596 52.0422C93.757 51.2215 93.4935 50.4007 93.3516 49.5666C92.7384 45.5772 92.4313 41.5471 92.4328 37.5113C92.5207 34.8204 91.818 31.4567 91.4667 29.1291C90.6763 27.38 91.7775 25.6309 90.9398 23.8818C90.5682 23.014 90.7303 21.9511 90.7236 21.0362C90.7236 20.2558 91.2641 19.9666 91.8991 19.6302C92.1378 19.5037 92.364 19.355 92.5747 19.1862C92.8069 19.0324 93.0657 18.9229 93.3381 18.8633C93.5948 18.7758 93.8516 18.7018 94.115 18.6346C96.0067 18.1502 98.1348 17.8407 99.8778 18.9507C100.327 19.2987 100.845 19.5486 101.398 19.684C102.412 19.9075 103.466 19.8751 104.465 19.5898Z" fill="black"/>
<path d="M70.2607 57.3836C69.8753 57.0377 69.446 56.7437 68.9838 56.509C68.4569 56.3072 67.8758 56.2736 67.3421 56.0852C65.9871 55.5573 64.6955 54.8804 63.4913 54.067C63.2367 53.8633 62.9655 53.681 62.6806 53.5221C62.4004 53.448 62.1124 53.4074 61.8226 53.401C61.2754 53.2867 60.9511 52.7821 60.4714 52.5332C60.2485 52.4121 59.958 52.3718 59.7958 52.17C59.2978 51.7512 58.7428 51.4047 58.1474 51.1407C57.607 50.7774 57.0124 50.663 56.4585 50.3469C55.9839 50.0512 55.5323 49.7207 55.1073 49.358C54.3405 48.5829 53.4805 47.905 52.5468 47.3398C49.2635 45.8261 47.0273 42.0319 44.5884 39.5361C43.0076 38.0965 40.9943 36.0918 41.0348 33.5959C41.7104 32.0285 43.6223 31.5038 45.0276 30.757C46.7841 29.452 49.2837 28.7389 50.2904 26.6534C50.4656 26.2726 50.5455 25.8551 50.5231 25.4368C50.5007 25.0186 50.3768 24.6119 50.162 24.2518C49.5878 23.0678 48.1352 23.1149 47.0003 22.6776C46.2951 22.6162 45.5848 22.6986 44.9127 22.9198C43.7985 23.3401 42.784 23.9861 41.9334 24.8169C41.528 25.1801 41.17 25.6376 40.7443 25.9807C40.2856 26.2637 39.7836 26.4705 39.2581 26.5929C39.0007 26.7302 38.7056 26.7808 38.417 26.7371C38.1284 26.6934 37.8617 26.5579 37.6569 26.3507C37.2333 25.1843 36.6268 24.0922 35.8599 23.1149C35.6077 22.9773 35.3291 22.8948 35.0424 22.8727C34.7722 22.8054 34.6033 22.5901 34.3668 22.5229C33.9682 22.4085 33.448 22.691 33.0156 22.691C32.4854 22.6254 31.9477 22.655 31.428 22.7785C30.8228 23.0195 30.3047 23.4369 29.9417 23.976C29.5364 24.5747 29.712 25.0254 29.631 25.6914C29.5837 26.1421 29.4756 26.5794 29.3878 27.0369C29.2788 27.4776 29.2177 27.9286 29.2053 28.3823C29.2691 28.7941 29.3617 29.201 29.4823 29.6C29.5165 30.1932 29.3987 30.7854 29.1399 31.3208C28.8811 31.8563 28.4898 32.3174 28.0028 32.6609C27.5646 33.0335 27.0892 33.3603 26.5841 33.6363C25.9963 33.9592 25.3275 34.0399 24.7195 34.309C24.1599 34.5761 23.6223 34.8865 23.1116 35.2374C22.5914 35.5805 22.0779 35.9101 21.5307 36.2263C20.9835 36.5425 20.3282 36.6165 19.7877 36.899C18.8216 37.3767 17.6799 37.4641 16.7138 37.861C15.6599 38.0763 13.8223 37.6861 13.3359 38.9912C13.5169 40.1548 14.0715 41.2287 14.9167 42.0521C15.4842 43.3169 17.1529 43.7541 18.2946 44.5883C20.0039 45.1534 21.7199 44.326 23.3413 44.4538C23.9561 46.7276 23.7804 49.0821 22.1995 50.7438C21.9072 51.6379 21.4665 52.477 20.8956 53.2261C20.6127 53.5871 20.3058 53.9287 19.9769 54.2487C19.6796 54.5312 19.5647 54.9214 19.2675 55.2174C18.9702 55.5134 18.5919 56.0381 18.1528 56.3005C17.5447 56.6503 17.3286 56.2063 16.8489 55.9103C16.5502 55.7321 16.2237 55.6047 15.8828 55.5336C15.2122 55.3909 14.5169 55.4117 13.8561 55.5941C13.3886 55.817 13.0068 56.1854 12.7684 56.6436C12.4914 57.0136 12.0928 57.4038 12.0928 57.9083C12.1494 58.2091 12.2262 58.5057 12.3225 58.7963C12.4508 59.4219 12.2144 59.8054 12.6468 60.3839C12.9845 60.8279 12.89 61.0096 12.9643 61.541C13.0175 61.7864 13.1261 62.0164 13.2818 62.2138C13.5728 62.5765 13.9167 62.894 14.3019 63.1556C14.6306 63.3999 14.9923 63.5969 15.3761 63.7409C15.7496 63.8041 16.1195 63.8872 16.4841 63.9898C17.1441 64.3695 17.8975 64.5583 18.6595 64.5347C19.9431 64.4741 21.0375 63.9359 22.2401 63.5525C22.8176 63.4176 23.3776 63.2167 23.9088 62.9538C24.3944 62.6284 24.8469 62.2567 25.2599 61.8438C25.8207 61.3527 26.3611 60.8414 26.8746 60.3032C27.8033 59.3574 28.6423 58.3283 29.381 57.2289C29.7544 56.6867 30.0951 56.1228 30.4011 55.5403C30.6781 55.0223 30.8065 54.4639 31.0429 53.9392C31.1713 53.6499 31.3672 53.3943 31.4888 53.105C31.7364 52.5747 31.942 52.0259 32.1036 51.4636C32.2194 50.9592 32.4083 50.4742 32.6643 50.0239C33.0265 49.1689 33.2412 48.2592 33.2994 47.333C33.3737 46.9227 33.5291 46.5258 33.6034 46.1154C33.6777 45.705 33.6642 45.113 33.7723 44.622C33.9381 43.9024 34.2333 43.2186 34.6438 42.6038C35.6584 42.7883 36.5603 43.3605 37.157 44.1981C37.5018 44.5852 37.8695 44.9513 38.2582 45.2947C38.7176 45.6849 39.0216 46.2163 39.481 46.593C40.8322 47.656 41.7577 49.2369 42.7238 50.6294C43.9196 52.3247 45.0546 54.0603 46.2436 55.7623C47.4326 57.4643 48.4595 59.0587 50.0472 60.2629C51.2245 61.2758 52.4656 62.2128 53.7629 63.0681C54.729 63.6198 55.9788 63.4583 57.0462 63.4785C58.9974 63.4718 60.9465 63.3505 62.8833 63.1152C63.8426 63.0143 64.8087 62.9134 65.768 62.8461C66.2139 62.8461 66.6733 62.8461 67.1192 62.7654C67.9299 62.6779 68.7609 62.3079 69.5648 62.1801C70.3688 62.0523 71.3484 61.8909 71.8888 61.2316C72.1098 60.967 72.2658 60.6547 72.3444 60.3195C72.423 59.9844 72.422 59.6356 72.3415 59.3009C72.0104 58.3725 71.0038 57.9083 70.2607 57.3836Z" fill="black"/>
<path d="M124.625 50.4008C125.002 50.4045 125.378 50.3661 125.747 50.2864C126.1 50.2082 126.442 50.0885 126.767 49.9299L127.01 49.1092H126.888C126.606 49.3485 126.283 49.5374 125.936 49.6675C125.605 49.799 125.252 49.8674 124.895 49.8694C124.55 49.8911 124.204 49.8305 123.887 49.6924C123.57 49.5543 123.29 49.3428 123.071 49.0755C122.609 48.4029 122.388 47.5948 122.443 46.7815C122.394 46.0098 122.614 45.2448 123.065 44.6154C123.266 44.3577 123.528 44.1527 123.827 44.018C124.126 43.8832 124.453 43.8227 124.781 43.8417C125.209 43.8253 125.633 43.9303 126.003 44.1444C126.33 44.3261 126.573 44.6279 126.679 44.9854H126.828C126.851 44.7592 126.887 44.5346 126.936 44.3126C126.975 44.1124 127.027 43.9147 127.091 43.7206C126.723 43.5588 126.341 43.4305 125.949 43.3372C125.576 43.257 125.196 43.2164 124.814 43.2161C123.762 43.1635 122.729 43.5151 121.93 44.1983C121.569 44.5301 121.286 44.9361 121.099 45.388C120.913 45.84 120.827 46.327 120.849 46.8152C120.818 47.3083 120.891 47.8024 121.063 48.2658C121.235 48.7292 121.503 49.1517 121.849 49.5061C122.62 50.1555 123.618 50.4769 124.625 50.4008Z" fill="black"/>
<path d="M132.651 47.831C132.671 47.4848 132.622 47.138 132.506 46.811C132.39 46.484 132.21 46.1835 131.975 45.9272C131.612 45.541 131.138 45.2755 130.618 45.1667C130.098 45.0579 129.557 45.111 129.069 45.319C128.58 45.5269 128.168 45.8796 127.888 46.329C127.608 46.7784 127.473 47.3028 127.503 47.831C127.482 48.1751 127.531 48.5198 127.647 48.8446C127.763 49.1693 127.944 49.4675 128.178 49.7214C128.431 49.9557 128.729 50.1362 129.054 50.2518C129.38 50.3675 129.725 50.4159 130.07 50.3941C130.416 50.4287 130.766 50.3862 131.095 50.2696C131.423 50.1531 131.721 49.9654 131.967 49.7201C132.213 49.4748 132.402 49.1781 132.519 48.8514C132.636 48.5247 132.679 48.1761 132.644 47.831H132.651ZM130.901 49.4657C130.826 49.6176 130.708 49.7441 130.561 49.8291C130.415 49.9141 130.246 49.9539 130.077 49.9434C129.909 49.9529 129.742 49.9126 129.598 49.8276C129.454 49.7425 129.338 49.6165 129.266 49.4657C129.073 48.9433 128.995 48.386 129.036 47.831C128.999 47.2707 129.082 46.7088 129.279 46.1828C129.36 46.0369 129.478 45.9152 129.622 45.8304C129.766 45.7456 129.93 45.7008 130.097 45.7008C130.264 45.7008 130.428 45.7456 130.572 45.8304C130.716 45.9152 130.834 46.0369 130.914 46.1828C131.111 46.7068 131.193 47.2662 131.157 47.8243C131.191 48.3834 131.103 48.9432 130.901 49.4657Z" fill="black"/>
<path d="M141.157 50.2662C141.157 49.9298 141.143 49.6069 141.116 49.2975C141.116 48.9947 141.116 48.692 141.116 48.4095V47.7636C141.13 47.3002 141.103 46.8365 141.035 46.3778C140.989 46.1481 140.887 45.9333 140.738 45.7522C140.6 45.5934 140.426 45.469 140.231 45.3889C139.972 45.2933 139.695 45.2535 139.419 45.272C139.143 45.2906 138.874 45.3671 138.63 45.4966C138.349 45.6753 138.117 45.9203 137.954 46.2097C137.85 45.9342 137.661 45.6986 137.414 45.5369C137.152 45.3706 136.846 45.2862 136.536 45.2947C136.248 45.2895 135.963 45.3517 135.705 45.4764C135.441 45.628 135.211 45.8318 135.029 46.0751V45.4024H134.705H134.32H133.948H133.604C133.604 45.954 133.637 46.4317 133.651 46.8353C133.664 47.2389 133.651 47.5686 133.651 47.8376C133.651 48.1067 133.651 48.4364 133.651 48.8467C133.651 49.2571 133.651 49.7415 133.604 50.2796H134.002H134.353H134.711H135.09V50.1855C135.09 49.7953 135.049 49.5127 135.049 49.358V47.7233C135.02 47.2968 135.087 46.8692 135.245 46.472C135.316 46.368 135.411 46.2827 135.522 46.2238C135.633 46.1649 135.758 46.1341 135.884 46.1341C136.01 46.1341 136.134 46.1649 136.245 46.2238C136.356 46.2827 136.452 46.368 136.522 46.472C136.683 47.0172 136.743 47.5872 136.698 48.1538C136.698 48.4767 136.698 48.8266 136.698 49.1696C136.698 49.5127 136.664 49.8962 136.637 50.2729H137.042H137.4H137.765H138.164V50.1787C138.164 49.7818 138.164 49.506 138.164 49.3513V47.7233C138.133 47.2996 138.198 46.8744 138.353 46.4787C138.417 46.3596 138.516 46.2624 138.636 46.2C138.757 46.1376 138.894 46.1128 139.028 46.1289C139.163 46.1128 139.3 46.1376 139.42 46.2C139.541 46.2624 139.64 46.3596 139.704 46.4787C139.862 46.96 139.924 47.4673 139.886 47.9722C139.886 48.3018 139.886 48.6449 139.886 49.0351C139.886 49.4253 139.853 49.8222 139.819 50.2662H140.211H140.569H140.927H141.157Z" fill="black"/>
<path d="M145.466 50.2661H145.865H146.223H146.588H146.993C146.993 50.2661 146.993 50.219 146.993 50.1719C146.993 49.775 146.993 49.4992 146.993 49.3445V47.7232C146.963 47.2995 147.027 46.8744 147.182 46.4787C147.247 46.3595 147.346 46.2623 147.466 46.1999C147.587 46.1375 147.723 46.1128 147.858 46.1288C147.993 46.1128 148.13 46.1375 148.25 46.1999C148.371 46.2623 148.469 46.3595 148.534 46.4787C148.691 46.9599 148.753 47.4672 148.716 47.9721C148.716 48.3018 148.716 48.6448 148.716 49.035C148.716 49.4252 148.682 49.8221 148.648 50.2661H149.04H149.398H149.763H150.175C150.175 49.9298 150.162 49.6068 150.135 49.2974C150.135 48.9947 150.135 48.6919 150.135 48.4094V47.7636C150.1 47.3095 150.025 46.8594 149.912 46.4181C149.866 46.1884 149.764 45.9736 149.615 45.7925C149.476 45.6337 149.303 45.5092 149.108 45.4292C148.848 45.3336 148.572 45.2937 148.296 45.3123C148.02 45.3308 147.751 45.4074 147.507 45.5368C147.226 45.7156 146.994 45.9606 146.831 46.2499C146.727 45.9744 146.538 45.7389 146.291 45.5772C146.029 45.4101 145.723 45.3257 145.412 45.335C145.125 45.3298 144.84 45.392 144.581 45.5167C144.316 45.6661 144.086 45.8702 143.906 46.1154V45.4427H143.575H143.19H142.818H142.474C142.474 45.9943 142.514 46.4719 142.521 46.8756C142.528 47.2792 142.521 47.6088 142.521 47.8779C142.521 48.147 142.521 48.4767 142.521 48.887C142.521 49.2974 142.521 49.7818 142.474 50.3199H142.879H143.224H143.588H143.96V50.2258C143.96 49.8356 143.926 49.553 143.926 49.3983V47.7232C143.895 47.2973 143.96 46.8698 144.115 46.4719C144.187 46.3679 144.282 46.2827 144.394 46.2239C144.506 46.165 144.631 46.1343 144.757 46.1343C144.884 46.1343 145.008 46.165 145.12 46.2239C145.232 46.2827 145.328 46.3679 145.399 46.4719C145.556 47.0179 145.616 47.5872 145.575 48.1538C145.575 48.4767 145.575 48.8265 145.575 49.1696C145.575 49.5127 145.487 49.8894 145.466 50.2661Z" fill="black"/>
<path d="M156.141 47.831C156.163 47.4847 156.115 47.1375 155.999 46.8103C155.882 46.4831 155.701 46.1827 155.465 45.9272C154.931 45.4904 154.261 45.2517 153.57 45.2517C152.879 45.2517 152.209 45.4904 151.675 45.9272C151.235 46.4612 150.995 47.1304 150.995 47.8209C150.995 48.5114 151.235 49.1806 151.675 49.7147C152.209 50.1497 152.877 50.3874 153.567 50.3874C154.256 50.3874 154.925 50.1497 155.458 49.7147C155.693 49.4623 155.875 49.1655 155.992 48.8419C156.109 48.5183 156.16 48.1745 156.141 47.831ZM154.384 49.4657C154.302 49.6099 154.184 49.7298 154.04 49.8132C153.896 49.8967 153.733 49.9406 153.567 49.9406C153.4 49.9406 153.237 49.8967 153.093 49.8132C152.95 49.7298 152.831 49.6099 152.749 49.4657C152.552 48.9443 152.469 48.387 152.506 47.831C152.469 47.2707 152.552 46.7089 152.749 46.1828C152.83 46.0369 152.948 45.9152 153.092 45.8304C153.235 45.7456 153.4 45.7009 153.567 45.7009C153.734 45.7009 153.898 45.7456 154.042 45.8304C154.186 45.9152 154.304 46.0369 154.384 46.1828C154.584 46.7061 154.669 47.2657 154.634 47.8243C154.67 48.383 154.585 48.9429 154.384 49.4657Z" fill="black"/>
<path d="M159.985 46.4586C160.145 46.9186 160.207 47.4065 160.168 47.8916C160.168 48.3826 160.168 48.8266 160.168 49.237C160.168 49.6474 160.168 49.9837 160.114 50.273H160.512H160.87H161.228H161.634C161.634 50.0106 161.593 49.7348 161.58 49.4523C161.566 49.1697 161.58 48.867 161.58 48.5508V47.7974C161.58 47.5081 161.58 47.3332 161.58 47.2659C161.591 46.9324 161.566 46.5986 161.505 46.2703C161.466 46.0891 161.383 45.9204 161.262 45.7792C161.122 45.6137 160.943 45.4845 160.742 45.4025C160.489 45.3104 160.22 45.2696 159.951 45.2823C159.682 45.295 159.418 45.361 159.175 45.4765C158.908 45.6294 158.677 45.8383 158.499 46.0886V45.4159H158.182H157.81H157.438H157.107C157.134 45.8196 157.155 46.2232 157.168 46.6268C157.168 47.0372 157.168 47.4476 157.168 47.8646C157.168 48.2817 157.168 48.6181 157.168 49.015C157.168 49.4119 157.134 49.8425 157.107 50.2932H157.499H157.851H158.215H158.587C158.587 49.7617 158.587 49.2908 158.546 48.8872C158.506 48.4836 158.546 48.127 158.546 47.8445C158.517 47.4021 158.586 46.9586 158.749 46.5461C158.808 46.4207 158.905 46.3165 159.026 46.2479C159.147 46.1792 159.286 46.1495 159.425 46.1626C159.535 46.1625 159.644 46.1894 159.742 46.241C159.84 46.2926 159.923 46.3673 159.985 46.4586Z" fill="black"/>
<path d="M171.753 43.3372H171.503H171.28C171.069 44.1982 170.843 45.0459 170.605 45.8801C170.355 46.7142 170.085 47.5417 169.801 48.3624C169.49 47.4879 169.2 46.6335 168.923 45.7993C168.646 44.9652 168.396 44.1444 168.152 43.3372H167.902H167.625H167.362H167.119C166.849 44.131 166.578 44.9517 166.288 45.7859C165.997 46.6201 165.7 47.5013 165.376 48.4297C165.112 47.5888 164.869 46.7412 164.639 45.8935C164.41 45.0459 164.193 44.1915 163.964 43.3372H163.558H163.099H162.64H162.228C162.646 44.5436 163.034 45.7276 163.39 46.8892C163.748 48.0462 164.065 49.1899 164.362 50.3066H164.639H164.883H165.133H165.403C165.687 49.4388 165.97 48.5979 166.261 47.7704C166.551 46.943 166.855 46.1492 167.159 45.3688C167.477 46.2299 167.774 47.0775 168.051 47.8982C168.328 48.719 168.578 49.5195 168.814 50.3066H169.098H169.341H169.605H169.875C170.287 49.0082 170.693 47.7839 171.078 46.6201C171.463 45.4563 171.834 44.3664 172.199 43.3372H171.983H171.753Z" fill="black"/>
<path d="M174.902 45.2544C174.575 45.2383 174.247 45.2897 173.94 45.4055C173.633 45.5212 173.354 45.6988 173.119 45.9271C172.89 46.1671 172.713 46.4504 172.597 46.7601C172.481 47.0699 172.428 47.3997 172.443 47.73C172.401 48.4416 172.644 49.1408 173.119 49.6742C173.367 49.9096 173.661 50.091 173.983 50.2069C174.306 50.3227 174.648 50.3704 174.99 50.3469C175.307 50.35 175.623 50.3092 175.929 50.2259C176.199 50.1541 176.455 50.0382 176.686 49.8828L176.909 49.3042L176.814 49.2302C176.622 49.3824 176.408 49.5049 176.179 49.5935C175.963 49.6735 175.734 49.7145 175.504 49.7146C175.287 49.7217 175.072 49.6786 174.875 49.5887C174.678 49.4988 174.505 49.3646 174.369 49.1966C174.068 48.7936 173.917 48.2988 173.943 47.7973H177.084C177.084 47.7569 177.084 47.7166 177.084 47.6695V47.4744C177.107 47.1721 177.069 46.8685 176.972 46.581C176.876 46.2935 176.724 46.0278 176.524 45.7993C176.305 45.6027 176.049 45.4529 175.77 45.3592C175.491 45.2654 175.196 45.2298 174.902 45.2544ZM175.652 47.1986C175.652 47.2524 175.652 47.2995 175.652 47.3399H173.916V47.2457C173.892 46.8466 173.978 46.4487 174.166 46.0953C174.232 45.9737 174.329 45.872 174.448 45.801C174.567 45.7299 174.703 45.6922 174.842 45.6917C174.965 45.6908 175.086 45.7235 175.192 45.7864C175.298 45.8492 175.385 45.9398 175.443 46.0482C175.597 46.3735 175.666 46.732 175.645 47.0909C175.65 47.1266 175.652 47.1626 175.652 47.1986Z" fill="black"/>
<path d="M181.914 49.701C181.791 49.4531 181.742 49.1753 181.772 48.9005V48.7054L181.806 46.9294V46.8755C181.819 46.6499 181.782 46.4243 181.696 46.2149C181.611 46.0055 181.48 45.8176 181.313 45.6646C180.907 45.3582 180.403 45.2078 179.894 45.2408C179.576 45.242 179.261 45.3084 178.969 45.4359C178.641 45.5841 178.338 45.7815 178.07 46.0212C178.107 46.109 178.138 46.1989 178.165 46.2903C178.165 46.3844 178.246 46.5123 178.293 46.6737C178.426 46.4443 178.603 46.2432 178.813 46.0817C179 45.9531 179.222 45.885 179.448 45.8866C179.574 45.8854 179.698 45.9091 179.814 45.9565C179.93 46.0039 180.036 46.0739 180.124 46.1625C180.215 46.2612 180.284 46.3769 180.33 46.5028C180.375 46.6286 180.395 46.7622 180.388 46.8957V47.0034C180.388 47.0034 180.388 47.0505 180.388 47.0706C180.043 47.2682 179.672 47.4176 179.286 47.5146L178.766 47.6761C178.454 47.7629 178.173 47.9354 177.955 48.1739C177.774 48.4005 177.68 48.6847 177.692 48.9745C177.681 49.1631 177.708 49.3521 177.772 49.5301C177.836 49.7081 177.935 49.8715 178.063 50.0104C178.197 50.1406 178.355 50.2418 178.53 50.3078C178.704 50.3738 178.891 50.4031 179.077 50.3939C179.358 50.3984 179.635 50.3288 179.881 50.1921C180.123 50.06 180.323 49.8646 180.462 49.627C180.501 49.8399 180.613 50.0327 180.779 50.1719C180.951 50.3033 181.164 50.37 181.381 50.3603C181.562 50.359 181.744 50.3387 181.921 50.2997C182.107 50.2632 182.288 50.2068 182.462 50.1315V49.8826H182.428C182.334 49.8922 182.239 49.8809 182.15 49.8494C182.062 49.818 181.981 49.7673 181.914 49.701ZM180.435 48.7659C180.452 49.0147 180.388 49.2624 180.252 49.4723C180.192 49.5517 180.113 49.6154 180.022 49.6576C179.932 49.6998 179.832 49.7193 179.732 49.7145C179.641 49.7198 179.549 49.703 179.466 49.6655C179.382 49.628 179.309 49.571 179.253 49.4992C179.134 49.2954 179.08 49.0611 179.097 48.8265C179.088 48.6756 179.111 48.5244 179.164 48.3829C179.218 48.2414 179.301 48.1129 179.408 48.0057C179.705 47.7721 180.06 47.6212 180.435 47.5685V48.7659Z" fill="black"/>
<path d="M184.705 42.6106C184.549 42.6106 184.407 42.651 184.286 42.6644C184.169 42.6709 184.051 42.6709 183.934 42.6644C183.822 42.671 183.709 42.671 183.597 42.6644C183.456 42.6539 183.316 42.6359 183.178 42.6106C183.178 43.169 183.218 43.7542 183.232 44.3866C183.245 45.019 183.232 45.732 183.232 46.4586C183.232 47.1851 183.232 47.8444 183.232 48.4768C183.232 49.1091 183.198 49.7011 183.178 50.273C183.301 50.2502 183.425 50.2345 183.549 50.2259C183.812 50.199 184.077 50.199 184.34 50.2259C184.462 50.2341 184.584 50.2498 184.705 50.273C184.705 49.7213 184.657 49.1293 184.644 48.5037C184.63 47.878 184.644 47.1582 184.644 46.425C184.644 45.6917 184.644 45.0795 184.644 44.4068C184.644 43.7341 184.678 43.1891 184.705 42.6106Z" fill="black"/>
<path d="M193.758 49.5128C193.758 49.2437 193.758 48.9208 193.758 48.5441C193.758 48.3288 193.758 48.0799 193.758 47.7973C193.758 47.5148 193.758 47.3331 193.758 47.2659C193.767 46.9368 193.742 46.6077 193.684 46.2837C193.637 46.0985 193.549 45.9261 193.427 45.7791C193.286 45.6137 193.108 45.4845 192.907 45.4024C192.691 45.32 192.462 45.2789 192.231 45.2813C191.917 45.2745 191.605 45.3462 191.326 45.4899C191.051 45.6439 190.819 45.8635 190.65 46.129V44.5413C190.65 44.1713 190.65 43.8282 190.65 43.5121C190.65 43.1959 190.697 42.8931 190.731 42.6106L190.346 42.6711C190.225 42.6778 190.103 42.6778 189.981 42.6711H189.63L189.231 42.6106C189.265 43.0411 189.285 43.5524 189.299 44.1444C189.313 44.7364 189.299 45.5706 189.299 46.6335C189.299 47.6964 189.299 48.4028 189.299 48.9342C189.299 49.4657 189.265 49.9097 189.231 50.2797H189.623H189.981H190.339H190.724C190.724 49.7953 190.724 49.3446 190.677 48.9342C190.63 48.5239 190.677 48.1471 190.677 47.831C190.647 47.3886 190.717 46.9451 190.88 46.5326C190.939 46.4072 191.036 46.303 191.157 46.2344C191.278 46.1657 191.417 46.136 191.555 46.1491C191.681 46.1386 191.807 46.1633 191.919 46.2204C192.031 46.2774 192.125 46.3646 192.191 46.4721C192.347 46.9327 192.407 47.4204 192.366 47.905C192.366 48.396 192.366 48.84 192.366 49.2504C192.366 49.6608 192.366 49.9971 192.312 50.2864H192.711H193.069H193.427H193.825C193.785 50.0375 193.771 49.7819 193.758 49.5128Z" fill="black"/>
<path d="M129.145 59.5632L128.557 54.6792H128.334H127.841H127.618C127.24 55.5201 126.861 56.3341 126.469 57.1279C126.078 57.9217 125.686 58.6954 125.28 59.4556C124.861 58.6685 124.449 57.8814 124.058 57.0943C123.666 56.3072 123.274 55.4932 122.909 54.6792H122.693H122.22H122.017L121.342 59.5027C121.342 59.6641 121.281 59.9265 121.22 60.3032C121.159 60.6799 121.085 61.1307 121.004 61.6487L121.22 61.6083H121.619L121.842 61.6487C121.865 60.8723 121.928 60.0977 122.031 59.3277V59.247L122.281 57.1279C122.646 57.8007 123.017 58.5205 123.402 59.2739C123.787 60.0274 124.166 60.8212 124.564 61.6487H124.639H124.902H124.983C125.382 60.8077 125.774 59.9937 126.159 59.2201C126.544 58.4465 126.922 57.693 127.307 56.9597L127.638 60.2157C127.638 60.3907 127.685 60.8279 127.712 61.5612C127.712 61.6016 127.712 61.6419 127.712 61.6621L128.152 61.6217H128.557C128.685 61.6217 128.827 61.6217 128.962 61.6217L129.428 61.6554C129.374 61.4132 129.32 61.1441 129.273 60.8347C129.226 60.5252 129.206 60.1014 129.145 59.5632Z" fill="black"/>
<path d="M134.441 61.0904C134.318 60.8423 134.269 60.5647 134.299 60.2899V60.0948L134.333 58.3188V58.2649C134.346 58.0393 134.308 57.8137 134.223 57.6043C134.137 57.3949 134.007 57.207 133.839 57.054C133.433 56.7476 132.929 56.5972 132.421 56.6302C132.102 56.6314 131.787 56.6978 131.495 56.8253C131.167 56.9735 130.864 57.1709 130.597 57.4106C130.63 57.4913 130.664 57.5788 130.698 57.6797C130.732 57.7806 130.772 57.9017 130.82 58.0631C130.95 57.8301 131.13 57.6282 131.347 57.4711C131.529 57.3406 131.75 57.2721 131.975 57.276C132.1 57.2735 132.224 57.296 132.34 57.3422C132.456 57.3885 132.562 57.4575 132.65 57.5451C132.832 57.7478 132.927 58.0136 132.914 58.2851V58.3928C132.914 58.3928 132.914 58.4399 132.914 58.46C132.572 58.6566 132.203 58.8039 131.819 58.8973L131.299 59.0655C130.985 59.1521 130.702 59.3246 130.482 59.5633C130.301 59.7875 130.207 60.0695 130.218 60.3571C130.207 60.5469 130.234 60.7369 130.298 60.916C130.362 61.0951 130.461 61.2597 130.59 61.3999C130.723 61.53 130.882 61.6312 131.056 61.6972C131.231 61.7632 131.417 61.7925 131.603 61.7833C131.886 61.7868 132.166 61.7173 132.414 61.5815C132.653 61.4447 132.851 61.2474 132.988 61.0097C133.019 61.2268 133.132 61.424 133.304 61.5605C133.476 61.697 133.694 61.7623 133.914 61.7429C134.093 61.7441 134.272 61.726 134.447 61.6891C134.632 61.6495 134.813 61.5932 134.988 61.5209V61.2653H134.954C134.861 61.2757 134.767 61.2655 134.678 61.2352C134.589 61.205 134.508 61.1555 134.441 61.0904ZM132.961 60.1553C132.969 60.3926 132.906 60.6269 132.779 60.828C132.718 60.9075 132.639 60.9711 132.549 61.0133C132.458 61.0555 132.359 61.0751 132.259 61.0702C132.167 61.0761 132.076 61.0588 131.993 61.02C131.911 60.9811 131.839 60.922 131.786 60.8482C131.661 60.6469 131.604 60.4112 131.624 60.1755C131.615 60.0257 131.638 59.8756 131.691 59.7353C131.745 59.595 131.828 59.4676 131.934 59.3615C132.232 59.1279 132.586 58.977 132.961 58.9242V60.1553Z" fill="black"/>
<path d="M139.69 61.0904C139.304 60.9563 138.897 60.8903 138.487 60.8953H138.305C137.332 60.8617 136.852 60.6868 136.852 60.3773C136.847 60.2535 136.891 60.1325 136.974 60.0406C137.058 59.9487 137.174 59.8932 137.298 59.8862H137.474C138.074 59.9216 138.671 59.7662 139.177 59.4422C139.373 59.3021 139.531 59.1157 139.637 58.8997C139.743 58.6836 139.794 58.4447 139.785 58.2044C139.789 57.9926 139.742 57.7829 139.649 57.5922C139.558 57.4156 139.42 57.2668 139.251 57.1617H139.406H140.264V56.6639H139.778H139.345C139.008 56.6639 138.67 56.6639 138.244 56.6235L137.569 56.5831C137.018 56.5522 136.474 56.7114 136.028 57.0339C135.844 57.1719 135.695 57.3522 135.595 57.5594C135.495 57.7667 135.447 57.9948 135.454 58.2246C135.436 58.5738 135.554 58.9164 135.785 59.1799C136.054 59.4473 136.402 59.6218 136.778 59.6777V59.8728C136.49 59.9843 136.23 60.1564 136.015 60.3773C135.929 60.4667 135.861 60.5721 135.816 60.6876C135.77 60.803 135.749 60.9262 135.751 61.0501C135.746 61.2328 135.806 61.4116 135.92 61.5546C136.047 61.7032 136.217 61.809 136.407 61.8573V61.9381C136.107 62.0277 135.837 62.1948 135.623 62.4224C135.446 62.633 135.355 62.9017 135.366 63.1759C135.365 63.3731 135.418 63.5669 135.519 63.7364C135.62 63.906 135.766 64.0448 135.94 64.1379C136.432 64.3983 136.986 64.5193 137.542 64.4877C138.266 64.5223 138.98 64.3112 139.568 63.889C139.814 63.7138 140.013 63.4823 140.149 63.2142C140.286 62.946 140.355 62.649 140.352 62.3484C140.359 62.098 140.301 61.8501 140.183 61.6286C140.08 61.402 139.907 61.2137 139.69 61.0904ZM137.048 57.3635C137.11 57.2656 137.196 57.1851 137.297 57.1297C137.399 57.0743 137.513 57.0459 137.629 57.0473C137.738 57.0441 137.845 57.0669 137.943 57.1137C138.04 57.1606 138.125 57.2301 138.19 57.3164C138.329 57.5692 138.392 57.8564 138.373 58.1439C138.397 58.4945 138.334 58.8456 138.19 59.1664C138.123 59.2581 138.035 59.3328 137.934 59.3842C137.832 59.4357 137.72 59.4625 137.606 59.4625C137.492 59.4625 137.379 59.4357 137.278 59.3842C137.176 59.3328 137.088 59.2581 137.021 59.1664C136.88 58.8805 136.817 58.5626 136.839 58.2448C136.821 57.937 136.894 57.6308 137.048 57.3635ZM138.704 63.7275C138.38 63.9389 137.996 64.0403 137.609 64.0168C137.265 64.0354 136.927 63.9223 136.663 63.7006C136.545 63.5954 136.452 63.4655 136.39 63.3201C136.328 63.1747 136.299 63.0175 136.305 62.8597C136.302 62.6707 136.351 62.4844 136.447 62.3215C136.539 62.1629 136.675 62.0343 136.839 61.9515L138.021 62.0121C138.314 62.0067 138.601 62.0964 138.839 62.2677C138.928 62.3542 138.998 62.4593 139.042 62.5756C139.087 62.6918 139.105 62.8164 139.095 62.9404C139.102 63.0939 139.07 63.2466 139.001 63.3843C138.933 63.5219 138.83 63.64 138.704 63.7275Z" fill="black"/>
<path d="M144.858 61.0904C144.736 60.8423 144.687 60.5647 144.717 60.2899V60.0948V58.3188V58.2649C144.731 58.0392 144.694 57.8131 144.609 57.6035C144.523 57.3939 144.392 57.2061 144.223 57.054C143.817 56.7476 143.313 56.5972 142.805 56.6302C142.486 56.6314 142.171 56.6978 141.879 56.8253C141.551 56.9735 141.248 57.1709 140.981 57.4106C141.014 57.4913 141.048 57.5788 141.082 57.6797C141.116 57.7806 141.156 57.9017 141.203 58.0631C141.334 57.8301 141.514 57.6282 141.73 57.4711C141.913 57.3406 142.134 57.2721 142.359 57.276C142.484 57.2735 142.608 57.296 142.724 57.3422C142.84 57.3885 142.946 57.4575 143.034 57.5451C143.218 57.7471 143.315 58.0128 143.305 58.2851C143.305 58.3322 143.305 58.3659 143.305 58.3928C143.308 58.415 143.308 58.4378 143.305 58.46C142.962 58.6566 142.594 58.8039 142.21 58.8973L141.69 59.0655C141.376 59.1521 141.093 59.3246 140.872 59.5633C140.691 59.7875 140.598 60.0695 140.609 60.3571C140.598 60.5469 140.625 60.7369 140.689 60.916C140.752 61.0951 140.852 61.2597 140.981 61.3999C141.114 61.53 141.272 61.6312 141.447 61.6972C141.621 61.7632 141.808 61.7925 141.994 61.7833C142.277 61.7868 142.556 61.7173 142.805 61.5815C143.043 61.4447 143.241 61.2474 143.379 61.0097C143.409 61.2268 143.522 61.424 143.694 61.5605C143.867 61.697 144.085 61.7623 144.304 61.7429C144.484 61.7441 144.663 61.726 144.838 61.6891C145.023 61.6504 145.204 61.5941 145.379 61.5209V61.2653C145.284 61.2768 145.189 61.267 145.099 61.2367C145.008 61.2065 144.926 61.1565 144.858 61.0904ZM143.386 60.1553C143.39 60.3923 143.327 60.6257 143.203 60.828C143.141 60.9076 143.061 60.9712 142.969 61.0133C142.878 61.0555 142.777 61.075 142.676 61.0702C142.585 61.0761 142.494 61.0588 142.411 61.02C142.328 60.9811 142.257 60.922 142.203 60.8482C142.079 60.6469 142.022 60.4112 142.041 60.1755C142.034 60.0252 142.058 59.875 142.113 59.7348C142.167 59.5945 142.251 59.4673 142.359 59.3615C142.655 59.1253 143.01 58.9741 143.386 58.9242V60.1553Z" fill="black"/>
<path d="M148.061 56.8117H146.987H146.021C146.025 56.8475 146.025 56.8836 146.021 56.9193C146.025 56.9776 146.025 57.036 146.021 57.0943C146.025 57.1502 146.025 57.2065 146.021 57.2624C146.024 57.2982 146.024 57.3343 146.021 57.3701H146.136C146.735 57.3432 147.174 57.3297 147.453 57.3297H147.798H148.297L147.338 58.7895C146.527 60.0273 145.933 60.9288 145.548 61.4804V61.6419L146.588 61.6015H149.027L150 61.6419C150 61.5544 150 61.4872 150 61.4401C149.997 61.3975 149.997 61.3548 150 61.3123C149.997 61.2719 149.997 61.2315 150 61.1912C150 61.1441 150 61.0903 150 61.023C149.716 61.023 149.426 61.0633 149.128 61.0701C148.831 61.0768 148.527 61.0701 148.216 61.0701H147.872H147.318L149.047 58.3792L150.047 56.8521V56.7781H149.122L148.061 56.8117Z" fill="black"/>
<path d="M152.439 56.7781H152.074H151.284H150.919C150.919 57.2153 150.959 57.6392 150.973 58.0361C150.987 58.433 150.973 58.8299 150.973 59.2201C150.973 59.6103 150.973 59.8928 150.973 60.2964C150.973 60.7001 150.973 61.1373 150.919 61.6419L151.311 61.6015H152.054L152.439 61.6419C152.439 61.1239 152.398 60.6732 152.385 60.2964C152.371 59.9197 152.385 59.5497 152.385 59.2133C152.385 58.877 152.385 58.433 152.385 58.0293C152.385 57.6257 152.412 57.2153 152.439 56.7781Z" fill="black"/>
<path d="M151.689 54.1613C151.53 54.1549 151.372 54.1974 151.238 54.2832C151.104 54.369 150.999 54.4939 150.939 54.6408C150.878 54.7877 150.865 54.9497 150.9 55.1046C150.935 55.2595 151.017 55.3999 151.135 55.5067C151.206 55.58 151.291 55.6377 151.385 55.6759C151.479 55.7142 151.581 55.7322 151.682 55.7287C151.79 55.7388 151.899 55.7263 152.001 55.6922C152.104 55.658 152.198 55.6029 152.278 55.5304C152.358 55.4579 152.422 55.3696 152.465 55.2711C152.509 55.1726 152.532 55.0661 152.532 54.9585C152.532 54.8508 152.509 54.7443 152.465 54.6458C152.422 54.5473 152.358 54.459 152.278 54.3865C152.198 54.314 152.104 54.2589 152.001 54.2248C151.899 54.1906 151.79 54.1782 151.682 54.1882L151.689 54.1613Z" fill="black"/>
<path d="M158.215 59.9332C158.215 59.7179 158.215 59.4623 158.215 59.1798C158.215 58.8972 158.215 58.7223 158.215 58.655C158.225 58.3192 158.201 57.9833 158.141 57.6527C158.1 57.472 158.017 57.3037 157.898 57.1616C157.753 56.9994 157.573 56.8728 157.371 56.7916C157.156 56.7069 156.926 56.6635 156.695 56.6638C156.39 56.6596 156.089 56.7288 155.817 56.8656C155.55 57.0185 155.319 57.2274 155.141 57.4778V56.805H154.824H154.033H153.702C153.729 57.1997 153.749 57.6033 153.763 58.0159C153.776 58.4285 153.776 58.8389 153.763 59.247C153.763 59.617 153.763 60.0005 153.763 60.4041C153.763 60.8078 153.763 61.2316 153.702 61.6823L154.094 61.6419H154.803L155.182 61.6823C155.182 61.1486 155.168 60.6777 155.141 60.2696C155.141 59.8659 155.141 59.5161 155.141 59.2268C155.112 58.7867 155.181 58.3455 155.344 57.9352C155.403 57.8098 155.5 57.7056 155.621 57.637C155.742 57.5683 155.881 57.5386 156.019 57.5518C156.151 57.5332 156.286 57.5539 156.406 57.6114C156.527 57.6688 156.627 57.7604 156.695 57.8747C156.853 58.335 156.912 58.823 156.871 59.3076C156.871 59.7987 156.871 60.2427 156.871 60.653C156.871 61.0634 156.871 61.3997 156.817 61.689L157.215 61.6487H157.931L158.337 61.689C158.337 61.4267 158.296 61.1508 158.283 60.8683C158.269 60.5858 158.215 60.2494 158.215 59.9332Z" fill="black"/>
<path d="M161.694 56.6437C161.365 56.6275 161.037 56.6789 160.729 56.7946C160.421 56.9103 160.14 57.088 159.904 57.3165C159.675 57.5562 159.497 57.8395 159.381 58.1493C159.265 58.4591 159.213 58.789 159.228 59.1194C159.186 59.831 159.429 60.5302 159.904 61.0636C160.154 61.2985 160.449 61.4795 160.772 61.5953C161.096 61.711 161.439 61.759 161.782 61.7363C162.099 61.7388 162.415 61.6981 162.721 61.6152C162.991 61.5435 163.246 61.4275 163.478 61.2721L163.701 60.6936L163.599 60.6196C163.411 60.773 163.199 60.8956 162.971 60.9828C162.755 61.0629 162.526 61.1039 162.296 61.1039C162.077 61.1118 161.86 61.0684 161.662 60.9773C161.463 60.8861 161.289 60.7498 161.154 60.5792C160.856 60.1751 160.708 59.6806 160.735 59.1799H163.87C163.873 59.1396 163.873 59.0991 163.87 59.0588C163.874 58.9916 163.874 58.9242 163.87 58.857C163.911 58.2459 163.706 57.6435 163.302 57.1819C163.086 56.9869 162.831 56.8384 162.555 56.7458C162.278 56.6532 161.985 56.6185 161.694 56.6437ZM162.471 58.5879C162.468 58.6327 162.468 58.6777 162.471 58.7225H160.735V58.635C160.712 58.2369 160.796 57.8399 160.978 57.4846C161.045 57.364 161.143 57.263 161.261 57.1921C161.38 57.1213 161.515 57.0829 161.654 57.081C161.775 57.0807 161.895 57.113 161.999 57.1746C162.104 57.2361 162.19 57.3247 162.248 57.4308C162.403 57.7583 162.472 58.1191 162.451 58.4803L162.471 58.5879Z" fill="black"/>
<path d="M123.942 21.5274C124.433 22.2956 124.884 23.0882 125.294 23.9021L126.645 22.6037C125.961 21.8486 125.185 21.1818 124.334 20.6192C124.62 19.9681 124.846 19.2926 125.01 18.601L123.057 18.1436C122.65 20.507 121.836 22.7828 120.652 24.8708L121.328 25.4225C122.378 24.2519 123.258 22.9408 123.942 21.5274Z" fill="black"/>
<path d="M139.083 17.9685C138.473 16.5067 137.644 15.1457 136.624 13.9321L135.854 14.3156C136.37 15.7543 136.788 17.2266 137.103 18.7219L139.083 17.9685Z" fill="black"/>
<path d="M131.448 16.8653H127.165L128.131 15.5198C126.899 14.719 125.55 14.1131 124.132 13.7236L123.801 14.4636C124.733 15.2034 125.615 16.0034 126.442 16.8585H121.078V17.9349H131.448V16.8653Z" fill="black"/>
<path d="M125.435 30.1651V36.4416H127.503V29.7143C128.36 30.6831 129.163 31.6983 129.908 32.7551L131.333 31.1742C130.163 30.1584 128.877 29.2823 127.503 28.564V27.676H131.495V26.5929H127.503V24.3392H127.097C127.695 23.5273 128.218 22.6626 128.658 21.756C129.174 22.4735 129.626 23.2343 130.009 24.0298L131.137 23.0005C130.912 23.6056 130.655 24.1984 130.367 24.7765L131.043 25.2743C131.408 24.7967 131.718 24.272 132.076 23.7405V36.3003H134.191V34.4772H142.298V33.374H138.616V29.23H141.406V28.1536H138.616V24.4132H141.386V23.3369H138.616V20.128H141.994V19.0449H134.096C134.535 17.5521 134.825 16.0198 134.961 14.4703L132.772 14.0398C132.414 17.538 132.097 20.128 131.279 22.57C130.645 21.875 129.918 21.2706 129.117 20.7738C129.405 20.1004 129.632 19.4024 129.793 18.6883L127.841 18.2107C127.649 20.3457 127.053 22.4252 126.084 24.3392H125.462V26.5929H120.929V27.676H124.902C123.826 30.089 122.299 32.2761 120.402 34.1207L120.909 34.7934C122.669 33.5162 124.2 31.9513 125.435 30.1651ZM134.144 20.128H136.468V23.3369H134.13L134.144 20.128ZM134.144 24.4132H136.468V28.1536H134.13L134.144 24.4132ZM134.144 29.23H136.468V33.374H134.13L134.144 29.23Z" fill="black"/>
<path d="M164.843 27.1244C163.555 26.0372 162.111 25.1483 160.559 24.4873L160.127 25.16C161.291 26.2801 162.392 27.4637 163.424 28.7053L164.843 27.1244Z" fill="black"/>
<path d="M160.958 23.3369H156.506V24.4133H167.862V23.3369H163.12V19.1929H168.173V18.1098H163.12V14.0869H160.958V18.1098H155.999V19.1929H160.958V23.3369Z" fill="black"/>
<path d="M169.044 32.1766C168.233 30.4372 167.134 28.8455 165.795 27.4675L165.119 27.9183C165.928 29.5972 166.606 31.3357 167.146 33.1184L169.044 32.1766Z" fill="black"/>
<path d="M158.762 32.9637C158.762 35.5537 159.241 35.8161 162.761 35.8161C166.511 35.8161 166.322 34.2823 165.214 30.3536H164.349C164.349 33.5423 164.349 33.8517 162.613 33.8517C161.099 33.8517 160.883 33.5423 160.883 32.5803V26.7141H158.762V32.9637Z" fill="black"/>
<path d="M155.492 18.1098H152.006L153.256 17.1545C152.185 15.8898 150.939 14.7843 149.554 13.8716L148.952 14.4703C149.506 15.2574 150.398 16.7441 151.188 18.1098H147.479V19.1929H155.492V18.1098Z" fill="black"/>
<path d="M152.898 35.9639H154.708V33.0644L156.323 34.2619C157.431 32.8021 157.985 30.6897 158.127 28.1535L157.282 27.9854C156.958 29.8275 156.057 31.5204 154.708 32.8223V28.1132H148.236V36.3272H150.114V34.5781H152.884L152.898 35.9639ZM152.898 33.495H150.155V29.1357H152.898V33.495Z" fill="black"/>
<path d="M154.938 24.7498H148.176V25.7588H154.938V24.7498Z" fill="black"/>
<path d="M154.938 21.4399H148.176V22.449H154.938V21.4399Z" fill="black"/>
<path d="M112.032 34.9078L111.823 34.8001C111.51 34.5779 111.169 34.397 110.809 34.2619C110.249 34.1207 109.654 34.1879 109.093 34.0669C108.303 33.8987 107.519 33.7036 106.722 33.5825C105.725 33.3935 104.698 33.4279 103.716 33.6834C103.236 33.7928 102.794 34.0247 102.432 34.3561C102.232 34.6499 102.113 34.991 102.087 35.345C102.01 35.6827 101.969 36.0278 101.966 36.3743C102.01 37.669 102.397 38.9291 103.087 40.0272C103.436 40.6115 103.833 41.1652 104.276 41.6821C104.683 42.2202 105.155 42.7061 105.682 43.1285C106.164 43.3976 106.574 43.7783 106.877 44.2385C107.107 44.6085 107.127 44.7161 107.553 44.9112C108.286 45.125 109.046 45.2293 109.809 45.2207C110.816 45.2943 111.828 45.2446 112.822 45.0727C113.559 44.9449 113.694 44.3999 114.295 44.077C114.897 43.7541 115.133 43.7003 115.39 43.0881C116.552 40.33 115.119 37.9821 113.424 35.9909C113.025 35.5537 112.554 35.1874 112.032 34.9078Z" fill="black"/>
</g>
<defs>
<clipPath id="clip0_11_1018">
<rect width="202" height="74" fill="white"/>
</clipPath>
</defs>
</svg>
