<svg xmlns="http://www.w3.org/2000/svg" viewBox="0 0 15.93 26.25">
    <symbol id="geotagging">
        <path class="d" d="M15.68,7.43c0,.35-.04,1.18-.05,1.24-.17,1.79-.88,3.34-2.13,4.63-.97,1.01-2.38,1.95-3.16,3.11-1.37,2.06-1.88,4.4-2.26,6.87-.04,.28-.07,.56-.11,.84-.12-1.09-.74-3.17-1.1-4.19-.67-2.89-2.21-4.25-4.26-6.41-1.08-1.14-1.87-2.42-2.19-3.97-.07-.35-.12-.71-.18-1.07,0-.35,.07-1.5,.1-1.72C.76,3.82,3.14,1.18,6.04,.5c.46-.11,.93-.17,1.39-.25,.35,0,1.52,.07,1.74,.11,3.06,.45,5.66,2.89,6.3,5.92,.08,.38,.13,.77,.2,1.16Z"/>
    </symbol>
</svg>