<svg width="533" height="388" viewBox="0 0 533 388" fill="none" xmlns="http://www.w3.org/2000/svg">
<path d="M266.122 15.52V68.773C334.685 68.773 390.263 124.403 390.263 193.03C390.263 261.658 334.685 317.287 266.122 317.287C230.46 317.287 198.325 302.233 175.677 278.138L136.177 313.814C168.564 348.705 214.789 370.54 266.122 370.54C364.068 370.54 443.466 291.068 443.466 193.03C443.466 94.9921 364.068 15.52 266.122 15.52Z" fill="#F3E9D2"/>
<path d="M266.229 68.7729V120.959C305.99 120.959 338.232 153.221 338.232 193.03C338.232 232.839 306 265.101 266.229 265.101C236.788 265.101 211.485 247.398 200.33 222.062L152.942 243.897C172.362 287.159 215.778 317.287 266.238 317.287C334.801 317.287 390.379 261.657 390.379 193.03C390.379 124.402 334.801 68.7729 266.238 68.7729H266.229Z" fill="#AE441F"/>
<path d="M141.71 61.6046C143.212 62.9238 144.996 64.8153 145.81 66.1054L144.831 66.8038C144.598 66.3964 144.269 65.9502 143.881 65.4652C135.024 65.9599 134.122 65.989 133.522 66.2121C133.473 65.9599 133.27 65.3876 133.153 65.0772C133.493 65.019 133.9 64.6698 134.413 64.1557C134.975 63.661 136.768 61.7016 137.979 59.781L139.113 60.2951C137.892 61.9732 136.506 63.5737 135.14 64.8638L143.048 64.4758C142.331 63.6707 141.546 62.8656 140.799 62.1963L141.71 61.6046ZM134.345 67.5216H144.211V73.9818H142.999V73.1767H135.508V74.0109H134.345V67.5216ZM135.508 68.6274V72.0612H142.999V68.6274H135.508Z" fill="black"/>
<path d="M149.86 66.5613C149.415 66.0666 148.436 65.3682 147.641 64.9317L148.29 64.1556C149.095 64.5436 150.074 65.2129 150.558 65.6882L149.86 66.5613ZM147.932 73.2348C148.494 72.0417 149.298 70.0339 149.87 68.2976L150.771 68.8989C150.258 70.5091 149.579 72.4103 148.969 73.8168L147.932 73.2251V73.2348ZM150.122 62.5357C149.705 62.0216 148.756 61.2941 147.98 60.8091L148.649 60.0525C149.424 60.489 150.384 61.1874 150.82 61.7015L150.122 62.5455V62.5357ZM151.847 65.5621C151.692 66.3187 151.459 67.1627 151.169 67.7059C151.043 67.5992 150.752 67.4245 150.597 67.3372C150.888 66.7746 151.062 66.0957 151.188 65.4167L151.857 65.5718L151.847 65.5621ZM153.921 64.9607C153.872 64.8249 153.814 64.6309 153.737 64.466C151.624 64.7473 151.275 64.8346 151.052 64.951C151.023 64.8152 150.878 64.5048 150.791 64.3496C151.023 64.3205 151.236 64.1168 151.508 63.8064C151.682 63.6512 152.08 63.205 152.467 62.6424C151.459 62.7394 151.198 62.7977 151.043 62.8559C150.994 62.7201 150.868 62.4097 150.781 62.2642C150.965 62.235 151.091 62.0895 151.246 61.8567C151.401 61.653 151.963 60.7703 152.206 59.9458L152.932 60.2077C152.671 60.8479 152.283 61.5172 151.895 62.0216L152.932 61.944C153.068 61.7112 153.213 61.4978 153.339 61.2456L154.037 61.556C153.494 62.4387 152.826 63.3311 152.128 64.0392L153.494 63.8646C153.398 63.69 153.291 63.5251 153.204 63.3505L153.775 63.1468C154.105 63.6415 154.415 64.2817 154.522 64.6697L153.931 64.951L153.921 64.9607ZM161.121 70.9263C161.121 70.9263 161.102 71.256 161.063 71.3918C160.772 72.7304 160.462 73.4094 160.036 73.7198C159.706 73.9526 159.386 74.0109 158.873 74.0109C158.408 74.0303 157.477 74.0108 156.499 73.9526C156.47 73.6907 156.344 73.3124 156.169 73.07C157.158 73.167 158.165 73.1767 158.553 73.1767C158.892 73.1767 159.047 73.1572 159.202 73.0505C159.464 72.8759 159.668 72.4782 159.871 71.7119H151.711C151.963 71.062 152.196 70.16 152.38 69.4034H159.377V68.5982H151.818V67.8513H160.443V70.1502H153.262C153.204 70.4121 153.126 70.6741 153.049 70.9263H161.111H161.121ZM152.516 67.4439C152.496 66.9492 152.361 66.1441 152.176 65.533L152.777 65.3778C152.981 65.9792 153.136 66.7456 153.146 67.2209L152.506 67.4342L152.516 67.4439ZM153.892 65.1353C154.153 65.6785 154.386 66.3672 154.454 66.794L153.863 67.0559C153.785 66.6097 153.572 65.8919 153.32 65.3196L153.892 65.1353ZM158.02 62.1089H154.299V61.3911H155.946C155.84 61.0225 155.559 60.5181 155.345 60.1689L156.14 59.9652C156.392 60.3241 156.663 60.8673 156.809 61.1971L156.13 61.4008H158.039V62.1186L158.02 62.1089ZM154.715 65.0092H157.632V67.2888H154.715V65.0092ZM157.613 63.302H154.754V62.6521H157.613V63.302ZM154.754 63.7967H157.613V64.4369H154.754V63.7967ZM155.471 66.6582H156.838V65.6301H155.471V66.6582ZM159.028 65.5039C158.892 66.2508 158.64 67.0753 158.359 67.6476C158.233 67.5409 157.923 67.3372 157.758 67.2402C158.069 66.7164 158.243 66.0181 158.359 65.3488L159.028 65.5039ZM161.17 64.9898C161.121 64.8152 161.034 64.6309 160.937 64.3981C158.824 64.7085 158.456 64.8055 158.233 64.8831C158.204 64.757 158.059 64.4369 157.972 64.2817C158.224 64.2526 158.417 64.0683 158.698 63.7676C158.873 63.593 159.241 63.1662 159.648 62.6036C158.64 62.6812 158.379 62.7394 158.224 62.817C158.175 62.6812 158.049 62.3514 157.962 62.2156C158.146 62.1962 158.253 62.041 158.408 61.8276C158.582 61.6142 159.135 60.7412 159.386 59.9167L160.113 60.1786C159.852 60.8188 159.464 61.4687 159.076 61.9828L160.104 61.9246C160.259 61.6918 160.394 61.459 160.52 61.2262L161.237 61.5366C160.695 62.4193 160.016 63.2924 159.328 64.0005L160.675 63.8259C160.578 63.6513 160.491 63.4863 160.394 63.3311L160.937 63.1274C161.296 63.6221 161.635 64.3205 161.761 64.7571L161.17 64.9898ZM159.716 67.5701C159.697 67.0463 159.542 66.1732 159.328 65.5039L159.949 65.3488C160.162 66.0181 160.317 66.8522 160.336 67.3663L159.716 67.5701ZM161.063 65.1063C161.393 65.7271 161.654 66.5516 161.741 67.0463L161.141 67.3276C161.063 66.765 160.801 65.9501 160.501 65.2905L161.063 65.1063Z" fill="black"/>
<path d="M167.818 71.4502L168.855 72.1195C167.614 72.8858 165.608 73.623 164.029 74.0304C163.825 73.7976 163.457 73.4096 163.176 73.1768C164.784 72.8082 166.79 72.0904 167.75 71.4502H164.852V64.8057H175.784V71.4502H167.808H167.818ZM175.183 63.923H165.502V60.4407H175.183V63.923ZM165.996 66.7457H174.601V65.6593H165.996V66.7457ZM165.996 68.6566H174.601V67.5702H165.996V68.6566ZM165.996 70.5966H174.601V69.4811H165.996V70.5966ZM173.981 61.3719H166.645V62.9821H173.981V61.3719ZM172.528 71.4793C174.127 71.9449 176.191 72.7112 177.402 73.2059L176.414 74.0401C175.251 73.4969 173.167 72.7015 171.539 72.2262L172.528 71.4793Z" fill="black"/>
<path d="M192.723 71.6829V72.8275H178.885V71.6829H185.116V62.7686H179.689V61.5852H191.948V62.7686H186.376V71.6829H192.723Z" fill="black"/>
<path d="M133.609 98.0281C133.609 86.8925 138.609 82.6245 144.153 82.6245C147.099 82.6245 149.231 83.8661 150.781 85.5345L148.804 87.7461C147.68 86.3881 145.974 85.5733 144.269 85.5733C140.354 85.5733 137.098 88.5609 136.943 97.3685C138.726 95.2345 141.168 93.9153 143.416 93.9153C148.184 93.9153 151.285 96.7865 151.285 102.413C151.285 107.728 147.564 111.298 143.145 111.298C137.679 111.298 133.609 106.875 133.609 98.0281ZM137.02 100.24C137.485 105.633 139.617 108.543 143.106 108.543C145.858 108.543 147.951 106.099 147.951 102.413C147.951 98.7265 146.246 96.5537 142.835 96.5537C141.052 96.5537 138.881 97.5237 137.02 100.24Z" fill="black"/>
<path d="M154.774 103.732C154.774 100.123 157.41 97.6401 160.007 96.2433V96.0881C157.953 94.6913 156.169 92.6349 156.169 89.6861C156.169 85.4569 159.542 82.6245 163.961 82.6245C168.806 82.6245 171.752 85.6509 171.752 89.9577C171.752 92.8677 169.62 95.3509 167.954 96.6313V96.8253C170.396 98.2997 172.76 100.24 172.76 103.926C172.76 108.077 169.194 111.298 163.845 111.298C158.495 111.298 154.774 108.116 154.774 103.732ZM169.388 103.848C169.388 100.24 165.899 98.9593 161.868 97.3685C159.619 98.8041 157.991 100.861 157.991 103.421C157.991 106.448 160.511 108.659 163.922 108.659C167.333 108.659 169.388 106.681 169.388 103.848ZM168.729 90.1517C168.729 87.4357 166.984 85.2629 163.922 85.2629C161.286 85.2629 159.387 87.0089 159.387 89.6861C159.387 93.0229 162.449 94.4197 165.783 95.7389C167.682 94.0317 168.729 92.2081 168.729 90.1517Z" fill="black"/>
<path d="M175.454 98.7555C175.454 95.3314 176.985 93.4011 179.311 93.4011C181.637 93.4011 183.197 95.3314 183.197 98.7555C183.197 102.18 181.666 104.178 179.311 104.178C176.956 104.178 175.454 102.199 175.454 98.7555ZM181.598 98.7555C181.598 96.0298 180.668 94.7009 179.321 94.7009C177.974 94.7009 177.063 96.0298 177.063 98.7555C177.063 101.481 177.993 102.849 179.321 102.849C180.648 102.849 181.598 101.472 181.598 98.7555ZM189.225 93.4011H190.669L181.249 111.094H179.834L189.235 93.4011H189.225ZM187.316 105.691C187.316 102.267 188.876 100.337 191.202 100.337C193.528 100.337 195.059 102.267 195.059 105.691C195.059 109.115 193.528 111.094 191.202 111.094C188.876 111.094 187.316 109.135 187.316 105.691ZM193.46 105.691C193.46 102.965 192.529 101.636 191.202 101.636C189.874 101.636 188.944 102.965 188.944 105.691C188.944 108.417 189.855 109.784 191.202 109.784C192.549 109.784 193.46 108.407 193.46 105.691Z" fill="black"/>
<path d="M201.019 89.502H281.666" stroke="black" stroke-miterlimit="10"/>
<path d="M461.52 285.733C462.964 287.886 465.629 289.972 468.081 291C467.848 291.233 467.461 291.718 467.306 292.009C464.96 290.903 462.509 288.905 460.919 286.839C459.32 288.808 456.684 290.951 454.514 292.115C454.378 291.824 454.068 291.437 453.796 291.184C455.725 290.282 458.031 288.527 459.572 286.819H456.81V285.733H461.53H461.52ZM461.462 298.013H467.509V299.07H454.397V298.013H460.28V295.433H455.938V294.405H460.28V292.028H456.607V290.99H465.261V292.028H461.462V294.405H465.871V295.433H461.462V298.013Z" fill="black"/>
<path d="M474.448 296.306C472.723 296.849 470.891 297.421 469.496 297.887L469.244 296.772C469.806 296.616 470.503 296.413 471.279 296.18V291.892H469.554V290.825H471.279V287.46H469.418V286.373H474.147V287.46H472.364V290.825H473.934V291.892H472.364V295.85L474.273 295.249L474.448 296.306ZM483.257 290.496C482.452 291.611 481.396 292.959 480.553 293.832C481.251 295.336 482.239 296.49 483.722 297.509C483.46 297.712 483.15 298.052 482.995 298.382C481.26 297.092 480.136 295.666 479.409 293.706V298.052C479.409 298.75 479.225 299.08 478.809 299.264C478.363 299.478 477.665 299.517 476.454 299.517C476.396 299.206 476.202 298.712 476.037 298.401C476.938 298.43 477.723 298.421 477.956 298.421C478.208 298.401 478.295 298.324 478.295 298.062V294.395C477.025 295.685 475.708 296.956 474.651 297.955L473.934 296.966C474.99 296.093 476.696 294.579 478.295 293.134V289.099H474.545V288.032H478.295V285.345H479.409V288.032H483.47V289.099H479.409V289.661C479.613 290.903 479.846 291.97 480.165 292.911C480.912 292.028 481.735 290.864 482.239 289.972L483.247 290.515L483.257 290.496ZM475.659 290.049C476.347 290.932 477.074 292.135 477.355 292.921L476.405 293.367C476.124 292.591 475.426 291.349 474.758 290.467L475.659 290.049ZM481.987 287.818C481.619 287.304 480.844 286.596 480.156 286.111L480.824 285.51C481.493 285.975 482.297 286.654 482.685 287.12L481.987 287.818Z" fill="black"/>
<path d="M489.459 296.927L490.496 297.596C489.255 298.353 487.249 299.1 485.67 299.507C485.466 299.274 485.098 298.886 484.817 298.653C486.426 298.285 488.432 297.567 489.391 296.927H486.493V290.282H497.425V296.927H489.449H489.459ZM496.824 289.4H487.143V285.917H496.824V289.4ZM487.637 292.222H496.242V291.136H487.637V292.222ZM487.637 294.133H496.242V293.047H487.637V294.133ZM487.637 296.073H496.242V294.958H487.637V296.073ZM495.622 286.848H488.286V288.459H495.622V286.848ZM494.169 296.956C495.768 297.421 497.832 298.178 499.043 298.682L498.055 299.517C496.892 298.973 494.808 298.178 493.18 297.703L494.169 296.956Z" fill="black"/>
<path d="M514.365 297.159V298.304H500.526V297.159H506.757V288.245H501.33V287.062H513.589V288.245H508.017V297.159H514.365Z" fill="black"/>
<path d="M455.25 323.505C455.25 312.369 460.251 308.101 465.794 308.101C468.74 308.101 470.872 309.343 472.422 311.011L470.445 313.223C469.321 311.865 467.616 311.05 465.91 311.05C461.995 311.05 458.739 314.037 458.584 322.845C460.367 320.711 462.809 319.392 465.057 319.392C469.825 319.392 472.926 322.263 472.926 327.889C472.926 333.205 469.205 336.774 464.786 336.774C459.32 336.774 455.25 332.351 455.25 323.505ZM458.661 325.716C459.126 331.109 461.258 334.019 464.747 334.019C467.499 334.019 469.593 331.575 469.593 327.889C469.593 324.203 467.887 322.03 464.476 322.03C462.693 322.03 460.522 323 458.661 325.716Z" fill="black"/>
<path d="M475.795 332.894L477.578 330.566C479.245 332.312 481.416 333.825 484.633 333.825C487.85 333.825 490.409 331.847 490.409 328.743C490.409 325.445 488.122 323.272 481.571 323.272V320.556C487.424 320.556 489.44 318.267 489.44 315.357C489.44 312.679 487.579 310.972 484.633 310.972C482.346 310.972 480.33 312.136 478.741 313.766L476.842 311.554C478.974 309.537 481.493 308.101 484.788 308.101C489.556 308.101 493.045 310.623 493.045 315.124C493.045 318.461 490.99 320.595 488.005 321.681V321.836C491.339 322.651 494.014 325.095 494.014 328.898C494.014 333.825 489.944 336.774 484.904 336.774C480.447 336.774 477.656 334.912 475.795 332.894Z" fill="black"/>
<path d="M497.095 324.232C497.095 320.808 498.626 318.878 500.952 318.878C503.278 318.878 504.838 320.808 504.838 324.232C504.838 327.656 503.307 329.654 500.952 329.654C498.597 329.654 497.095 327.676 497.095 324.232ZM503.239 324.232C503.239 321.506 502.309 320.177 500.962 320.177C499.615 320.177 498.704 321.506 498.704 324.232C498.704 326.958 499.634 328.326 500.962 328.326C502.29 328.326 503.239 326.948 503.239 324.232ZM510.866 318.878H512.31L502.89 336.571H501.475L510.876 318.878H510.866ZM508.957 331.168C508.957 327.743 510.517 325.813 512.843 325.813C515.169 325.813 516.7 327.743 516.7 331.168C516.7 334.592 515.169 336.571 512.843 336.571C510.517 336.571 508.957 334.611 508.957 331.168ZM515.101 331.168C515.101 328.442 514.171 327.113 512.843 327.113C511.515 327.113 510.585 328.442 510.585 331.168C510.585 333.893 511.496 335.261 512.843 335.261C514.19 335.261 515.101 333.884 515.101 331.168Z" fill="black"/>
<path d="M365.987 314.969H446.645" stroke="black" stroke-miterlimit="10"/>
</svg>
