<svg width="528" height="384" viewBox="0 0 528 384" fill="none" xmlns="http://www.w3.org/2000/svg">
<path d="M452.016 297.485C453.446 299.616 456.086 301.68 458.515 302.698C458.285 302.928 457.901 303.408 457.747 303.696C455.424 302.602 452.995 300.624 451.421 298.579C449.837 300.528 447.226 302.65 445.075 303.802C444.941 303.514 444.634 303.13 444.365 302.88C446.266 301.987 448.56 300.25 450.077 298.56H447.341V297.485H452.016ZM451.958 309.638H457.949V310.685H444.96V309.638H450.787V307.085H446.486V306.067H450.787V303.715H447.149V302.688H455.722V303.715H451.958V306.067H456.326V307.085H451.958V309.638Z" fill="black"/>
<path d="M464.822 307.949C463.113 308.486 461.299 309.053 459.917 309.514L459.667 308.41C460.224 308.256 460.915 308.054 461.683 307.824V303.581H459.974V302.525H461.683V299.194H459.84V298.118H464.525V299.194H462.758V302.525H464.313V303.581H462.758V307.498L464.649 306.902L464.822 307.949ZM473.549 302.198C472.752 303.302 471.705 304.637 470.87 305.501C471.561 306.989 472.55 308.131 474.009 309.139C473.75 309.341 473.443 309.677 473.289 310.003C471.571 308.726 470.457 307.315 469.737 305.376V309.677C469.737 310.368 469.555 310.694 469.142 310.877C468.701 311.088 468.009 311.126 466.809 311.126C466.752 310.819 466.56 310.33 466.397 310.022C467.289 310.051 468.077 310.042 468.307 310.042C468.557 310.022 468.643 309.946 468.643 309.686V306.058C467.385 307.334 466.08 308.592 465.033 309.581L464.323 308.602C465.369 307.738 467.059 306.24 468.643 304.81V300.816H464.928V299.76H468.643V297.101H469.747V299.76H473.769V300.816H469.747V301.373C469.949 302.602 470.179 303.658 470.505 304.589C471.245 303.715 472.061 302.563 472.56 301.68L473.558 302.218L473.549 302.198ZM466.022 301.757C466.694 302.63 467.424 303.821 467.702 304.598L466.761 305.04C466.483 304.272 465.792 303.043 465.129 302.17L466.022 301.757ZM472.291 299.549C471.926 299.04 471.158 298.339 470.477 297.859L471.139 297.264C471.801 297.725 472.598 298.397 472.982 298.858L472.291 299.549Z" fill="black"/>
<path d="M479.693 308.563L480.72 309.226C479.491 309.974 477.504 310.714 475.939 311.117C475.737 310.886 475.373 310.502 475.094 310.272C476.697 309.907 478.675 309.197 479.625 308.563H476.755V301.987H487.593V308.563H479.693ZM486.989 301.114H477.398V297.667H486.989V301.114ZM477.888 303.907H486.413V302.832H477.888V303.907ZM477.888 305.798H486.413V304.723H477.888V305.798ZM477.888 307.718H486.413V306.614H477.888V307.718ZM485.798 298.589H478.531V300.182H485.798V298.589ZM484.358 308.592C485.942 309.053 487.987 309.802 489.187 310.301L488.208 311.126C487.056 310.589 485.001 309.802 483.379 309.331L484.358 308.592Z" fill="black"/>
<path d="M504.365 308.794V309.926H490.656V308.794H496.829V299.971H491.453V298.8H503.587V299.971H498.067V308.794H504.355H504.365Z" fill="black"/>
<path d="M445.805 334.867C445.805 323.847 450.758 319.623 456.249 319.623C459.168 319.623 461.28 320.851 462.816 322.503L460.857 324.691C459.744 323.347 458.054 322.541 456.365 322.541C452.486 322.541 449.261 325.498 449.107 334.215C450.873 332.103 453.293 330.797 455.52 330.797C460.243 330.797 463.315 333.639 463.315 339.207C463.315 344.467 459.629 348 455.251 348C449.837 348 445.805 343.623 445.805 334.867ZM449.184 337.056C449.645 342.394 451.757 345.274 455.213 345.274C457.939 345.274 460.013 342.855 460.013 339.207C460.013 335.559 458.323 333.408 454.944 333.408C453.177 333.408 451.027 334.368 449.184 337.056Z" fill="black"/>
<path d="M467.117 334.867C467.117 323.847 472.07 319.623 477.562 319.623C480.48 319.623 482.592 320.851 484.128 322.503L482.17 324.691C481.056 323.347 479.366 322.541 477.677 322.541C473.798 322.541 470.573 325.498 470.419 334.215C472.186 332.103 474.605 330.797 476.832 330.797C481.555 330.797 484.627 333.639 484.627 339.207C484.627 344.467 480.941 348 476.563 348C471.149 348 467.117 343.623 467.117 334.867ZM470.496 337.056C470.957 342.394 473.069 345.274 476.525 345.274C479.251 345.274 481.325 342.855 481.325 339.207C481.325 335.559 479.635 333.408 476.256 333.408C474.49 333.408 472.339 334.368 470.496 337.056Z" fill="black"/>
<path d="M487.257 335.587C487.257 332.199 488.774 330.288 491.078 330.288C493.382 330.288 494.928 332.199 494.928 335.587C494.928 338.976 493.411 340.954 491.078 340.954C488.745 340.954 487.257 338.995 487.257 335.587ZM493.344 335.587C493.344 332.89 492.422 331.575 491.088 331.575C489.753 331.575 488.851 332.89 488.851 335.587C488.851 338.285 489.773 339.639 491.088 339.639C492.403 339.639 493.344 338.275 493.344 335.587ZM500.899 330.288H502.329L492.998 347.799H491.597L500.909 330.288H500.899ZM499.008 342.451C499.008 339.062 500.553 337.152 502.857 337.152C505.161 337.152 506.678 339.062 506.678 342.451C506.678 345.84 505.161 347.799 502.857 347.799C500.553 347.799 499.008 345.859 499.008 342.451ZM505.094 342.451C505.094 339.754 504.173 338.439 502.857 338.439C501.542 338.439 500.621 339.754 500.621 342.451C500.621 345.149 501.523 346.503 502.857 346.503C504.192 346.503 505.094 345.139 505.094 342.451Z" fill="black"/>
<path d="M132.979 68.9666C134.467 70.2722 136.234 72.1442 137.04 73.421L136.07 74.1122C135.84 73.709 135.514 73.2674 135.13 72.7874C126.355 73.277 125.462 73.3058 124.867 73.5266C124.819 73.277 124.618 72.7106 124.502 72.4034C124.838 72.3458 125.242 72.0002 125.75 71.501C126.307 71.0114 128.083 69.0722 129.283 67.1714L130.406 67.6802C129.197 69.341 127.824 70.925 126.47 72.2018L134.304 71.8178C133.594 71.021 132.816 70.2146 132.077 69.5618L132.979 68.9762V68.9666ZM125.683 74.8226H135.456V81.2162H134.256V80.4194H126.835V81.245H125.683V74.8226ZM126.835 75.917V79.3154H134.256V75.917H126.835Z" fill="black"/>
<path d="M141.063 73.8625C140.621 73.3729 139.651 72.6817 138.864 72.2497L139.507 71.4817C140.304 71.8657 141.274 72.5281 141.754 72.9985L141.063 73.8625ZM139.162 80.4673C139.719 79.2865 140.515 77.2993 141.082 75.5809L141.975 76.1761C141.466 77.7793 140.794 79.6513 140.189 81.0433L139.162 80.4577V80.4673ZM141.331 69.8785C140.919 69.3697 139.978 68.6497 139.21 68.1697L139.872 67.4209C140.64 67.8529 141.591 68.5441 142.023 69.0529L141.331 69.8785ZM143.04 72.8737C142.887 73.6225 142.656 74.4577 142.368 74.9953C142.243 74.8897 141.955 74.7169 141.802 74.6305C142.09 74.0737 142.263 73.4017 142.387 72.7201L143.05 72.8737H143.04ZM145.104 72.2785C145.056 72.1441 144.999 71.9521 144.922 71.7889C142.829 72.0673 142.483 72.1537 142.263 72.2689C142.234 72.1345 142.09 71.8273 142.003 71.6737C142.234 71.6449 142.445 71.4433 142.714 71.1361C142.887 70.9825 143.28 70.5409 143.664 69.9841C142.666 70.0801 142.407 70.1377 142.253 70.1953C142.205 70.0609 142.08 69.7537 141.994 69.6097C142.176 69.5809 142.301 69.4369 142.455 69.2065C142.608 69.0049 143.165 68.1313 143.405 67.3153L144.125 67.5745C143.866 68.2081 143.482 68.8609 143.098 69.3697L144.125 69.2929C144.259 69.0625 144.403 68.8513 144.528 68.6017L145.219 68.9089C144.682 69.7825 144.019 70.6657 143.328 71.3665L144.682 71.1937C144.586 71.0209 144.48 70.8577 144.394 70.6849L144.96 70.4833C145.287 70.9729 145.594 71.6065 145.699 71.9905L145.114 72.2689L145.104 72.2785ZM152.237 78.1825C152.237 78.1825 152.218 78.5089 152.179 78.6433C151.891 79.9681 151.584 80.6401 151.162 80.9473C150.835 81.1777 150.519 81.2353 150.01 81.2353C149.549 81.2545 148.627 81.2353 147.658 81.1777C147.629 80.9185 147.504 80.5441 147.331 80.3041C148.311 80.4001 149.309 80.4097 149.693 80.4097C150.029 80.4097 150.183 80.3905 150.336 80.2849C150.595 80.1121 150.797 79.7185 150.999 78.9601H142.915C143.165 78.3169 143.395 77.4241 143.578 76.6753H150.509V75.8785H143.021V75.1393H151.565V77.4145H144.451C144.394 77.6737 144.317 77.9329 144.24 78.1825H152.227H152.237ZM143.712 74.7361C143.693 74.2465 143.559 73.4497 143.376 72.8449L143.971 72.6913C144.173 73.2865 144.327 74.0449 144.336 74.5153L143.703 74.7265L143.712 74.7361ZM145.075 72.4513C145.335 72.9889 145.565 73.6609 145.632 74.0929L145.047 74.3521C144.97 73.9105 144.759 73.2001 144.509 72.6337L145.075 72.4513ZM149.165 69.4561H145.479V68.7457H147.111C147.005 68.3809 146.727 67.8817 146.515 67.5361L147.303 67.3345C147.552 67.6897 147.821 68.2273 147.965 68.5441L147.293 68.7457H149.184V69.4561H149.165ZM145.891 72.3265H148.781V74.5825H145.891V72.3265ZM148.762 70.6369H145.93V69.9937H148.762V70.6369ZM145.93 71.1265H148.762V71.7601H145.93V71.1265ZM146.64 73.9585H147.994V72.9409H146.64V73.9585ZM150.163 72.8257C150.029 73.5649 149.779 74.3809 149.501 74.9473C149.376 74.8417 149.069 74.6401 148.906 74.5441C149.213 74.0257 149.386 73.3345 149.501 72.6721L150.163 72.8257ZM152.285 72.3169C152.237 72.1441 152.151 71.9617 152.055 71.7313C149.962 72.0385 149.597 72.1345 149.376 72.2113C149.347 72.0865 149.203 71.7697 149.117 71.6161C149.367 71.5873 149.559 71.4049 149.837 71.1073C150.01 70.9345 150.375 70.5121 150.778 69.9553C149.779 70.0321 149.52 70.0897 149.367 70.1665C149.319 70.0321 149.194 69.7057 149.107 69.5713C149.29 69.5521 149.395 69.3985 149.549 69.1873C149.722 68.9761 150.269 68.1121 150.519 67.2961L151.239 67.5553C150.979 68.1889 150.595 68.8321 150.211 69.3409L151.229 69.2833C151.383 69.0529 151.517 68.8225 151.642 68.5921L152.352 68.8993C151.815 69.7729 151.143 70.6369 150.461 71.3377L151.795 71.1649C151.699 70.9921 151.613 70.8289 151.517 70.6753L152.055 70.4737C152.41 70.9633 152.746 71.6545 152.871 72.0865L152.285 72.3169ZM150.845 74.8705C150.826 74.3521 150.672 73.4881 150.461 72.8257L151.075 72.6721C151.287 73.3345 151.44 74.1601 151.459 74.6689L150.845 74.8705ZM152.179 72.4225C152.506 73.0369 152.765 73.8529 152.851 74.3425L152.256 74.6209C152.179 74.0641 151.92 73.2577 151.623 72.6049L152.179 72.4225Z" fill="black"/>
<path d="M158.851 78.7107L159.879 79.3731C158.65 80.1219 156.663 80.8611 155.098 81.2643C154.896 81.0339 154.531 80.6499 154.253 80.4195C155.847 80.0547 157.834 79.3443 158.784 78.7107H155.914V72.1347H166.743V78.7107H158.842H158.851ZM166.147 71.2611H156.557V67.8147H166.147V71.2611ZM157.047 74.0547H165.571V72.9795H157.047V74.0547ZM157.047 75.9459H165.571V74.8707H157.047V75.9459ZM157.047 77.8659H165.571V76.7619H157.047V77.8659ZM164.957 68.7363H157.69V70.3299H164.957V68.7363ZM163.517 78.7395C165.101 79.2003 167.146 79.9491 168.346 80.4483L167.367 81.2739C166.215 80.7363 164.151 79.9491 162.538 79.4787L163.517 78.7395Z" fill="black"/>
<path d="M183.523 78.9409V80.0737H169.814V78.9409H175.987V70.1185H170.611V68.9473H182.755V70.1185H177.235V78.9409H183.523Z" fill="black"/>
<path d="M129.725 114.413L131.453 112.109C133.065 113.722 135.101 115.219 138.365 115.219C141.629 115.219 144.355 112.8 144.355 108.998C144.355 105.197 142.051 102.931 138.518 102.931C136.637 102.931 135.446 103.546 133.833 104.621L131.952 103.43L132.835 90.2593H146.544V93.2545H135.907L135.216 101.434C136.483 100.742 137.712 100.282 139.401 100.282C144.086 100.282 147.888 102.97 147.888 108.883C147.888 114.797 143.433 118.138 138.672 118.138C134.294 118.138 131.606 116.294 129.725 114.413Z" fill="black"/>
<path d="M163.017 110.074H150.729V107.77L162.442 90.2593H166.32V107.27H170.045V110.074H166.32V117.638H163.017V110.074ZM163.017 107.27V99.2449C163.017 97.8241 163.133 95.4817 163.209 94.0225H163.056C162.365 95.3281 161.597 96.5185 160.79 97.8625L154.377 107.27H163.017Z" fill="black"/>
<path d="M172.166 105.725C172.166 102.336 173.683 100.426 175.987 100.426C178.291 100.426 179.836 102.336 179.836 105.725C179.836 109.114 178.32 111.091 175.987 111.091C173.654 111.091 172.166 109.133 172.166 105.725ZM178.252 105.725C178.252 103.027 177.331 101.712 175.996 101.712C174.662 101.712 173.76 103.027 173.76 105.725C173.76 108.423 174.681 109.776 175.996 109.776C177.312 109.776 178.252 108.413 178.252 105.725ZM185.808 100.426H187.238L177.907 117.936H176.505L185.817 100.426H185.808ZM183.916 112.589C183.916 109.2 185.462 107.29 187.766 107.29C190.07 107.29 191.587 109.2 191.587 112.589C191.587 115.978 190.07 117.936 187.766 117.936C185.462 117.936 183.916 115.997 183.916 112.589ZM190.003 112.589C190.003 109.891 189.081 108.576 187.766 108.576C186.451 108.576 185.529 109.891 185.529 112.589C185.529 115.287 186.432 116.64 187.766 116.64C189.1 116.64 190.003 115.277 190.003 112.589Z" fill="black"/>
<path d="M264.115 16.3201V69.0241C332.035 69.0241 387.091 124.08 387.091 192C387.091 259.92 332.035 314.976 264.115 314.976C219.754 314.976 180.874 291.475 159.245 256.253L114.989 284.89C146.016 334.598 201.197 367.68 264.115 367.68C361.142 367.68 439.795 289.027 439.795 192C439.795 94.9729 361.142 16.3201 264.115 16.3201Z" fill="#F3E9D2"/>
<path d="M264.077 69.0242V120.672C303.466 120.672 335.405 152.602 335.405 192C335.405 231.399 303.475 263.328 264.077 263.328C258.173 263.328 252.442 262.599 246.96 261.245L233.52 311.146C243.293 313.642 253.526 314.976 264.077 314.976C331.997 314.976 387.053 259.92 387.053 192C387.053 124.08 331.997 69.0242 264.077 69.0242Z" fill="#AE441F"/>
<path d="M191.731 96.5664H271.632" stroke="black" stroke-miterlimit="10"/>
<path d="M357.379 326.419H437.28" stroke="black" stroke-miterlimit="10"/>
</svg>
