<?xml version="1.0" encoding="utf-8"?>
<!-- Generator: Adobe Illustrator 26.1.0, SVG Export Plug-In . SVG Version: 6.00 Build 0)  -->
<svg version="1.1" id="圖層_1" xmlns="http://www.w3.org/2000/svg" xmlns:xlink="http://www.w3.org/1999/xlink" x="0px" y="0px"
	 viewBox="0 0 500 412" style="enable-background:new 0 0 500 412;" xml:space="preserve">
<style type="text/css">
	.st0{fill:none;stroke:#E6E6E6;}
	.st1{fill:none;stroke:#AE441F;stroke-width:3;}
</style>
<path d="M15.1,15.1v14.5H14v-3.6c-1.4,0.3-2.7,0.6-3.8,0.9L10,25.7c0.3,0,0.7-0.1,1.1-0.2V15.1h-0.9v-1.2H16v1.2H15.1L15.1,15.1z
	 M14,15.1h-1.9v2.5H14V15.1z M14,18.7h-1.9v2.6H14V18.7z M12.2,25.3c0.6-0.1,1.2-0.3,1.9-0.4v-2.5h-1.9V25.3z M26.3,21.1
	c-0.6,1.7-1.3,3.2-2.3,4.5c0.3,1.5,0.7,2.3,1.1,2.4c0.3,0,0.5-1,0.6-2.6c0.2,0.2,0.7,0.6,0.9,0.7c-0.3,2.7-0.9,3.4-1.5,3.4
	c-0.9,0-1.5-1-2-2.7c-0.9,1-1.8,1.9-2.8,2.5c-0.2-0.2-0.5-0.5-0.8-0.7c0.5-0.3,1-0.8,1.5-1.2h-1v-0.5h-2.6v1.3h-1.1v-7.5h4.7v6.7
	c0.6-0.6,1.2-1.2,1.7-1.9c-0.3-1.6-0.5-3.6-0.6-5.9h-6.4v-1.2h1.2c-0.1-0.6-0.2-1.4-0.4-2.1l1-0.1c0.2,0.7,0.4,1.6,0.5,2.2h1.3
	c0.2-0.7,0.4-1.6,0.5-2.2l1.1,0.2c-0.2,0.7-0.5,1.4-0.6,2h1.8c-0.1-1.7-0.1-3.5-0.2-5.4h1.2c0,1.9,0,3.7,0.1,5.4h3.3v1.2h-3.2
	c0.1,1.7,0.2,3.2,0.4,4.4c0.6-1,1.1-2.2,1.5-3.4L26.3,21.1L26.3,21.1z M21.4,16.1H16V15h2.2c-0.2-0.5-0.4-1.1-0.6-1.6l1.1-0.2
	c0.3,0.6,0.6,1.3,0.8,1.8h1.9V16.1L21.4,16.1z M17.5,21.6v1.7H20v-1.7H17.5z M20,25.9v-1.7h-2.6v1.7H20z M25,17.6
	c-0.2-0.8-0.8-2.1-1.4-3.1l1-0.4c0.6,1,1.2,2.2,1.4,3L25,17.6L25,17.6z"/>
<path d="M33.9,22.1H35v6.1h-1.1v-0.6h-5.1v-5.5h1.1v4.3h1.4v-5.5h-3.1v-1.2h3.1v-3.3h-1.2c-0.3,0.9-0.7,1.7-1.1,2.4
	c-0.2-0.2-0.8-0.5-1.1-0.6c0.9-1.3,1.5-3.3,1.9-5.2l1.2,0.2c-0.1,0.6-0.3,1.3-0.5,1.9h4.6v1.2h-2.6v3.3h3v1.2h-3v5.5h1.4L33.9,22.1
	L33.9,22.1z M40,22.6c-0.3,2.6-1.3,5-3.9,6.9c-0.2-0.3-0.7-0.7-1-0.9c2.3-1.7,3.2-3.8,3.6-6h-2.9v-1.2h3c0-0.7,0.1-1.4,0.1-2v-2
	h-2.8v-1.3H39v-3h1.2v3h3.2v5.3h1.2v1.2H40z M40.2,19.4c0,0.7,0,1.3,0,2h2.1v-4h-2V19.4z M41.7,23.3c1,1.8,2.3,4.2,3,5.6l-1.2,0.5
	c-0.6-1.4-1.8-3.9-2.8-5.7L41.7,23.3z"/>
<path d="M61.2,17.8c-0.3,2.8-0.9,5-1.8,6.9c0.8,1.6,1.9,2.9,3.3,3.7c-0.3,0.2-0.7,0.7-0.9,1c-1.3-0.8-2.3-2-3.2-3.5
	c-1,1.5-2.3,2.7-4.1,3.6c-0.1-0.2-0.4-0.6-0.6-0.9L53.5,29c-0.6-0.3-1.4-0.8-2.3-1.1c-1,0.6-2.5,1.1-4.6,1.6
	c-0.1-0.3-0.4-0.7-0.6-0.9c1.7-0.3,3-0.8,3.9-1.2c-0.9-0.3-1.7-0.6-2.6-0.8c0.3-0.4,0.7-1,1.1-1.6h-2.3v-1h2.9
	c0.2-0.4,0.4-0.8,0.6-1.1H47v-2.9h3.4v-0.8h-3v-2h-1.2v-1h1.2v-1.9h3v-1.2h1.1v1.2h3.2v1.9h1v1h-1v2h-3.2v0.8H55v0.9
	c1.2-2,2-4.9,2.5-7.8l1.2,0.2c-0.2,1.1-0.5,2.2-0.8,3.3h4.7v1.2H61.2z M48.2,22h2.2v-1.2h-2.2V22z M48.5,15.2v1h1.9v-1H48.5z
	 M50.4,18.2V17h-1.9v1.2H50.4z M49.8,25c-0.2,0.4-0.5,0.7-0.7,1.1c0.7,0.2,1.3,0.4,2,0.7c0.8-0.6,1.2-1.2,1.4-1.8H49.8z M54.4,28.3
	c1.7-0.9,2.9-2.1,3.7-3.6c-0.6-1.4-1-3-1.3-4.8c-0.3,0.8-0.6,1.4-1,2c-0.2-0.2-0.5-0.5-0.8-0.7v1.7h-4.1c-0.2,0.4-0.4,0.8-0.6,1.1
	h2.3v-0.7h1.1V24h1.8v1h-1.9c-0.1,0.7-0.5,1.5-1.4,2.2C53.1,27.5,53.8,27.9,54.4,28.3L54.4,28.3L54.4,28.3z M51.4,15.1v1h2v-1H51.4z
	 M53.5,18.2V17h-2v1.1H53.5z M51.4,20.8V22h2.3v-1.2H51.4z M57.5,17.8L57.4,18c0.3,1.9,0.7,3.7,1.3,5.3c0.6-1.6,1-3.4,1.2-5.5
	L57.5,17.8L57.5,17.8z"/>
<path d="M66,377.3h-8.4v-1.2l4.4-4.9c0.7-0.7,1.1-1.4,1.4-1.8c0.2-0.5,0.4-0.9,0.4-1.4c0-0.7-0.2-1.2-0.6-1.6s-0.9-0.6-1.6-0.6
	c-0.8,0-1.4,0.2-1.9,0.7c-0.4,0.5-0.7,1.1-0.7,1.9h-1.6c0-1.2,0.4-2.1,1.1-2.9c0.8-0.7,1.8-1.1,3-1.1c1.2,0,2.1,0.3,2.8,0.9
	c0.7,0.6,1,1.5,1,2.5c0,1.3-0.8,2.8-2.4,4.5l-3.4,3.7h6.4L66,377.3L66,377.3z"/>
<path d="M75.7,371.8c0,1.9-0.3,3.3-1,4.2s-1.7,1.4-3.1,1.4c-1.4,0-2.4-0.5-3-1.4c-0.7-0.9-1-2.3-1-4.1v-2.2c0-1.9,0.3-3.3,1-4.2
	c0.7-0.9,1.7-1.4,3.1-1.4s2.4,0.4,3,1.3c0.6,0.9,1,2.2,1,4.1V371.8z M74.1,369.6c0-1.4-0.2-2.4-0.6-3c-0.4-0.6-1-0.9-1.8-0.9
	c-0.8,0-1.4,0.3-1.8,0.9c-0.4,0.6-0.6,1.6-0.6,2.9v2.6c0,1.4,0.2,2.4,0.6,3.1c0.4,0.7,1,1,1.8,1c0.8,0,1.4-0.3,1.8-0.9
	c0.4-0.6,0.6-1.6,0.6-2.9L74.1,369.6L74.1,369.6z"/>
<path d="M86.2,377.3h-8.4v-1.2l4.4-4.9c0.7-0.7,1.1-1.4,1.4-1.8c0.2-0.5,0.4-0.9,0.4-1.4c0-0.7-0.2-1.2-0.6-1.6s-0.9-0.6-1.6-0.6
	c-0.8,0-1.4,0.2-1.9,0.7c-0.4,0.5-0.7,1.1-0.7,1.9h-1.6c0-1.2,0.4-2.1,1.1-2.9c0.8-0.7,1.8-1.1,3-1.1c1.2,0,2.1,0.3,2.8,0.9
	c0.7,0.6,1,1.5,1,2.5c0,1.3-0.8,2.8-2.4,4.5l-3.4,3.7h6.4L86.2,377.3L86.2,377.3z"/>
<path d="M95.9,371.8c0,1.9-0.3,3.3-1,4.2s-1.7,1.4-3.1,1.4c-1.4,0-2.4-0.5-3-1.4c-0.7-0.9-1-2.3-1-4.1v-2.2c0-1.9,0.3-3.3,1-4.2
	c0.7-0.9,1.7-1.4,3.1-1.4s2.4,0.4,3,1.3c0.6,0.9,1,2.2,1,4.1V371.8z M94.3,369.6c0-1.4-0.2-2.4-0.6-3c-0.4-0.6-1-0.9-1.8-0.9
	c-0.8,0-1.4,0.3-1.8,0.9c-0.4,0.6-0.6,1.6-0.6,2.9v2.6c0,1.4,0.2,2.4,0.6,3.1s1,1,1.8,1c0.8,0,1.4-0.3,1.8-0.9s0.6-1.6,0.6-2.9
	L94.3,369.6L94.3,369.6z"/>
<path d="M114,374.5h-6.5v4.1h-1.3v-4.1h-8.3v-1.3h2.9v-4.8h5.4v-2.7h-4.4c-0.8,1.4-1.8,2.6-2.7,3.5c-0.2-0.2-0.8-0.7-1.2-0.9
	c1.7-1.5,3.2-3.8,4-6.2l1.3,0.3c-0.2,0.6-0.5,1.3-0.8,1.9h10.7v1.3h-5.7v2.7h5.3v1.3h-5.3v3.6h6.5L114,374.5L114,374.5z
	 M106.2,373.2v-3.6h-4v3.6H106.2z"/>
<path d="M73.5,398.1v1.3h-16v-1.3h6.7v-14h1.4v5.5h6.7v1.3h-6.7v7.1H73.5L73.5,398.1z"/>
<path d="M91.5,395.1h-7.4v5.1h-1.4v-5.1h-7.2v-1.3h7.2v-2.9h-6.1v-1.3h6.1v-5.8h1.4v5.8h6.3v1.3h-6.3v2.9h7.4V395.1z M79.3,388.8
	c-0.4-1.1-1.2-2.8-2.1-4l1.2-0.5c0.9,1.2,1.8,2.9,2.1,4L79.3,388.8z M89.9,384.7c-0.7,1.4-1.7,3-2.4,4.1l-1.2-0.5
	c0.7-1.1,1.7-2.8,2.2-4.1L89.9,384.7z"/>
<path d="M154.4,377.3h-8.4v-1.2l4.4-4.9c0.7-0.7,1.1-1.4,1.4-1.8c0.2-0.5,0.4-0.9,0.4-1.4c0-0.7-0.2-1.2-0.6-1.6
	c-0.4-0.4-0.9-0.6-1.6-0.6c-0.8,0-1.4,0.2-1.9,0.7c-0.4,0.5-0.7,1.1-0.7,1.9h-1.6c0-1.2,0.4-2.1,1.1-2.9c0.8-0.7,1.8-1.1,3-1.1
	c1.2,0,2.1,0.3,2.8,0.9c0.7,0.6,1,1.5,1,2.5c0,1.3-0.8,2.8-2.4,4.5L148,376h6.4L154.4,377.3L154.4,377.3z"/>
<path d="M164.2,371.8c0,1.9-0.3,3.3-1,4.2c-0.6,0.9-1.7,1.4-3.1,1.4c-1.4,0-2.4-0.5-3-1.4c-0.7-0.9-1-2.3-1-4.1v-2.2
	c0-1.9,0.3-3.3,1-4.2c0.6-0.9,1.7-1.4,3.1-1.4s2.4,0.4,3,1.3c0.7,0.9,1,2.2,1,4.1V371.8z M162.6,369.6c0-1.4-0.2-2.4-0.6-3
	c-0.4-0.6-1-0.9-1.8-0.9c-0.8,0-1.4,0.3-1.8,0.9c-0.4,0.6-0.6,1.6-0.6,2.9v2.6c0,1.4,0.2,2.4,0.6,3.1c0.4,0.7,1,1,1.8,1
	s1.4-0.3,1.8-0.9c0.4-0.6,0.6-1.6,0.6-2.9L162.6,369.6L162.6,369.6z"/>
<path d="M174.6,377.3h-8.4v-1.2l4.4-4.9c0.7-0.7,1.1-1.4,1.4-1.8c0.2-0.5,0.4-0.9,0.4-1.4c0-0.7-0.2-1.2-0.6-1.6s-0.9-0.6-1.6-0.6
	c-0.8,0-1.4,0.2-1.9,0.7c-0.4,0.5-0.7,1.1-0.7,1.9H166c0-1.2,0.4-2.1,1.1-2.9c0.8-0.7,1.8-1.1,3-1.1c1.2,0,2.1,0.3,2.8,0.9
	c0.7,0.6,1,1.5,1,2.5c0,1.3-0.8,2.8-2.4,4.5l-3.4,3.7h6.4L174.6,377.3L174.6,377.3z"/>
<path d="M184.4,371.8c0,1.9-0.3,3.3-1,4.2c-0.7,0.9-1.7,1.4-3.1,1.4s-2.4-0.5-3-1.4c-0.7-0.9-1-2.3-1-4.1v-2.2c0-1.9,0.3-3.3,1-4.2
	c0.7-0.9,1.7-1.4,3.1-1.4s2.4,0.4,3,1.3s1,2.2,1,4.1V371.8z M182.8,369.6c0-1.4-0.2-2.4-0.6-3c-0.4-0.6-1-0.9-1.8-0.9
	s-1.4,0.3-1.8,0.9c-0.4,0.6-0.6,1.6-0.6,2.9v2.6c0,1.4,0.2,2.4,0.6,3.1s1,1,1.8,1c0.8,0,1.4-0.3,1.8-0.9s0.6-1.6,0.6-2.9
	L182.8,369.6L182.8,369.6z"/>
<path d="M202.5,374.5H196v4.1h-1.4v-4.1h-8.3v-1.3h2.9v-4.8h5.4v-2.7h-4.4c-0.8,1.4-1.8,2.6-2.7,3.5c-0.2-0.2-0.8-0.7-1.2-0.9
	c1.7-1.5,3.2-3.8,4.1-6.2l1.4,0.3c-0.2,0.6-0.5,1.3-0.8,1.9h10.7v1.3H196v2.7h5.3v1.3H196v3.6h6.5L202.5,374.5L202.5,374.5z
	 M194.6,373.2v-3.6h-4v3.6H194.6z"/>
<path d="M154.3,386.5v3.2l0.2-0.3c2.1,1,5,2.6,6.4,3.7l-0.9,1.2c-1.2-1-3.6-2.5-5.7-3.6v9.5h-1.4v-13.8H146v-1.3h15.9v1.3
	L154.3,386.5L154.3,386.5z"/>
<path d="M180,395.1h-7.4v5.1h-1.4v-5.1H164v-1.3h7.2v-2.9h-6.1v-1.3h6.1v-5.8h1.4v5.8h6.3v1.3h-6.3v2.9h7.4V395.1z M167.8,388.8
	c-0.4-1.1-1.2-2.8-2.1-4l1.2-0.5c0.9,1.2,1.8,2.9,2.1,4L167.8,388.8z M178.4,384.7c-0.7,1.4-1.7,3-2.4,4.1l-1.2-0.5
	c0.7-1.1,1.7-2.8,2.2-4.1L178.4,384.7z"/>
<path d="M246.6,377.3h-8.4v-1.2l4.4-4.9c0.7-0.7,1.1-1.4,1.4-1.8c0.2-0.5,0.4-0.9,0.4-1.4c0-0.7-0.2-1.2-0.6-1.6
	c-0.4-0.4-0.9-0.6-1.6-0.6c-0.8,0-1.4,0.2-1.9,0.7c-0.4,0.5-0.7,1.1-0.7,1.9H238c0-1.2,0.4-2.1,1.1-2.9c0.8-0.7,1.8-1.1,3-1.1
	c1.2,0,2.1,0.3,2.8,0.9c0.7,0.6,1,1.5,1,2.5c0,1.3-0.8,2.8-2.4,4.5l-3.4,3.7h6.4L246.6,377.3L246.6,377.3z"/>
<path d="M256.3,371.8c0,1.9-0.3,3.3-1,4.2c-0.6,0.9-1.7,1.4-3.1,1.4s-2.4-0.5-3-1.4c-0.7-0.9-1-2.3-1-4.1v-2.2c0-1.9,0.3-3.3,1-4.2
	c0.6-0.9,1.7-1.4,3.1-1.4s2.4,0.4,3,1.3c0.7,0.9,1,2.2,1,4.1V371.8z M254.7,369.6c0-1.4-0.2-2.4-0.6-3c-0.4-0.6-1-0.9-1.8-0.9
	c-0.8,0-1.4,0.3-1.8,0.9c-0.4,0.6-0.6,1.6-0.6,2.9v2.6c0,1.4,0.2,2.4,0.6,3.1c0.4,0.7,1,1,1.8,1s1.4-0.3,1.8-0.9s0.6-1.6,0.6-2.9
	L254.7,369.6L254.7,369.6z"/>
<path d="M266.8,377.3h-8.4v-1.2l4.4-4.9c0.7-0.7,1.1-1.4,1.4-1.8c0.2-0.5,0.4-0.9,0.4-1.4c0-0.7-0.2-1.2-0.6-1.6s-0.9-0.6-1.6-0.6
	c-0.8,0-1.4,0.2-1.9,0.7c-0.5,0.5-0.7,1.1-0.7,1.9h-1.6c0-1.2,0.4-2.1,1.1-2.9c0.8-0.7,1.8-1.1,3-1.1c1.2,0,2.1,0.3,2.8,0.9
	c0.7,0.6,1,1.5,1,2.5c0,1.3-0.8,2.8-2.4,4.5l-3.4,3.7h6.4L266.8,377.3L266.8,377.3z"/>
<path d="M273.9,377.3h-1.6v-10.8l-3.3,1.2v-1.5l4.7-1.8h0.2V377.3L273.9,377.3z"/>
<path d="M294.7,374.5h-6.5v4.1h-1.4v-4.1h-8.3v-1.3h3v-4.8h5.4v-2.7h-4.4c-0.8,1.4-1.8,2.6-2.7,3.5c-0.2-0.2-0.8-0.7-1.1-0.9
	c1.7-1.5,3.2-3.8,4-6.2l1.4,0.3c-0.2,0.6-0.5,1.3-0.8,1.9h10.7v1.3h-5.7v2.7h5.3v1.3h-5.3v3.6h6.5L294.7,374.5L294.7,374.5z
	 M286.8,373.2v-3.6h-4v3.6H286.8z"/>
<path d="M254.2,398.1v1.3h-16v-1.3h6.7v-14h1.4v5.5h6.7v1.3h-6.7v7.1H254.2L254.2,398.1z"/>
<path d="M272.2,395.1h-7.4v5.1h-1.4v-5.1h-7.2v-1.3h7.2v-2.9h-6.1v-1.3h6.1v-5.8h1.4v5.8h6.3v1.3h-6.3v2.9h7.4V395.1z M259.9,388.8
	c-0.4-1.1-1.2-2.8-2.1-4l1.2-0.5c0.9,1.2,1.8,2.9,2.1,4L259.9,388.8z M270.5,384.7c-0.7,1.4-1.7,3-2.4,4.1l-1.2-0.5
	c0.7-1.1,1.7-2.8,2.2-4.1L270.5,384.7z"/>
<path d="M435.4,377.3H427v-1.2l4.4-4.9c0.7-0.7,1.1-1.4,1.4-1.8c0.2-0.5,0.4-0.9,0.4-1.4c0-0.7-0.2-1.2-0.6-1.6s-0.9-0.6-1.6-0.6
	c-0.8,0-1.4,0.2-1.9,0.7c-0.5,0.5-0.7,1.1-0.7,1.9h-1.6c0-1.2,0.4-2.1,1.1-2.9c0.8-0.7,1.8-1.1,3.1-1.1c1.2,0,2.1,0.3,2.8,0.9
	c0.7,0.6,1,1.5,1,2.5c0,1.3-0.8,2.8-2.4,4.5l-3.4,3.7h6.4L435.4,377.3L435.4,377.3z"/>
<path d="M445.1,371.8c0,1.9-0.3,3.3-1,4.2s-1.7,1.4-3.1,1.4c-1.4,0-2.4-0.5-3-1.4c-0.7-0.9-1-2.3-1-4.1v-2.2c0-1.9,0.3-3.3,1-4.2
	c0.6-0.9,1.7-1.4,3.1-1.4c1.4,0,2.4,0.4,3,1.3c0.7,0.9,1,2.2,1,4.1V371.8z M443.5,369.6c0-1.4-0.2-2.4-0.6-3c-0.4-0.6-1-0.9-1.8-0.9
	s-1.4,0.3-1.8,0.9c-0.4,0.6-0.6,1.6-0.6,2.9v2.6c0,1.4,0.2,2.4,0.6,3.1s1,1,1.8,1s1.4-0.3,1.8-0.9c0.4-0.6,0.6-1.6,0.6-2.9
	L443.5,369.6L443.5,369.6z"/>
<path d="M455.6,377.3h-8.4v-1.2l4.4-4.9c0.7-0.7,1.1-1.4,1.4-1.8c0.2-0.5,0.4-0.9,0.4-1.4c0-0.7-0.2-1.2-0.6-1.6s-0.9-0.6-1.6-0.6
	c-0.8,0-1.4,0.2-1.9,0.7c-0.4,0.5-0.7,1.1-0.7,1.9h-1.6c0-1.2,0.4-2.1,1.1-2.9c0.8-0.7,1.8-1.1,3.1-1.1c1.2,0,2.1,0.3,2.8,0.9
	c0.7,0.6,1,1.5,1,2.5c0,1.3-0.8,2.8-2.4,4.5l-3.4,3.7h6.4L455.6,377.3L455.6,377.3z"/>
<path d="M465.7,377.3h-8.4v-1.2l4.4-4.9c0.7-0.7,1.1-1.4,1.4-1.8c0.2-0.5,0.4-0.9,0.4-1.4c0-0.7-0.2-1.2-0.6-1.6
	c-0.4-0.4-0.9-0.6-1.6-0.6c-0.8,0-1.4,0.2-1.9,0.7c-0.5,0.5-0.7,1.1-0.7,1.9H457c0-1.2,0.4-2.1,1.1-2.9c0.8-0.7,1.8-1.1,3-1.1
	c1.2,0,2.1,0.3,2.8,0.9c0.7,0.6,1,1.5,1,2.5c0,1.3-0.8,2.8-2.4,4.5l-3.4,3.7h6.4L465.7,377.3L465.7,377.3z"/>
<path d="M483.5,374.5h-6.5v4.1h-1.4v-4.1h-8.3v-1.3h2.9v-4.8h5.4v-2.7h-4.4c-0.8,1.4-1.8,2.6-2.7,3.5c-0.2-0.2-0.8-0.7-1.1-0.9
	c1.7-1.5,3.2-3.8,4-6.2l1.4,0.3c-0.2,0.6-0.5,1.3-0.8,1.9h10.7v1.3h-5.7v2.7h5.3v1.3h-5.3v3.6h6.5L483.5,374.5L483.5,374.5z
	 M475.6,373.2v-3.6h-4v3.6H475.6z"/>
<path d="M443,398.1v1.3h-16v-1.3h6.7v-14h1.4v5.5h6.7v1.3H435v7.1H443L443,398.1z"/>
<path d="M460.9,395.1h-7.4v5.1h-1.4v-5.1h-7.2v-1.3h7.2v-2.9h-6.1v-1.3h6.1v-5.8h1.4v5.8h6.3v1.3h-6.3v2.9h7.4V395.1z M448.7,388.8
	c-0.4-1.1-1.2-2.8-2.1-4l1.2-0.5c0.9,1.2,1.8,2.9,2.1,4L448.7,388.8z M459.3,384.7c-0.7,1.4-1.7,3-2.4,4.1l-1.2-0.5
	c0.7-1.1,1.7-2.8,2.2-4.1L459.3,384.7z"/>
<path d="M341.5,377.3h-8.4v-1.2l4.4-4.9c0.7-0.7,1.1-1.4,1.4-1.8c0.2-0.5,0.4-0.9,0.4-1.4c0-0.7-0.2-1.2-0.6-1.6s-0.9-0.6-1.6-0.6
	c-0.8,0-1.4,0.2-1.9,0.7c-0.4,0.5-0.7,1.1-0.7,1.9h-1.6c0-1.2,0.4-2.1,1.1-2.9c0.8-0.7,1.8-1.1,3-1.1c1.2,0,2.1,0.3,2.8,0.9
	c0.7,0.6,1,1.5,1,2.5c0,1.3-0.8,2.8-2.4,4.5l-3.4,3.7h6.4L341.5,377.3L341.5,377.3z"/>
<path d="M351.3,371.8c0,1.9-0.3,3.3-1,4.2s-1.7,1.4-3,1.4c-1.4,0-2.4-0.5-3-1.4c-0.7-0.9-1-2.3-1-4.1v-2.2c0-1.9,0.3-3.3,1-4.2
	c0.6-0.9,1.7-1.4,3.1-1.4c1.4,0,2.4,0.4,3,1.3c0.6,0.9,1,2.2,1,4.1V371.8z M349.6,369.6c0-1.4-0.2-2.4-0.6-3c-0.4-0.6-1-0.9-1.8-0.9
	s-1.4,0.3-1.8,0.9c-0.4,0.6-0.6,1.6-0.6,2.9v2.6c0,1.4,0.2,2.4,0.6,3.1s1,1,1.8,1s1.4-0.3,1.8-0.9c0.4-0.6,0.6-1.6,0.6-2.9
	L349.6,369.6L349.6,369.6z"/>
<path d="M361.7,377.3h-8.4v-1.2l4.4-4.9c0.7-0.7,1.1-1.4,1.4-1.8c0.2-0.5,0.4-0.9,0.4-1.4c0-0.7-0.2-1.2-0.6-1.6s-0.9-0.6-1.6-0.6
	c-0.8,0-1.4,0.2-1.9,0.7c-0.4,0.5-0.7,1.1-0.7,1.9h-1.6c0-1.2,0.4-2.1,1.1-2.9c0.8-0.7,1.8-1.1,3-1.1c1.2,0,2.1,0.3,2.8,0.9
	c0.7,0.6,1,1.5,1,2.5c0,1.3-0.8,2.8-2.4,4.5l-3.4,3.7h6.4L361.7,377.3L361.7,377.3z"/>
<path d="M368.8,377.3h-1.6v-10.8l-3.3,1.2v-1.5l4.7-1.8h0.2V377.3L368.8,377.3z"/>
<path d="M389.6,374.5h-6.5v4.1h-1.3v-4.1h-8.3v-1.3h2.9v-4.8h5.4v-2.7h-4.4c-0.8,1.4-1.8,2.6-2.7,3.5c-0.2-0.2-0.8-0.7-1.1-0.9
	c1.7-1.5,3.2-3.8,4.1-6.2l1.3,0.3c-0.2,0.6-0.5,1.3-0.8,1.9h10.7v1.3h-5.7v2.7h5.3v1.3h-5.3v3.6h6.5L389.6,374.5L389.6,374.5z
	 M381.7,373.2v-3.6h-4v3.6H381.7z"/>
<path d="M341.4,386.5v3.2l0.2-0.3c2.1,1,5,2.6,6.4,3.7l-0.9,1.2c-1.2-1-3.6-2.5-5.7-3.6v9.5H340v-13.8h-6.9v-1.3H349v1.3
	L341.4,386.5L341.4,386.5z"/>
<path d="M367.1,395.1h-7.4v5.1h-1.4v-5.1h-7.2v-1.3h7.2v-2.9h-6.1v-1.3h6.1v-5.8h1.4v5.8h6.3v1.3h-6.3v2.9h7.4V395.1z M354.8,388.8
	c-0.4-1.1-1.2-2.8-2.1-4l1.2-0.5c0.9,1.2,1.8,2.9,2.1,4L354.8,388.8z M365.4,384.7c-0.7,1.4-1.7,3-2.4,4.1l-1.2-0.5
	c0.7-1.1,1.7-2.8,2.2-4.1L365.4,384.7z"/>
<path d="M49.6,348.2c0,2.8-1.1,5.9-3.7,5.9c-2.6,0-3.7-3.1-3.7-5.9c0-2.8,1.1-5.9,3.7-5.9C48.5,342.4,49.6,345.5,49.6,348.2z
	 M43.7,348.2c0,1.7,0.1,5.4,2.1,5.4s2.1-3.7,2.1-5.4s-0.1-5.3-2.1-5.3S43.7,346.5,43.7,348.2z"/>
<path d="M39.9,246.6h-3.6v-1h3.6v-1h1.2v1h2v1h-2v1h-1.2V246.6z M49.7,258c0,0.6-0.1,0.8-0.5,1c-0.4,0.2-1.1,0.2-2.1,0.2
	c-0.1-0.3-0.2-0.7-0.4-1c0.8,0,1.4,0,1.5,0c0.2,0,0.3-0.1,0.3-0.2v-3.4h-4.6v1.7l2-0.1c-0.2-0.4-0.5-0.7-0.7-1l0.9-0.3
	c0.7,0.9,1.4,2,1.7,2.9l-0.9,0.3c-0.1-0.3-0.2-0.6-0.4-0.9c-2.6,0.2-5.2,0.3-7,0.4l-0.1-1c0.9,0,2.1-0.1,3.5-0.1v-1.7h-4.5v4.6h-1.2
	v-4.6h-0.6v-1h0.6V253h1.2v0.6h4.5v-1h-4.6v-4.9h10.4v4.9h-4.7v1h5.8L49.7,258L49.7,258z M39.3,249.8h3.5v-1.2h-3.5V249.8z
	 M42.8,251.8v-1.2h-3.5v1.2H42.8z M50.3,245.6v1h-3.6v1h-1.2v-1h-1.9v-1h1.9v-1h1.2v1H50.3z M47.4,248.6h-3.5v1.2h3.5V248.6z
	 M47.4,250.6h-3.5v1.2h3.5V250.6z"/>
<path d="M17.5,255.9c0.8,0,1.4-0.1,1.7-0.4c0.3-0.3,0.5-0.5,0.6-0.7c0.1-0.1,0.3,0,0.4,0.1c-0.2,0.9-0.6,1.8-0.8,2.2
	c-0.7,0-1.5,0-2.3,0h-2.6c-1,0-1.6,0-2,0c0,0-0.1-0.1-0.1-0.2c0-0.1,0.1-0.1,0.2-0.2c0.8-0.5,1.4-1.1,2.8-2.6c1.2-1.3,2.6-3,2.6-4.9
	c0-1.6-0.8-2.6-2.3-2.6c-1.1,0-1.8,0.7-2.3,1.8c-0.2,0.1-0.4,0-0.4-0.2c0.6-1.6,2-2.5,3.6-2.5c1.8,0,3,1.2,3,2.9
	c0,1.1-0.5,2.3-1.9,4l-1.1,1.3c-1.5,1.7-1.6,2-1.6,2.1c0,0.1,0.1,0.2,0.6,0.2H17.5L17.5,255.9z"/>
<path d="M29,251.3c0,2.8-1.1,5.9-3.7,5.9s-3.7-3.1-3.7-5.9s1.1-5.9,3.7-5.9S29,248.6,29,251.3z M23.2,251.3c0,1.7,0.1,5.3,2.1,5.3
	s2.1-3.7,2.1-5.3s-0.1-5.4-2.1-5.4S23.2,249.6,23.2,251.3z"/>
<path d="M39.9,149.5h-3.6v-1h3.6v-1h1.2v1h2v1h-2v1h-1.2V149.5z M49.7,160.9c0,0.6-0.1,0.8-0.5,1c-0.4,0.2-1.1,0.2-2.1,0.2
	c-0.1-0.3-0.2-0.7-0.4-1c0.8,0,1.4,0,1.5,0c0.2,0,0.3-0.1,0.3-0.2v-3.4h-4.6v1.7l2-0.1c-0.2-0.4-0.5-0.7-0.7-1l0.9-0.3
	c0.7,0.9,1.4,2,1.7,2.9l-0.9,0.3c-0.1-0.3-0.2-0.6-0.4-0.9c-2.6,0.2-5.2,0.3-7,0.4l-0.1-1c0.9,0,2.1-0.1,3.5-0.1v-1.8h-4.5v4.6h-1.2
	v-4.6h-0.6v-1h0.6v-0.6h1.2v0.6h4.5v-1h-4.6v-4.9h10.4v4.9h-4.7v1h5.8L49.7,160.9L49.7,160.9z M39.3,152.7h3.5v-1.2h-3.5V152.7z
	 M42.8,154.7v-1.1h-3.5v1.1H42.8z M50.3,148.5v1h-3.6v1h-1.2v-1h-1.9v-1h1.9v-1h1.2v1H50.3z M47.4,151.6h-3.5v1.2h3.5V151.6z
	 M47.4,153.5h-3.5v1.1h3.5V153.5z"/>
<path d="M12.4,156.5c-0.2,0-0.2-0.1-0.2-0.3c0-0.2,0.1-0.3,0.3-0.7l5.8-8.1c0.1-0.2,0.2-0.2,0.4-0.2H19c0.2,0,0.3,0.1,0.3,0.1
	c0,0.1,0,0.1-0.1,0.2l-5.7,7.9c-0.2,0.3,0,0.3,0.5,0.3h2.8c0.4,0,0.5-0.1,0.5-0.5v-3.3c0-0.1,0-0.3,0.2-0.4c0.2-0.1,0.6-0.3,0.9-0.3
	c0.2,0,0.2,0.2,0.2,0.6v3.5c0,0.3,0,0.4,0.4,0.4h1.1c0.2,0.1,0.2,0.6,0,0.8h-1c-0.5,0-0.5,0-0.5,0.4v0.8c0,1.4,0,1.7,0.8,1.8
	l0.5,0.1c0.1,0.1,0.1,0.4,0,0.4c-0.7,0-1.3,0-1.9,0c-0.6,0-1.5,0-2.2,0c-0.1,0-0.1-0.3,0-0.4l0.8-0.1c0.8,0,0.8-0.4,0.8-1.8v-0.8
	c0-0.4,0-0.4-0.5-0.4H12.4L12.4,156.5z"/>
<path d="M29,154.2c0,2.8-1.1,5.9-3.7,5.9s-3.7-3.1-3.7-5.9s1.1-5.9,3.7-5.9S29,151.5,29,154.2z M23.2,154.2c0,1.7,0.1,5.3,2.1,5.3
	s2.1-3.7,2.1-5.3c0-1.7-0.1-5.4-2.1-5.4S23.2,152.6,23.2,154.2z"/>
<path d="M39.9,51h-3.6v-1h3.6v-1h1.2v1h2v1h-2v1h-1.2V51z M49.7,62.4c0,0.6-0.1,0.8-0.5,1c-0.4,0.2-1.1,0.2-2.1,0.2
	c-0.1-0.3-0.2-0.7-0.4-1c0.8,0,1.4,0,1.5,0c0.2,0,0.3-0.1,0.3-0.2V59h-4.6v1.7l2-0.1c-0.2-0.4-0.5-0.7-0.7-1l0.9-0.3
	c0.7,0.9,1.4,2,1.7,2.8l-0.9,0.3c-0.1-0.3-0.2-0.6-0.4-0.9c-2.6,0.2-5.2,0.3-7,0.4l-0.1-1c0.9,0,2.1-0.1,3.5-0.1V59h-4.5v4.6h-1.2
	V59h-0.6v-1h0.6v-0.6h1.2V58h4.5v-1h-4.6v-4.8h10.4V57h-4.7v1h5.8L49.7,62.4L49.7,62.4z M39.3,54.2h3.5v-1.1h-3.5V54.2z M42.8,56.2
	V55h-3.5v1.2H42.8z M50.3,50v1h-3.6v1h-1.2v-1h-1.9v-1h1.9v-1h1.2v1H50.3z M47.4,53.1h-3.5v1.1h3.5V53.1z M47.4,55h-3.5v1.2h3.5V55z
	"/>
<path d="M15,51.5c1.9-1.8,4.1-2.4,5.2-2.6c0.1,0,0.2,0.3,0.1,0.4c-1.1,0.4-2.7,0.9-4,2.3c-1.5,1.6-2.1,3.6-2.1,5.5
	c0,2.1,0.7,4,2.5,4c1.3,0,2-1.2,2-2.8s-0.7-3-2.2-3c-0.4,0-0.7,0.1-0.8,0.1c-0.1-0.1-0.1-0.2,0-0.3c0.5-0.3,1.1-0.5,1.8-0.5
	c1.7,0,2.9,1.4,2.9,3.2c0,2.1-1.6,3.8-3.8,3.8c-2.6,0-3.9-2-3.9-4.5C12.5,55.6,13,53.4,15,51.5L15,51.5z"/>
<path d="M29,55.7c0,2.8-1.1,5.9-3.7,5.9s-3.7-3.1-3.7-5.9c0-2.8,1.1-5.9,3.7-5.9S29,53,29,55.7z M23.2,55.7c0,1.7,0.1,5.3,2.1,5.3
	s2.1-3.7,2.1-5.3c0-1.7-0.1-5.4-2.1-5.4S23.2,54,23.2,55.7z"/>
<path class="st0" d="M59.7,350.7h418"/>
<path class="st0" d="M59.7,56.2h418"/>
<path class="st0" d="M59.7,159.9h418"/>
<path class="st0" d="M59.7,255.3h418"/>
<path class="st0" d="M59.7,56.2v294.5"/>
<path class="st0" d="M164.3,56.2v294.5"/>
<path class="st0" d="M269,56.2v294.5"/>
<path class="st0" d="M373.6,56.2v294.5"/>
<path class="st0" d="M478.2,56.2v294.5"/>
<path class="st1" d="M59.7,133.6l108.6-6.4l100.4-38.8l103.5,22L477.6,100"/>
</svg>
