<?xml version="1.0" encoding="UTF-8"?><svg xmlns="http://www.w3.org/2000/svg" viewBox="0 0 900 460"><defs><style>.c{fill:#f3e9d2;stroke:#aaa;stroke-miterlimit:10;stroke-width:.5px;}</style></defs><g id="a"/><g id="b"><g><polygon class="c" points="781.71 130.63 785.84 134.28 788.33 132.46 784.69 130.92 787.76 130.15 792.94 132.46 793.03 129.96 796.59 128.04 793.71 124.87 783.53 121.23 781.71 121.23 785.33 127.75 782.77 127.75 781.71 130.63"/><polygon class="c" points="795.7 140.9 789.15 133.9 786.32 135.34 786.32 139.08 789.15 139.08 789.15 144.84 784.89 149.1 783.72 148.2 783.72 153.28 781.32 152.71 775.56 153.28 771.83 157.6 771.83 159.24 769.62 161.44 775.95 167.78 777.53 166.19 777.53 161.92 773.84 159.62 779.98 156.74 783.82 156.74 783.82 158.85 786.08 161.11 790.3 156.88 794 156.88 794 154.53 796.59 154.53 796.59 151.75 795.7 150.86 795.7 140.9"/></g><polygon class="c" points="778.49 158.46 778.49 159.18 779.93 159.18 779.93 157.99 781.7 157.99 783.14 159.43 781.7 160.87 780.22 160.87 780.22 162.77 778.78 162.77 777.52 160.18 777.52 158.64 778.49 158.46"/><polygon class="c" points="640.81 239.48 640.81 248.69 642.54 252.15 646.85 249.84 646.85 246.39 642.44 239.48 640.81 239.48"/><g><polygon class="c" points="762.97 226.81 768.13 230.69 769.86 227.67 765.39 224.07 762.22 224.79 760.21 221.77 760.21 218.46 761.94 218.46 762.94 214.86 761.21 210.78 756.08 209.96 756.08 217.74 754.59 217.74 758.19 225.8 762.97 226.81"/><polygon class="c" points="759.83 230.69 761.07 230.69 761.07 227.48 757.71 226.61 759.83 230.69"/><polygon class="c" points="764.43 239.38 767.41 242.26 771.44 239 768.7 234.82 767.31 236.21 763.38 232.28 763.38 236.89 766.45 236.89 766.45 239.38 764.43 239.38"/><polygon class="c" points="771.3 232.52 769.86 233.96 772.98 237.85 775.09 235.25 773.74 233.91 773.74 231.61 772.4 230.07 769.86 230.69 771.3 232.52"/><polygon class="c" points="777.96 246.68 775.09 238.42 773.17 238.9 773.91 241.56 771.44 244.04 766.88 244.04 762.9 248.02 763.95 248.02 765.78 246.2 770.26 246.2 770.26 249.91 773.17 252.82 774.32 252.82 774.32 247.44 777.01 247.44 777.01 250.32 777.96 246.68"/></g><polygon class="c" points="750.52 244.76 758.34 236.93 756.66 235.25 750.04 243.6 750.52 244.76"/><polygon class="c" points="845.3 424.77 850.48 426.21 877.83 411.38 877.83 408.21 875.1 408.21 874.95 406.2 845.3 424.77"/><polygon class="c" points="880.14 408.36 881.72 409.8 898.42 397.56 896.98 396.26 893.1 397.56 890.36 396.26 891.94 393.82 890.51 388.49 887.62 387.1 887.62 394.68 880.43 401.88 882.73 404.76 880.14 408.36"/><g><polygon class="c" points="789.19 311.46 790.64 310.31 790.64 308.78 786.8 308.78 787.32 309.59 789.19 311.46"/><polygon class="c" points="839.25 350.62 839.25 345.59 837.23 345.59 837.23 338.24 830.47 331.48 830.47 320.68 825.72 320.68 825.72 311.61 823.85 311.61 823.85 306.71 821.54 306.71 818.57 317.08 818.57 321.25 815.49 330.76 812.62 330.76 801.89 320.03 807.14 312.62 805.56 310.45 803.11 311.89 793.76 309.59 793.71 312.9 788.33 312.9 783.25 317.99 783.25 321.35 779.65 321.35 776.17 317.87 761.46 328.26 761.46 332.48 734.58 344.77 731.51 352.64 733.62 357.44 730.55 360.13 730.55 380.47 728.7 382.32 728.7 385.85 731.16 388.31 737.84 388.31 742.82 383.34 752.63 383.34 755.19 380.77 776.91 376.83 783.92 379.51 783.92 388.31 785.12 387.1 792.68 379.55 793.71 381.15 787.71 388.31 788.86 389.21 792.31 386.47 790.44 390.36 793.71 390.36 793.71 398.45 800.52 400.73 804.7 398.45 807.43 400.73 819.53 396.26 823.13 390.65 834.93 379.99 843.14 365.6 843.14 354.51 839.25 350.62"/><polygon class="c" points="803.88 408.73 800.09 406.34 798.07 408.36 798.07 412.32 797.14 413.03 797.14 416.28 800.45 416.28 802.43 414.3 803.62 414.3 809.75 408.16 808.3 407.06 803.88 408.73"/></g><g><polygon class="c" points="851.35 287.71 850.34 287.71 849.04 289.54 840.98 289.54 841.7 291.95 844.79 291.95 846.02 293.18 850.98 290.44 853.22 290.44 853.22 285.91 851.35 285.91 851.35 287.71"/><polygon class="c" points="849.4 280.8 854.87 284.97 854.87 287.35 856.17 287.35 856.17 284.47 849.4 279.72 849.4 280.8"/><polygon class="c" points="859.69 289 862.36 294.98 864.02 294.98 864.02 292.53 860.77 288.64 859.69 289"/><polygon class="c" points="865.2 293.07 865.09 294.48 867.76 296.63 869.63 296.63 869.63 295.99 868.12 295.99 865.2 293.07"/><polygon class="c" points="874.95 300.31 874.95 298.47 872.29 296.63 870.71 296.63 870.71 297.64 872.51 297.64 873.88 300.31 874.95 300.31"/><polygon class="c" points="865.09 299.01 867.97 301.39 869.63 301.39 869.63 300.02 865.09 297.14 865.09 299.01"/><polygon class="c" points="873.59 304.05 877.12 304.05 877.12 302.97 873.59 301.89 873.59 304.05"/><polygon class="c" points="843.91 303.3 843.91 301.87 841.51 301.87 837.09 294.19 840.45 294.19 839.49 291.5 834.5 289.58 833.83 286.51 831.43 284.97 830.57 284.97 821.25 280.69 821.25 302.69 824.81 303.11 827.97 297.55 834.6 298.99 839.01 306.18 844 306.18 846.69 307.91 847.55 305.9 845.25 303.3 843.91 303.3"/></g><path class="c" d="M531.43,134.04l1.87,1.15h1.78v-.46l-.76-.76-.28-1.78-4-1.8h-3.02l-8.54-3.22-1.41,.32c1.91,1.91,3.84,3.84,3.91,3.91,.14,.14,0,1.44,0,1.44l-1.15,1.15h4.17l1.44,1.44h4.56l1.44-1.39Z"/><polygon class="c" points="531.13 140.28 531.62 139.67 534.24 141.32 534.53 142.68 536.14 142.58 535.8 140.23 533.31 139.27 534.03 138.41 530.91 135.43 530 135.43 525.44 135.43 525.97 135.96 528.89 142.02 530.81 139.85 531.13 140.28"/><g><polygon class="c" points="531.62 139.67 531.13 140.28 532.97 142.77 534.53 142.68 534.24 141.32 531.62 139.67"/><polygon class="c" points="539.9 132.96 537.87 135.24 535.37 132.79 534.05 132.2 534.33 133.98 535.08 134.74 535.08 135.19 533.31 135.19 531.43 134.04 530 135.43 530.91 135.43 534.03 138.41 533.31 139.27 535.8 140.23 536.11 142.38 538.73 139.94 540.46 140.37 540.15 143.09 542.04 143.99 542.04 142.25 543.24 141.05 543.24 138.7 544.99 137.74 539.9 132.96"/></g><polygon class="c" points="557.97 209.55 549.84 209.55 544.08 215.31 542.91 214.14 532.73 213.37 532.73 216.06 531.33 217.4 531.39 217.5 534.84 229.49 559.12 219.7 559.12 217.5 561.7 216.07 558.49 209.3 557.97 209.55"/><polygon class="c" points="567.36 189.16 569.58 189.16 568.15 185.73 562.2 192.35 556.8 192.35 558.65 195.81 565.94 196.38 565.95 196.39 567.36 192.11 567.36 189.16"/><polygon class="c" points="580.05 196.96 576.21 193.02 570.36 191.01 569.58 189.16 567.36 189.16 567.36 192.11 565.95 196.39 567.96 198.49 566.42 205.31 558.49 209.3 561.7 216.07 574.68 208.86 580.05 196.96"/><polygon class="c" points="555 190.22 555 184.48 553.37 184.48 552.18 187.61 553.79 190.81 555 190.22"/><polygon class="c" points="539.86 175.26 534.53 174.83 522.08 165.04 518.19 165.04 513.15 167.42 515.09 169.65 514.38 172.02 512.29 172.02 510.63 175.26 506.56 174.09 505.76 178.91 508.45 178.91 531.33 217.4 532.73 216.06 532.73 213.37 542.91 214.14 544.08 215.31 549.84 209.55 557.97 209.55 566.42 205.31 567.96 198.49 565.94 196.38 558.65 195.81 556.8 192.35 556.44 192.35 555 190.91 555 190.22 553.79 190.81 552.18 187.61 552.02 188.03 545.5 177.18 545.5 172.55 541.22 171.88 539.86 175.26"/><polygon class="c" points="509.73 160.22 509.73 158.53 510.45 158.53 510.45 157.59 508.04 155.94 508.04 156.98 506.29 162.04 507.91 162.04 509.73 160.22"/><polygon class="c" points="508.04 161.91 507.91 162.04 506.29 162.04 504.08 168.43 504.01 168.43 506.62 173.73 506.56 174.09 506.97 174.21 508.04 168.53 508.04 161.91"/><polygon class="c" points="510.73 164.59 512 164.59 522.65 157.46 522.65 152.95 522.65 151.96 522.65 150.5 523.95 150.5 526.06 148.39 525.25 148.39 520.44 148.39 518.53 150.31 509.7 150.31 508.04 151.96 508.04 155.94 510.45 157.59 510.45 158.53 509.73 158.53 509.73 160.22 508.04 161.91 508.04 162.88 509.02 162.88 510.73 164.59"/><polygon class="c" points="543.53 168.74 542.67 168.74 542.67 165.43 541.18 163.94 540.07 163.94 538.59 162.45 536.88 162.45 536.88 161.32 534.56 159 534.56 156.84 535.8 155.59 536.81 155.59 536.81 155.16 536.14 154.48 536.14 152.28 534.22 152.28 531.74 148.39 530.43 148.39 529.47 148.39 526.06 148.39 523.95 150.5 522.65 150.5 522.65 151.96 522.65 152.95 522.65 157.46 516.74 161.41 518.27 165.04 522.08 165.04 534.53 174.83 539.86 175.26 541.22 171.88 545.5 172.55 545.5 172.5 543.53 170.61 543.53 168.74"/><polygon class="c" points="585.52 183.14 588.21 183.14 588.21 180.74 585.91 180.74 585.91 176.9 584.37 176.9 579.43 171.95 581.78 169.6 581.78 167.2 579.57 167.2 578.03 160.87 577.27 160.1 577.27 150.31 575.35 150.31 568.44 146.47 565.56 146.47 565.56 145.13 559.32 145.13 559.32 147.81 556.68 147.81 556.68 148.87 551.74 150.31 546.27 147.43 543.67 147.43 542.04 144.36 542.04 144.17 542.04 143.99 540.15 143.09 540.46 140.37 538.73 139.94 536.11 142.38 536.14 142.58 534.53 142.68 532.97 142.77 531.13 140.28 530.81 139.85 528.89 142.02 531.96 148.39 531.74 148.39 534.22 152.28 536.14 152.28 536.14 154.48 536.81 155.16 536.81 155.59 535.8 155.59 534.56 156.84 534.56 159 536.88 161.32 536.88 162.45 538.59 162.45 540.07 163.94 541.18 163.94 542.67 165.43 542.67 168.74 543.53 168.74 543.53 170.61 545.5 172.5 545.5 171.57 549.48 171.57 554.09 179.25 556.61 179.44 561.53 183.61 567.28 183.61 567.28 181.98 570.93 181.98 570.93 184.77 583.7 187.23 583.7 184.96 585.52 183.14"/><path class="c" d="M633.58,111.26v-2.56l-1.32-.3h-4.27l-5.33-5.33-4.8,.86-2.11-1.97-2.01,1.68-12.81-10.37v-2.16l-4.08,4.08h-2.59v-2.5h-6.81l-2.21-3.74-5.28-.1-16.41,4.22-1.05,1.15,1.15,2.3-1.25,3.65,4.03,1.44v2.74h-5.9l-1.68-1.68h-4.61l-1.73,1.73-8.44-3.65h-4.32l-5.85,3.17,1.82,1.82-1.1,1.1-2.83-2.83-1.73,1.73v6.05h1.92v2.54h2.73l4.32,4.32,.57-.58,3.99-2.06h5.18l1.77,1.78v3.31h-5.42l-2.49,2.5v1.25h1.73l3.74,3.74h2.45v2.49l.72,2.4,.58-1.92h1.92l.07,.16,1.37-.54,2.11,1.54,1.25,2.02h1.44l-2.59-12.19,7.01-1.82,1.58,.87-.86-2.07,.86-1.87,1.87,.72,2.74,4.46-.56,.99,1.86,1.02,2.88,2.88h8.16l2.59,2.59v1.73h2.69v3.07h4.32v2.21h2.5l4.6-6.24v-1.34h5.95v-1.25h2.11l1.31,1.31h10.88l4.22,1.28,.77-3.07-4.03-5.47,3.45-1.25,2.98,.6v-1.17l-1.25-1.25v-3.94h6.71v-1.34l-1.25-1.25v-1.7h2.09Zm-17.35,5.69h-9.21l-2.35,2.35,.19,3.26-2.59-1.44v-3.46l2.11-2.11h11.85v1.39Z"/><polygon class="c" points="582.88 154.29 582.88 152.66 586.82 151.08 586.82 147.57 591.14 147.57 591.14 144.65 588.21 144.65 582.24 141.65 575.35 134.76 570.28 134.76 570.28 132.91 567.43 130.06 565.13 130.06 565.13 131.83 563.4 131.83 563.4 134.76 559.93 134.47 559.99 134.76 558.55 134.76 557.3 132.74 555.19 131.21 553.82 131.75 554.62 133.51 556.63 135.05 556.25 136.58 551.93 136.58 551.93 139.17 553.85 139.17 556.68 142.01 556.68 147.81 559.32 147.81 559.32 145.13 565.56 145.13 565.56 146.47 568.44 146.47 575.35 150.31 577.27 150.31 577.27 152.99 580.87 154.29 582.88 154.29"/><polygon class="c" points="596.01 145.32 592.48 141.36 592.48 139.85 595.29 139.85 598.89 135.74 600.4 136.58 599.54 137.35 600.83 138.46 604.05 138.46 606.16 136.34 601.94 133.85 601.94 135.1 598.48 133.85 600.21 131.93 599.38 131.46 595.03 137.35 592.53 137.35 592.53 135.14 588.21 135.14 588.21 132.07 585.52 132.07 585.52 130.34 582.93 127.75 574.77 127.75 571.89 124.87 570.03 123.85 568.72 126.17 565.84 125.47 566.56 123 565.99 121.62 564.41 120.75 557.4 122.57 559.93 134.47 563.4 134.76 563.4 131.83 565.13 131.83 565.13 130.06 567.43 130.06 570.28 132.91 570.28 134.76 575.35 134.76 582.24 141.65 588.21 144.65 591.14 144.65 591.14 146.99 594.5 148.05 596.01 145.32"/><polygon class="c" points="306.92 249.26 305.84 249.26 305.05 250.05 303.56 249.05 306.38 246.45 302.94 246.45 302.94 248.32 301.74 249.52 298.09 249.52 298.09 251.73 299.44 253.08 295.04 257.47 296.75 259.17 301.11 259.17 304.14 256.15 307.11 256.15 308.22 252.81 308.22 250.72 308.89 250.05 306.92 250.05 306.92 249.26"/><g><polygon class="c" points="308.89 250.05 310.86 248.08 309.22 246.45 306.38 246.45 303.56 249.05 305.05 250.05 305.84 249.26 306.92 249.26 306.92 250.05 308.89 250.05"/><polygon class="c" points="327.65 255 326.98 252.81 325.93 253.94 323.43 253.94 324.58 252.21 322.28 247.92 321.39 247.92 319.47 246 317.34 243.86 317.34 242.57 319.78 240.12 319.78 239.25 314.6 239.25 316.71 237.14 316.71 236.09 313.93 236.09 311.62 238.39 309.51 238.39 309.51 241.27 308.65 242.13 308.65 244.34 308.07 244.34 309.03 245.3 309.61 244.72 309.61 245.92 310.71 245.92 311.91 244.72 312.54 245.35 311.29 246.6 312.1 247.41 315.18 247.41 315.56 250.29 315.56 252.81 311.53 252.81 311.91 254.32 311.91 256.44 310.18 256.44 310.18 257.59 311.82 257.59 313.64 258.16 316.23 257.59 314.79 259 312.13 259 308.07 263.06 309.32 263.06 312.63 261.86 313.93 260.56 315.66 260.56 316.62 261.52 324.49 260.47 326.21 258.64 324.77 258.64 327.65 255"/><polygon class="c" points="307.21 238.97 309.32 237.24 306.54 236.76 306.54 238.2 305.58 238.49 306.54 240.98 307.21 238.97"/><polygon class="c" points="318.73 233.69 316.9 233.69 316.9 235.13 317.81 235.13 318.73 233.69"/></g><polygon class="c" points="448.99 23.32 460.41 28.56 465.84 23.32 471.27 26.97 474.45 24.44 468.08 21.82 478.38 21.82 478.38 19.39 466.59 18.45 448.99 19.95 448.99 23.32"/><polygon class="c" points="460.38 48.35 458.58 48.35 448.94 55.12 448.94 56.63 447.14 56.63 447.14 58.65 445.05 60.73 445.92 61.53 445.92 62.87 442.51 62.87 442.51 73.91 441.07 77.65 439.71 78.44 443.37 85.04 442.8 86.86 439.63 88.02 439.63 90.42 442.6 90.22 442.6 89.27 443.57 89.27 447.31 89.27 447.31 86.96 451.43 86.96 453.62 80.32 457.34 76.59 457.34 75.97 453.55 72.18 453.55 67.67 460.7 63.3 462.47 61.53 461.32 60.47 463.82 57.97 465.93 57.97 465.93 51.38 460.38 48.35"/><g><polygon class="c" points="428.73 115.32 428.73 113.98 430.22 113.74 431.81 109.95 423.75 106.64 422.74 107.21 417.39 102.42 415.15 103.85 415.15 105.77 411.22 107.02 411.22 108.65 408.15 108.56 408.15 107.02 405.84 107.5 406.71 108.75 406.71 110.48 403.73 110.76 402.96 109.71 398.64 110.96 399.32 113.36 404.21 114.7 404.31 115.76 407.28 118.73 405.78 127.12 411.29 130.2 412.3 129.14 417.98 130.4 417.98 129.05 420.86 127.32 425.47 128.83 427.63 128.83 430.94 126.35 428.5 125.02 428.5 118.49 426.46 118.49 426.46 117.6 428.73 115.32"/><polygon class="c" points="434.68 129.14 434.68 130.1 432.91 130.1 432.91 132.65 433.8 134.33 434.68 134.33 434.68 132.6 435.55 132.6 435.55 129.14 434.68 129.14"/></g><polygon class="c" points="390.09 145.23 389.31 144.46 389.31 143.3 390.53 142.68 389.31 139.94 391.64 139.94 391.64 135.91 392.98 134.57 392.98 132.98 388.18 132.98 388.18 132.17 386.17 132.17 386.17 136.58 383.38 142.92 384.63 144.17 384.63 149.06 388.37 147.91 388.78 147.91 388.78 146.54 390.09 145.23"/><polygon class="c" points="412.3 129.14 411.29 130.2 405.78 127.12 405.65 127.85 403.15 127.27 392.02 127.27 389.65 126.53 387.99 128.19 386.02 128.19 385.02 129.19 386.17 130.34 386.17 132.17 388.18 132.17 388.18 132.98 392.98 132.98 392.98 134.57 391.64 135.91 391.64 139.94 389.31 139.94 390.53 142.68 389.31 143.3 389.31 144.46 390.09 145.23 388.78 146.54 388.78 147.91 390.29 147.91 391.64 149.25 391.64 150.89 393.75 152.23 397.11 149.24 402.83 149.24 408.55 143.52 408.55 139.99 411.72 136.68 411.72 135.6 417.98 132.79 417.98 130.4 412.3 129.14"/><polygon class="c" points="470.3 45.45 474.09 45.45 477.16 46.65 477.67 47.45 481 46.01 481 44.34 469.67 43 456.33 45.59 449.8 48.95 449.8 47.71 446.54 49.91 442.8 49.91 442.8 50.87 446.73 50.87 446.7 51.8 442.15 56.34 442.15 58.77 435.84 65.08 434.16 65.08 434.16 64.12 425.42 68.15 425.42 78.03 430.89 81.49 437.61 77.94 439.44 77.94 439.71 78.44 441.07 77.65 442.51 73.91 442.51 62.87 445.92 62.87 445.92 61.53 445.05 60.73 447.14 58.65 447.14 56.63 448.94 56.63 448.94 55.12 458.58 48.35 460.38 48.35 462.01 49.24 470.3 49.24 470.3 45.45"/><polygon class="c" points="482.53 64.31 482.53 62.49 481.19 61.14 481.19 57.78 478.31 54.62 480.09 51.54 476.87 50.58 476.87 47.8 477.67 47.45 477.16 46.65 474.09 45.45 470.3 45.45 470.3 49.24 462.01 49.24 465.93 51.38 465.93 57.97 469.35 57.97 469.35 60.05 463.46 65.94 463.46 71.34 467.46 75.35 477.83 73.24 479.13 72.32 479.56 72.75 485.12 68.22 485.12 66.9 482.53 64.31"/><g><polygon class="c" points="433.97 135.05 432.91 136.05 431.28 136.05 431.28 137.02 432.41 138.14 432.41 142.2 433.97 142.2 433.97 141.62 435.55 141.62 435.55 137.93 436.24 137.23 435.55 135.05 433.97 135.05"/><polygon class="c" points="459.02 139.56 459.81 137.98 452.82 134.3 453.9 133.22 453.33 132.58 450.23 132.72 447.43 130.49 446.28 127.25 442.75 124.44 443.25 122.79 442.39 121.06 445.68 120 445.68 118.49 442.08 116.14 437.9 116.67 436.94 118.4 434.92 118.2 433.76 119.31 432.55 118.2 431.28 119.48 428.5 119.48 428.5 125.02 430.94 126.35 433.39 124.51 436.85 126.03 437.64 129.55 444.83 135.31 446.13 135.24 451.02 139.13 451.96 138.91 452.97 142.22 451.89 144.17 446.42 144.74 445.7 145.46 444.26 145.1 443.18 146.4 450.45 150.21 451.31 148.77 450.38 147.33 451.68 145.25 453.19 145.82 456.21 142.65 456.21 140.78 454.05 139.78 455.49 137.61 459.02 139.56"/></g><polygon class="c" points="436.94 114.08 430.8 114.08 430.27 113.63 430.22 113.74 428.73 113.98 428.73 115.32 426.46 117.6 426.46 118.49 428.5 118.49 428.5 119.48 431.28 119.48 432.55 118.2 433.76 119.31 434.92 118.2 436.94 118.4 437.77 116.9 435.31 115.61 436.94 114.08"/><polygon class="c" points="426.46 102.92 423.99 101.73 418.91 101.45 417.39 102.42 422.74 107.21 423.75 106.64 425.65 107.42 427.56 105.47 426.46 102.92"/><polygon class="c" points="427.27 101.08 426.26 101.08 426.26 100.38 428.15 100.38 429.21 99.32 429.21 98.6 428.24 98.6 428.24 97.92 429.57 97.92 429.57 96.33 429.05 95.41 426 95.41 423.12 97.04 423.12 98.77 418.91 101.45 423.99 101.73 426.46 102.92 426.49 103.01 427.27 102.09 427.27 101.08"/><polygon class="c" points="436.01 89.24 438.81 86.43 438.14 85.76 436.94 84.56 438 83.51 438 82.38 436.58 82.38 435.02 83.94 433.53 83.94 431.85 85.62 431.85 89.36 433.7 91.2 436.01 90.43 436.01 89.24"/><polygon class="c" points="448.12 100.42 448.12 97.95 447.09 96.92 447.27 93.67 445 91.41 442.54 91.41 440.88 93.07 438.27 93.07 437.03 91.83 436.01 90.8 436.01 90.43 433.7 91.2 434.06 91.57 434.06 94.45 433.1 94.45 433.1 95.41 431.57 95.41 431.57 94.45 429.17 94.45 429.17 95.41 429.05 95.41 429.57 96.33 429.57 97.92 428.24 97.92 428.24 98.6 429.21 98.6 429.21 99.32 428.15 100.38 426.26 100.38 426.26 101.08 427.27 101.08 427.27 102.09 426.49 103.01 427.56 105.47 425.65 107.42 431.81 109.95 430.27 113.63 430.8 114.08 434.88 114.08 436.94 114.08 436.61 114.39 443.61 113.63 444.15 111.84 446.71 110.4 442.03 108.03 442.03 105.08 447.5 103.01 449.16 103.01 449.16 101.45 448.12 100.42"/><polygon class="c" points="458.73 105.72 458.73 107.96 458.55 108.14 466.61 108.14 467.95 109.47 468.63 109.47 468.63 107.56 470.89 105.29 472.3 105.29 472.3 103.82 470.89 102.41 470.89 99.68 469.38 99.68 469.38 97.88 471.18 97.88 471.18 96.08 469.96 94.86 469.96 92.05 467.85 92.05 461.32 92.05 460.84 92.53 457.67 92.53 457.67 91.47 452.59 91.47 447.39 93.79 447.27 93.67 447.09 96.92 448.12 97.95 448.12 100.42 449.16 101.45 449.16 102.69 454.41 105.72 458.73 105.72"/><polygon class="c" points="474.33 81.06 475.96 82.69 478.21 82.69 478.21 82.31 479.27 81.59 477.69 78.61 478.94 77.6 478.89 76.49 478.69 76.59 470.34 76.59 466.89 78.71 464.97 79.76 465.74 80.82 467.85 80.34 468.42 79.28 469.58 80.44 471.01 80.44 471.01 81.77 472.74 81.06 474.33 81.06"/><polygon class="c" points="449.16 109.76 451.1 109.76 454.5 110.83 454.5 110.83 454.5 110.83 455.53 111.16 458.55 108.14 458.49 108.14 458.55 108.14 458.73 107.96 458.73 105.72 454.41 105.72 449.16 102.69 449.16 103.01 447.5 103.01 442.03 105.08 442.03 108.03 446.71 110.4 445.94 110.84 449.16 110.84 449.16 109.76"/><polygon class="c" points="468.18 90.66 465.93 90.66 465.4 89.89 464.44 89.89 463.17 90.2 461.32 92.05 467.85 92.05 468.18 90.66"/><polygon class="c" points="450.57 119.74 451.43 119.74 451.43 118.73 452.75 117.41 452.91 116.32 451.74 117.48 446.3 117.48 445.33 118.27 445.68 118.49 445.68 120 446.42 119.76 446.56 120.8 450.57 120.8 450.57 119.74"/><polygon class="c" points="451.74 117.48 452.91 116.32 453.22 116.01 455.17 112.68 454.5 110.83 451.1 109.76 449.16 109.76 449.16 110.84 445.94 110.84 444.15 111.84 443.61 113.63 436.61 114.39 435.31 115.61 437.77 116.9 437.9 116.67 442.08 116.14 445.33 118.27 446.3 117.48 451.74 117.48"/><polygon class="c" points="451.57 123.42 454.22 121.99 460.36 122.33 460.36 119.48 458.97 119.48 458.97 120.22 456.81 120.22 452.75 117.41 451.43 118.73 451.43 119.74 450.57 119.74 450.57 120.8 446.56 120.8 446.56 120.84 445.63 121.99 448.22 124.08 448.87 122.43 449.8 125.67 459.26 130.91 454.7 126.55 451.57 123.42"/><polygon class="c" points="465.93 86.07 472.77 86.07 473.7 87.01 474.85 87.01 476.37 88.52 477.19 88.52 479.1 88.52 480.82 86.71 479.85 84.75 479.85 83.41 478.21 83.41 478.21 82.69 475.96 82.69 474.33 81.06 472.74 81.06 471.01 81.77 471.01 85.03 468.91 85.03 466.89 83.01 464.69 83.01 462.95 84.75 462.95 87.63 463.34 88.22 463.62 86.76 465.93 86.07"/><polygon class="c" points="474.28 93.13 474.85 93.51 475.65 92.8 475.11 92.23 475.65 90.42 477.55 89.89 477.19 88.52 476.37 88.52 474.85 87.01 473.7 87.01 472.77 86.07 465.93 86.07 463.62 86.76 463.34 88.22 463.41 88.33 464.06 89.31 463.17 90.2 464.44 89.89 465.4 89.89 465.93 90.66 468.18 90.66 467.85 92.05 469.96 92.05 469.96 93.88 472.12 93.88 474.28 93.13"/><polygon class="c" points="473.13 100.33 476.22 100.33 476.62 100.73 479.2 100.73 479.68 101.21 483.33 101.21 483.85 101.73 487.67 101.73 487.67 102.52 488.28 102.52 488.28 100.79 489.41 99.82 489.4 99.82 489.4 96.18 492.71 96.18 492.71 94.35 487.62 90.99 487.62 88.35 481 87.06 480.82 86.71 479.1 88.52 477.19 88.52 477.55 89.89 475.65 90.42 475.11 92.23 475.65 92.8 474.85 93.51 474.28 93.13 472.12 93.88 469.96 93.88 469.96 94.86 471.18 96.08 471.18 97.88 469.38 97.88 469.38 99.68 470.89 99.68 470.89 101.51 471.95 101.51 473.13 100.33"/><polyline class="c" points="490.46 119.35 490.55 119.26 490.55 117.48 492.37 117.48 494.29 117.48 494.29 118.83 498.51 118.83 498.42 119.5 495.3 120.89 495.3 121.56 497.22 121.56 497.22 122.09 498.54 122.09 498.54 123.79 499.71 124.97 502.98 123.19 502.98 122.19 506.19 122.19 506.19 121.13 502.8 121.1 501.34 119.64 501.34 118.78 503.74 116.62 505.85 116.62 509.89 115.65 509.89 112.44 513.54 112.44 513.54 106.46 508.1 106.46 506.62 104.98 501.75 104.98 496.6 99.82 489.41 99.82 488.28 100.79 488.28 102.52 487.67 102.52 487.67 101.73 483.85 101.73 483.33 101.21 479.68 101.21 479.2 100.73 476.62 100.73 476.22 100.33 473.13 100.33 471.95 101.51 470.89 101.51 470.89 102.41 472.3 103.82 472.3 105.29 470.89 105.29 468.63 107.56 468.63 109.47 468.03 109.47 467.76 111.48 470.1 113.03 474.17 113.03 475.21 113.93 476.15 113.93 476.78 113.3 478.49 113.3 480.33 111.47 482.48 111.47 486.42 113.12 486.42 114.7 488.46 116.74 488.46 117.48 485.94 117.48 485.94 119.79 484.52 121.08 485.56 122.07 486.67 121.18 487.81 121.11 487.81 120.19 488.82 120.19 489.44 118.7"/><polygon class="c" points="484.21 116.67 483.74 120.81 484.57 121.04 485.94 119.79 485.94 117.48 488.46 117.48 488.46 116.74 486.42 114.7 486.42 113.12 482.48 111.47 480.33 111.47 479.74 112.05 481.04 113.86 484.21 116.67"/><polygon class="c" points="459.45 113.61 459.45 112.56 464.96 112.56 465.95 111.57 467.9 111.57 467.76 111.48 468.03 109.47 467.95 109.47 466.61 108.14 458.55 108.14 455.53 111.16 454.5 110.83 455.17 112.68 455.12 112.79 456.5 113.61 459.45 113.61"/><polygon class="c" points="468.43 114.01 468.43 115.67 465.54 118.56 463.62 118.56 463.62 119.09 464.42 120.43 467.76 123.77 470.49 123.77 470.49 125.54 470.49 125.63 471.97 127.11 478.97 127.11 480.61 125.47 484.1 125.78 486.19 127.32 486.23 127.32 486.23 123.29 488.48 123.29 488.48 121.32 490.46 119.35 489.44 118.7 488.82 120.19 487.81 120.19 487.81 121.11 486.67 121.18 485.56 122.07 484.52 121.08 484.57 121.04 483.74 120.81 484.21 116.67 481.04 113.86 479.74 112.05 478.49 113.3 476.78 113.3 476.15 113.93 475.21 113.93 474.17 113.03 470.1 113.03 470.04 112.99 469.53 114.01 468.43 114.01"/><polygon class="c" points="463.62 118.56 465.54 118.56 468.43 115.67 468.43 114.01 469.53 114.01 470.04 112.99 467.9 111.57 465.95 111.57 464.96 112.56 459.45 112.56 459.45 113.61 456.5 113.61 455.12 112.79 453.22 116.01 452.91 116.32 452.75 117.41 456.81 120.22 458.97 120.22 458.97 119.48 460.36 119.48 460.36 119.55 461.73 118.56 463.62 118.56"/><polygon class="c" points="460.53 127.36 461.73 127.36 461.73 125.52 460.79 124.58 461.47 123.9 461.47 122.71 460.36 122.15 460.36 122.33 454.22 121.99 451.57 123.42 454.7 126.55 455.94 128.12 456.65 128.8 457.14 129.27 459.26 130.91 459.09 129.05 460.53 127.36"/><polygon class="c" points="465.07 132.13 463.84 130.9 462.31 130.9 461.25 131.96 460.62 131.96 461.68 132.79 461.39 138.34 464.06 140.42 464.18 140.61 464.82 140.61 464.82 138.79 465.59 138.79 466.79 137.59 466.79 136.46 464.92 135.24 465.07 132.13"/><polygon class="c" points="469.81 131.27 469.81 131.35 465.89 131.71 465.27 132.33 465.07 132.13 464.92 135.24 466.79 136.46 466.79 136.44 468.38 136.44 468.38 135.14 470.24 135.14 470.85 134.53 471.4 134.53 471.4 132.94 469.81 131.27"/><polygon class="c" points="482.92 132.07 484.21 132.21 484.21 127.32 486.19 127.32 484.1 125.78 480.61 125.47 478.97 127.11 471.97 127.11 470.49 125.63 470.49 125.54 470 125.78 470 127.14 471.18 128.32 471.18 129.52 469.81 129.52 469.81 131.27 471.4 132.94 471.4 134.53 472.13 134.53 472.84 133.82 475.26 133.82 476.08 134.64 479.56 134.64 479.56 133.31 480.41 133.31 480.51 133.41 481.07 132.33 482.92 132.07"/><polygon class="c" points="518.53 150.31 520.44 148.39 525.25 148.39 529.47 148.39 530.43 148.39 531.96 148.39 525.97 135.96 524 133.99 519.82 133.99 517.9 135.91 511.23 135.91 511.23 135 506.86 135 504.22 132.36 498.27 132.36 493.62 134.33 493.62 135 487.96 135 484.21 132.22 484.21 132.21 482.92 132.07 481.07 132.33 480.51 133.41 481.07 133.97 481.07 134.93 480.59 134.93 480.59 136.45 482.48 136.39 483.57 136.03 487.52 136.03 488.89 136.54 487.74 137.76 482.7 137.69 480.11 139.06 481.91 143.52 484.79 149.89 488.71 149.89 490.12 151.29 492.99 151.29 492.99 148.85 495.44 148.85 498.25 151.65 502.35 151.65 504.01 150 508.04 150 508.04 151.96 509.7 150.31 518.53 150.31"/><g><polygon class="c" points="472.98 147.12 470.03 145.03 470.68 144.31 474.49 146.9 474.49 145.25 477.66 146.4 477.66 145.75 475.28 144.45 474.78 142.87 470.75 137.69 475.93 135.89 480.25 136.46 480.59 136.45 480.59 134.93 481.07 134.93 481.07 133.97 480.41 133.31 479.56 133.31 479.56 134.64 476.08 134.64 475.26 133.82 472.84 133.82 472.13 134.53 470.85 134.53 470.24 135.14 468.38 135.14 468.38 136.44 466.79 136.44 466.79 137.59 465.59 138.79 464.82 138.79 464.82 140.61 464.18 140.61 466.5 144.24 468.45 144.6 467.29 146.25 468.01 148.41 469.38 149.85 469.53 148.92 470.82 150.29 471.47 149.71 472.34 151.36 473.13 150.5 472.12 147.98 472.98 147.12"/><polygon class="c" points="480.11 154.1 478.36 154.1 478.06 153.8 476.15 153.8 475.94 153.59 473.94 153.62 473.94 155.04 476.53 155.04 477.59 155.83 481.48 155.83 481.48 154.73 480.11 154.73 480.11 154.1"/><rect class="c" x="477.95" y="148.44" width="1.54" height=".89"/><rect class="c" x="475.93" y="149.76" width=".79" height=".5"/><rect class="c" x="483.49" y="152.64" width=".84" height="1.82"/><rect class="c" x="480.3" y="146.76" width=".93" height="1.17"/><rect class="c" x="479.68" y="143.69" width=".91" height="1.49"/><rect class="c" x="479.96" y="149.18" width=".8" height=".83"/><rect class="c" x="485.34" y="151.1" width="1.25" height="1.34"/></g><polygon class="c" points="470 127.14 470 125.78 470.49 125.54 470.49 123.77 467.76 123.77 464.42 120.43 463.62 119.09 463.62 118.56 461.73 118.56 460.36 119.55 460.36 122.15 461.47 122.71 461.47 123.9 460.79 124.58 461.73 125.52 461.73 127.36 461.52 127.36 463.76 130.9 463.84 130.9 465.27 132.33 465.89 131.71 469.81 131.35 469.81 129.52 471.18 129.52 471.18 128.32 470 127.14"/><polygon class="c" points="460.53 127.36 459.09 129.05 459.26 130.91 460.62 131.96 461.25 131.96 462.31 130.9 463.76 130.9 461.52 127.36 460.53 127.36"/><g><polygon class="c" points="521.41 39.74 522.75 42.52 528.51 43.67 535.8 44.15 536.28 42.62 530.71 38.97 536.28 32.63 550.68 28.99 550.68 27.36 544.92 27.36 544.44 27.84 535.52 27.84 526.49 32.06 521.41 39.74"/><polygon class="c" points="584.56 19.68 593.49 22.65 603.28 23.13 603.28 20.73 590.99 16.99 584.56 19.68"/><polygon class="c" points="605.2 21.41 605.2 25.34 608.37 25.34 614.99 24.19 614.99 23.13 609.04 21.41 605.2 21.41"/><polygon class="c" points="685.25 29.37 685.73 31.48 692.16 33.12 701.66 32.06 701.66 30.43 685.25 29.37"/><polygon class="c" points="704.64 31.24 704.64 32.25 714.43 33.12 714.43 31.24 704.64 31.24"/><polygon class="c" points="699.55 34.07 699.55 35.99 706.84 37.05 706.84 36.09 699.55 34.07"/><polygon class="c" points="787.13 42.3 789.43 43.96 794.91 43.13 794.91 41.73 790.3 41.15 787.13 42.3"/><polygon class="c" points="764.31 91.76 782.49 109.94 781.66 110.4 779.57 108.32 777.49 108.32 779.07 113.21 785.33 118.18 784.47 118.54 781.95 117.39 782.24 119.48 781.16 119.48 778.2 116.52 777.41 112.35 775.29 110.22 770.79 104.29 770.79 102.63 767.34 100.33 766.69 98.17 764.31 95.93 765.25 94.42 763.38 92.26 764.31 91.76"/><path class="c" d="M817.32,58.93l2.21-.48,12.09,3.84,2.21-1.54-3.46-2.11,1.63-.48-.96-1.92-9.22-3.07h-4.7l-30.33-6.81-11.33-.96,2.49,2.02-1.05,1.06-7.2-2.74h-18.86l-2.06-2.06-14.11-.29-10.46-2.21v-1.25l-21.12-1.83,1.25,3.74-15.07-1.44v3.26l-13.25-7.97h-9.89v2.01l-11.04-1.44-14.69-.86-9.89,2.5v-.67l9.12-4.7v-1.25l-5.09-2.78h-10.95v-1.15h-4.7v-1.15h-7.01v2.59l-23.04,3.65,1.15,3.65h-11.04l2.79,3.07-.96,1.06-3.65-.96-3.65,.86-3.74-3.55h-1.06l1.44,2.97-1.92,1.54,4.42,6.34,6.81,.58,3.17,3.65-.86,.58-2.79-2.59h-3.36l-2.59,6.53-2.59-1.06,2.02-4.99-3.36-1.44-2.5-5.09-1.82-1.82v-3.94h-7.97v3.07l-1.15,1.15,.29,3.74,6.72,2.98-.77,2.21-8.16-3.46-14.4-3.74-.38,1.63,6.14,3.07-2.78,2.11-1.25-2.59-6.86,1.68-.91,.91h-2.59v-1.92l-12,4.03v1.94h-3.81l-1.56-1.56v-1.58h1.78l-1.78-1.78h-3.46v3.46l1.92,.96-.77,2.4-4.13-1.15-4.03,2.97,1.63,2.69-8.16-1.73-.39,1.54,3.46,.96,.1,1.54-7.01-1.73-.86-4.13-5.28-2.78v-1.15l15.12,3.98,3.02-3.02-1.05-2.5-12.38-4.03-10.08-1.82v-.15l-4.13,1.79v2.78l3.22,.96-1.78,3.07,2.88,3.17v3.36l1.35,1.34v1.82l2.59,2.59v1.32l-5.57,4.53,1.44,1.44h2.59v1.06h-2.3l-2.39,1.24,.04,1.11-1.25,1.01,1.58,2.97-1.06,.72v1.1h1.63v1.34l1.15,2.3,6.62,1.3v2.64l5.09,3.36v1.82h-3.31v3.65h7.2l5.16,5.16h4.87l1.48,1.48h5.43v5.99h-3.65v3.21l2.59-.62v.96l-1.92,1.25h-1.48v.67l1.58,1.06-1.34,.86v1.3l-1.44,.38,3.46,2.18h1.94s1.89,1.89,3.79,3.79l1.41-.32,8.54,3.22h3.02l5.33,2.4,2.5,2.45,2.03-2.28-3.71-3.48v-3.36l-2.88-1.25v-2.01l2.21-2.21h1.54l1.97-1.97-4.32-4.32h-2.73v-2.54h-1.92v-6.05l1.73-1.73,2.83,2.83,1.1-1.1-1.82-1.82,5.85-3.17h4.32l8.44,3.65,1.73-1.73h4.61l1.68,1.68h5.9v-2.74l-4.03-1.44,1.25-3.65-1.15-2.3,1.05-1.15,16.41-4.22,5.28,.1,2.21,3.74h6.81v2.5h2.59l4.08-4.08v2.16l12.81,10.37,2.01-1.68,2.11,1.97,4.8-.86,5.33,5.33h4.27l4.03,.91,8.44-5.33h6.05v2.3h9.5v-3.02l-1.44-1.44v-3.02l10.08,3.17,3.4,3.4h3.94l1.27-1.27,8.96,2.91,1.87,1.73h11.18l2.89-2.88,9.69,2.17,2.3-2.41v-6.8l-2.3-2.3,1.66-1.66h10.44l13.06,13.06h6.08l6.17,6.17h4.48v-2.75h5.33v10.65h-4.47l4.52,7.53,.81-.81h7.01l4.03-17.37-5.09-11.61-2.98-3.74-8.73-3.84v2.4l-10.84-3.55,6.33-15.17h18.14l3.84,1.34v1.83l6.52-2.02v-1.25h-2.88v-7.01h6.91l3.65,3.65,2.78-2.78-1.63-2.3,2.98-.1,2.59,3.94-2.49,6.72,1.24,1.25-2.45,6.19,17.9,17.9,3.22-3.22-1.68-1.68,2.3-2.3-3.27-3.26h2.74v-1.49l-2.88-2.88,1.39-1.39-5.38-5.76h-3.17l-3.36-6.62h4.13l1.06,1.06h1.54v-1.87h7.92l6.09-6.09,5.85,.67,.1-1.25-10.94-5.37,2.02-1.82-2.97-2.11,1.44-.77,4.13,1.92Zm-135.14,37.29l-3.46,2.88v1.44l-3.74,1.44-2.88-1.44,4.18-1.3v-1.58l1.44-1.44,1.95-1.94v-6.12h.93l1.58,4.46v3.6Z"/></g><polygon class="c" points="361.21 58.74 364.67 63.92 372.34 65.46 384.44 58.74 380.79 55.67 368.5 58.17 366.39 55.67 361.21 58.74"/><polygon class="c" points="751.18 194.27 754.74 198.88 756.08 198.88 756.08 188.13 753.59 187.65 751.18 194.27"/><polygon class="c" points="721.15 207.51 721.15 210.78 724.6 210.78 726.66 208.71 726.66 206.65 722.78 206.65 721.15 207.51"/><polygon class="c" points="747.82 133.9 749.02 132.99 751.95 133.9 751.5 132.37 754.84 130.46 754.84 129.1 755.42 128.65 757.08 129.55 759.37 129.55 759.4 129.52 754.88 121.99 759.35 121.99 759.35 111.34 754.02 111.34 754.02 114.09 749.54 114.09 743.36 107.92 737.28 107.92 724.22 94.86 713.78 94.86 712.12 96.51 714.43 98.81 714.43 105.62 712.12 108.03 709.1 107.35 709.1 112.64 716.8 112.64 723.57 116.74 723.57 117.75 714.21 117.75 714.21 121.13 710.18 121.13 710.18 123.4 707.12 123.4 705.86 122.14 704.27 122.14 704.27 124.51 706.58 126.53 704.35 127.9 704.35 129.7 702.26 130.99 695.71 130.99 691.6 133.8 682.18 131.93 682.18 130.34 666.44 130.34 662.31 125.07 655.49 121.42 647.91 121.42 647.91 117.48 643.01 113.55 636.39 110.38 636.06 109.27 633.58 108.71 633.58 111.27 631.49 111.27 631.49 112.97 632.74 114.22 632.74 115.56 626.03 115.56 626.03 119.5 627.27 120.75 627.27 121.92 624.3 121.32 620.84 122.57 624.88 128.04 624.11 131.11 624 131.08 624.25 133.03 622.71 133.03 621.42 133.03 621.42 135.58 616.23 135.58 616.23 137.98 613.35 137.98 613.35 137.11 609.76 138.7 609.76 140.61 609.25 140.59 609.25 142.58 610.45 143.78 611.28 142.95 614.51 144.38 614.07 146.32 615.01 147.48 613.72 148.63 615.95 148.63 618.11 150.57 618.11 152.44 623.87 154.6 627.32 152.52 630.99 154.03 630.99 156.84 629.81 158.02 629.81 158.78 627.68 158.78 628.55 160.94 630.27 160.94 630.99 162.88 629.63 164.11 628.47 163.1 627.32 164.11 629.19 165.69 629.12 167.42 636.68 171.88 638.41 170.15 654.89 179.51 659.21 178.22 660.08 178.72 660.08 180.74 660.87 180.74 663.03 177.35 667.92 179.3 670.94 179.3 670.94 178.29 675.05 174.18 677.71 175.34 679.66 173.97 682.03 175.77 680.81 177.06 683.9 178.07 684.77 177.06 688.22 180.16 688.22 186.71 686.71 188.22 686.71 192.25 690.53 192.25 691.25 194.99 693.26 194.99 693.26 198.37 695.13 198.37 695.13 200.39 698.66 200.39 698.66 201.4 700.32 201.4 700.32 197.29 701.4 197.29 701.4 196.29 706.87 196.29 708.67 195.71 708.67 194.12 709.96 194.12 711.55 195.71 714.21 195.71 714.21 198.3 718.44 200.38 719.42 199.07 724.41 200.32 724.41 203.96 726.04 203.96 725.75 200.7 740.82 195.32 747.92 187.65 752.82 177.28 752.82 172.58 748.21 171.04 750.52 168.16 743.13 158.56 738.61 156.16 741.69 148.97 745.24 148.97 745.24 147.53 739.33 145.75 736.07 149.01 729.59 142.53 737.32 134.81 740.68 138.17 737.7 141.14 739.67 143.11 745.62 139.27 745.63 139.27 748.48 135.24 747.82 133.9"/><polygon class="c" points="601.94 135.1 598.48 133.85 600.21 131.93 599.38 131.46 599.63 131.11 599.63 129.76 605.58 129.76 605.58 128.52 607.69 128.52 609 129.82 619.88 129.82 624.11 131.11 624.25 133.03 621.42 133.03 621.42 135.58 616.23 135.58 616.23 137.98 613.35 137.98 613.35 137.11 609.76 138.7 609.76 140.61 607.93 140.52 607.93 141.29 601.33 140.98 600.93 140.57 597.23 140.57 596.75 139.46 598.81 138.07 600.69 138.98 600.79 138.42 604.05 138.46 606.16 136.34 601.94 133.85 601.94 135.1"/><polygon class="c" points="759.54 143.88 755.02 140.23 759.15 136.1 757.81 133.9 758.34 130.58 759.37 129.55 757.08 129.55 755.42 128.65 754.84 129.1 754.84 130.46 751.5 132.37 751.95 133.9 749.02 132.99 747.82 133.9 748.48 135.24 745.63 139.27 749.36 140.71 748.88 145.32 756.85 146.66 759.55 143.89 759.54 143.88"/><polygon class="c" points="765.87 149.73 759.55 143.89 756.85 146.66 756.85 146.66 757.04 148.39 755.12 149.45 758.38 152.32 759.35 157.41 766.26 155.3 765.87 149.73"/><g><polygon class="c" points="717.69 279.31 714.43 279.31 714.43 274.03 712.31 274.03 712.31 271.06 696.19 258.77 694.46 254.16 690.24 254.16 688.89 252.82 685.25 252.82 697.34 265.3 697.34 271.92 699.45 271.92 703.1 280.46 713.66 291.02 717.69 291.02 717.69 279.31"/><polygon class="c" points="737.27 294.28 731.61 292.94 731.61 294.86 725.08 294.28 725.08 292.84 718.75 291.69 715.39 294.38 719.51 294.95 719.03 296.11 741.78 300.71 741.78 297.16 737.27 296.2 737.27 294.28"/><polygon class="c" points="755.99 298.89 751.38 298.31 750.42 299.99 743.13 298.89 743.13 300.43 749.65 301.67 755.99 300.71 755.99 298.89"/><polygon class="c" points="773.31 298.72 757.26 299.99 757.26 300.71 762.8 300.71 773.31 299.99 773.31 298.72"/><polygon class="c" points="754.95 302.97 754.95 304.48 757.26 304.48 758.91 306.14 760.53 304.52 758.44 302.43 754.95 302.97"/><polygon class="c" points="774.25 299.99 767.41 306.14 769.42 306.71 779.65 299.99 779.07 298.72 774.25 299.99"/><polygon class="c" points="725.27 280.56 722.39 279.6 721.24 281.52 723.74 282.96 725.27 280.56"/><polygon class="c" points="718.27 278.35 718.27 281.8 719.99 281.8 719.99 280.08 718.94 276.81 716.06 276.43 716.54 278.35 718.27 278.35"/><polygon class="c" points="777.58 278.21 771.92 277.01 771.92 278.83 776.53 278.83 776.53 280.17 777.58 278.21"/><polygon class="c" points="776.91 281.8 776.91 283.15 779.02 284.97 780.65 283.39 779.65 281.8 776.91 281.8"/><polygon class="c" points="782.38 281.32 783.72 283.39 787.66 283.39 789.67 284.97 791.21 283.39 789.67 281.32 782.38 281.32"/><polygon class="c" points="783.05 272.11 783.05 270.29 785.45 271.06 785.45 269.81 784.47 268.82 785.45 266.26 783.82 266.26 785.45 263.76 784.2 263.28 782.38 264.14 780.65 269.14 781.52 270.29 781.52 272.21 780.17 272.21 780.17 274.03 784.11 274.03 783.05 272.11"/><polygon class="c" points="792.41 272.06 789.87 271.49 789.87 273.36 792.41 273.36 792.41 272.06"/><polygon class="c" points="811.18 276.04 809.45 277.77 809.45 279.6 807.82 279.6 804.84 282.57 801.96 282.57 801.96 279.41 800.91 279.41 801.58 276.24 800.71 273.84 798.6 273.84 797.74 272.97 795.24 272.97 794.19 274.03 789.58 274.03 791.21 277.2 794.86 277.2 794.86 279.12 799.08 279.12 799.08 280.46 794.19 280.46 794.19 281.32 798.22 284.97 799.37 283.39 811.66 289.87 813.58 296.49 810.98 296.49 810.21 298.79 817.22 298.79 819.14 302.44 821.25 302.69 821.25 280.69 811.18 276.04"/><polygon class="c" points="755.47 283.63 757.26 283.63 757.26 290.16 759.83 290.16 759.83 281.8 761.84 279.79 762.85 280.8 762.85 284.11 763.83 285.09 763.83 287.76 765.28 287.76 765.28 286.8 768.08 286.8 768.08 285.07 766.83 285.07 765.24 283.48 766.49 282.23 763.38 279.12 768.32 274.17 768.32 273.17 766.08 275.41 763.66 275.41 762.72 276.35 760.53 276.35 760.53 274.89 759.73 274.89 759.73 270.67 761.26 269.9 772.11 270.86 775.88 267.09 775.04 266.26 771.89 269.4 762.32 267.21 758.34 269.42 758.34 274.03 757.26 274.03 757.26 278.16 755.47 279.95 755.47 283.63"/><polygon class="c" points="729.77 281.8 735.16 281.8 735.16 282.96 738.71 282.96 738.71 281.8 743.13 281.8 743.13 286.22 748.12 284.11 748.12 277.49 751.91 273.69 751.91 268.56 755.99 268.56 756.47 267.21 753.59 264.34 754.37 263.56 751.2 260.39 752.87 258.72 751.35 257.47 746.53 257.47 746.53 261.15 743.65 267.7 740.2 267.7 739.33 266.83 737.46 266.83 735.73 268.56 732.06 268.56 730.37 266.59 729.11 266.59 728.58 264.53 725.73 267.38 725.73 271.92 729.77 275.96 729.77 281.8"/></g><g><polygon class="c" points="750.8 246.96 744.95 255.51 744.04 254.59 737.61 261.02 733.43 261.46 733.43 266.59 730.37 266.59 732.06 268.56 735.73 268.56 737.46 266.83 739.33 266.83 740.2 267.7 743.65 267.7 746.53 261.15 746.53 257.47 751.35 257.47 752.87 258.72 757.71 253.87 750.8 246.96"/><polygon class="c" points="710.59 255.22 706.81 251.09 704.42 252.82 703.12 252.82 703.12 251.07 700.82 249.48 699.95 250.25 700.89 251.28 701.66 257.52 704.44 260.31 704.44 262.23 711.35 267.89 712.79 269.61 713.75 269.61 714.04 265.58 710.59 262.13 710.59 255.22"/></g><polygon class="c" points="601.26 147.05 601.26 143.97 604.91 143.97 604.91 149.41 610 147.53 614.49 146.83 614.07 146.32 614.51 144.38 611.28 142.95 610.45 143.78 609.25 142.58 609.25 140.59 607.93 140.52 607.93 141.29 601.33 140.98 600.93 140.57 597.23 140.57 596.75 139.46 598.81 138.07 600.69 138.98 600.79 138.42 599.54 137.35 600.4 136.58 598.89 135.74 595.29 139.85 592.48 139.85 592.48 141.36 596.01 145.32 594.69 147.7 595.89 149.41 601.26 147.05"/><polygon class="c" points="592.39 173.63 594.71 172.63 594.71 169.24 595.84 168.11 597.95 168.11 597.95 166.96 599.2 165.91 601.12 165.91 601.12 166.96 602.22 166.96 602.22 161.83 604.69 161.83 604.69 160.87 602.94 159.62 602.94 159 606.69 159 606.69 153.38 605.2 151.89 605.2 150.26 609.04 148.85 613.07 149.41 614.14 148.63 613.72 148.63 615.01 147.48 614.49 146.83 610 147.53 604.91 149.41 604.91 143.97 601.26 143.97 601.26 147.05 595.89 149.41 594.69 147.7 594.5 148.05 591.14 146.99 591.14 147.57 586.82 147.57 586.82 151.08 582.88 152.66 582.88 154.29 580.87 154.29 577.27 152.99 577.27 160.1 578.03 160.87 579.57 167.2 581.78 167.2 581.78 169.6 579.43 171.95 580.28 172.8 584.32 173.63 592.39 173.63"/><polygon class="c" points="610.5 190.91 610.5 188.22 607.71 185.43 607.71 183.04 605.39 183.04 605.39 181.41 607.8 179 609.25 179 609.92 179.66 612.11 179.66 612.69 176.42 614.92 174.18 614.92 172.17 616.42 172.17 616.42 170.23 618.05 168.59 618.05 165.69 618.91 164.83 618.91 163.71 616.96 163.71 616.96 161.84 615.02 159.91 615.02 158.2 614.06 157.24 614.06 156.26 619.8 156.26 622.64 154.14 618.11 152.44 618.11 150.57 615.95 148.63 614.14 148.63 613.07 149.41 609.04 148.85 605.2 150.26 605.2 151.89 606.69 153.38 606.69 159 602.94 159 602.94 159.62 604.69 160.87 604.69 161.83 602.22 161.83 602.22 166.96 601.12 166.96 601.12 165.91 599.2 165.91 597.95 166.96 597.95 168.11 595.84 168.11 594.71 169.24 594.71 172.63 592.39 173.63 584.32 173.63 580.28 172.8 584.37 176.9 585.91 176.9 585.91 180.74 588.21 180.74 588.21 183.14 585.52 183.14 583.7 184.96 583.7 187.23 584.37 187.36 598.48 187.36 603.95 192.83 603.95 190.91 610.5 190.91"/><polygon class="c" points="634.95 176.2 645.1 181.74 654.61 183.76 658.63 184.12 659.28 183.04 658.35 181.38 658.19 178.52 654.89 179.51 638.41 170.15 636.68 171.88 636 171.48 634.95 172.75 634.95 176.2"/><polygon class="c" points="664.32 183.18 664.95 182.25 669.36 183.18 669.79 180.88 667.78 180.45 667.87 179.28 663.03 177.35 660.87 180.74 660.48 180.74 660.29 182.18 664.32 183.18"/><polygon class="c" points="671.95 192.97 670.8 192.97 670.8 195.13 669 195.13 669 190.99 670.26 190.99 672.31 188.94 671.16 187.79 663.6 187.79 663.6 185.81 662.27 185.81 660.72 184.26 659.21 185.78 661.59 188.15 659.93 188.15 659.93 191.03 661.23 191.03 662.09 191.89 661.52 192.9 664.09 199.86 669.02 198.01 669.02 196.29 670.85 196.29 672.77 201.08 672.78 201.1 674.26 200.68 671.95 192.97"/><polygon class="c" points="675.55 197.44 674.26 196.43 674.26 195.06 675.27 195.06 675.27 192.68 677.35 192.68 678.72 188.8 677.73 187.81 678.97 186.57 678.97 183.65 681.17 181.46 683.22 181.46 683.22 180.05 683.83 179.44 683.83 178.05 680.81 177.06 682.03 175.77 679.66 173.97 677.71 175.34 675.05 174.18 670.94 178.29 670.94 179.3 667.92 179.3 667.87 179.28 667.78 180.45 669.79 180.88 669.36 183.18 664.95 182.25 664.32 183.18 660.29 182.18 660.48 180.74 660.08 180.74 660.08 178.72 659.21 178.22 658.19 178.52 658.35 181.38 659.28 183.04 658.63 184.12 654.61 183.76 645.1 181.74 634.95 176.2 634.95 172.75 636 171.48 629.12 167.42 629.19 165.69 627.32 164.11 628.47 163.1 629.63 164.11 630.99 162.88 630.27 160.94 628.55 160.94 627.68 158.78 629.81 158.78 629.81 158.02 630.99 156.84 630.99 154.03 627.32 152.52 623.87 154.6 622.64 154.14 619.8 156.26 614.06 156.26 614.06 157.24 615.02 158.2 615.02 159.91 616.96 161.84 616.96 163.71 618.91 163.71 618.91 164.83 618.05 165.69 618.05 168.59 616.42 170.23 616.42 172.17 614.92 172.17 614.92 174.18 612.69 176.42 612.11 179.66 609.92 179.66 609.25 179 607.8 179 605.39 181.41 605.39 183.04 607.71 183.04 607.71 185.43 610.5 188.22 610.5 190.91 603.95 190.91 603.95 192.83 606.64 195.52 609.8 195.52 609.8 197.2 606.11 197.2 612.44 203.53 614.99 200.99 614.99 197.53 616.52 197.53 620.07 216.82 624.88 224.5 624.88 226.71 630.68 238.04 630.68 241.83 633.32 244.47 636.1 244.47 636.1 240.63 638.02 240.63 638.02 237.08 640.52 237.08 640.52 218.17 646.28 217.31 646.28 215.29 653.57 206.84 657.7 203.77 657.7 200.89 662.11 198.68 662.11 200.6 664.09 199.86 661.52 192.9 662.09 191.89 661.23 191.03 659.93 191.03 659.93 188.15 661.59 188.15 659.21 185.78 660.72 184.26 662.27 185.81 663.6 185.81 663.6 187.79 671.16 187.79 672.31 188.94 670.26 190.99 669 190.99 669 195.13 670.8 195.13 670.8 192.97 671.95 192.97 673.57 198.37 675.55 198.37 675.55 197.44"/><polygon class="c" points="697.62 232.42 695.96 229.33 695.96 225.84 692.9 222.42 692.9 220.65 694.13 220.65 694.13 217.77 689.81 211.15 689.81 206.15 693.19 206.15 693.19 204.92 694.49 204.92 694.49 203.96 695.92 203.96 698.46 200.39 695.13 200.39 695.13 198.37 693.26 198.37 693.26 194.99 691.25 194.99 690.53 192.25 686.71 192.25 686.71 188.22 688.22 186.71 688.22 180.16 684.77 177.06 683.9 178.07 683.83 178.05 683.83 179.44 683.22 180.05 683.22 181.46 681.17 181.46 678.97 183.65 678.97 186.57 677.73 187.81 678.72 188.8 677.35 192.68 675.27 192.68 675.27 195.06 674.26 195.06 674.26 196.43 675.55 197.44 675.55 198.37 673.57 198.37 674.26 200.68 672.78 201.1 680.83 212.89 680.83 219.22 684.67 219.22 687.65 216.82 687.84 214.04 690.53 217.78 695.04 230.93 694.58 241.36 697.62 233.54 697.62 232.42"/><polygon class="c" points="705.93 229.78 705.02 226.66 707.56 224.12 713.51 224.12 713.51 219.66 711.21 217.35 711.21 213.47 708.57 210.83 706.65 210.83 704.49 212.99 703.05 211.55 700.84 213.75 699.79 213.75 699.79 206.84 697.58 206.84 697.58 204.59 696.06 203.77 695.92 203.96 694.49 203.96 694.49 204.92 693.19 204.92 693.19 206.15 689.81 206.15 689.81 211.15 694.13 217.77 694.13 220.65 692.9 220.65 692.9 222.42 695.96 225.84 695.96 229.33 697.62 232.42 697.62 233.54 694.58 241.36 694.46 244.18 699.95 250.25 700.82 249.48 703.12 251.07 703.12 252.82 704.42 252.82 706.81 251.09 704.44 248.5 701.95 248.5 699.45 241.11 697.63 241.11 696.76 239.19 698.59 231.89 698.59 227.38 701.66 227.38 701.66 229.78 704.25 229.78 705.21 231.99 706.56 231.51 706.79 231.73 706.89 229.78 705.93 229.78"/><polygon class="c" points="722.87 219.99 712.89 207.8 718.44 200.38 714.21 198.3 714.21 195.71 711.55 195.71 709.96 194.12 708.67 194.12 708.67 195.71 706.87 196.29 701.4 196.29 701.4 197.29 701.32 197.29 703.63 199.6 703.63 201.28 706.6 202.91 707.18 202.33 711.01 205.4 709.82 206.59 708.7 206.59 708.01 207.29 719.3 218.58 718.68 219.19 720.26 220.76 721.15 230.55 716.44 232.57 716.44 234.73 717.3 234.73 717.3 235.73 714.14 235.73 714.14 237.24 712.8 237.24 713.56 237.94 713.56 243.03 715.1 243.03 725.46 233.72 725.94 229.69 722.87 219.99"/><polygon class="c" points="716.44 232.57 721.15 230.55 720.51 223.59 716.2 223.59 716.2 225.85 712.26 224.12 707.56 224.12 705.02 226.66 705.93 229.78 706.89 229.78 706.79 231.73 708.61 235.55 710.98 235.58 712.8 237.24 714.14 237.24 714.14 235.73 717.3 235.73 717.3 234.73 716.44 234.73 716.44 232.57"/><polygon class="c" points="506.97 174.21 508.04 168.53 508.04 162.88 509.02 162.88 510.73 164.59 512 164.59 516.74 161.41 518.19 165.04 513.15 167.42 515.09 169.65 514.38 172.02 512.29 172.02 510.63 175.26 506.97 174.21"/><polygon class="c" points="881.58 339.18 880 334.64 878.12 335.65 880.57 342.2 886.4 348.18 887.99 346.52 881.58 339.18"/><polygon class="c" points="643.01 113.55 647.91 117.48 647.91 121.42 655.49 121.42 662.31 125.07 666.44 130.34 682.18 130.34 682.18 131.93 691.6 133.8 695.71 130.99 702.26 130.99 704.35 129.7 704.35 127.9 706.58 126.53 704.27 124.51 704.27 122.14 705.86 122.14 707.12 123.4 710.18 123.4 710.18 121.13 714.21 121.13 714.21 117.75 723.57 117.75 723.57 116.74 716.8 112.64 709.1 112.64 709.1 107.35 702.43 105.86 699.55 108.75 688.37 108.75 686.5 107.02 677.54 104.12 676.27 105.38 672.33 105.38 668.93 101.98 658.85 98.81 658.85 101.84 660.29 103.28 660.29 106.3 650.79 106.3 650.79 104 644.74 104 636.3 109.32 636.06 109.27 636.39 110.38 643.01 113.55"/><polyline class="c" points="392.53 188.88 418.99 209.1 425.04 207.51 442.05 194.1 442.05 194.1 442.05 194.1 442.75 193.55 442.75 190.09 436.56 190.09 434.4 184.91 434.4 171.23 429.21 157.7 431.81 156.12 431.69 148.41 426.41 148.41 423.46 150 422.38 149.2 412.3 150.29 408.99 152.44 407.47 152.44 403.3 154.65 403.17 154.65 404.74 165.04 400.13 165.04 400.13 168.78 383.38 176.42 383.38 179.78 383.38 181.89 383.77 182.18 383.77 181.46 383.77 182.18 392.53 188.88"/><polygon class="c" points="514.19 215.22 514.19 224.65 518.19 222.7 523.73 223.68 530.42 230.39 530.42 230.39 530.42 230.39 530.5 230.48 532.06 229.16 522.75 220.57 519.59 211.48 515.92 215.22 514.19 215.22"/><polygon class="c" points="530.42 230.39 528.84 232.76 528.84 236.05 532.32 235.73 534.83 233.08 532.73 229.78 532.06 229.16 530.5 230.48 530.42 230.39"/><polygon class="c" points="471.88 227.06 471.88 219.61 477.48 219.61 477.48 205 476.37 205 476.37 206.94 454.12 193.62 450.89 195.75 451.17 195.85 454.12 204.73 454.12 215.86 445.84 227.06 446.63 227.06 448.25 231.98 448.25 231.98 451.46 228.46 451.96 238.68 448.87 238.68 448.29 240.63 452.75 246.39 452.2 247.37 455.7 245.78 456.57 246.89 462.4 241.74 466.47 241.74 473.82 235.14 473.82 235.14 473.82 235.14 474.66 234.39 471.88 227.06"/><polygon class="c" points="479 198.49 479 205 477.48 205 477.48 219.61 471.88 219.61 471.88 227.06 474.66 234.39 473.82 235.14 477.23 238.54 477.23 242.79 486.96 252.52 486.96 254.99 497.31 259.01 505.04 259.01 506.84 257.21 507.3 256.75 512.86 256.75 512.86 252.53 506.43 246.1 503.55 246.1 503.55 243.51 506.91 243.51 514.19 229.65 514.19 225.22 514.19 224.65 514.19 215.22 515.92 215.22 519.59 211.48 519.58 211.45 515.65 210.01 514.59 199.16 510.46 196 509.15 193.28 503.94 198.49 479 198.49"/><polygon class="c" points="503.94 198.49 509.15 193.28 498.66 171.62 500 171.62 504.9 178.91 505.76 178.91 506.62 173.73 504.01 168.43 499.11 168.43 496.02 166.7 490.12 169.65 483.42 167.06 479 167.06 479 198.49 503.94 198.49"/><polygon class="c" points="370.33 194.08 373.69 194.08 373.69 185.34 383.77 185.34 383.77 182.18 383.38 181.89 383.38 179.78 371 179.78 365.43 189.09 362.17 192.16 360.59 196.52 358.72 198.4 358.72 200.99 370.33 200.99 370.33 194.08"/><polygon class="c" points="491.08 326.92 485.8 331.14 481.04 331.14 483.49 339.68 487.74 339.68 491.19 346.59 497.03 346.59 497.82 346.59 502.27 337.31 502.27 328.73 498.9 325.36 495.49 325.36 495.49 323.18 491.08 324.71 491.08 326.92"/><polygon class="c" points="494.77 275.07 491.59 280.83 492.6 280.83 494.98 280.83 494.98 279.68 497.53 279.68 497.53 276.43 494.77 276.43 494.77 275.07"/><polygon class="c" points="496.11 362.24 499.47 362.24 500.34 360.7 499.47 360.7 499.47 358.21 496.11 358.21 496.11 362.24"/><polygon class="c" points="371.96 223.35 371.96 220.19 373.69 220.19 390.77 220.19 390.77 189.09 392.53 188.88 383.77 182.18 383.77 185.34 373.69 185.34 373.69 194.08 370.33 194.08 370.33 200.99 358.72 200.99 358.72 201.66 359.96 203.96 359.96 217.02 366.3 217.02 371.96 223.35"/><polygon class="c" points="406.43 221.26 405.1 221.26 397.9 227.53 395.67 226.95 391.13 236.38 391.64 236.38 394.81 239.55 399.34 239.55 399.34 235.75 404.21 235.37 406.97 235.37 409.71 235.37 410.13 234.92 413.58 231.19 406.43 221.26"/><polygon class="c" points="494.98 280.83 492.6 280.83 494.45 286.13 497.53 282.6 497.53 279.68 494.98 279.68 494.98 280.83"/><polygon class="c" points="474.66 329.03 471.4 325.77 471.4 314.73 477.16 314.73 477.16 308.73 471.54 308.73 471.54 296.2 468.09 296.2 468.09 294.04 463.77 294.76 463.77 298.94 458.58 298.94 456.14 291.88 443.25 291.88 446.83 301.29 445.2 301.29 447.4 307.82 447.4 312.42 441.55 323.84 441.55 329.89 467.95 329.89 474.66 329.03"/><polygon class="c" points="442.14 279.5 448.25 279.5 448.25 273.31 447.52 272.57 447.52 270.9 449.49 268.93 447.82 267.26 445.66 267.26 445.66 264.24 440.48 264.24 440.48 268.7 435.82 268.7 432.91 275.09 439.56 284.92 442.14 283.21 442.14 279.5"/><polygon class="c" points="440.48 264.24 435.84 264.24 435.84 268.65 435.82 268.7 440.48 268.7 440.48 264.24"/><polygon class="c" points="373.69 229.88 373.69 228.75 373.69 220.19 371.96 220.19 371.96 223.35 366.3 217.02 359.96 217.02 359.96 218.94 358.72 222.39 358.72 229.88 367.67 229.88 373.69 229.88"/><polygon class="c" points="526.77 261.73 529.01 259.49 525.83 256.31 523.37 258.77 523.37 259.92 518.98 259.92 515.81 256.75 512.86 256.75 507.3 256.75 506.84 257.21 510.99 265.28 507.01 271.16 508.59 271.63 508.59 274.94 507.72 275.82 517.98 281.52 517.47 284.11 522.57 287.31 528.22 276.81 528.51 276.49 526.77 274.75 526.77 261.73"/><polygon class="c" points="445.66 264.24 454.12 264.24 454.12 261.58 449.66 251.86 452.2 247.37 452.75 246.39 448.29 240.63 448.87 238.68 451.96 238.68 451.46 228.46 448.25 231.98 448.25 231.98 448.87 233.86 440.59 250.49 438.43 248.11 435.19 248.11 431.98 256.01 432.5 256.01 435.84 259.35 435.84 264.24 440.48 264.24 445.66 264.24"/><polygon class="c" points="517.98 281.52 507.72 275.82 505.57 277.97 505.57 280.08 501.15 280.08 501.15 274.75 497.53 274.75 497.53 276.43 497.53 279.68 497.53 282.6 494.45 286.13 494.45 286.13 494.45 286.13 494.15 286.48 498.68 300.52 507.61 303.47 508.51 306.7 508.51 306.7 508.51 306.7 509.55 310.45 518.48 310.45 525.34 307.61 525.34 305.7 522.17 305.7 522.17 288.04 522.57 287.31 517.47 284.11 517.98 281.52"/><polygon class="c" points="509.55 310.45 508.51 306.7 507.32 313.12 508.51 318.01 511.21 318.01 511.21 325.21 509.26 328.67 506.24 324.57 508.08 322.73 508.08 319.6 504.87 319.6 503.26 318.18 495.2 321.16 496.07 322.98 495.49 323.18 495.49 325.36 498.9 325.36 502.27 328.73 502.27 337.31 497.82 346.59 497.03 346.59 499.47 352.35 499.47 358.21 499.47 360.7 500.34 360.7 501.25 360.7 501.25 356.87 508.3 352.26 508.3 340.21 525.34 323.17 525.34 307.61 518.48 310.45 509.55 310.45"/><polygon class="c" points="377.25 244.51 377.25 244.51 377.6 244.08 374.94 238.68 370.62 238.68 369.7 241.16 369.85 241.3 369.85 246.29 373.59 248.91 377.25 244.51 377.25 244.51"/><polygon class="c" points="383.07 249.12 383.07 246.32 377.25 244.51 373.59 248.91 385.16 257 385.95 252 383.07 249.12"/><polygon class="c" points="358.72 229.88 358.72 230.45 363.87 235.48 367.67 229.88 358.72 229.88"/><polygon class="c" points="404.21 235.37 399.34 235.75 399.34 239.55 400.38 239.55 400.38 244.77 398.76 246.39 398.76 254.9 401.72 255.99 409.56 251.67 406.97 235.37 404.21 235.37"/><path class="c" d="M414.24,230.48l-.65,.71-3.46,3.73-.42,.46,2.23,2.81s.29,8.65,.39,11.97l.04-.02h2.88v-8.06l3.24-5.18v-4.32l-4.25-2.09Z"/><path class="c" d="M409.71,235.37h-2.73l2.59,16.3,2.77-1.52c-.1-3.32-.39-11.97-.39-11.97l-2.23-2.81Z"/><polygon class="c" points="383.38 176.42 400.13 168.78 400.13 165.04 404.74 165.04 403.17 154.65 396.2 154.65 394.44 152.9 392.31 152.9 389.72 158.56 382.9 162.59 382.61 164.23 380.31 167.87 381.37 171.14 375.23 179.3 371.29 179.3 371 179.78 383.38 179.78 383.38 176.42"/><polygon class="c" points="457.72 365.89 457.72 367.18 462.47 367.9 465.11 366.39 465.11 345.15 468.33 345.15 468.33 332.68 474.57 331.14 481.19 331.64 481.04 331.14 480.13 331.14 480.13 330.9 480.13 329.6 475.24 329.6 474.66 329.03 467.95 329.89 441.55 329.89 441.55 331.52 449.8 348.42 454.03 366.75 454.03 366.75 455.08 366.75 455.14 366.86 456.33 364.88 457.72 365.89"/><polygon class="c" points="467.22 361.06 470.1 361.06 473.2 355.66 475.43 355.66 476.44 357.5 480.76 357.5 491.03 346.27 487.74 339.68 483.49 339.68 481.19 331.64 474.57 331.14 468.33 332.68 468.33 345.15 465.11 345.15 465.11 354.7 467.65 358.21 467.22 361.06"/><polygon class="c" points="500.34 360.7 499.47 362.24 496.11 362.24 496.11 358.21 499.47 358.21 499.47 352.35 497.03 346.59 491.19 346.59 491.03 346.27 480.76 357.5 476.44 357.5 475.43 355.66 473.2 355.66 470.1 361.06 467.22 361.06 467.65 358.21 465.11 354.7 465.11 366.39 462.47 367.9 457.72 367.18 457.72 365.89 456.33 364.88 455.14 366.86 460.17 376.83 460.17 381.15 458.06 381.15 464.01 387.1 483.06 382.73 501.25 364.54 501.25 360.7 500.34 360.7"/><polygon class="c" points="534.65 329.51 534.65 332.77 535.56 333.68 535.56 338.24 533.79 342.46 532.63 342.46 531.24 343.86 531.24 347.36 533.14 349.26 533.14 353.12 534.56 355.71 536.38 355.71 536.38 356.67 538.78 356.67 539.83 355.62 542.52 355.62 545.59 345.83 551.16 332.39 551.16 328.74 552.31 326.53 551.06 323.17 552.31 322.21 553.18 324.61 554.52 322.21 553.27 320.29 553.27 314.73 550.63 312.09 549.53 313.19 549.53 316.26 547.13 316.26 547.13 320.1 541.95 323.94 536.28 323.94 536.28 327.01 534.65 329.51"/><polygon class="c" points="411.31 220.29 417.25 220.29 420.14 217.4 420.14 208.8 418.99 209.1 392.53 188.88 390.77 189.09 390.77 220.19 373.69 220.19 373.69 228.75 381.06 228.75 383.58 236.38 391.13 236.38 395.67 226.95 397.9 227.53 405.1 221.26 406.43 221.26 406.83 221.82 409.78 221.82 411.31 220.29"/><polygon class="c" points="448.25 231.98 446.63 227.06 446.08 227.06 442.73 229.37 441.36 227.99 437.12 227.99 435.5 229.61 432.45 229.61 430.04 227.2 428.49 228.74 427.12 228.74 425.09 226.71 419.07 226.71 419.07 228.65 417.84 229.88 417.84 232.25 418.49 232.57 418.49 234.27 418.49 236.89 415.25 242.07 415.25 250.13 420.34 250.13 424.75 256.01 431.98 256.01 435.19 248.11 438.43 248.11 440.59 250.49 448.87 233.86 448.25 231.98"/><polygon class="c" points="454.12 215.86 454.12 204.73 451.17 195.85 450.89 195.75 446.4 194.1 442.05 194.1 425.04 207.51 420.14 208.8 420.14 217.4 417.25 220.29 411.31 220.29 409.78 221.82 406.83 221.82 413.58 231.19 414.24 230.48 417.84 232.25 417.84 229.88 419.07 228.65 419.07 226.71 425.09 226.71 427.12 228.74 428.49 228.74 430.04 227.2 432.45 229.61 435.5 229.61 437.12 227.99 441.36 227.99 442.73 229.37 446.08 227.06 445.84 227.06 454.12 215.86"/><polygon class="c" points="383.58 236.38 381.06 228.75 373.69 228.75 373.69 229.88 367.67 229.88 363.87 235.48 369.7 241.16 370.62 238.68 374.94 238.68 377.6 244.08 377.25 244.51 382.04 246 384.05 236.38 383.58 236.38"/><polygon class="c" points="399.34 239.55 394.81 239.55 391.64 236.38 391.13 236.38 384.05 236.38 382.04 246 383.07 246.32 383.07 249.12 385.95 252 385.16 257 385.49 257.23 389.24 254.26 397.01 254.26 398.76 254.9 398.76 246.39 400.38 244.77 400.38 239.55 399.34 239.55"/><polygon class="c" points="436.51 168.26 438.38 168.26 438.38 165.52 440.2 165.52 440.2 161.35 439.81 161.18 436.27 159.64 436.27 158.28 439.29 155.25 439.29 152.8 437.78 152.8 437.78 151.15 439.29 149.64 439.29 148.56 437.06 149.28 437.06 147.62 434.61 147.62 433.46 148.41 431.69 148.41 431.81 156.12 429.21 157.7 434.32 171.04 436.51 171.04 436.51 168.26"/><polygon class="c" points="478.67 167.06 478.67 165.04 473.56 165.04 473.56 163.39 469.96 162.09 463.98 164.9 463.98 166.7 465.17 168.75 462.4 171.52 451.39 167.49 451.39 164.75 446.28 162.96 443.9 162.96 440.2 161.35 440.2 165.52 438.38 165.52 438.38 168.26 436.51 168.26 436.51 171.04 434.32 171.04 434.4 171.23 434.4 184.91 436.56 190.09 442.75 190.09 442.75 193.55 442.05 194.1 446.4 194.1 450.89 195.75 454.12 193.62 476.37 206.94 476.37 205 477.48 205 479 205 479 198.49 479 167.06 478.67 167.06"/><polygon class="c" points="538.45 254.92 548.06 245.31 545.4 245.31 536.43 241.47 532.06 237.1 532.06 235.76 528.84 236.05 528.84 232.76 530.42 230.39 523.73 223.68 518.19 222.7 514.19 224.65 514.19 225.22 514.19 229.65 506.91 243.51 503.55 243.51 503.55 246.1 506.43 246.1 512.86 252.53 512.86 256.75 515.81 256.75 518.98 259.92 523.37 259.92 523.37 258.77 525.83 256.31 528.31 258.8 535.83 254.92 538.45 254.92"/><polygon class="c" points="537.44 237.17 534.83 233.08 532.32 235.73 532.06 235.76 532.06 237.1 536.43 241.47 545.4 245.31 548.06 245.31 538.45 254.92 535.83 254.92 528.31 258.8 529.01 259.49 526.77 261.73 526.77 274.75 528.51 276.49 549.72 253.3 556.25 237.17 556.25 232.09 537.44 237.17"/><polygon class="c" points="498.81 264.66 494.75 268.72 493.99 276.49 494.77 275.07 494.77 276.43 497.53 276.43 497.53 274.75 501.15 274.75 501.15 271.44 505.52 270.72 507.01 271.16 510.99 265.28 506.84 257.21 505.04 259.01 497.53 259.01 497.53 263.38 498.81 264.66"/><polygon class="c" points="446.73 287.66 448.87 286.13 448.87 287.66 450.95 287.66 454.65 283.97 454.65 278.73 459.35 274.03 459.35 269.23 459.35 259.92 455.56 259.92 455.56 263.66 454.12 263.66 454.12 264.24 445.66 264.24 445.66 267.26 447.82 267.26 449.49 268.93 447.52 270.9 447.52 272.57 448.25 273.31 448.25 279.5 442.14 279.5 442.14 283.21 439.56 284.92 441.93 288.43 442 288.6 445.29 286.13 446.73 287.66"/><polygon class="c" points="508.51 318.01 507.32 313.12 508.51 306.7 507.61 303.47 504.03 302.29 504.03 313.09 502.08 318.62 503.26 318.18 504.87 319.6 508.08 319.6 508.08 322.73 506.24 324.57 509.26 328.67 511.21 325.21 511.21 318.01 508.51 318.01"/><polygon class="c" points="498.68 300.52 498.13 298.82 492.03 299.51 492.03 300.62 489.97 302.68 490.93 303.64 490.93 306.95 489.92 309.11 489.92 310.51 491.66 312.24 494.53 312.24 494.53 316.43 492.15 316.43 488.34 312.62 487.52 310 485.75 310 485.75 311.94 481.43 310.89 481.43 309.78 478.88 309.78 478.88 308.82 477.73 308.06 477.12 308.73 477.16 308.73 477.16 314.73 471.4 314.73 471.4 325.77 474.66 329.03 475.24 329.6 480.13 329.6 480.13 330.9 480.13 331.14 481.04 331.14 485.8 331.14 491.08 326.92 491.08 324.71 495.49 323.18 496.07 322.98 495.2 321.16 502.08 318.62 504.03 313.09 504.03 302.29 498.68 300.52"/><polygon class="c" points="461 256.31 464.51 255.17 465.67 257.21 473.19 259.01 473.69 256.31 475.51 256.65 483.53 254.75 486.96 254.75 486.96 252.52 477.23 242.79 477.23 238.54 473.82 235.14 466.47 241.74 462.4 241.74 456.57 246.89 455.7 245.78 452.2 247.37 449.66 251.86 454.12 261.58 454.12 263.66 455.56 263.66 455.56 259.92 459.35 259.92 459.35 259.92 461 258.14 461 256.31"/><polygon class="c" points="492.03 299.51 498.13 298.82 494.15 286.48 494.45 286.13 492.6 280.83 491.59 280.83 493.99 276.49 494.75 268.72 498.81 264.66 497.53 263.38 497.53 259.01 497.31 259.01 486.96 254.99 486.96 254.75 483.53 254.75 475.51 256.65 473.69 256.31 473.19 259.01 465.67 257.21 464.51 255.17 461 256.31 461 258.14 459.35 259.92 459.35 269.23 459.35 274.03 454.65 278.73 454.65 283.97 450.95 287.66 448.87 287.66 448.87 286.13 446.73 287.66 445.29 286.13 442 288.6 442.08 288.81 443.25 291.88 456.14 291.88 458.58 298.94 463.77 298.94 463.77 294.76 468.09 294.04 468.09 296.2 471.54 296.2 471.54 308.73 477.12 308.73 477.73 308.06 478.88 308.82 478.88 309.78 481.43 309.78 481.43 310.89 485.75 311.94 485.75 310 487.52 310 488.34 312.62 492.15 316.43 494.53 316.43 494.53 312.24 491.66 312.24 489.92 310.51 489.92 309.11 490.93 306.95 490.93 303.64 489.97 302.68 492.03 300.62 492.03 299.51"/><polygon class="c" points="361.21 58.74 364.67 63.92 372.34 65.46 384.44 58.74 380.79 55.67 368.5 58.17 366.39 55.67 361.21 58.74"/><polygon class="c" points="300.74 71.8 307.46 71.8 307.46 75.25 312.64 75.25 328.1 59.8 334.14 59.8 344.37 49.57 367.35 45.88 370.81 45.88 370.81 36.86 378.1 29.56 378.1 20.35 388.47 20.35 397.78 17.47 397.78 15.93 380.41 15.93 374.65 11.71 353.34 11.71 325.89 14.97 312.64 15.36 297.48 21.31 288.26 21.31 282.17 27.4 285 29.95 302.85 29.95 302.85 41.66 307.65 41.66 307.65 44.34 300.74 44.34 300.74 47.61 305.73 47.61 304.1 49.24 300.36 49.24 296.71 54.52 300.74 71.8"/><g><polygon class="c" points="164.74 198.01 166.32 199.02 171.36 196.86 174.96 196.86 174.06 197.76 177.26 197.76 181 200.89 181 202.91 185.18 202.91 185.18 204.63 183.6 204.63 183.6 206.08 190.36 206.08 194.11 204.92 194.11 203.48 190.22 203.48 190.22 201.47 187.34 201.47 182.52 196.64 179.42 196.64 179.42 195.57 176.25 194.56 171.36 194.56 164.74 198.01"/><polygon class="c" points="169.88 199.05 171.01 198.01 172.25 198.85 171.06 199.86 169.88 199.05"/></g><polygon class="c" points="181.51 209.82 180.79 211.04 182.73 212.48 186.84 212.48 187.12 211.15 184.32 209.82 181.51 209.82"/><polygon class="c" points="213.62 210.25 213.62 212.19 217.07 212.19 217.93 211.22 217.93 210.25 213.62 210.25"/><polygon class="c" points="258.46 441.04 261.41 441.04 262.21 441.83 260.33 444.28 258.46 443.27 258.46 441.04"/><polygon class="c" points="262.85 442.05 261.2 445 263.14 445 265.09 443.52 266.16 443.52 266.16 442.05 262.85 442.05"/><g><polygon class="c" points="284.81 21.21 308.13 16.17 309 14.16 292.15 13.15 256.16 15.17 256.16 17.18 259.76 19.2 258.75 21.21 252.42 17.18 242.05 19.63 242.05 23.66 250.4 25.24 250.4 26.83 243.2 26.83 243.2 29.28 261.77 30 268.11 28.12 268.11 24.96 279.77 20.78 284.81 21.21"/><polygon class="c" points="222.04 21.57 224.82 25.82 239.6 25.82 239.6 23.7 236.63 22.56 232.02 23.04 227.6 23.04 222.04 21.57"/><polygon class="c" points="231.83 27.93 231.83 29.18 236.34 29.18 236.34 30.91 234.52 31.77 234.52 33.59 257.93 33.59 259.85 31.29 252.56 30.76 249.3 31.2 242.05 31.2 242.05 27.07 231.83 27.93"/><polygon class="c" points="177.5 30 195.55 25.82 199 30.81 203.03 30.33 203.03 28.32 209.46 28.32 209.46 31.87 191.71 34.84 177.5 30"/><polygon class="c" points="214.93 28.12 214.93 31 218.58 31 218.58 32.25 225.11 32.25 228.28 33.59 232.4 31.48 227.8 31.48 227.8 28.12 214.93 28.12"/><polygon class="c" points="239.6 35.23 228.47 41.66 228.47 44.34 234.03 44.34 234.03 45.69 249.01 45.69 251.5 44.92 258.03 51.45 244.4 59.03 239.99 59.03 239.99 61.72 249.1 61.72 253.52 66.13 262.35 66.13 267.48 61 264.37 57.88 267.72 54.52 272.91 59.7 279.48 53.13 270.51 48.76 274.06 46.17 260.91 35.71 239.6 35.23"/><path class="c" d="M206.63,37.92s1.77,4.17,2.83,4.17,9.55-3.17,9.55-3.17l2.02-5.33-14.4,4.32Z"/><polygon class="c" points="157.97 39.64 160.85 42.09 166.46 42.09 173.09 39.64 173.09 40.87 171.03 42.92 169.2 42.92 169.2 43.67 177.5 43.67 179.83 46 169.63 46 169.63 47.27 173.66 47.27 173.66 47.99 172.44 49.22 172.44 49.94 177.5 49.94 189.28 47.06 189.28 48.06 193.48 49.5 197.42 49.07 198.79 46.55 201.74 47.06 203.03 45.62 198.21 42.81 200.23 41.44 201.16 38.13 205.48 36.91 205.48 35.47 197.13 36.62 194.47 40.94 193.1 40.58 193.96 38.49 191.52 37.27 185.4 37.41 182.08 34.1 176.4 34.1 175.86 33.56 167.18 33.56 167.18 35.61 157.97 39.64"/><polygon class="c" points="220.45 61.6 220.45 62.53 216.57 63.69 216.57 64.41 220.09 64.41 220.09 65.34 222.04 65.34 226.57 62.68 229.81 64.84 232.62 63.47 230.6 61.6 230.82 60.88 226.86 57.71 224.84 57.71 220.45 61.6"/><polygon class="c" points="221.39 67.57 221.39 68.65 223.77 68.65 227.29 66.71 227.29 65.7 223.84 66.13 221.39 67.57"/><polygon class="c" points="228.47 69.16 230.1 67.57 231.97 67.57 231.97 68.36 230.22 70.09 228.47 69.16"/><polygon class="c" points="246.51 106.66 248.06 108.21 248.06 108.89 251.12 110.12 253.21 109.76 253.21 108.39 249.46 106.66 246.51 106.66"/><polygon class="c" points="257.45 113.07 267.86 102.67 271.71 101.48 271.71 102.49 267.06 107.13 269.19 107.13 269.19 108.39 273.94 108.39 273.94 109.54 272.5 109.54 272.5 110.98 274.88 110.98 274.88 114 272.03 116.85 270.05 116.85 271.73 115.17 270.59 114.04 267.6 117.03 265.16 117.03 265.16 115.59 266.88 115.59 268.07 114.4 265.73 114.4 265.73 113.79 257.45 113.79 257.45 113.07"/><polygon class="c" points="243.13 116.85 246.15 119.01 248.42 117.93 248.42 117.32 245.78 117.32 244.5 116.56 244.5 115.8 243.31 115.8 243.13 116.85"/><path class="c" d="M270.8,94.35l-.58-1.92-5.95-3.36v-1.73l-.86-.86,1.63-2.02-1.92-10.75h-1.44l-5.57,5.57h-1.25l-3.65,1.15-2.4-3.07,3.26-4.51-1.29-1.3h-3.12v-2.54l-3.27-2.02-2.21,1.06h-2.59l-3.07-1.44-2.88,1.63v2.11l-2.3,1.83v3.07l-4.46,4.46,1.92,1.92v3.02l-3.29,3.29-9.05,3.62v2.02l-1.82,5.57-2.98,2.49h-2.88v-1.25l-1.2-1.2v-2.35l2.45,.87,.57-1.63-2.21-1.44v-2.4l2.5-1.63v-1.15h-6.72l-1.2-1.2-4.85-3.21-3.74-1.73h-4.03l1.54-4.42h-2.97v-1.63l3.74-3.74,10.65-7.39h4.61v-1.83h2.5l1.25-2.01h4.22l4.7-2.4,.43-1.15,3.89-2.21v-1.34h3.55v1.15l1.63,1.92,.96-1.92,6.05-2.21,1.73-2.11v-2.3h2.98v-2.69h-7.49v1.82l-9.12,3.84-1.06-1.05,2.64-2.64-1.63-1.63-2.74,2.73-1.39-2.3v-1.82s1.87,.67,1.87,0v-5.09l3.17-2.4h3.26l5.66-2.88v-.77h-9.07l-4.9,5.38-9.5,4.75,4.03,2.16v2.88h-6.09v-4.03h-2.83l-4.73,4.73h-9.81l-3.89-1.85-10.7,4.18h-11.18v-2.35h2.88v-2.4l-12.24-2.74-9.5-1.61-22.6,4.34-7.67-1.68-33.19,28.81,3.34,3.34v2.07l-2.36,2.59v7.34h3.46l1.15-2.02h1.58v3.74l-2.3,2.59,1.44,3.6-1.44,3.74h-3.17v3.45l4.9,4.9-.22,.43,4.83,1.73v-3.02h71.41l10.29,3.63,2.95-1.18,.43,.79,4.75-2.95h4.03v2.66h1.94v3.67l.86,3.45h7.34l1.01,1.01v1.94l-1.91,1.91-1.18-1.18-1.37,1.37h-1.07l-3.66,3.66h-.39l-.73,2.52,3.91-1.37,4.9-1.51,1.51-2.59,7.41-.72v.78l5.33-3.32h9.5l7.9-7.89h3.91v1.94l-1.49,3.07,.85,1.99,6.26-1.03v1.35l-5.47,3.17,1.34,2.78,6.91-3.93,7.68-2.21v-.96h2.11l1.73-2.02-1.25-.77,.86-1.44-1.15-.77-3.36,2.98-.1,1.25h-3.65l-3.45-2.01v-2.88l4.7-4.13v-1.92h-4.32l-11.9,4.89v-1.54l8.83-3.65v-2.02l1.92-1.92h16.99l6.34-2.49,3.26-.29,3.55-2.21,2.11-4.51-2.78-.96Zm-127.47-34.7l7.09-2.43-4.93-2.18,12.18-.37-3.97,2.43,4.46,2.2-6.16,.71-1.96-.1-4.68,.76-4.95,2.01,2.87-2.36,.05-.65Zm19.82,7.92l-13.82,4.75h-7.34v-1.44l7.05-2.23,.14-2.52,4.03,2.52,9.93-2.95v1.87Zm5.62,34.55l-2.3,3.74-.65-1.01,1.37-2.3v-2.31l-.81-1.06-.56-6.75,3.42-1.25-.46,10.93Z"/></g><g><polygon class="c" points="83.82 75.24 83.99 75.41 117.18 46.6 92.03 41.08 65.54 49 59.35 49 56.75 50.15 60.36 55.05 60.36 57.06 54.31 57.06 54.31 54.76 48.98 54.76 42.36 57.06 42.36 61.81 53.59 60.23 53.59 63.4 31.13 69.73 31.13 71.89 27.82 72.9 27.82 75.35 33.29 75.35 33.29 76.93 30.05 80.17 32.28 80.17 38.18 80.17 34.44 82.4 -1.12 93.78 -1.12 95.07 19.18 90.18 19.18 91.33 22.35 91.33 22.35 88.74 39.19 82.98 49.99 78.51 49.99 76.64 59.92 72.61 59.92 73.91 54.88 76.5 54.88 77.8 62.95 75.2 67.12 75.2 69.35 72.97 73.46 72.97 75.72 75.24 83.82 75.24"/><polygon class="c" points="234.27 114.58 230.36 114.58 222.47 122.47 212.97 122.47 207.64 125.8 207.64 127.61 200.23 127.61 200.23 129.77 190.22 134.66 186.62 134.66 186.62 132.36 189.91 131.21 190.64 128.69 190.39 128.69 190.39 125.68 188.32 127.75 188.32 127.01 191.03 124.3 191.03 121.62 189.28 119.87 187.95 119.87 185.18 122.64 184.55 122.01 180.18 126.39 180.18 128.8 176.61 132.36 174.45 132.36 174.45 127.9 182.8 119.55 190.87 119.55 190.87 117.89 189.28 117.89 183.81 117.89 182.52 116.6 182.52 114.72 175.82 117.6 174.53 117.6 174.53 116.45 171 117.03 171 115.88 176.9 113.53 166.61 109.9 95.2 109.9 95.2 112.92 90.37 111.19 87.13 117.53 73.6 136.82 73.6 157.41 79.86 163.67 79.86 163.89 88.14 163.89 97.36 168.21 105.42 168.21 105.42 166.05 110.75 166.05 114.23 169.53 114.23 173.34 116.64 175.76 119.24 173.15 123.17 173.15 125.24 175.22 125.24 184.29 131.33 186.3 131.43 186.01 131.43 181.02 135.56 176.9 146.02 172.58 151.59 175.26 154.66 173.73 156.19 174.88 157.15 174.02 155.62 172.1 158.59 170.95 166.46 170.95 168.14 172.63 170.21 172.63 171.05 171.79 172.89 171.79 175.4 174.29 175.4 176.8 173.19 179.01 173.19 182.94 176.64 188.51 178.37 188.51 180.48 182.37 180.48 176.32 178.56 171.33 183.45 164.32 184.6 164.32 189.79 159.14 192.57 159.14 194.87 156.84 198.04 156.84 198.04 154.05 199.87 152.23 199.87 145.51 201.21 144.17 202.26 145.41 201.4 147.05 202.26 147.43 205.72 143.88 205.43 141.67 206.87 141.67 211 137.54 211 135.53 220.6 133.8 220.6 131.02 221.65 131.02 221.65 128.81 225.59 125.93 232.88 123.24 232.88 121.71 233.63 121.58 232.79 119.59 234.27 116.52 234.27 114.58"/></g><path class="c" d="M199.72,206.08l-1.87-.86-2.23,.86-.07,.65,2.45,.22-.14,2.88h-5.69v1.33l1.85,1.85,1.46-1.85h3.89l.24,.24,1.59-5.66-1.46,.34Z"/><polygon class="c" points="209.08 208.38 206.99 208.38 203.39 205.21 201.18 205.73 199.6 211.39 201.04 212.83 202.1 212.83 202.1 210.54 203.68 210.54 203.68 211.41 205.84 211.41 205.84 210.47 209.08 211.41 210.37 209.82 209.08 208.38"/><path class="c" d="M148.06,223.31h0l3.94-3.96h-1.76v-.81l-.73,.46h-1.04l.97-6.51h-6.44v2.02l2.23,2.23v1.73h-4.61s-1.07,2.72-1.75,4.49l5.71,3.57h.28l3.2-3.21h0Z"/><path class="c" d="M145.23,218.46v-1.73l-2.23-2.23v-2.02h6.84l3.17-3.17,1.6,1.6,1.4-3.59v-2.5l2.59-2.59,.1-2.11h-5.09l-6.24,1.25v4.13l-3.36,3.46h-4.13v1.25l-4.99,.96-.86-.86h-2.98l-3.26-10.27v-3.94l3.54-9.79-6.08-2.02v-9.06l-2.07-2.07h-3.93l-2.6,2.6-2.41-2.41v-3.81l-3.48-3.48h-5.33v2.16h-8.06l-9.21-4.32h-8.28v8.93l4.43,4.43v2.48h-3.64v1.44l6.05,6.05-2.02,2.02,6.19,6.19v1.44h3.02v-4.75l-2.95-2.95v-4.25l-3.38-8.93-2.3-4.03v-5.33l6.33,3.02v5.18l5.9,8.49-1.44,1.87,9.36,11.66v6.62h-2.3v2.02l5.4,5.4h4.82l14.11,9,5.47-2.88,5.9,5.9,.05,.03c.68-1.77,1.75-4.49,1.75-4.49h4.61Z"/><polygon class="c" points="149.83 212.48 149.44 212.48 148.47 219 149.51 219 150.24 218.54 150.24 217.59 153.12 214.71 154.6 210.91 153 209.31 149.83 212.48"/><polygon class="c" points="162.91 235.83 162.91 231.22 164.54 230.45 164.54 225.56 165.74 224.36 165.74 222.78 160.49 222.78 155.02 225.94 155.02 228.86 152.5 228.86 152.5 230.26 157.3 235.07 163.02 235.93 162.91 235.83"/><path class="c" d="M148.06,223.31l-3.2,3.21h7.2v-1.15l-4.01-2.06Z"/><path class="c" d="M155.02,225.94l5.47-3.17h5.26v-2.11l-1.32-1.32h-12.42l-3.94,3.96,4.01,2.06v1.15h.43v2.34h2.52v-2.91Z"/><polygon class="c" points="163.02 235.93 157.3 235.07 157.47 235.23 157.47 239.04 161.89 243.47 161.89 244.66 164.47 247.23 164.47 245.14 165.32 245.14 165.88 238.76 163.02 235.93"/><polygon class="c" points="181.96 243.27 178.7 240 175.1 239.77 169.92 242.74 165.88 238.76 165.32 245.14 167.71 245.14 167.71 247.23 173.37 247.23 173.37 244.37 175.73 242.02 178.32 244.61 177.31 245.62 179.5 247.81 181.96 245.38 181.96 243.27"/><polygon class="c" points="174.24 286.51 175.87 288.62 178.27 281.9 185.76 278.73 185.76 272.21 175.22 265.27 174.53 265.97 174.53 267.41 172.03 268.56 172.03 271.44 169.05 274.41 169.05 279.5 171.89 282.33 171.89 283.15 171.12 283.92 171.45 286.41 174.24 286.51"/><polygon class="c" points="192.88 279.86 198.57 278.92 201.45 280.58 199.87 284.25 202.43 284.8 203.9 275.04 201.3 272.45 201.3 269.78 204.4 269.78 204.4 268.13 202.38 268.13 202.38 265.97 210.37 265.97 208.65 262.37 208.65 250.78 203.9 250.78 201.63 248.51 196.12 248.51 194.61 241.49 193.03 241.49 195.11 235.44 197.46 234.12 197.37 233.81 200.54 231.61 199.19 229.69 193.34 234.29 189.21 234.29 186.28 237.22 186.28 239.86 182.42 243.72 181.96 243.27 181.96 245.38 179.5 247.81 181.15 249.46 181.15 252.82 180.38 253.59 180.38 260.11 175.22 265.27 185.76 272.21 185.76 273.05 192.09 276.12 192.88 279.86"/><polygon class="c" points="205.86 323.08 207.06 318.66 207.26 313 204.57 308.01 201.21 308.01 201.21 304.07 195.74 304.07 189.45 297.79 193.05 293.51 193.05 288.62 199.67 285.93 202.26 285.93 202.43 284.8 199.87 284.25 201.45 280.58 198.57 278.92 192.88 279.86 192.09 276.12 185.76 273.05 185.76 278.73 178.27 281.9 175.87 288.62 174.24 286.51 171.45 286.41 171.12 283.92 168.79 286.24 168.79 288.33 170.99 290.53 170.99 291.4 169.44 291.4 169.44 292.56 173.85 295.05 176.06 299.37 185.66 316.26 185.66 318.85 200.44 328.55 200.44 330.47 204.27 332.8 206.97 330.18 206.2 328.84 208.31 325.77 205.86 323.08"/><polygon class="c" points="230.24 246.92 230.24 248.11 228.08 248.11 228.08 252.34 230.2 254.45 230.2 254.85 231.54 254.67 232.62 258.77 230.75 260.64 230.75 264.02 231.92 264.02 231.92 265.82 234.71 267.84 238.99 265.54 238.99 260.6 237.3 258.91 237.3 255.1 239.82 255.1 239.82 251.58 232.69 243.7 231.92 243.7 231.92 245.24 230.24 246.92"/><polygon class="c" points="237.3 255.1 237.3 258.91 238.99 260.6 238.99 265.54 242.62 265.73 242.62 264 245.7 263.18 246.95 264.29 248.89 261.07 248.89 259.2 247.62 258.19 247.62 254.4 249.06 254.02 249.8 252.57 247.47 251.76 239.99 251.76 239.82 251.58 239.82 255.1 237.3 255.1"/><polygon class="c" points="216.33 270.62 221.27 265.68 221.27 263.76 219.06 263.76 219.06 260.4 217.43 258.48 223.38 258.48 230.2 256.56 230.2 254.85 230.2 254.45 228.08 252.34 228.08 248.11 230.24 248.11 230.24 246.92 231.92 245.24 231.92 243.7 229.24 243.7 229.24 240.15 224.77 235.69 220.41 235.69 218.56 237.53 215.41 237.53 214.28 236.39 208.22 236.39 208.22 234.2 204.57 234.2 203.7 231.32 202.46 231.32 202.46 233.62 199.29 236.12 200.92 238.23 200.44 241.49 199 241.97 196.89 239.09 198.14 236.5 197.46 234.12 195.11 235.44 193.03 241.49 194.61 241.49 196.12 248.51 201.63 248.51 203.9 250.78 208.65 250.78 208.65 262.37 210.37 265.97 210.14 265.97 210.14 270.62 216.33 270.62"/><polygon class="c" points="249.44 264.05 252.46 264.29 256.29 257.31 252.46 253.49 249.8 252.57 249.06 254.02 247.62 254.4 247.62 258.19 248.89 259.2 248.89 261.07 247.26 263.76 248.67 264.72 249.44 264.05"/><polygon class="c" points="303.72 288.62 299.4 288.62 291.19 280.41 284.23 280.41 280.2 279.5 276.55 282.19 276.55 278.54 268.3 274.03 265.71 276.62 263.98 276.62 266 272.69 266 271.54 260.24 271.54 258.22 274.03 257.07 273.17 260.81 268.27 260.81 265.3 258.89 265.3 257.17 258.19 256.6 257.63 256.29 257.31 252.46 264.29 249.44 264.05 248.67 264.72 247.26 263.76 246.95 264.29 245.7 263.18 242.62 264 242.62 265.73 238.99 265.54 234.71 267.84 231.92 265.82 231.92 264.02 230.75 264.02 230.75 260.64 232.62 258.77 231.54 254.67 230.2 254.85 230.2 256.56 223.38 258.48 217.43 258.48 219.06 260.4 219.06 263.76 221.27 263.76 221.27 265.68 216.33 270.62 210.14 270.62 210.14 265.97 202.38 265.97 202.38 268.13 204.4 268.13 204.4 269.78 201.3 269.78 201.3 272.45 203.9 275.04 202.26 285.93 199.67 285.93 193.05 288.62 193.05 293.51 189.45 297.79 195.74 304.07 201.21 304.07 201.21 308.01 204.57 308.01 204.76 308.36 207.83 308.63 208.6 307.19 209.7 307.19 212.87 304.03 216.61 304.03 216.61 310.02 220.48 313.89 222.95 313.89 226.49 317.43 229.91 317.43 231.32 318.84 231.32 325.96 238.64 325.96 238.64 329.36 240.27 329.36 241.57 332.24 239.89 337.52 241.57 341.5 241.57 345.01 247.62 345.01 249.39 351.68 252.75 351.68 252.75 356.86 255.34 356.86 255.34 361.66 245.94 371.07 260.14 380.28 261.03 384.81 262.42 383.42 262.42 378.46 266.61 374.27 266.61 370.2 270.81 366 270.81 363.49 269.51 362.18 269.51 356.1 270.81 356.1 279.2 347.71 287.79 347.71 287.79 346.02 290.09 346.02 293.35 336.8 293.35 332.2 294.31 332.2 294.31 314.73 295.94 314.73 299.59 307.72 301.61 307.72 305.78 303.55 305.78 294.48 303.72 288.62"/><polygon class="c" points="210.23 336.23 210.59 341.2 213.18 347.96 215.2 347.96 215.99 347.96 218.36 344.58 228.23 345.44 228.23 337.02 237.15 335.58 240.03 337.06 241.57 332.24 240.27 329.36 238.64 329.36 238.64 325.96 231.32 325.96 231.32 318.84 229.91 317.43 226.49 317.43 222.95 313.89 220.48 313.89 216.61 310.02 216.61 304.03 212.87 304.03 209.7 307.19 208.6 307.19 207.83 308.63 204.76 308.36 207.26 313 207.06 318.66 205.86 323.08 208.31 325.77 206.2 328.84 206.97 330.18 206.36 330.77 208.31 335.22 210.23 336.23"/><polygon class="c" points="252.22 388.39 257.45 388.39 261.03 384.81 260.14 380.28 246.9 371.69 245.58 373.23 247.47 384.32 247.81 383.98 252.22 388.39"/><polygon class="c" points="244.02 355.52 241.57 362.33 249.39 363.1 252.56 360.13 253.02 356.86 252.75 356.86 252.75 351.68 249.39 351.68 247.62 345.01 241.57 345.01 241.57 341.5 239.89 337.52 240.03 337.06 237.15 335.58 228.23 337.02 228.23 345.41 232.6 350.24 244.02 355.52"/><path class="c" d="M239.75,445.93h-2.3l-.36-1.65-7.28-.76-1.58-4.36-5.33-3.31,1.59-3.6-1.3-13.54h-2.3l-5.62-10.51v-23.4l-4.03-7.7v-6.91l2.16-8.06v-7.34l2.59-2.59v-4.25h-2.81l-2.59-6.76-.36-4.97-1.92-1.01-1.95-4.44-2.09,2.03,.11,.06,1.73,9.21v25.53l1.49,1.49v2.35l-1.18,1.17v1.8l2.76,5.95s.38,13.05,0,13.44c-.38,.39-1.54,0-1.54,0v1.63l2.88,6.33v6.34l1.35,1.34v6.24h2.21v-5.66l1.06,.77,2.49,11.8h-1.25l-1.15-3.26-1.73-.19,1.06,4.03-1.34,2.78,1.34,1.73h3.36v2.59h-2.21l4.41,9.6h1.92v2.11l4.7,5.09,4.13,2.97,11.93,3.85,.62-1.57-3.67-6.41Z"/><polygon class="c" points="255.34 356.86 253.02 356.86 252.56 360.13 249.39 363.1 241.57 362.33 244.02 355.52 232.6 350.24 228.23 345.41 228.23 345.44 218.36 344.58 215.99 347.96 215.99 352.21 213.4 354.8 213.4 362.14 211.24 370.2 211.24 377.12 215.27 384.81 215.27 408.21 220.89 418.72 223.19 418.72 224.48 432.26 222.9 435.86 228.23 439.17 229.81 443.52 237.08 444.28 237.44 445.93 239.75 445.93 243.42 452.34 242.8 453.91 245.74 454.86 251.89 453.13 251.89 451.79 249.49 451.79 239.89 445.26 237.97 445.26 237.97 444.11 238.74 443.34 235.86 438.54 235.86 437.3 237.97 437.3 237.97 433.84 241.09 430.72 241.09 427.79 237.3 427.79 234.13 424.63 234.13 421.65 237.39 421.65 237.39 414.84 239.31 414.84 239.31 411.48 235.95 411.48 233.03 408.55 233.03 406.49 239.03 408.69 241.52 406.2 241.52 402.65 239.94 401.06 239.94 399.19 242.12 401.37 252.37 398.14 252.37 396.02 253.57 394.82 253.57 391.99 250.93 391.99 250.93 389.11 246.8 384.99 247.47 384.32 245.58 373.23 246.9 371.69 245.94 371.07 255.34 361.66 255.34 356.86"/><polygon class="c" points="138.18 267.73 139.31 266.09 140.76 267.33 139.47 268.54 138.18 267.73"/><polygon class="c" points="140.76 268.15 142.35 272.55 140.88 273.78 138.54 273.92 138.02 271.74 140.18 270.25 139.96 268.72 140.76 268.15"/><polygon class="c" points="141.64 268.03 141.99 269.19 143.41 268.54 143.01 267.13 141.64 268.03"/><polygon class="c" points="143.27 269.85 142.94 270.85 143.69 271.03 144.07 269.97 143.27 269.85"/><polygon class="c" points="392.04 90.8 391.04 90.8 390.31 91.53 388.94 90.6 391.54 88.21 388.36 88.21 388.36 89.93 387.26 91.04 383.89 91.04 383.89 93.08 385.13 94.32 381.08 98.37 382.65 99.95 386.68 99.95 389.47 97.16 392.22 97.16 393.24 94.08 393.24 92.15 393.86 91.53 392.04 91.53 392.04 90.8"/><g><polygon class="c" points="393.86 91.53 395.67 89.71 394.17 88.21 391.54 88.21 388.94 90.6 390.31 91.53 391.04 90.8 392.04 90.8 392.04 91.53 393.86 91.53"/><polygon class="c" points="411.18 96.09 410.56 94.08 409.58 95.12 407.28 95.12 408.34 93.52 406.22 89.56 405.4 89.56 403.62 87.79 401.65 85.81 401.65 84.62 403.91 82.36 403.91 81.56 399.13 81.56 401.08 79.61 401.08 78.64 398.51 78.64 396.38 80.76 394.43 80.76 394.43 83.42 393.64 84.22 393.64 86.26 393.1 86.26 393.99 87.14 394.52 86.61 394.52 87.72 395.54 87.72 396.65 86.61 397.22 87.19 396.07 88.34 396.83 89.09 399.66 89.09 400.01 91.75 400.01 94.08 396.29 94.08 396.65 95.47 396.65 97.42 395.05 97.42 395.05 98.48 396.56 98.48 398.24 99.02 400.64 98.48 399.31 99.79 396.85 99.79 393.1 103.54 394.26 103.54 397.31 102.43 398.51 101.23 400.1 101.23 400.99 102.12 408.25 101.14 409.85 99.46 408.52 99.46 411.18 96.09"/><polygon class="c" points="392.31 81.29 394.26 79.7 391.69 79.26 391.69 80.59 390.8 80.85 391.69 83.16 392.31 81.29"/><polygon class="c" points="402.94 76.42 401.26 76.42 401.26 77.75 402.1 77.75 402.94 76.42"/></g></g></svg>